<svg id="Capa_1" enable-background="new 0 0 510.583 510.583" height="512" viewBox="0 0 510.583 510.583" width="512" xmlns="http://www.w3.org/2000/svg"><path d="m459.339 88.619h-37.942v-44.024c0-6.713-5.461-12.175-12.175-12.175h-17.825v-22.571c0-5.431-4.418-9.849-9.85-9.849h-45.972c-4.142 0-7.5 3.358-7.5 7.5s3.358 7.5 7.5 7.5h40.821v248.211h-100.158c-7.414 0-13.446-6.032-13.446-13.446v-221.319c0-7.415 6.032-13.446 13.446-13.446h27.375c4.142 0 7.5-3.358 7.5-7.5s-3.358-7.5-7.5-7.5h-27.375c-8.28 0-15.743 3.558-20.946 9.223-5.204-5.665-12.667-9.223-20.947-9.223h-103.208c-6.59 0-11.952 5.361-11.952 11.952v20.468h-17.825c-6.713 0-12.175 5.461-12.175 12.175v44.024h-37.942c-12.163 0-22.058 9.895-22.058 22.058v288.675c0 12.163 9.895 22.058 22.058 22.058h131.827v50.845l-8.872 23.327h-12.688c-4.142 0-7.5 3.358-7.5 7.5s3.358 7.5 7.5 7.5h17.814c.014 0 .029.002.044.002.009 0 .017-.002.026-.002h151.795c.009 0 .017.002.026.002.014 0 .029-.002.044-.002h15.805c4.142 0 7.5-3.358 7.5-7.5s-3.358-7.5-7.5-7.5h-10.678l-8.872-23.327v-50.845h131.827c12.163 0 22.058-9.895 22.058-22.058v-288.676c-.002-12.162-9.897-22.057-22.06-22.057zm-325.153-73.619h100.159c7.414 0 13.446 6.032 13.446 13.446v221.318c0 7.415-6.032 13.446-13.446 13.446h-100.159zm-30 32.42h15v218.839c0 6.59 5.361 11.952 11.952 11.952h103.208c8.28 0 15.743-3.558 20.946-9.223 5.203 5.665 12.666 9.223 20.946 9.223h105.31c5.431 0 9.85-4.418 9.85-9.849v-220.942h15v238.496c0 4.022-3.272 7.295-7.295 7.295h-208.114c-4.142 0-7.5 3.358-7.5 7.5s3.358 7.5 7.5 7.5h208.113c12.293 0 22.295-10.001 22.295-22.295v-152.297h15v189.591h-362.211v-189.591h15v152.297c0 12.294 10.001 22.295 22.295 22.295h47.545c4.142 0 7.5-3.358 7.5-7.5s-3.358-7.5-7.5-7.5h-47.545c-4.022 0-7.295-3.273-7.295-7.295zm-52.943 56.199h37.942v15h-20.925c-5.004 0-9.075 4.071-9.075 9.075v201.442c0 5.004 4.071 9.075 9.075 9.075h374.062c5.004 0 9.075-4.071 9.075-9.075v-201.443c0-5.004-4.071-9.075-9.075-9.075h-20.925v-15h37.942c3.892 0 7.058 3.166 7.058 7.058v242.197h-422.211v-242.197c0-3.891 3.166-7.057 7.057-7.057zm408.096 302.79h-155.726c-4.142 0-7.5 3.358-7.5 7.5s3.358 7.5 7.5 7.5h8.9v52.223c0 .911.166 1.814.49 2.666l7.334 19.283h-130.09l7.334-19.283c.324-.852.49-1.755.49-2.666v-52.223h73.58c4.142 0 7.5-3.358 7.5-7.5s-3.358-7.5-7.5-7.5h-220.408c-3.892 0-7.058-3.166-7.058-7.058v-31.478h422.211v31.478c.001 3.892-3.165 7.058-7.057 7.058z"/><circle cx="255.791" cy="387.982" r="10.492"/></svg>