<svg height="512" viewBox="0 0 64 64" width="512" xmlns="http://www.w3.org/2000/svg"><path d="m53 47a1 1 0 0 0 -1 1v9a3 3 0 0 1 -3 3h-34a3 3 0 0 1 -3-3v-36a1 1 0 0 0 -2 0v36a5 5 0 0 0 5 5h34a5 5 0 0 0 5-5v-9a1 1 0 0 0 -1-1z"/><path d="m49 2h-34a5 5 0 0 0 -5 5v10a1 1 0 0 0 2 0v-10a3 3 0 0 1 3-3h34a3 3 0 0 1 3 3v37a1 1 0 0 0 2 0v-37a5 5 0 0 0 -5-5z"/><path d="m49 16a1 1 0 0 0 1-1v-6a3 3 0 0 0 -3-3h-30a3 3 0 0 0 -3 3v38a3 3 0 0 0 3 3h30a3 3 0 0 0 3-3v-28a1 1 0 0 0 -2 0v28a1 1 0 0 1 -1 1h-30a1 1 0 0 1 -1-1v-38a1 1 0 0 1 1-1h20v7a1 1 0 0 0 .62.92 1 1 0 0 0 1.09-.21l2.29-2.3 2.29 2.3a1 1 0 0 0 .71.29.84.84 0 0 0 .38-.08 1 1 0 0 0 .62-.92v-7h2a1 1 0 0 1 1 1v6a1 1 0 0 0 1 1zm-6-3.41-1.29-1.3a1 1 0 0 0 -1.42 0l-1.29 1.3v-4.59h4z"/><path d="m29 55a3 3 0 1 0 3-3 3 3 0 0 0 -3 3zm4 0a1 1 0 1 1 -1-1 1 1 0 0 1 1 1z"/><circle cx="38" cy="55" r="1"/><circle cx="42" cy="55" r="1"/><circle cx="22" cy="55" r="1"/><circle cx="26" cy="55" r="1"/><path d="m26 13a1 1 0 0 0 0-2h-6a1 1 0 0 0 -1 1v8a1 1 0 0 0 1 1h6a1 1 0 0 0 0-2h-5v-2h5a1 1 0 0 0 0-2h-5v-2z"/><path d="m44 19h-12a1 1 0 0 0 0 2h12a1 1 0 0 0 0-2z"/><path d="m44 23h-24a1 1 0 0 0 0 2h24a1 1 0 0 0 0-2z"/><path d="m44 31h-24a1 1 0 0 0 0 2h24a1 1 0 0 0 0-2z"/><path d="m44 35h-10a1 1 0 0 0 0 2h10a1 1 0 0 0 0-2z"/><path d="m20 37h9a1 1 0 0 0 0-2h-9a1 1 0 0 0 0 2z"/><path d="m45 40a1 1 0 0 0 -1-1h-24a1 1 0 0 0 0 2h24a1 1 0 0 0 1-1z"/><path d="m20 43a1 1 0 0 0 0 2h18a1 1 0 0 0 0-2z"/><path d="m44 27h-2a1 1 0 0 0 0 2h2a1 1 0 0 0 0-2z"/><path d="m20 29h17a1 1 0 0 0 0-2h-17a1 1 0 0 0 0 2z"/></svg>