<svg id="Capa_1" enable-background="new 0 0 512 512" height="512" viewBox="0 0 512 512" width="512" xmlns="http://www.w3.org/2000/svg"><path d="m482 0h-452c-16.542 0-30 13.458-30 30v386c0 16.542 13.458 30 30 30h156v46h-50c-5.523 0-10 4.478-10 10s4.477 10 10 10h240c5.522 0 10-4.478 10-10s-4.478-10-10-10h-50v-46h156c16.542 0 30-13.458 30-30 0-18.884 0-371.558 0-386 0-16.542-13.458-30-30-30zm-176 492h-100v-46h100zm186-76c0 5.514-4.486 10-10 10h-452c-5.514 0-10-4.486-10-10v-30h191c5.523 0 10-4.478 10-10s-4.477-10-10-10h-191v-336c0-5.514 4.486-10 10-10h452c5.514 0 10 4.486 10 10v336h-191c-5.522 0-10 4.478-10 10s4.478 10 10 10h191z"/><path d="m256 63h-156c-22.056 0-40 17.944-40 40v180c0 22.056 17.944 40 40 40h156c5.522 0 10-4.478 10-10 0-20.497 0-234.472 0-240 0-5.522-4.478-10-10-10zm-10 180h-106v-160h106zm-146-160h20v160h-20c-7.136 0-13.984 1.867-20 5.355v-145.355c0-11.028 8.972-20 20-20zm146 220h-146c-11.028 0-20-8.972-20-20 0-11.045 8.954-20 20-20h146z"/><path d="m316 83h126c5.522 0 10-4.478 10-10s-4.478-10-10-10h-126c-5.522 0-10 4.478-10 10s4.478 10 10 10z"/><path d="m316 143h126c5.522 0 10-4.478 10-10s-4.478-10-10-10h-126c-5.522 0-10 4.478-10 10s4.478 10 10 10z"/><path d="m316 203h126c5.522 0 10-4.478 10-10s-4.478-10-10-10h-126c-5.522 0-10 4.478-10 10s4.478 10 10 10z"/><path d="m316 263h126c5.522 0 10-4.478 10-10s-4.478-10-10-10h-126c-5.522 0-10 4.478-10 10s4.478 10 10 10z"/><path d="m316 323h126c5.522 0 10-4.478 10-10s-4.478-10-10-10h-126c-5.522 0-10 4.478-10 10s4.478 10 10 10z"/><path d="m256 366c-5.523 0-10 4.477-10 10s4.477 10 10 10 10-4.477 10-10-4.477-10-10-10z"/></svg>