<svg height="512pt" viewBox="0 0 512.05767 512" width="512pt" xmlns="http://www.w3.org/2000/svg"><path d="m511.148438 141.933594c2.386718-6.972656-.03125-14.683594-5.972657-19.046875-.347656-.257813-.714843-.488281-1.09375-.699219l-59.265625-31.726562c-5.804687-3.933594-13.425781-3.933594-19.230468 0l-59.25 31.726562c-.378907.210938-.742188.441406-1.089844.699219-5.875 4.40625-8.273438 12.078125-5.953125 19.042969 2.316406 6.96875 8.832031 11.671874 16.175781 11.679687v110.933594h-34.132812v-162.132813h8.53125c8.457031-.167968 15.929687-5.546875 18.773437-13.511718 2.296875-6.300782.136719-13.363282-5.289063-17.304688l-97.632812-68.597656c-5.929688-4.03125-13.742188-3.949219-19.582031.210937l-94.394531 68.609375c-5.789063 4.453125-8.101563 12.097656-5.753907 19.015625 2.351563 6.914063 8.839844 11.570313 16.144531 11.578125h8.535157v162.132813h-34.132813v-110.933594c7.34375 0 13.867188-4.703125 16.191406-11.671875 2.320313-6.96875-.074218-14.640625-5.953124-19.050781-.347657-.257813-.710938-.488281-1.089844-.699219l-59.265625-31.726562c-5.808594-3.933594-13.425781-3.933594-19.234375 0l-59.246094 31.726562c-.386719.207031-.757812.441406-1.109375.699219-5.878906 4.410156-8.273437 12.082031-5.953125 19.050781 2.324219 6.96875 8.847656 11.671875 16.191406 11.671875v112.390625c-10.21875 3.628906-17.050781 13.296875-17.066406 24.140625v196.269531c0 14.136719 11.460938 25.597656 25.601562 25.597656h460.800782c14.136718 0 25.597656-11.460937 25.597656-25.597656v-196.269531c-.011719-10.84375-6.84375-20.511719-17.066406-24.140625v-112.390625c7.378906.078125 13.949218-4.652344 16.214844-11.675781zm-77.003907-36.691406c.367188-.210938.71875-.441407 1.054688-.699219.347656.257812.714843.492187 1.09375.699219l58.417969 31.300781h-119.019532zm-272.179687-19.765626 94.035156-68.460937 95.789062 67.335937c-.5.550782-1.183593.902344-1.921874.988282h-170.667969c-.210938 0-.390625.105468-.605469.121094zm-86.257813 19.765626c.382813-.207032.746094-.441407 1.09375-.699219.347657.257812.710938.492187 1.09375.699219l58.417969 31.300781h-119.023438zm103.359375 325.597656c.550782.527344 1.171875.972656 1.851563 1.320312l5.792969 3.046875h-36.171876c-34.101562 0-73.738281-26.09375-73.738281-59.730469v-23.765624c.503907-20.113282 17.105469-36.070313 37.222657-35.773438h.582031c14.128906-1.085938 28.121093 3.390625 38.996093 12.476562 5.679688 5.671876 8.769532 13.4375 8.53125 21.460938v38.527344c-.617187 15.90625 5.535157 31.324218 16.933594 42.4375zm-16.933594 21.433594h24.96875c7.253907.101562 13.824219-4.269532 16.53125-10.996094 2.507813-6.410156.8125-13.699219-4.265624-18.339844-.554688-.523438-1.175782-.964844-1.855469-1.3125l-7.601563-4.011719c-7.414062-7.863281-11.285156-18.417969-10.710937-29.210937v-24.019532c15.773437-22.652343 40.773437-37.148437 68.269531-39.585937v170.144531h-85.335938zm102.402344 42.667968v-170.230468c48.296875 4.449218 85.269532 44.929687 85.332032 93.429687v76.800781zm221.867188 0h-30.722656c1.707031-3.414062 4.054687-7.746094 7.460937-13.328125 2.476563-4.078125 3.136719-9.003906 1.816406-13.589843-1.316406-4.585938-4.496093-8.410157-8.765625-10.542969l-23.140625-11.5625-7.261719-14.507813c-2.105468-4.21875-7.234374-5.929687-11.453124-3.820312-4.21875 2.105468-5.929688 7.230468-3.820313 11.449218l7.269531 14.507813c1.652344 3.300781 4.328125 5.980469 7.628906 7.636719l23.140626 11.570312c-4.535157 7.011719-8.390626 14.441406-11.511719 22.1875h-70.109375v-76.800781c.070312-44.773437-26.824219-85.1875-68.152344-102.414063-41.332031-17.222656-88.96875-7.871093-120.714844 23.703126-1.765625-8.765626-6.09375-16.8125-12.433594-23.117188-14.28125-12.359375-32.84375-18.625-51.695312-17.441406-29.492188-.210938-53.660156 23.351562-54.203125 52.839844v23.765624c0 42.101563 43.964844 73.921876 85.332031 76.542969v42.921875h-119.464844c-4.714843 0-8.535156-3.820312-8.535156-8.53125v-196.269531c0-4.710937 3.820313-8.53125 8.535156-8.53125 4.710938 0 8.53125-3.820313 8.53125-8.535156v-119.464844h85.335938v110.933594c0 9.425781 7.640625 17.066406 17.066406 17.066406h34.132813c9.425781 0 17.066406-7.640625 17.066406-17.066406v-162.132813h136.535156v162.132813c0 9.425781 7.640625 17.066406 17.066407 17.066406h34.132812c9.425781 0 17.066406-7.640625 17.066406-17.066406v-110.933594h85.332032v119.464844c0 4.714843 3.820312 8.535156 8.535156 8.535156 4.710937 0 8.53125 3.820313 8.53125 8.53125v25.601563h-34.132813c-9.425781 0-17.066406 7.640624-17.066406 17.066406v1.542968l-28.953125 5.777344c-7.960938 1.621094-13.691406 8.609375-13.714844 16.734375v23.613281c.011719 4.523438 1.808594 8.859376 5 12.066407l14.566406 14.566406c3.351563 3.234375 8.671876 3.1875 11.964844-.105469 3.289063-3.292968 3.335938-8.613281.101563-11.960937l-14.566407-14.566407v-23.613281l28.957032-5.777343c7.960937-1.617188 13.6875-8.609376 13.710937-16.734376v-1.542968h34.132813v153.601562c0 4.710938-3.820313 8.53125-8.53125 8.53125zm0 0"/><path d="m256 119.476562c-28.265625.027344-51.171875 22.933594-51.199219 51.199219v102.398438c0 4.714843 3.820313 8.535156 8.535157 8.535156h85.332031c4.710937 0 8.53125-3.820313 8.53125-8.535156v-102.398438c-.027344-28.265625-22.933594-51.171875-51.199219-51.199219zm34.132812 51.199219v25.597657h-25.597656v-58.519532c15.023438 3.878906 25.542969 17.402344 25.597656 32.921875zm-42.664062-32.921875v58.519532h-25.601562v-25.597657c.058593-15.519531 10.574218-29.042969 25.601562-32.921875zm-25.601562 75.585938h25.601562v51.203125h-25.601562zm42.667968 51.203125v-51.203125h25.597656v51.203125zm0 0"/><path d="m76.800781 170.675781c-14.136719 0-25.601562 11.460938-25.601562 25.597657v76.800781c0 4.714843 3.824219 8.535156 8.535156 8.535156h34.132813c4.714843 0 8.535156-3.820313 8.535156-8.535156v-76.800781c0-14.136719-11.460938-25.597657-25.601563-25.597657zm8.535157 93.867188h-17.066407v-68.269531c0-4.710938 3.820313-8.53125 8.53125-8.53125 4.714844 0 8.535157 3.820312 8.535157 8.53125zm0 0"/><path d="m418.132812 281.609375h34.136719c4.710938 0 8.53125-3.820313 8.53125-8.535156v-76.800781c0-14.136719-11.460937-25.597657-25.601562-25.597657-14.136719 0-25.597657 11.460938-25.597657 25.597657v76.800781c0 4.714843 3.820313 8.535156 8.53125 8.535156zm8.535157-85.335937c0-4.710938 3.820312-8.53125 8.53125-8.53125 4.714843 0 8.535156 3.820312 8.535156 8.53125v68.269531h-17.066406zm0 0"/><path d="m230.402344 418.140625c0 4.714844-3.820313 8.535156-8.535156 8.535156-4.710938 0-8.53125-3.820312-8.53125-8.535156 0-4.710937 3.820312-8.53125 8.53125-8.53125 4.714843 0 8.535156 3.820313 8.535156 8.53125zm0 0"/><path d="m298.667969 418.140625c0 4.714844-3.820313 8.535156-8.535157 8.535156-4.710937 0-8.53125-3.820312-8.53125-8.535156 0-4.710937 3.820313-8.53125 8.53125-8.53125 4.714844 0 8.535157 3.820313 8.535157 8.53125zm0 0"/><path d="m102.402344 341.339844c-4.714844 0-8.535156 3.824218-8.535156 8.535156v8.535156c0 4.710938 3.820312 8.53125 8.535156 8.53125 4.710937 0 8.53125-3.820312 8.53125-8.53125v-8.535156c0-4.710938-3.820313-8.535156-8.53125-8.535156zm0 0"/><path d="m136.535156 341.339844c-4.714844 0-8.535156 3.824218-8.535156 8.535156v8.535156c0 4.710938 3.820312 8.53125 8.535156 8.53125 4.710938 0 8.53125-3.820312 8.53125-8.53125v-8.535156c0-4.710938-3.820312-8.535156-8.53125-8.535156zm0 0"/></svg>