<svg id="Capa_1" enable-background="new 0 0 512 512" height="512" viewBox="0 0 512 512" width="512" xmlns="http://www.w3.org/2000/svg"><path d="m510.938 123.651-71.75-120c-1.355-2.264-3.799-3.651-6.438-3.651s-5.083 1.387-6.438 3.651l-71.75 120c-.695 1.163-1.063 2.493-1.063 3.849v22.5h-15v-22.5c0-4.143-3.357-7.5-7.5-7.5h-30c-4.143 0-7.5 3.357-7.5 7.5v22.5h-15v-22.5c0-4.143-3.357-7.5-7.5-7.5h-30c-4.143 0-7.5 3.357-7.5 7.5v22.5h-15v-22.5c0-4.143-3.357-7.5-7.5-7.5h-30c-4.143 0-7.5 3.357-7.5 7.5v22.5h-15v-22.5c0-1.355-.367-2.686-1.063-3.849l-71.75-120c-1.353-2.264-3.797-3.651-6.436-3.651s-5.083 1.387-6.438 3.651l-71.75 120c-.695 1.163-1.062 2.494-1.062 3.849v98.5c0 4.143 3.357 7.5 7.5 7.5h7.5v271c0 4.143 3.357 7.5 7.5 7.5h467c4.143 0 7.5-3.357 7.5-7.5v-271h7.5c4.143 0 7.5-3.357 7.5-7.5v-98.5c0-1.355-.367-2.686-1.062-3.849zm-78.188-101.537 58.527 97.886h-117.054zm-274.25 142.886h22.5c4.143 0 7.5-3.357 7.5-7.5v-22.5h15v22.5c0 4.143 3.357 7.5 7.5 7.5h30c4.143 0 7.5-3.357 7.5-7.5v-22.5h15v22.5c0 4.143 3.357 7.5 7.5 7.5h30c4.143 0 7.5-3.357 7.5-7.5v-22.5h15v22.5c0 4.143 3.357 7.5 7.5 7.5h22.5v53.5h-195zm-79.25-142.886 58.527 97.886h-117.054zm-64.25 196.386v-83.5h128.5v83.5zm297.75 278.5h-113.5v-15h113.5zm-64.25-169.25v139.25h-49.25v-139.25zm-48.739-15c3.683-27.758 27.491-49.25 56.239-49.25s52.556 21.492 56.239 49.25zm112.989 154.25h-49.25v-139.25h49.25zm55.75 30h-40.75v-176.75c0-39.563-32.187-71.75-71.75-71.75s-71.75 32.187-71.75 71.75v176.75h-40.75v-69.625c0-4.143-3.357-7.5-7.5-7.5s-7.5 3.357-7.5 7.5v69.625h-98.5v-263.5h98.5v163.875c0 4.143 3.357 7.5 7.5 7.5s7.5-3.357 7.5-7.5v-163.875h225zm113.5 0h-98.5v-263.5h98.5zm15-278.5h-128.5v-83.5h128.5z"/><path d="m79.25 248.5c-18.886 0-34.25 15.364-34.25 34.25v114.625c0 4.143 3.357 7.5 7.5 7.5h53.5c4.143 0 7.5-3.357 7.5-7.5v-114.625c0-18.886-15.364-34.25-34.25-34.25zm19.25 141.375h-38.5v-15h38.5zm0-30h-38.5v-77.125c0-10.614 8.636-19.25 19.25-19.25s19.25 8.636 19.25 19.25z"/><path d="m406 404.875h53.5c4.143 0 7.5-3.357 7.5-7.5v-114.625c0-18.886-15.364-34.25-34.25-34.25s-34.25 15.364-34.25 34.25v114.625c0 4.143 3.357 7.5 7.5 7.5zm7.5-122.125c0-10.614 8.636-19.25 19.25-19.25s19.25 8.636 19.25 19.25v77.125h-38.5zm0 92.125h38.5v15h-38.5z"/></svg>