<svg height="512pt" viewBox="-10 0 512 512" width="512pt" xmlns="http://www.w3.org/2000/svg"><path d="m479.5 178h-2.5v-31.5c0-6.894531-5.605469-12.5-12.5-12.5h-178c-17.113281 0-32.136719 9.097656-40.5 22.710938-8.363281-13.613282-23.386719-22.710938-40.5-22.710938h-178c-6.894531 0-12.5 5.605469-12.5 12.5v31.5h-2.5c-6.894531 0-12.5 5.605469-12.5 12.5v211.5c0 4.140625 3.355469 7.5 7.5 7.5s7.5-3.359375 7.5-7.5v-209h163.5c4.144531 0 7.5-3.359375 7.5-7.5s-3.355469-7.5-7.5-7.5h-148.5v-29h175.5c16.738281 0 30.558594 12.71875 32.308594 29h-24.308594c-4.144531 0-7.5 3.359375-7.5 7.5v297.5h-178.5c-6.894531 0-12.5-5.605469-12.5-12.5v-33.5c0-4.140625-3.355469-7.5-7.5-7.5s-7.5 3.359375-7.5 7.5v33.5c0 15.164062 12.335938 27.5 27.5 27.5h179.304688c2.378906 8.082031 9.855468 14 18.695312 14h41c8.839844 0 16.316406-5.917969 18.695312-14h179.304688c15.164062 0 27.5-12.335938 27.5-27.5v-280c0-6.894531-5.605469-12.5-12.5-12.5zm-193-29h175.5v29h-207.808594c1.75-16.28125 15.570313-29 32.308594-29zm-15.5 343.5c0 2.480469-2.019531 4.5-4.5 4.5h-41c-2.480469 0-4.5-2.019531-4.5-4.5v-299.5h50zm206-22c0 6.894531-5.605469 12.5-12.5 12.5h-178.5v-290h191zm0 0"/><path d="m211.617188 71.527344-4.863282 28.378906c-.617187 3.585938.828125 7.140625 3.769532 9.277344 2.941406 2.136718 6.765624 2.414062 9.988281.722656l25.488281-13.398438 25.488281 13.398438c1.402344.734375 2.914063 1.101562 4.421875 1.101562 1.960938 0 3.90625-.617187 5.566406-1.824218 2.941407-2.136719 4.386719-5.691406 3.769532-9.273438l-4.863282-28.382812 20.617188-20.101563c2.605469-2.535156 3.523438-6.261719 2.402344-9.722656-1.125-3.457031-4.058594-5.929687-7.65625-6.453125l-28.5-4.140625-12.742188-25.824219c-1.609375-3.261718-4.867187-5.285156-8.503906-5.285156s-6.894531 2.023438-8.503906 5.285156l-12.742188 25.824219-28.5 4.140625c-3.597656.523438-6.53125 2.996094-7.65625 6.457031-1.121094 3.457031-.203125 7.183594 2.398438 9.71875zm18.160156-25.992188c3.085937-.445312 5.757812-2.382812 7.140625-5.1875l9.082031-18.398437 9.082031 18.402343c1.382813 2.800782 4.054688 4.738282 7.140625 5.183594l20.304688 2.953125-14.699219 14.324219c-2.230469 2.179688-3.25 5.316406-2.722656 8.390625l3.46875 20.226563-18.164063-9.550782c-2.761718-1.449218-6.0625-1.449218-8.824218 0l-18.160157 9.550782 3.46875-20.226563c.527344-3.074219-.492187-6.210937-2.726562-8.390625l-14.695313-14.324219zm0 0"/><path d="m352.285156 82.671875-2.867187 17.21875c-.601563 3.605469.875 7.167969 3.855469 9.292969 1.652343 1.179687 3.574218 1.777344 5.507812 1.777344 1.546875 0 3.105469-.382813 4.53125-1.15625l14.671875-7.945313 14.671875 7.945313c3.214844 1.742187 7.0625 1.503906 10.039062-.621094 2.980469-2.125 4.453126-5.6875 3.855469-9.292969l-2.867187-17.21875 12.160156-12.210937c2.542969-2.554688 3.417969-6.265626 2.289062-9.6875-1.132812-3.421876-4.050781-5.878907-7.613281-6.414063l-16.570312-2.480469-7.394531-15.4375c-1.59375-3.328125-4.878907-5.394531-8.570313-5.394531-3.6875 0-6.972656 2.066406-8.566406 5.394531l-7.398438 15.4375-16.570312 2.480469c-3.5625.535156-6.480469 2.992187-7.609375 6.414063-1.132813 3.421874-.257813 7.132812 2.285156 9.6875zm14.839844-16.390625c3.117188-.464844 5.796875-2.441406 7.160156-5.289062l3.699219-7.71875 3.691406 7.710937c1.363281 2.851563 4.042969 4.832031 7.164063 5.296875l8.695312 1.304688-6.480468 6.503906c-2.148438 2.160156-3.132813 5.246094-2.636719 8.261718l1.484375 8.90625-7.394532-4.007812c-2.835937-1.535156-6.21875-1.535156-9.050781 0l-7.398437 4.007812 1.480468-8.902343c.507813-3.015625-.480468-6.109375-2.636718-8.269531l-6.476563-6.503907zm0 0"/><path d="m87.316406 82.671875-2.867187 17.21875c-.601563 3.605469.875 7.167969 3.855469 9.292969 1.652343 1.179687 3.574218 1.777344 5.507812 1.777344 1.546875 0 3.101562-.382813 4.53125-1.15625l14.671875-7.945313 14.671875 7.945313c3.214844 1.742187 7.0625 1.503906 10.039062-.621094 2.976563-2.125 4.453126-5.6875 3.855469-9.292969l-2.867187-17.21875 12.160156-12.210937c2.542969-2.554688 3.417969-6.265626 2.285156-9.6875-1.128906-3.421876-4.046875-5.878907-7.609375-6.414063l-16.570312-2.476563-7.394531-15.441406c-1.597657-3.328125-4.878907-5.394531-8.570313-5.394531-3.6875 0-6.972656 2.066406-8.566406 5.394531l-7.394531 15.441406-16.570313 2.476563c-3.5625.535156-6.480469 2.992187-7.613281 6.414063-1.128906 3.421874-.253906 7.132812 2.289062 9.6875zm14.839844-16.390625c3.117188-.464844 5.796875-2.441406 7.160156-5.289062l3.699219-7.71875 3.691406 7.710937c1.363281 2.851563 4.039063 4.832031 7.164063 5.296875l8.695312 1.304688-6.480468 6.503906c-2.148438 2.160156-3.136719 5.246094-2.636719 8.261718l1.484375 8.90625-7.398438-4.007812c-1.414062-.765625-2.96875-1.152344-4.523437-1.152344-1.550781 0-3.105469.386719-4.523438 1.152344l-7.398437 4.007812 1.484375-8.902343c.503906-3.011719-.484375-6.105469-2.640625-8.269531l-6.472656-6.5zm0 0"/><path d="m318.5 335h126c6.894531 0 12.5-5.605469 12.5-12.5v-97c0-6.894531-5.605469-12.5-12.5-12.5h-126c-6.894531 0-12.5 5.605469-12.5 12.5v97c0 6.894531 5.605469 12.5 12.5 12.5zm2.5-107h121v92h-121zm0 0"/><path d="m450 350h-137c-4.144531 0-7.5 3.359375-7.5 7.5s3.355469 7.5 7.5 7.5h137c4.144531 0 7.5-3.359375 7.5-7.5s-3.355469-7.5-7.5-7.5zm0 0"/><path d="m411 379h-98c-4.144531 0-7.5 3.359375-7.5 7.5s3.355469 7.5 7.5 7.5h98c4.144531 0 7.5-3.359375 7.5-7.5s-3.355469-7.5-7.5-7.5zm0 0"/></svg>