<svg height="512" viewBox="0 0 60 60" width="512" xmlns="http://www.w3.org/2000/svg"><g id="006---Alien-House"><path id="Shape" d="m58 52h-1v-2c0-.5522847-.4477153-1-1-1s-1 .4477153-1 1v2h-1c-.7102221.0042869-1.3648954.3849109-1.72 1h-2.56c-.3551046-.6150891-1.0097779-.9957131-1.72-1h-3v-8c1.6568542 0 3-1.3431458 3-3v-1h2v5c0 .5522847.4477153 1 1 1s1-.4477153 1-1v-5c1.6568542 0 3-1.3431458 3-3v-2c0-1.6568542-1.3431458-3-3-3h-3c.1188434-.8330253-.0134622-1.6825669-.38-2.44 4.15-1.02 9.38-3.78 9.38-9.56 0-9.12-4.86-20-28-20s-28 10.88-28 20c0 5.76 5.19 8.52 9.39 9.55-.3731315.7589566-.5090333 1.6126988-.39 2.45h-3c-.79564947 0-1.55871121.3160705-2.12132034.8786797-.56260914.5626091-.87867966 1.3256708-.87867966 2.1213203v2c0 1.6568542 1.34314575 3 3 3v5c0 .5522847.44771525 1 1 1s1-.4477153 1-1v-5h2v1c0 1.6568542 1.3431458 3 3 3v8h-3c-.7102221.0042869-1.3648954.3849109-1.72 1h-2.56c-.35510459-.6150891-1.00977788-.9957131-1.72-1h-1v-2c0-.5522847-.44771525-1-1-1s-1 .4477153-1 1v2h-1c-1.1045695 0-2 .8954305-2 2v4c0 1.1045695.8954305 2 2 2h4c.71022212-.0042869 1.36489541-.3849109 1.72-1h2.56c.3551046.6150891 1.0097779.9957131 1.72 1h36c.7102221-.0042869 1.3648954-.3849109 1.72-1h2.56c.3551046.6150891 1.0097779.9957131 1.72 1h4c1.1045695 0 2-.8954305 2-2v-4c0-1.1045695-.8954305-2-2-2zm-12-11c0 .5522847-.4477153 1-1 1h-3v-2h4zm-26 1v-2h20v2zm-5.51-8h10.62c-1.0861079 1.0787774-1.7886428 2.4838472-2 4h-3.29c-.7-1.95-3.39-3-5.33-4zm.69-13.16c1.8776838-.4539083 3.3259143-1.9488559 3.72-3.84h3.17c.4590854 3.6201903 3.3098097 6.4709146 6.93 6.93v4.07h-7.09c-.72-4.16-5.74-5-6.73-7.16zm9.67-18.61c1.32-.12 2.71-.23 4.15-.23v6.07c-3.6201903.45908545-6.4709146 3.3098097-6.93 6.93h-3.17c-.3965844-1.9152388-1.8734856-3.4233972-3.78-3.86.88-3.39 7.11-4.58 9.73-8.91zm10.3 0c2.63 4.35 8.83 5.5 9.73 8.91-1.9065144.4366028-3.3834156 1.9447612-3.78 3.86h-3.17c-.4590854-3.6201903-3.3098097-6.47091455-6.93-6.93v-6.07c1.44 0 2.83.11 4.15.23zm10.85 27.77c.5522847 0 1 .4477153 1 1v1h-7v-2zm-5.82 8h-3.26c-.2113572-1.5161528-.9138921-2.9212226-2-4h10.59c-1.89 1-4.63 2-5.33 4zm-10.18-4c2.3763431-.000485 4.4247314 1.6716687 4.9 4h-9.8c.4752686-2.3283313 2.5236569-4.000485 4.9-4zm8.09-6h-7.09v-4.07c3.6201903-.4590854 6.4709146-3.3098097 6.93-6.93h3.17c.3940857 1.8911441 1.8423162 3.3860917 3.72 3.84-1 2.16-6 3-6.73 7.16zm-8.09-18c3.3137085 0 6 2.6862915 6 6s-2.6862915 6-6 6-6-2.6862915-6-6 2.6862915-6 6-6zm16 9c-1.6568542 0-3-1.3431458-3-3s1.3431458-3 3-3 3 1.3431458 3 3-1.3431458 3-3 3zm-32-6c1.6568542 0 3 1.3431458 3 3s-1.3431458 3-3 3-3-1.3431458-3-3 1.3431458-3 3-3zm24 17v2h-16v-2zm15 5v2c0 .5522847-.4477153 1-1 1h-9.43c1.57-1.47 5.15-2.34 6.15-4h3.28c.5522847 0 1 .4477153 1 1zm-7-7h-5.8c.89-3.09 6-3.53 6.75-7.09 2.0115819-.368688 3.5958588-1.9252401 4-3.93 1.6029475-.0563755 3.2000843-.22344 4.78-.5.194315 1.1629917.2846719 2.340978.27 3.52 0 6.76-9.36 7.92-10 8zm9.27-13.47c-1.4445324.2541078-2.9044699.4111262-4.37.47-.4186087-1.9892259-1.9998772-3.5270096-4-3.89-.69-4.24-6-5.53-9-8.54 9.47 1.36 15.33 5.43 17.32 11.96zm-33.15-12c-3 3-8.3 4.3-9 8.54-2.0193182.3613061-3.6130719 1.9193788-4.02 3.93-1.44835457-.0544759-2.89151203-.2048048-4.32-.45 1.99-6.55 7.85-10.62 17.29-12zm-18.12 17.47c.00183716-1.180512.10892783-2.3585093.32-3.52 1.57944806.2832673 3.17658821.4570147 4.78.52.40414125 2.0047599 1.9884181 3.561312 4 3.93.8 3.55 5.87 4 6.75 7.09h-5.76c-.09-.02-10.09-1.02-10.09-8.02zm16 10v2h-7v-1c0-.5522847.4477153-1 1-1zm-13 7v-2c0-.5522847.44771525-1 1-1h3.28c1 1.67 4.55 2.51 6.15 4h-9.43c-.55228475 0-1-.4477153-1-1zm7 4v-1h4v2h-3c-.5522847 0-1-.4477153-1-1zm-12 17v-4h4v4zm6-3h2v2h-2zm4 3v-4h7c1.87 0 1.66 2.07 2.4 4zm17 0h-3v-5c.0059072-1.819157 1.2385971-3.4052179 3-3.86zm2 0v-8.86c1.7614029.4547821 2.9940928 2.040843 3 3.86v5zm5 0v-5c0-3.3137085-2.6862915-6-6-6s-6 2.6862915-6 6v5c-1.62 0-.37-6-5-6h-2v-8h26v8h-2c-4.63 0-3.38 6-5 6zm2.6 0c.72-1.89.53-4 2.4-4h7v4zm11.4-3h2v2h-2zm8 3h-4v-4h4z"/><circle id="Oval" cx="39" cy="48" r="1"/><circle id="Oval" cx="21" cy="48" r="1"/><path id="Shape" d="m30 20c2.209139 0 4-1.790861 4-4s-1.790861-4-4-4-4 1.790861-4 4 1.790861 4 4 4zm0-6c1.1045695 0 2 .8954305 2 2s-.8954305 2-2 2-2-.8954305-2-2 .8954305-2 2-2z"/></g></svg>