<svg height="512" viewBox="0 0 60 60" width="512" xmlns="http://www.w3.org/2000/svg"><g id="010---Alien-Space-Ship"><path id="Shape" d="m11.22 59.21h.07.07c5.7.95 9.86.76 26.64.76 8 0 22-1 22-9 0-4.19-2-4.35-2-9v-6.97c-.0021964-2.1413952-1.1454958-4.119303-3-5.19v-1.81c-.0035644-1.2682549-.8042713-2.3972517-2-2.82v-1.18c0-.5522847-.4477153-1-1-1s-1 .4477153-1 1v1.18c-1.1957287.4227483-1.9964356 1.5517451-2 2.82v1.81c-1.8545042 1.070697-2.9978036 3.0486048-3 5.19v7c0 1.8-.39 6-4 6-4.63 0-5-1.73-5-4 0-6.71 5-14.87 5-23 0-13.71-5.68-13.61-10.37-20.14-.3751677-.52766577-.9825573-.84107809-1.63-.84107809s-1.2548323.31341232-1.63.84107809c-4.69 6.53-10.37 6.43-10.37 20.14 0 8.19 5 16.22 5 23 0 2.27-.37 4-5 4-3.61 0-4-4.2-4-6v-7c-.0021964-2.1413952-1.1454958-4.119303-3-5.19v-1.81c-.0035644-1.2682549-.8042713-2.3972517-2-2.82v-1.18c0-.5522847-.44771525-1-1-1s-1 .4477153-1 1v1.18c-1.1957287.4227483-1.99643563 1.5517451-2 2.82v1.81c-1.85450424 1.070697-2.99780355 3.0486048-3 5.19v7c0 4.71-2 4.74-2 9s3.85 7 11.22 8.21zm-9.09-7.21c5.1.18 6 1.56 8.5 2.71l-.18 2.33c-4.16-.81-7.62-2.32-8.32-5.04zm9.87-11h-8v-2h8zm-8 2h8c.0669253 1.6934458.5885096 3.3376452 1.51 4.76l-1.3.87c-.7627382.51157-1.2491292 1.3443304-1.32 2.26l-.13 1.69c-2.28-1.24-3.65-2.41-8.71-2.58.28-2.47 1.71-3.21 1.95-7zm8.46 14.4.16-2c2.86.75 5.74.57 12.41.57v2c-4.208378.1298582-8.4205367-.0606919-12.6-.57zm21.54-34.99c-.33 5.59-2.26 9.59-4 9.59s-3.67-4-4-9.59c2.6064512.8014349 5.3935488.8014349 8 0zm-8-2.11c.16-5.94 2.17-10.3 4-10.3s3.83 4.36 4 10.3c-2.5864747.9248682-5.4135253.9248682-8 0zm4 29.7c1.6568542 0 3 1.3431458 3 3v1h-6v-1c0-1.6568542 1.3431458-3 3-3zm-3 8v-2h6v2zm8 0v-2c7 0 9.68.15 12.41-.57l.16 2c-4.1698223.5044106-8.3716388.6949465-12.57.57zm14.55-.94-.18-2.33c2.51-1.16 3.4-2.53 8.5-2.71-.7 2.7-4.16 4.21-8.32 5.04zm-.48-6.17c-.0708708-.9156696-.5572618-1.74843-1.32-2.26l-1.3-.87c.9356205-1.4182641 1.4711169-3.0627563 1.55-4.76h8c.21 3.79 1.64 4.53 1.92 7-4.92.15-6.32 1.26-8.75 2.56zm6.93-9.89h-8v-2h8zm-5-11.92v-1.08c0-.5522847.4477153-1 1-1s1 .4477153 1 1v1.08c-.6629119-.1000629-1.3370881-.1000629-2 0zm-.57 2.24c1.2358281-.5273841 2.6538805-.3990563 3.7749547.3416175s1.7953785 1.9947289 1.7950453 3.3383825l.0000001 2h-8.0000002l.0000001-2c-.0003974-1.6027166.9558981-3.0509337 2.43-3.68zm-8.43 18.68c1.0592818.0309814 2.1037544-.2545078 3-.82l1.67 1.11c.2560074.1719364.4183659.4523738.44.76l.18 2.34c-2.61.79-5.34.61-12.26.61v-1c-.0019572-2.3475522-1.636831-4.3776245-3.93-4.88.31-2.71 2-4.31 4-6-.56 5.38 1.1 7.88 6.9 7.88zm-6.34-11c-1.6544263 1.3269592-3.2117396 2.7706488-4.66 4.32v-9.5c2.76-.93 4.78-5.64 5-11.82h4c-.34 5.73-3 11.44-4.34 17zm-5.66-37c4.8 6.7 9.72 6.27 10 18h-4c-.22-6.91-2.72-12-6-12s-5.76 5.09-6 12h-4c.28-11.69 5.16-11.3 10-18zm-10 20h4c.2 6.18 2.22 10.89 5 11.82v9.5c-1.4482604-1.5493512-3.0055737-2.9930408-4.66-4.32-1.34-5.57-4-11.27-4.34-17zm4.84 20.09c2 1.72 3.74 3.32 4.05 6-2.2882722.5209375-3.9063053 2.5632363-3.89 4.91v1c-6.74 0-9.65.18-12.26-.61l.18-2.34c.0216341-.3076262.1839926-.5880636.44-.76l1.64-1.11c.8962456.5654922 1.9407182.8509814 3 .82 5.78 0 7.47-2.48 6.88-7.91zm-17.84-13.01v-1.08c0-.5522847.44771525-1 1-1s1 .4477153 1 1v1.08c-.66291195-.1000629-1.33708805-.1000629-2 0zm-.57 2.24c1.23582812-.5273841 2.65388048-.3990563 3.7749547.3416175 1.1210742.7406738 1.7953785 1.9947289 1.7950453 3.3383825l.0000001 2h-8.00000022l.00000012-2c-.00039745-1.6027166.95589809-3.0509337 2.43-3.68z"/><path id="Shape" d="m9.29 21.71c.1877666.1893127.44336246.2957983.71.2957983.2666375 0 .5222334-.1064856.71-.2957983l1-1c.3921222-.3921222.3921222-1.0278778 0-1.42s-1.0278778-.3921222-1.42 0l-1 1c-.18931265.1877666-.29579832.4433625-.29579832.71s.10648567.5222334.29579832.71z"/><path id="Shape" d="m5.29 21.71c.39212217.3921222 1.02787783.3921222 1.42 0s.39212217-1.0278778 0-1.42l-1-1c-.39212218-.3921222-1.02787781-.3921221-1.41999998 0-.39212216.3921222-.39212217 1.0278778-.00000002 1.42z"/><path id="Shape" d="m8 5c.55228475 0 1-.44771525 1-1v-3c0-.55228475-.44771525-1-1-1s-1 .44771525-1 1v3c0 .55228475.44771525 1 1 1z"/><path id="Shape" d="m8 18c.55228475 0 1-.4477153 1-1v-9c0-.55228475-.44771525-1-1-1s-1 .44771525-1 1v9c0 .5522847.44771525 1 1 1z"/><path id="Shape" d="m49.29 21.71c.2536586.2536586.623374.3527235.969878.259878.3465041-.0928454.6171546-.3634959.71-.71.0928455-.346504-.0062194-.7162194-.259878-.969878l-1-1c-.3921222-.3921222-1.0278778-.3921222-1.42 0s-.3921222 1.0278778 0 1.42z"/><path id="Shape" d="m53.29 21.71c.1877666.1893127.4433625.2957983.71.2957983s.5222334-.1064856.71-.2957983l1-1c.3921221-.3921222.3921221-1.0278778 0-1.42-.3921222-.3921221-1.0278778-.3921221-1.42 0l-1 1c-.1893127.1877666-.2957983.4433625-.2957983.71s.1064856.5222334.2957983.71z"/><path id="Shape" d="m52 10c.5522847 0 1-.44771525 1-1v-8c0-.55228475-.4477153-1-1-1s-1 .44771525-1 1v8c0 .55228475.4477153 1 1 1z"/><path id="Shape" d="m52 18c.5522847 0 1-.4477153 1-1v-4c0-.5522847-.4477153-1-1-1s-1 .4477153-1 1v4c0 .5522847.4477153 1 1 1z"/></g></svg>