<svg id="Layer_1" enable-background="new 0 0 64 64" height="512" viewBox="0 0 64 64" width="512" xmlns="http://www.w3.org/2000/svg"><path d="m41.292 30.5c.128 0 .256-.049.354-.146l13.197-13.197c2.206-2.205 2.206-5.794 0-7.999-1.068-1.068-2.489-1.657-4-1.657s-2.931.589-4 1.657l-13.197 13.196c-.195.195-.195.512 0 .707s.512.195.707 0l13.198-13.197c.879-.88 2.049-1.364 3.292-1.364 1.244 0 2.414.484 3.293 1.364 1.815 1.815 1.815 4.77 0 6.585l-13.197 13.197c-.195.195-.195.512 0 .707.098.098.226.147.353.147z"/><path d="m54.588 48.412-7.147-7.147 2.912-2.912c.142-.142.185-.354.111-.539l-2-5c-.063-.156-.199-.271-.364-.305-.168-.034-.336.018-.454.137l-3.5 3.5-26.99-26.99c-1.068-1.068-2.489-1.657-4-1.657s-2.931.589-4 1.657c-2.206 2.205-2.206 5.794 0 7.999l26.99 26.99-3.5 3.5c-.119.119-.17.289-.136.454s.148.301.304.363l5 2c.061.026.124.038.186.038.13 0 .258-.051.354-.146l2.912-2.912 7.146 7.146 1.766 1.766c.094.094.221.146.354.146s.26-.053.354-.146l5.469-5.47c.094-.094.146-.221.146-.354s-.053-.26-.146-.354zm-44.724-31.963c-1.815-1.815-1.815-4.77 0-6.585.879-.88 2.049-1.364 3.292-1.364 1.244 0 2.414.484 3.293 1.364l26.99 26.99-1.953 1.953-26.753-26.752c-.738-.738-1.94-.738-2.678 0s-.738 1.94 0 2.679l26.753 26.752-1.953 1.953zm29.65 24.33-26.752-26.753c-.348-.349-.348-.916 0-1.265.349-.348.916-.348 1.264 0l26.753 26.752zm-1.635 8.634-3.99-1.596 13.928-13.927 1.596 3.99zm6.475-5.059 2.381-2.381 6.793 6.793-4.763 4.762-6.793-6.793zm6.177 10.939-1.059-1.059 4.763-4.762 1.058 1.058z"/><path d="m27.853 44.146 2.793-2.792c.195-.195.195-.512 0-.707s-.512-.195-.707 0l-2.793 2.792-1.953-1.953 3.132-3.132c.195-.195.195-.512 0-.707s-.512-.195-.707 0l-3.132 3.132-1.264-1.264 3.132-3.132c.195-.195.195-.512 0-.707s-.512-.195-.707 0l-3.132 3.132-1.953-1.953 2.793-2.793c.195-.195.195-.512 0-.707s-.512-.195-.707 0l-2.793 2.793-3.5-3.5c-.118-.118-.287-.17-.454-.137-.165.034-.301.148-.364.305l-2 5c-.074.186-.031.397.111.539l2.912 2.912-7.147 7.147-1.765 1.765c-.095.092-.148.218-.148.351s.053.26.146.354l5.469 5.47c.094.094.221.146.354.146s.26-.053.354-.146l1.766-1.766 7.146-7.146 2.912 2.912c.095.095.223.146.353.146.063 0 .125-.012.186-.036l5-2c.156-.063.271-.198.304-.363s-.018-.335-.136-.454zm-14.384 11.147-4.762-4.763 1.058-1.058 4.763 4.762zm1.766-1.766-4.763-4.762 6.793-6.793 2.381 2.381 2.381 2.381zm10.886-4.114-11.534-11.533 1.596-3.99 13.927 13.927z"/><path d="m37.646 27.618c-.195.195-.195.512 0 .707.098.098.226.146.354.146s.256-.049.354-.146l13.592-13.592c.738-.738.738-1.94 0-2.679-.738-.738-1.94-.738-2.679 0l-13.62 13.62c-.195.195-.195.512 0 .707s.512.195.707 0l13.62-13.62c.349-.348.916-.348 1.265 0 .348.349.348.916 0 1.265z"/><path d="m30.646 16.354c.098.097.226.146.354.146s.256-.049.354-.146l2-2c.195-.195.195-.512 0-.707l-1.647-1.647 1.646-1.646c.195-.195.195-.512 0-.707s-.512-.195-.707 0l-2 2c-.195.195-.195.512 0 .707l1.647 1.646-1.646 1.646c-.196.196-.196.512-.001.708z"/><path d="m9.646 29.354c.195.195.512.195.707 0l1.647-1.647 1.646 1.646c.098.098.226.147.354.147s.256-.049.354-.146c.195-.195.195-.512 0-.707l-2-2c-.195-.195-.512-.195-.707 0l-1.647 1.646-1.646-1.646c-.195-.195-.512-.195-.707 0s-.195.512 0 .707z"/><path d="m55.646 26.646-1.646 1.647-1.646-1.646c-.195-.195-.512-.195-.707 0l-2 2c-.195.195-.195.512 0 .707s.512.195.707 0l1.646-1.647 1.646 1.646c.098.098.226.147.354.147s.256-.049.354-.146l2-2c.195-.195.195-.512 0-.707s-.512-.196-.708-.001z"/><circle cx="16" cy="48" r="1"/><circle cx="48" cy="48" r="1"/></svg>