<svg height="512pt" viewBox="-61 0 512 512" width="512pt" xmlns="http://www.w3.org/2000/svg"><path d="m180 120h30v33.183594l150 75v-2.183594c0-90.980469-74.019531-166-165-166s-165 75.019531-165 166v2.183594l150-75zm0 0"/><path d="m390 15v-15h-135c-24.414062 0-45.929688 11.902344-59.632812 30.019531 53.78125.097657 102.511718 22.085938 137.769531 57.507813 32.570312-8.164063 56.863281-37.460938 56.863281-72.527344zm0 0"/><path d="m30 343.816406v102.335938l165 65.847656 165-65.847656v-102.335938l-165 82.5zm0 0"/><path d="m390 295.273438v-18.546876l-195-97.5-195 97.5v18.546876l195 97.5zm-90-24.273438h30v30h-30zm-60-30h30v90h-30zm-150 60h-30v-30h30zm60 30h-30v-90h30zm30-120h30v150h-30zm0 0"/></svg>