<svg height="512pt" viewBox="-61 0 512 512" width="512pt" xmlns="http://www.w3.org/2000/svg"><path d="m180.027344 211.035156h30.007812v150.023438h-30.007812zm0 0"/><path d="m240.039062 241.039062h30.003907v90.011719h-30.003907zm0 0"/><path d="m300.046875 271.042969h30.003906v30.003906h-30.003906zm0 0"/><path d="m120.019531 241.039062h30.003907v90.011719h-30.003907zm0 0"/><path d="m60.007812 271.042969h30.007813v30.003906h-30.007813zm0 0"/><path d="m30.003906 447.089844 165.027344 64.910156 165.027344-64.910156v-106.765625l30.003906-15v-78.554688l-30.003906-15.003906v-5.730469c0-56.203125-27.910156-105.96875-70.515625-136.019531h25.507812c41.359375 0 75.011719-33.652344 75.011719-75.011719v-15.003906h-135.023438c-36.421874 0-66.851562 26.101562-73.601562 60.578125-84.660156 6.976563-151.433594 78.515625-151.433594 165.457031v5.730469l-30.003906 15.003906v78.554688l30.003906 15zm300.046875-20.441406-135.019531 53.109374-135.023438-53.109374v-71.320313l135.023438 67.511719 135.019531-67.511719zm-75.011719-396.652344h102.449219c-6.191406 17.472656-22.878906 30.011718-42.4375 30.011718h-102.445312c6.191406-17.460937 22.875-30.003906 42.433593-30.011718zm-60.007812 60.019531c71.300781 0 129.863281 55.964844 134.691406 126.582031l-119.6875-59.84375v-36.734375h-30.007812v36.734375l-119.6875 59.84375c4.828125-70.617187 63.390625-126.582031 134.691406-126.582031zm-165.027344 175.296875 165.027344-82.511719 165.027344 82.511719v41.464844l-165.027344 82.515625-165.027344-82.515625zm0 0"/></svg>