<svg height="512" viewBox="0 0 60 60" width="512" xmlns="http://www.w3.org/2000/svg"><path id="Shape" d="m1.562 14.391 19.68 16.409-3.6 4.316-6.376-6.377c-.375096-.375248-.8839266-.5860729-1.4145-.5860729-.53057337 0-1.03940398.2108249-1.4145.5860729l-.707.707c-1.95257625 1.9526137-1.95257625 5.1183863 0 7.071l5.1 5.1-7.23 8.442c-2.11264162-.2584912-4.15649946.8523028-5.08879141 2.7656517s-.54752042 4.2075087.95800306 5.7119924c1.50552348 1.5044838 3.79994851 1.8876703 5.71265289.9540567 1.91270438-.9336135 3.02208606-2.9782383 2.76213546-5.0907008l8.444-7.227 4.392 4.392c.9633535.9647861 2.2789087 1.4943347 3.6420156 1.4660153 1.3631068-.0283194 2.6555329-.6120504 3.5779844-1.6160153.9234235 1.0009686 2.2146078 1.5827956 3.5761608 1.6114718 1.3615531.0286762 2.6760897-.4982708 3.6408392-1.4594718l4.395-4.4 8.448 7.233c-.2601353 2.1138383.8502963 4.1597217 2.7645136 5.0933999 1.9142172.9336782 4.2100623.5492396 5.7157005-.9570924 1.5056382-1.5063321 1.889019-3.802354.954459-5.7161409-.9345601-1.9137868-2.9809549-3.0232758-5.0946731-2.7621666l-7.228-8.445 5.094-5.093c.9451325-.9350452 1.4751312-2.2105009 1.471-3.54 0-2.183-1.183-3.246-2.169-4.246-.7939269-.7556827-2.0410731-.7556827-2.835 0l-6.376 6.379-3.6-4.317 19.689-16.416c.630714-.5383873 1.015198-1.3102435 1.065-2.138l.483-9.032c.0467079-.86216505-.2754073-1.70351921-.8859441-2.31405594-.6105367-.61053673-1.4518909-.93265199-2.3140559-.88594406l-9.033.483c-.8322364.05003312-1.6078686.43802982-2.147 1.074l-15.614 18.724-15.618-18.739c-.5399939-.62566914-1.3108476-1.00532179-2.136-1.052l-9.035-.495c-.86282989-.0471906-1.70505586.27455718-2.31665259.88500931s-.93492164 1.45207392-.88934741 2.31499069l.49 9.04c.04886452.8307145.4341607 1.6056401 1.067 2.146zm21.861 16.917 2.755-3.308h5.822v5.824l-8.5 7.094-1.5-1.498 5.631-5.632c.1874927.1875494.4418052.2929434.707.293 1.157 0 1.567-1.755-.19-2.2-.3-1.181-1.315-1.536-1.931-.92-.3903819.3904999-.3903819 1.0235001 0 1.414l-5.631 5.632-1.5-1.5zm10.223 3.751 4.361 4.362-1.5 1.5-4.944-4.124zm-26.522 22.063c-1.18746507 1.1319371-3.05453493 1.1319371-4.242 0-.85818184-.8579227-1.11501517-2.1483473-.65072527-3.2694817.46428991-1.1211344 1.55825609-1.8521589 2.77172527-1.8521589s2.30743536.7310245 2.77172527 1.8521589c.4642899 1.1211344.20745657 2.411559-.65072527 3.2694817zm2.117-4.753c-.39357179-.6610645-.94593549-1.2134282-1.607-1.607l6.614-7.729 2.721 2.721zm19.2-2.218c-1.1877295 1.1332086-3.0562705 1.1332086-4.244 0l-5.042-5.043-4.255-4.256-5.754-5.752c-.56271905-.5626237-.87885933-1.3257625-.87885933-2.1215s.31614028-1.5588763.87885933-2.1215l.707-.707 10 10c9.566 9.565 9.242 9.2 9.285 9.3zm1.559-2.676-5.114-5.114 5.114-4.261 5.112 4.263zm27.118 5.4c.562719.5626237.8788593 1.3257625.8788593 2.1215s-.3161403 1.5588763-.8788593 2.1215c-1.1874651 1.1319371-3.0545349 1.1319371-4.242 0-1.169058-1.1727537-1.169058-3.0702463 0-4.243 1.1885213-1.1337475 3.0586174-1.1319854 4.245.004zm-4.752-2.117c-.6613001.3932689-1.2137311.9456999-1.607 1.607l-7.73-6.615 2.722-2.722zm-2.218-20.614c.852.864 1.589 1.463 1.589 2.837.002871.7975628-.3153734 1.562719-.883 2.123l-5.75 5.75-4.251 4.251-5.048 5.048c-1.1709248 1.1678174-3.0660752 1.1678174-4.237 0l-.45-.45c.0339966-.1699835.0339966-.3450165 0-.515zm-9.23 6.366-1.5 1.5-4.233-4.234 2.034-1.7zm17.061-33.071-.465 8.7c-.0168064.2785425-.1464509.5381927-.359.719l-23.155 19.3v-4.742zm-10.837-.581c.1812971-.21757144.4443216-.35071179.727-.368l8.7-.467-23.981 23.977h-4.742zm-35-.366c.2762301.01567478.5344217.14224632.716.351l15.842 19.01-2.47 2.963-22.796-22.796zm12.802 23.867-2.421 2.9-19.669-16.396c-.21404055-.1821117-.344735-.4435006-.362-.724l-.472-8.7z"/></svg>