<svg height="512" viewBox="0 0 56 56" width="512" xmlns="http://www.w3.org/2000/svg"><g id="010---Swords"><path id="Shape" d="m29.566 34.794 4.944 4.124 1.497-1.497-4.361-4.362z"/><path id="Shape" d="m33.188 31.773 4.233 4.234 1.497-1.497-3.696-4.433z"/><path id="Shape" d="m7.146 28.859c-.56271905.5626237-.87885933 1.3257625-.87885933 2.1215s.31614028 1.5588763.87885933 2.1215l15.048 15.049c1.1877295 1.1332086 3.0562705 1.1332086 4.244 0l.7-.7c-.059-.1-5.464-5.479-19.284-19.3z"/><path id="Shape" d="m17.086 34.508 1.5 1.5c6.4-6.4 5.563-5.529 5.632-5.632-.3903819-.3904999-.3903819-1.0235001 0-1.414.624-.624 1.634-.247 1.931.92 1.768.449 1.324 2.2.19 2.2-.2651948-.0000566-.5195073-.1054506-.707-.293-.1.051.753-.752-5.631 5.632l1.5 1.5 8.499-7.095v-5.826h-5.822z"/><path id="Shape" d="m50.879 50.879c-.9603624.9600725-1.156062 2.4455226-.4771203 3.621564.6789416 1.1760414 2.0631951 1.7493673 3.3748442 1.3977826 1.311649-.3515847 2.2235661-1.5403941 2.2232761-2.8983466-.0050967-1.2108298-.7364112-2.3003117-1.8550965-2.7636454-1.1186853-.4633336-2.406167-.2099905-3.2659035.6426454z"/><path id="Shape" d="m48.148 28.144c-20.621 20.636-19 18.881-19 19.3 0 .359-.166.118.424.709 1.1709248 1.1678174 3.0660752 1.1678174 4.237 0 7.058-7.058-1.471 1.469 9.3-9.3.5-.438-1.673 1.673 5.75-5.75.5656785-.5610482.8838656-1.3247772.8838656-2.1215s-.3181871-1.5604518-.8838656-2.1215z"/><path id="Shape" d="m24.23 22.816 2.47-2.963-15.846-19.01c-.1815783-.20875368-.4397699-.33532522-.716-.351l-7.4-.4c-.20683148-.01101963-.39904442.10662546-.48333039.29582527-.08428596.18919981-.04319308.41077949.10333039.55717473z"/><path id="Shape" d="m7.241 50.369 7.728-6.615-2.721-2.721-6.614 7.729c.66106451.3935718 1.21342821.9459355 1.607 1.607z"/><path id="Shape" d="m30.588 24 23.056-23.054c.1466947-.1465187.1877447-.36837106.1031887-.55767868-.0845559-.18930762-.2771729-.30679056-.4841887-.29532132l-7.394.4c-.2826784.01728821-.5457029.15042856-.727.368l-19.296 23.139z"/><path id="Shape" d="m.854 10.863 19.669 16.4 2.421-2.9-22-22c-.1465187-.14669475-.36837106-.18774467-.55767868-.10318875s-.30679056.27717296-.29532132.48418875l.4 7.4c.01884485.278879.14979219.5382486.363.719z"/><path id="Shape" d="m32 30.158 23.153-19.3c.2125491-.1808073.3421936-.4404575.359-.719l.395-7.392c.0114692-.20701579-.1060137-.39963283-.2953213-.48418875s-.41116-.043506-.5576787.10318875l-23.054 23.05z"/><path id="Shape" d="m5.124 55.122c.85818184-.8579227 1.11501517-2.1483473.65072527-3.2694817-.46428991-1.1211344-1.55825609-1.8521589-2.77172527-1.8521589s-2.30743536.7310245-2.77172527 1.8521589-.20745657 2.411559.65072527 3.2694817c1.18746507 1.1319371 3.05453493 1.1319371 4.242 0z"/><path id="Shape" d="m50.369 48.762-6.615-7.73-2.722 2.722 7.73 6.615c.3932689-.6613001.9456999-1.2137311 1.607-1.607z"/></g></svg>