<svg height="512" viewBox="0 0 47 61" width="512" xmlns="http://www.w3.org/2000/svg"><g id="038---Royal-Letter"><path id="Shape" d="m45.714 9.569c-.324-.7-.036-.306-7.421-7.69-.2669094-.2605893-.5781033-.47155099-.919-.623-.832-.365 1.961-.256-34.374-.256-1.65685425 0-3 1.34314575-3 3v54c0 1.6568542 1.34314575 3 3 3h40c1.6568542 0 3-1.3431458 3-3 0-51.234.128-47.575-.286-48.431zm-7.714-5.155 4.586 4.586h-3.586c-.5522847 0-1-.44771525-1-1zm6 53.586c0 .5522847-.4477153 1-1 1h-40c-.55228475 0-1-.4477153-1-1v-54c0-.55228475.44771525-1 1-1h33v5c0 1.65685425 1.3431458 3 3 3h5z"/><path id="Shape" d="m37 26.184v-4.784-1.4c-.0033061-2.7600532-2.2399468-4.9966939-5-5h-1.026c-.936398-1.2545681-2.4085092-1.9954393-3.974-2h-1c0-1.1045695-.8954305-2-2-2v-2h1c.5522847 0 1-.44771525 1-1s-.4477153-1-1-1h-1v-1c0-.55228475-.4477153-1-1-1s-1 .44771525-1 1v1h-1c-.5522847 0-1 .44771525-1 1s.4477153 1 1 1h1v2c-1.1045695 0-2 .8954305-2 2h-1c-1.5654908.0045607-3.037602.7454319-3.974 2h-1.026c-2.7600532.0033061-4.99669388 2.2399468-5 5v1.4 4.789c-1.36895703.489866-2.18783348 1.8927062-1.94124907 3.3256083.24658441 1.432902 1.48729054 2.4813139 2.94124907 2.4853917h26c1.4594373.0027654 2.7080809-1.0474881 2.9553873-2.485822s-.5788398-2.8453257-1.9553873-3.330178zm-2-6.1c-1.0045533-.1655519-2.0343292-.0835131-3 .239.0768588-1.1082438.0433607-2.2213833-.1-3.323.8274438-.0279273 1.6296443.2873355 2.216676.8711479.5870316.5838125.9067008 1.3842673.883324 2.2118521zm0 2.042v3.874h-3v-3.5c.9161905-.5011365 1.9886433-.6351932 3-.375zm-9-7.126h1c1.6568542 0 3 1.3431458 3 3v2.322c-1.2985864-.4304847-2.7014136-.4304847-4 0zm0 7.5c1.2486498-.6720459 2.7513502-.6720459 4 0v3.5h-4zm-4-9.5h2v13h-2zm-6 5c0-1.6568542 1.3431458-3 3-3h1v5.322c-1.2985864-.4304847-2.7014136-.4304847-4 0zm0 4.5c1.2490584-.6704224 2.7509416-.6704224 4 0v3.5h-4zm-1.9-5.5c-.1401527 1.1015356-.1736413 2.2140287-.1 3.322-.9656708-.3225131-1.9954467-.4045519-3-.239-.0233768-.8275848.2962924-1.6280396.883324-2.2118521.5870317-.5838124 1.3892322-.8990752 2.216676-.8711479zm-3.1 5.125c1.0115595-.2586711 2.0835665-.1243128 3 .376v3.499h-3zm25 7.875h-26c-.55228475 0-1-.4477153-1-1s.44771525-1 1-1h26c.5522847 0 1 .4477153 1 1s-.4477153 1-1 1z"/><path id="Shape" d="m37 34h-28c-.55228475 0-1 .4477153-1 1s.44771525 1 1 1h28c.5522847 0 1-.4477153 1-1s-.4477153-1-1-1z"/><path id="Shape" d="m9 48h28c.5522847 0 1-.4477153 1-1s-.4477153-1-1-1h-28c-.55228475 0-1 .4477153-1 1s.44771525 1 1 1z"/><path id="Shape" d="m13 50h-4c-.55228475 0-1 .4477153-1 1s.44771525 1 1 1h4c.5522847 0 1-.4477153 1-1s-.4477153-1-1-1z"/><path id="Shape" d="m9 40h4c.5522847 0 1-.4477153 1-1s-.4477153-1-1-1h-4c-.55228475 0-1 .4477153-1 1s.44771525 1 1 1z"/><path id="Shape" d="m37 38h-20c-.5522847 0-1 .4477153-1 1s.4477153 1 1 1h20c.5522847 0 1-.4477153 1-1s-.4477153-1-1-1z"/><path id="Shape" d="m37 42h-4c-.5522847 0-1 .4477153-1 1s.4477153 1 1 1h4c.5522847 0 1-.4477153 1-1s-.4477153-1-1-1z"/><path id="Shape" d="m9 44h20c.5522847 0 1-.4477153 1-1s-.4477153-1-1-1h-20c-.55228475 0-1 .4477153-1 1s.44771525 1 1 1z"/><path id="Shape" d="m38 55h-1.149c-.6907075-.0017148-1.3323553-.3572632-1.7-.942-.6048116-1.2018424-1.8074142-1.9872934-3.151-2.058-2.576 0-2.831 3-4 3s-1.435-3-4-3c-2.645 0-3.823 3.307-3.948 3.684-.1128959.3394023-.0361471.7132523.201336.9807242.237483.2674719.599621.3879304.95.316.350379-.0719305.6357681-.3253219.748664-.6647242.159-.489.985-2.316 2.048-2.316 1.172 0 1.435 3 4 3s2.831-3 4-3c.615 0 1.139.617 1.471 1.135.7322769 1.1601774 2.0080524 1.8641186 3.38 1.865h1.149c.5522847 0 1-.4477153 1-1s-.4477153-1-1-1z"/></g></svg>