<svg height="512" viewBox="0 0 42 56" width="512" xmlns="http://www.w3.org/2000/svg"><g id="038---Royal-Letter"><path id="Shape" d="m28 19.5c-1.2487863-.6715038-2.7512137-.6715038-4 0v3.5h4z"/><path id="Shape" d="m28 17.322v-2.322c0-1.6568542-1.3431458-3-3-3h-1v5.322c1.2985864-.4304847 2.7014136-.4304847 4 0z"/><path id="Shape" d="m30 19.5v3.5h3v-3.875c-1.0113632-.2600914-2.0837782-.1260395-3 .375z"/><path id="Shape" d="m40.586 6-4.586-4.586v3.586c0 .55228475.4477153 1 1 1z"/><path id="Shape" d="m30 17.322c.9656708-.3225131 1.9954467-.4045519 3-.239.0224167-.8099311-.2837298-1.5944909-.8487869-2.1751813-.5650571-.5806903-1.3409719-.9081289-2.1512131-.9078187-.233 0 0-.1 0 1z"/><path id="Rectangle-path" d="m20 10h2v13h-2z"/><path id="Shape" d="m18 19.5c-1.2490584-.6704224-2.7509416-.6704224-4 0v3.5h4z"/><path id="Shape" d="m18 17.322v-5.322h-1c-1.6568542 0-3 1.3431458-3 3v2.322c1.2985864-.4304847 2.7014136-.4304847 4 0z"/><path id="Shape" d="m34 25h-26c-.55228475 0-1 .4477153-1 1s.44771525 1 1 1h26c.5522847 0 1-.4477153 1-1s-.4477153-1-1-1z"/><path id="Shape" d="m34 5v-5h-33c-.55228475 0-1 .44771525-1 1v54c0 .5522847.44771525 1 1 1h40c.5522847 0 1-.4477153 1-1v-47h-5c-1.6568542 0-3-1.34314575-3-3zm-23 44h-4c-.55228475 0-1-.4477153-1-1s.44771525-1 1-1h4c.5522847 0 1 .4477153 1 1s-.4477153 1-1 1zm24-12h-20c-.5522847 0-1-.4477153-1-1s.4477153-1 1-1h20c.5522847 0 1 .4477153 1 1s-.4477153 1-1 1zm1 3c0 .5522847-.4477153 1-1 1h-4c-.5522847 0-1-.4477153-1-1s.4477153-1 1-1h4c.5522847 0 1 .4477153 1 1zm-1-7h-28c-.55228475 0-1-.4477153-1-1s.44771525-1 1-1h28c.5522847 0 1 .4477153 1 1s-.4477153 1-1 1zm-28 2h4c.5522847 0 1 .4477153 1 1s-.4477153 1-1 1h-4c-.55228475 0-1-.4477153-1-1s.44771525-1 1-1zm0 4h20c.5522847 0 1 .4477153 1 1s-.4477153 1-1 1h-20c-.55228475 0-1-.4477153-1-1s.44771525-1 1-1zm0 4h28c.5522847 0 1 .4477153 1 1s-.4477153 1-1 1h-28c-.55228475 0-1-.4477153-1-1s.44771525-1 1-1zm29 11h-1.149c-1.3719476-.0008814-2.6477231-.7048226-3.38-1.865-.332-.518-.856-1.135-1.471-1.135-1.172 0-1.435 3-4 3s-2.831-3-4-3c-1.063 0-1.889 1.827-2.052 2.316-.1128959.3394023-.398285.5927937-.748664.6647242-.350379.0719304-.712517-.0485281-.95-.316-.2374831-.2674719-.3142319-.6413219-.201336-.9807242.129-.377 1.307-3.684 3.952-3.684 2.576 0 2.831 3 4 3s1.435-3 4-3c1.3450457.0693033 2.549489.8549592 3.155 2.058.3676447.5847368 1.0092925.9402852 1.7.942h1.145c.5522847 0 1 .4477153 1 1s-.4477153 1-1 1zm-2-25h-26c-1.45943726.0027654-2.70808095-1.0474881-2.95538732-2.485822-.24730638-1.4383339.57883984-2.8453257 1.95538732-3.330178v-6.184c.00330612-2.7600532 2.23994685-4.9966939 5-5h1.026c.936398-1.2545681 2.4085092-1.9954393 3.974-2h1c0-1.1045695.8954305-2 2-2v-2h-1c-.5522847 0-1-.44771525-1-1s.4477153-1 1-1h1v-1c0-.55228475.4477153-1 1-1s1 .44771525 1 1v1h1c.5522847 0 1 .44771525 1 1s-.4477153 1-1 1h-1v2c1.1045695 0 2 .8954305 2 2h1c1.5654908.0045607 3.037602.7454319 3.974 2h1.026c2.7600532.0033061 4.9966939 2.2399468 5 5v6.184c1.3765475.4848523 2.2026937 1.8918441 1.9553873 3.330178s-1.49595 2.4885874-2.9553873 2.485822z"/><path id="Shape" d="m12 19.5c-.9162463-.5008926-1.9884789-.6352791-3-.376v3.876h3z"/><path id="Shape" d="m12 17.322c-.0767923-1.107912-.0432944-2.2207132.1-3.322-.8124382-.0256978-1.6006316.278829-2.18474343.8440985-.58411179.5652694-.9143104 1.3430576-.91525657 2.1559015 0 .19-.078 0 1 0 .6798611-.0036801 1.3556488.1051218 2 .322z"/></g></svg>