<svg height="512" viewBox="0 0 53 56" width="512" xmlns="http://www.w3.org/2000/svg"><g id="031---Knight"><path id="Shape" d="m2.765 38 4.393 7.325c.73333333-.39 1.44-.79 2.12-1.2l-3.834-6.125z"/><path id="Shape" d="m12.786 41.747-2.344-3.753-2.642.006 3.166 5.061c.634-.431 1.24-.869 1.82-1.314z"/><path id="Shape" d="m23.236 35.393c.1322074-.309335.1000228-.664415-.0856495-.9449373-.1856724-.2805223-.4999486-.4488912-.8363505-.4480627l-22.314-.000003v1.000003c0 .5522847.44771525 1 1 1h15.822c.7812489-.0012241 1.491693.4525666 1.8190686 1.1619161.3273755.7093495.2117448 1.5443862-.2960686 2.1380839-3.0793107 3.3602226-6.7612272 6.1134346-10.855 8.117-.47896181.2446311-.67865614.8242749-.452 1.312l.436.928c10.626-5.217 14.436-11.176 15.762-14.264z"/><path id="Shape" d="m2.414 32h16.64c-3.527-3.439-5.432-8.926-6.316-12.259 0-.008-.01-.012-.013-.02v-.01c-.0879206-.2873844-.3016247-.5192723-.5808896-.6303171-.2792649-.1110447-.5938523-.0892225-.8551104.0593171-1.82774656 1.2034415-3.29127929 2.8841525-4.232 4.86h3.943c.6935426.0014062 1.3368491.3620157 1.6999472.9529159.363098.5909003.394149 1.3277302.0820528 1.9470841l-1 1.995c-.333664.678937-1.0255092 1.1079431-1.782 1.105h-5.611c-.189.223.126-.1-1.975 2z"/><path id="Shape" d="m11 26h-4.887c-.326.78-.571 1.47-.745 2h4.632z"/><path id="Shape" d="m49 23c0-3.557 2.735-13.1-2.213-18.693-2.529-2.858-6.831-4.307-12.787-4.307-3.206 0-5.675.949-7.339 2.82-2.812 3.161-2.775 8.277-2.588 10.6 2.9793073.5772875 5.7970172 1.7969187 8.257 3.574 2.477-.071 8.033-.908 8.69-4.189.1238056-.5244774.640941-.856525 1.1693679-.7508396s.8780721.611089.7906321 1.1428396c-.0911943.4333012-.2377293.8530769-.436 1.249 1.294.763 2.456 2.341 2.456 5.554 0 4.626 1.743 10.232 6.4 10.457.4213857.0075577.8022782-.2498895.9523696-.6437113.1500913-.3938217.0371599-.8394726-.2823696-1.1142887-1.7402892-1.4159829-2.8450124-3.4667378-3.07-5.699zm-7.1-18.662c-.1879533.51898654-.7608633.78753807-1.28.6-2.1378904-.68414431-4.3762035-1.00129502-6.62-.938-3.417 0-4.935 1.277-5.647 4.234-.0836001.34744079-.3462073.62388916-.6888999.72520971-.3426927.10132054-.7134076.01212024-.9725-.234-.2590925-.24612025-.3672002-.61176892-.2836001-.95920971.955-3.966 3.345-5.766 7.592-5.766 2.4734386-.06269528 4.9395455.29540251 7.293 1.059.2502769.0888737.4549194.2736575.5687914.51359547.1138721.23993796.1276189.51531882.0382086.76540453z"/><path id="Shape" d="m25.625 47.911c7.602349-3.0545034 11.344951-11.6460249 8.4044114-19.2931765-2.9405395-7.6471516-11.4751654-11.5177423-19.1654114-8.6918235 1.066 3.752 3.326 9.622 7.425 12.074 1.0133731-.0093652 1.9629776.493519 2.5247009 1.3370116s.6596284 1.9135654.2602991 2.8449884c-1.136 2.646-3.946 7.225-10.617 11.749.8815544.3562597 1.7954667.6265152 2.729.807.5378215.1073351.8888462.6278136.7868337 1.16667-.1020125.5388565-.618995.8950099-1.1588337.79833-.6471299-.1265951-1.2862376-.2912137-1.914-.493-.3293789 1.7121157-1.2495892 3.2541758-2.6 4.357-.2618129.2175326-.3596898.5755439-.2449629.8960188s.4175769.53503.7579629.5369812h17.374c.3413012.0001437.6460743-.2136653.7620999-.5346397.1160257-.3209744.0184071-.6802397-.2440999-.8983603-1.6447073-1.3104318-2.6331718-3.275302-2.705-5.377 0-.395.207-.166-1.625.575-.3317703.136837-.7114266.0853969-.9948234-.1347898-.2833967-.2201867-.427072-.575352-.3764761-.930649s.2877036-.6562371.6212995-.7885612zm-5.625-24.911c-.5522847 0-1-.4477153-1-1s.4477153-1 1-1c5.5063318.0086551 10.4128271 3.4776677 12.257 8.666.176875.5183608-.0961482 1.0825557-.6123973 1.2655023-.5162492.1829467-1.0836096-.0834359-1.2726027-.5975023-1.5607769-4.3903582-5.7124715-7.3260049-10.372-7.334z"/><path id="Shape" d="m16.833 37.99h-4.034l1.545 2.476c.8849599-.7678224 1.7165539-1.595073 2.489-2.476z"/><path id="Shape" d="m22.113 15.117c-.3636624-.0473748-.7244636.1059006-.9428342.4005342s-.2600641.6844188-.108952 1.0185742.4713312.5602762.8367862.5908916c5.1484922.579952 9.7514891 3.4760878 12.5025507 7.8664154 2.7510617 4.3903275 3.3498627 9.7955676 1.6264493 14.6815846-.1079689.3043449-.0612009.6421842.1253858.9057529.1865868.2635687.489686.4199449.8126142.4192471.4248142.0026142.8061315-.2601154.955-.658 1.9297901-5.4661938 1.2606054-11.5141422-1.8175058-16.4262289s-8.2288819-8.1516929-13.9894942-8.7987711z"/></g></svg>