<svg height="512" viewBox="0 0 42 56" width="512" xmlns="http://www.w3.org/2000/svg"><g id="026---Throne"><path id="Shape" d="m4 38c.55228475 0 1-.4477153 1-1v-7h-2v7c0 .5522847.44771525 1 1 1z"/><path id="Shape" d="m1 26c-.55228475 0-1 .4477153-1 1s.44771525 1 1 1h7v-2z"/><path id="Shape" d="m8 30h-1v4.111c1.31319253-1.3500248 3.116641-2.1114407 5-2.111h18c1.883359-.0004407 3.6868075.7609752 5 2.111v-4.111h-1c-1.1045695 0-2-.8954305-2-2v-2c.002145-.7113268.3832487-1.3675874 1-1.722v-16.625c-1.5092197-.87301026-2.7653588-2.12363543-3.645-3.629l-16.703-.024c-.8720976 1.50931987-2.1225323 2.76526923-3.628 3.644l-.024 16.635c.61644281.3542338.99749867 1.0100309 1 1.721v2c0 1.1045695-.8954305 2-2 2zm5-20.208c0-.56815809.3210036-1.08755277.8291796-1.34164079s1.1162939-.19925406 1.5708204.14164079l2.506 1.877 2.033-2.031c.2813322-.28151251.6630087-.43967977 1.061-.43967977s.7796678.15816726 1.061.43967977l2.033 2.031 2.506-1.877c.4545265-.34089485 1.0626444-.39572881 1.5708204-.14164079s.8291796.7734827.8291796 1.34164079v11.208c0 1.1045695-.8954305 2-2 2h-12c-1.1045695 0-2-.8954305-2-2z"/><path id="Shape" d="m33.457 38c.3612835-.0016446.6939412-.1968953.8715176-.5115301.1775764-.3146349.1727985-.7003306-.0125176-1.0104699-.8961976-1.534179-2.5392403-2.47752-4.316-2.478h-18c-1.7767597.00048-3.41980245.943821-4.316 2.478-.18531607.3101393-.19009404.695835-.01251762 1.0104699.17757642.3146348.51023414.5098855.87151762.5115301z"/><path id="Shape" d="m27 10.792-2.054 1.538c-.5979364.4430737-1.4296153.3840623-1.959-.139l-1.987-1.984-1.986 1.984c-.5294991.5225531-1.360573.5819458-1.959.14l-2.055-1.539v6.208h12z"/><path id="Shape" d="m36.3 4.751c-1.952037-.57386498-3.4792088-2.09953026-4.055-4.051-.1252984-.41680795-.509769-.70160104-.945-.7h-20.6c-.4363389-.00293475-.82238759.28212231-.948.7-.57452261 1.94951967-2.09690484 3.47566552-4.045 4.055-.4173197.12579358-.70215768.51113867-.7.947l-.007 18.298h2v-16.347c.00144513-.71308354.38244942-1.37145896 1-1.728 1.20128239-.68890366 2.2011373-1.68048395 2.9-2.876.3528234-.6393265 1.0218358-1.03989381 1.752-1.049h16.7c.7283327.00909514 1.3957262.40846221 1.748 1.046.70138 1.19512653 1.7005297 2.18807468 2.9 2.882.6166259.35600323.9974873 1.01298911 1 1.725v16.347h2.0000297l-.0000297-18.3c.0033806-.43670799-.2817648-.82328362-.7-.949z"/><path id="Rectangle-path" d="m15 19h12v2h-12z"/><path id="Shape" d="m41 55v-1c-1.2 0-.741 0-2 0-.460569.0006063-.8619878-.313436-.9722412-.7606142-.1102533-.4471782.0991763-.9118273.5072412-1.1253858.2978996-.173455.4765008-.4964735.465-.841v-2.273c0-.5522847-.4477153-1-1-1h-1c-.5522847 0-1 .4477153-1 1v6c0 .5522847.4477153 1 1 1h3c.5522847 0 1-.4477153 1-1z"/><path id="Shape" d="m3 54h-2v1c0 .5522847.44771525 1 1 1h3c.55228475 0 1-.4477153 1-1v-6c0-.5522847-.44771525-1-1-1h-1c-.55228475 0-1 .4477153-1 1v2.273c-.01150082.3445265.16710038.667545.465.841.40806486.2135585.61749453.6782076.50724116 1.1253858-.11025338.4471782-.51167219.7612205-.97224116.7606142z"/><path id="Shape" d="m39 37v-7h-2v7c0 .5522847.4477153 1 1 1s1-.4477153 1-1z"/><path id="Shape" d="m42 27c0-.5522847-.4477153-1-1-1h-7v2h7c.5522847 0 1-.4477153 1-1z"/><path id="Shape" d="m10 52v-3c0-.5522847-.44771525-1-1-1s-1 .4477153-1 1v3c0 .5522847.44771525 1 1 1s1-.4477153 1-1z"/><path id="Shape" d="m34 52v-3c0-.5522847-.4477153-1-1-1s-1 .4477153-1 1v3c0 .5522847.4477153 1 1 1s1-.4477153 1-1z"/><rect id="Rectangle-path" height="6" rx="1" width="36" x="3" y="40"/></g></svg>