<svg height="512" viewBox="0 0 46 60" width="512" xmlns="http://www.w3.org/2000/svg"><g id="026---Throne"><path id="Shape" d="m39.324 4.943c-1.6727411-.28845658-2.9821011-1.5998199-3.268-3.273-.1607615-.96100068-.9906526-1.66630255-1.965-1.67h-22.182c-.9753659.00337609-1.8060449.70983353-1.966 1.672-.28473058 1.6726698-1.59376772 2.98371098-3.266 3.271-.96452431.15783701-1.67370276.98965216-1.677 1.967v19.09h-3c-1.1045695 0-2 .8954305-2 2v2c0 1.1045695.8954305 2 2 2h1v22c-1.1045695 0-2 .8954305-2 2v2c0 1.1045695.8954305 2 2 2h5c1.1045695 0 2-.8954305 2-2v-1h2c1.1045695 0 2-.8954305 2-2v-5h18v5c0 1.1045695.8954305 2 2 2h2v1c0 1.1045695.8954305 2 2 2h5c1.1045695 0 2-.8954305 2-2v-2c0-1.1045695-.8954305-2-2-2v-22h1c1.1045695 0 2-.8954305 2-2v-2c0-1.1045695-.8954305-2-2-2h-3v-19.09c-.003216-.97702677-.7118729-1.8087261-1.676-1.967zm-32.318 1.972c2.51479668-.42597652 4.4831721-2.39916954 4.903-4.915h22.175c.4236863 2.51767122 2.3978132 4.48938871 4.916 4.91v19.09h-2v-16.347c-.002072-.71946954-.3904258-1.38238224-1.017-1.736-1.2001574-.7009509-2.1990491-1.69984263-2.9-2.9-.3576799-.62207742-1.0174706-1.00882507-1.735-1.017h-16.7c-.7178878.00782268-1.3781394.39461752-1.736 1.017-.7009509 1.20015737-1.6998426 2.1990491-2.9 2.9-.62464714.35490319-1.01094929 1.0175717-1.012 1.736v16.347h-1.994zm24.994 27.085h-18c-1.883359-.0004407-3.6868075.7609752-5 2.111v-4.111h1c1.1045695 0 2-.8954305 2-2v-2c.0024487-.7088959-.3739003-1.3651235-.987-1.721v-16.635c1.5078764-.87404173 2.7620565-2.12580934 3.639-3.632h16.7c.879997 1.50923797 2.1370746 2.76390339 3.648 3.641v16.625c-.6167513.3544126-.997855 1.0106732-1 1.722v2c0 1.1045695.8954305 2 2 2h1v4.111c-1.3131925-1.3500248-3.116641-2.1114407-5-2.111zm4.9 6h-27.8c.47808203-2.3266291 2.5247614-3.9973877 4.9-4h18c2.3752386.0026123 4.421918 1.6733709 4.9 4zm-34.9-10v-2h8v2zm5 2v8h-2v-8zm1 26h-5v-2h2c.55228475 0 1-.4477153 1-1s-.44771525-1-1-1v-4h3zm4-3h-2v-5h2zm24 0h-2v-5h2zm-31-7v-6h36v6zm34-8v-8h2v8zm4 18h-5v-8h3v4c-.5522847 0-1 .4477153-1 1s.4477153 1 1 1h2zm1-30v2h-8v-2z"/><path id="Shape" d="m28.6 10.592-2.506 1.878-2.033-2.031c-.2813322-.2815125-.6630087-.43967977-1.061-.43967977s-.7796678.15816727-1.061.43967977l-2.033 2.031-2.506-1.877c-.4545265-.3408949-1.0626444-.3957288-1.5708204-.1416408s-.8291796.7734827-.8291796 1.3416408v11.207c0 1.1045695.8954305 2 2 2h12c1.1045695 0 2-.8954305 2-2v-11.208c0-.5681581-.3210036-1.0875528-.8291796-1.3416408s-1.1162939-.1992541-1.5708204.1416408zm.4 12.408h-12v-2h12zm0-4h-12v-6.208l2.055 1.539c.598427.4419458 1.4295009.3825531 1.959-.14l1.986-1.984 1.987 1.984c.5293847.5230623 1.3610636.5820737 1.959.139l2.054-1.538z"/></g></svg>