<svg id="icons" enable-background="new 0 0 64 64" height="512" viewBox="0 0 64 64" width="512" xmlns="http://www.w3.org/2000/svg"><path d="m12.996 39.001h37.988c1.654 0 3-1.346 3-3v-24.004c0-1.654-1.346-3-3-3h-37.988c-1.654 0-3 1.346-3 3v24.004c0 1.654 1.346 3 3 3zm37.988-2h-37.988c-.552 0-1-.448-1-1v-.002h18.994c0 .553.447 1 1 1s1-.447 1-1h18.994v.002c0 .552-.448 1-1 1zm-37.988-26.004h37.988c.552 0 1 .448 1 1v22.002h-39.988v-22.002c0-.552.448-1 1-1z"/><path d="m20.988 47.998c0 .553.447 1 1 1h20.002c.553 0 1-.447 1-1v-2.998c0-.031-.015-.058-.018-.088-.006-.067-.02-.131-.04-.197s-.044-.127-.076-.187c-.015-.027-.017-.057-.034-.083l-2-3c-.019-.027-.047-.042-.066-.066-.044-.055-.092-.102-.146-.146-.05-.04-.099-.074-.154-.104s-.111-.052-.172-.07c-.067-.021-.132-.034-.201-.041-.032-.002-.06-.018-.093-.018h-16.002c-.033 0-.061.016-.093.019-.07.007-.136.02-.203.041-.06.019-.114.04-.169.069-.056.03-.106.065-.156.106-.054.043-.101.089-.144.143-.021.025-.049.04-.067.067l-2 3c-.018.026-.02.057-.034.083-.032.06-.057.12-.076.187-.021.065-.034.13-.04.197-.003.03-.018.057-.018.088zm3.535-4.998h14.932l.667 1h-16.266zm16.467 3.998h-18.002v-.998h18.002z"/><path d="m4.021 14c.552 0 1-.447 1-1s-.448-1-1-1h-.011c-.552 0-.994.447-.994 1s.452 1 1.005 1z"/><path d="m4.021 20c.552 0 1-.447 1-1s-.448-1-1-1h-.011c-.552 0-.994.447-.994 1s.452 1 1.005 1z"/><path d="m4.021 26c.552 0 1-.447 1-1s-.448-1-1-1h-.011c-.552 0-.994.447-.994 1s.452 1 1.005 1z"/><path d="m4.021 32c.552 0 1-.447 1-1s-.448-1-1-1h-.011c-.552 0-.994.447-.994 1s.452 1 1.005 1z"/><path d="m5.021 37c0-.553-.448-1-1-1h-.011c-.552 0-.994.447-.994 1s.452 1 1.005 1c.551 0 1-.447 1-1z"/><path d="m15.021 50.999c.552 0 1-.447 1-1s-.448-1-1-1h-.011c-.552 0-.994.447-.994 1s.452 1 1.005 1z"/><path d="m15.021 52.999h-.011c-.552 0-.994.447-.994 1s.452 1 1.005 1c.552 0 1-.447 1-1s-.449-1-1-1z"/><path d="m60.01 6.001c-2.204 0-3.996 1.791-3.999 3.994 0 .001-.001.002-.001.003v32.001c0 .553.447 1 1 1h2v12.999h-6.02v-8.999c0-.553-.447-1-1-1h-6c-.553 0-1 .447-1 1v8.999h-26.002v-8.999c0-.553-.447-1-1-1h-5.998c-.553 0-1 .447-1 1v8.999h-6v-12.999h2c.553 0 1-.447 1-1v-1-31.001c0-.001-.001-.002-.001-.003-.003-2.203-1.795-3.994-3.999-3.994s-3.996 1.791-3.999 3.994c0 .001-.001.002-.001.003v32.001c0 .553.447 1 1 1h2v12.999h-2c-.553 0-1 .447-1 1s.447 1 1 1h10.995c.002 0 .003.001.005.001h5.998c.002 0 .003-.001.005-.001h27.992c.002 0 .003.001.005.001h6c.002 0 .003-.001.005-.001h11.015c.553 0 1-.447 1-1s-.447-1-1-1h-2v-12.999h2c.553 0 1-.447 1-1v-32.001c0-.001-.001-.002-.001-.003-.003-2.203-1.795-3.994-3.999-3.994zm-58.02 4c0-1.103.897-2 2-2s2 .897 2 2v30.998h-4zm45 37.998h4v7.999h-4zm-34 0h3.998v7.999h-3.998zm49.02-7h-4v-30.998c0-1.103.897-2 2-2s2 .897 2 2z"/><path d="m60.04 12h-.011c-.552 0-.994.447-.994 1s.452 1 1.005 1c.552 0 1-.447 1-1s-.448-1-1-1z"/><path d="m60.04 18h-.011c-.552 0-.994.447-.994 1s.452 1 1.005 1c.552 0 1-.447 1-1s-.448-1-1-1z"/><path d="m60.04 24h-.011c-.552 0-.994.447-.994 1s.452 1 1.005 1c.552 0 1-.447 1-1s-.448-1-1-1z"/><path d="m60.04 30h-.011c-.552 0-.994.447-.994 1s.452 1 1.005 1c.552 0 1-.447 1-1s-.448-1-1-1z"/><path d="m60.04 36h-.011c-.552 0-.994.447-.994 1s.452 1 1.005 1c.552 0 1-.447 1-1s-.448-1-1-1z"/><path d="m49.021 50.999c.552 0 1-.447 1-1s-.448-1-1-1h-.011c-.552 0-.994.447-.994 1s.452 1 1.005 1z"/><path d="m49.021 52.999h-.011c-.552 0-.994.447-.994 1s.452 1 1.005 1c.552 0 1-.447 1-1s-.449-1-1-1z"/></svg>