<svg id="Capa_1" enable-background="new 0 0 512 512" height="512" viewBox="0 0 512 512" width="512" xmlns="http://www.w3.org/2000/svg"><path d="m10 406c22.056 0 40-17.944 40-40v-150c0-11.028 8.972-20 20-20h16v58.45c0 102.318 72.425 173.29 166.286 210.835 1.192.477 2.453.715 3.714.715s2.521-.238 3.714-.715c93.877-37.552 166.286-108.53 166.286-210.835v-58.45h16c11.028 0 20 8.972 20 20v150c0 22.056 17.944 40 40 40 5.522 0 10-4.478 10-10s-4.478-10-10-10c-11.028 0-20-8.972-20-20v-150c0-22.056-17.944-40-40-40h-16v-120c0-3.318-1.646-6.421-4.394-8.281-2.747-1.859-6.238-2.236-9.321-1.003-33.838 13.537-71.61 22.329-112.269 26.13-5.499.515-9.54 5.389-9.026 10.888.516 5.499 5.39 9.537 10.888 9.026 37.184-3.477 72.134-10.969 104.122-22.306v183.996c0 111.372-92.254 166.915-150 190.756-57.746-23.841-150-79.384-150-190.756v-183.996c31.988 11.337 66.938 18.829 104.122 22.306 5.501.506 10.373-3.527 10.888-9.026.514-5.499-3.527-10.373-9.026-10.888-40.658-3.801-78.431-12.593-112.269-26.13-3.083-1.232-6.572-.857-9.321 1.003-2.748 1.86-4.394 4.963-4.394 8.281v120h-16c-22.056 0-40 17.944-40 40v150c0 11.028-8.972 20-20 20-5.522 0-10 4.478-10 10s4.478 10 10 10z"/><path d="m385.098 195.593c-5.761-32.649-36.838-54.438-69.502-48.672-32.657 5.752-54.44 36.843-48.674 69.508.56 3.173 2.616 5.881 5.521 7.275 2.858 1.374 6.26 1.327 9.13-.242.26-.143 26.145-14.228 44.435-17.454 18.294-3.226 47.438 1.162 47.725 1.206 3.186.491 6.414-.587 8.668-2.892s3.257-5.555 2.697-8.729zm-62.566-9.28c-11.884 2.096-25.676 7.645-35.858 12.311 2.925-15.63 15.265-28.99 32.395-32.006 17.025-3.003 33.23 5.226 41.375 18.999-11.166-.903-26.028-1.402-37.912.696z"/><path d="m185.243 206.008c18.29 3.227 44.175 17.312 44.432 17.452 5.958 3.267 13.456-.254 14.653-7.031 5.765-32.655-16.009-63.755-48.67-69.507-32.652-5.765-63.742 16.006-69.506 48.671-.561 3.174.444 6.425 2.698 8.729s5.482 3.384 8.668 2.892c.292-.044 29.378-4.442 47.725-1.206zm6.943-39.39c17.13 3.016 29.467 16.387 32.391 32.005-10.183-4.666-23.975-10.215-35.858-12.311-11.885-2.098-26.745-1.6-37.911-.696 8.068-13.641 24.204-22.031 41.378-18.998z"/><path d="m256 376.43c54.133 0 102.799-34.818 119.529-87.397 1.352-4.248-.271-8.878-3.98-11.352-3.71-2.474-8.605-2.193-12.009.686-59.996 50.773-147.084 50.773-207.08 0-3.401-2.878-8.3-3.159-12.01-.685-3.709 2.474-5.331 7.104-3.979 11.353 16.74 52.582 65.76 87.395 119.529 87.395zm0-40.132c29.083 0 57.59-7.064 83.1-20.306-19.538 25.066-49.825 40.438-83.1 40.438-32.46 0-63.148-15.185-82.962-40.366 25.475 13.196 53.931 20.234 82.962 20.234z"/><circle cx="256" cy="85" r="10"/></svg>