<?xml version="1.0"?>
<svg xmlns="http://www.w3.org/2000/svg" viewBox="0 0 64 64" width="512" height="512"><g id="outline"><path d="M31.1,14.575,28.85,19.359l-5,.764a1,1,0,0,0-.565,1.687l3.648,3.738-.864,5.291a1,1,0,0,0,1.471,1.036L32,29.41l4.461,2.465a1,1,0,0,0,1.471-1.036l-.864-5.291,3.648-3.738a1,1,0,0,0-.565-1.687l-5-.764-2.245-4.784a1,1,0,0,0-1.81,0Zm2.471,6.117a1,1,0,0,0,.754.564l3.6.55-2.641,2.707a1,1,0,0,0-.271.859l.613,3.756-3.143-1.736a1,1,0,0,0-.966,0l-3.143,1.736.613-3.756a1,1,0,0,0-.271-.859l-2.641-2.707,3.605-.55a1,1,0,0,0,.754-.564L32,17.354Z"/><path d="M54.346,12H58V10a4,4,0,0,0-4-4V2H52V6a3.975,3.975,0,0,0-2.961,1.335,29.877,29.877,0,0,0-34.078,0A3.975,3.975,0,0,0,12,6V2H10V6a4,4,0,0,0-4,4v2H9.654A29.644,29.644,0,0,0,2,32V61a1,1,0,0,0,1,1H61a1,1,0,0,0,1-1V32A29.644,29.644,0,0,0,54.346,12ZM52,8h2a2,2,0,0,1,2,2H50A2,2,0,0,1,52,8ZM33,4.039a27.624,27.624,0,0,1,15.1,5.08A3.993,3.993,0,0,0,48,10v2h3.578a27.664,27.664,0,0,1,8.4,19H56.954A25.094,25.094,0,0,0,35.959,7.332,3.976,3.976,0,0,0,33,6ZM40,41V37H24v4H19v4H14V32a18,18,0,0,1,36,0V45H45V41Zm3,2v2H21V43ZM26,41V39H38v2Zm6-29A20.027,20.027,0,0,0,12.024,31H9.046a23.1,23.1,0,0,1,18-21.443A3.8,3.8,0,0,0,27,10v2H37V10a3.8,3.8,0,0,0-.045-.443A23.1,23.1,0,0,1,54.954,31H51.976A20.027,20.027,0,0,0,32,12Zm1-4a2,2,0,0,1,2,2H29a2,2,0,0,1,2-2ZM8,10a2,2,0,0,1,2-2h2a2,2,0,0,1,2,2Zm4.422,2H16V10a3.993,3.993,0,0,0-.105-.881A27.624,27.624,0,0,1,31,4.039V6a3.976,3.976,0,0,0-2.959,1.332A25.094,25.094,0,0,0,7.046,31H4.018A27.664,27.664,0,0,1,12.422,12ZM4,37V33h8V45H4ZM60,60H4V53H6v5H8V53h2v3h2V53h5v5h2V53h4v2h2V53h3v3h2V53h2v5h2V53h3v5h2V53h2v3h2V53h5v5h2V53h4v2h2V53h4Zm0-9H4V47H60Zm0-14v8H52V33h8Z"/><path d="M8,41a4,4,0,1,0-4-4A4,4,0,0,0,8,41Zm0-6a2,2,0,1,1-2,2A2,2,0,0,1,8,35Z"/><path d="M56,33a4,4,0,1,0,4,4A4,4,0,0,0,56,33Zm0,6a2,2,0,1,1,2-2A2,2,0,0,1,56,39Z"/><rect x="20" y="23" width="2" height="2"/><rect x="40" y="26" width="2" height="2"/></g></svg>
