<svg height="512pt" viewBox="0 0 512.0005 512" width="512pt" xmlns="http://www.w3.org/2000/svg"><path d="m468.316406 227.53125c2.929688 2.929688 6.769532 4.394531 10.605469 4.394531 3.839844 0 7.679687-1.464843 10.609375-4.394531 5.855469-5.859375 5.855469-15.355469 0-21.214844l-4.175781-4.171875c38.496093-49.011719 35.179687-120.386719-9.96875-165.535156-45.148438-45.148437-116.519531-48.464844-165.53125-9.964844l-4.171875-4.175781c-5.859375-5.855469-15.355469-5.855469-21.214844 0-5.855469 5.855469-5.855469 15.355469 0 21.214844l4.175781 4.175781c-19.257812 24.519531-28.050781 54.628906-26.378906 84.257813l-179.246094 219.078124-13.609375 13.613282c-17.769531 17.765625-20.800781 44.761718-9.125 65.695312l-55.890625 55.890625c-5.859375 5.855469-5.859375 15.355469 0 21.210938 2.929688 2.929687 6.765625 4.394531 10.605469 4.394531s7.679688-1.464844 10.605469-4.394531l55.878906-55.875c8.105469 4.539062 17.269531 6.96875 26.816406 6.96875 14.691407 0 28.503907-5.722657 38.890625-16.109375l13.617188-13.617188 219.074218-179.242187c2.371094.132812 4.746094.210937 7.117188.210937 27.296875 0 54.585938-8.867187 77.144531-26.585937zm-81.316406-197.488281c24.324219 0 48.65625 9.265625 67.175781 27.78125 33.429688 33.433593 36.675781 85.78125 9.761719 122.898437l-132.660156-132.660156c16.554687-12.007812 36.132812-18.019531 55.722656-18.019531zm-134.148438 284.863281-55.757812-55.757812 25.457031-31.109376 61.414063 61.410157zm-74.847656-32.421875 51.511719 51.511719-77.78125 63.640625-18.6875-18.683594-18.683594-18.6875zm-87.382812 138.894531c-9.746094-9.75-9.746094-25.609375 0-35.355468l3.535156-3.535157 35.355469 35.355469-3.535157 3.535156c-9.746093 9.746094-25.605468 9.746094-35.355468 0zm216.675781-151.023437-65.65625-65.652344 28.632813-34.992187c.007812.019531.019531.03125.027343.050781 6.074219 15.914062 15.507813 30.824219 28.3125 43.625 12.785157 12.789062 27.675781 22.210937 43.5625 28.289062.039063.015625.074219.035157.113281.050781zm12.527344-78.179688c-33.429688-33.429687-36.675781-85.78125-9.757813-122.898437l132.65625 132.660156c-37.117187 26.914062-89.464844 23.667969-122.898437-9.761719zm0 0"/><path d="m95 150c24.8125 0 45-20.1875 45-45v-61.972656l36.679688 24.453125c6.890624 4.59375 16.207031 2.734375 20.800781-4.160157 4.597656-6.894531 2.734375-16.207031-4.160157-20.800781l-60-40c-4.601562-3.070312-10.519531-3.355469-15.398437-.746093-4.875 2.613281-7.921875 7.695312-7.921875 13.226562v47.582031c-4.695312-1.667969-9.742188-2.582031-15-2.582031-24.8125 0-45 20.1875-45 45s20.1875 45 45 45zm0-60c8.273438 0 15 6.730469 15 15s-6.726562 15-15 15c-8.269531 0-15-6.730469-15-15s6.730469-15 15-15zm0 0"/><path d="m27 240h5v5c0 8.285156 6.714844 15 15 15s15-6.714844 15-15v-5h5c8.285156 0 15-6.714844 15-15s-6.714844-15-15-15h-5v-5c0-8.285156-6.714844-15-15-15s-15 6.714844-15 15v5h-5c-8.285156 0-15 6.714844-15 15s6.714844 15 15 15zm0 0"/><path d="m323 446c0 8.285156-6.714844 15-15 15s-15-6.714844-15-15 6.714844-15 15-15 15 6.714844 15 15zm0 0"/><path d="m464 323c0 8.285156-6.714844 15-15 15s-15-6.714844-15-15 6.714844-15 15-15 15 6.714844 15 15zm0 0"/><path d="m497 412h-5v-5c0-8.285156-6.714844-15-15-15s-15 6.714844-15 15v5h-5c-8.285156 0-15 6.714844-15 15s6.714844 15 15 15h5v5c0 8.285156 6.714844 15 15 15s15-6.714844 15-15v-5h5c8.285156 0 15-6.714844 15-15s-6.714844-15-15-15zm0 0"/></svg>