<svg height="512pt" viewBox="-60 0 512 512.00035" width="512pt" xmlns="http://www.w3.org/2000/svg"><path d="m308.683594 103.472656c3.816406-3.960937 5.582031-9.46875 4.777344-14.910156l-10.828126-73.394531c-1.429687-9.703125-10.464843-16.40625-20.15625-14.976563-9.703124 1.433594-16.410156 10.457032-14.976562 20.160156l9.554688 64.761719-52.097657 54.085938h-75.640625c-4.457031 0-8.839844 1.097656-12.765625 3.203125l-42.351562 22.6875-34.246094-12.558594 8.257813 24.652344c1.492187 4.457031 1.160156 9.222656-.9375 13.429687-.347657.699219-.753907 1.355469-1.179688 1.996094l23.371094 8.570313c4.726562 1.734374 10.015625 1.390624 14.523437-1.03125l43.347657-23.304688v311.511719c0 12.519531 9.738281 23.183593 22.25 23.628906 13.136718.46875 23.933593-10.042969 23.933593-23.074219v-184.558594h9.96875v184.007813c0 12.519531 9.734375 23.179687 22.25 23.625 13.132813.46875 23.71875-10.042969 23.71875-23.074219v-323.742187zm0 0"/><path d="m238.378906 85.652344c0 22.023437-17.855468 39.878906-39.878906 39.878906s-39.878906-17.855469-39.878906-39.878906c0-22.023438 17.855468-39.878906 39.878906-39.878906s39.878906 17.855468 39.878906 39.878906zm0 0"/><path d="m385.390625 13.675781c-4.363281-3.277343-9.875-4.289062-15.117187-2.769531-2.542969.738281-4.292969 3.066406-4.292969 5.714844v36.269531c-5.929688.191406-10.65625 3.507813-10.65625 7.582031 0 4.195313 5.011719 7.597656 11.191406 7.597656 3.019531 0 6.117187-.988281 7.773437-2.140624 1.449219-1.011719 3.585938-3.648438 3.585938-6.09375v-36.902344c1.601562 1.015625 2.488281 2.691406 2.488281 4.496094v9.40625c0 3.285156 2.664063 5.949218 5.949219 5.949218s5.949219-2.664062 5.949219-5.949218v-9.40625c0-5.460938-2.503907-10.472657-6.871094-13.753907zm0 0"/><path d="m62.957031 88.457031c4.855469 0 11.359375-2.480469 11.359375-7.597656v-39.386719l25.460938-7.378906v28.351562c-6.011719.125-10.832032 3.46875-10.832032 7.585938 0 4.195312 5.007813 7.597656 11.1875 7.597656 6.835938 0 11.539063-4.277344 11.539063-8.1875v-43.261718c0-3.953126-3.792969-6.816407-7.601563-5.714844l-37.355468 10.828125c-2.542969.738281-4.292969 3.066406-4.292969 5.714843v36.269532c-5.929687.191406-10.65625 3.507812-10.65625 7.582031 0 4.195313 5.011719 7.597656 11.191406 7.597656zm0 0"/><path d="m353.671875 147.984375-37.355469 10.828125c-2.542968.734375-4.292968 3.0625-4.292968 5.710938v36.273437c-5.929688.1875-10.65625 3.503906-10.65625 7.578125 0 4.195312 5.007812 7.597656 11.1875 7.597656 3.019531 0 6.144531-.945312 7.769531-2.136718 1.492187-1.09375 3.59375-4.015626 3.59375-6.464844v-38.382813l25.460937-7.378906v28.351563c-6.015625.125-10.835937 3.46875-10.835937 7.585937 0 4.195313 5.007812 7.597656 11.1875 7.597656 2.882812 0 5.882812-.882812 7.488281-1.964843 1.613281-1.082032 4.054688-4.015626 4.054688-6.636719v-42.847657c0-3.960937-3.804688-6.8125-7.601563-5.710937zm0 0"/><path d="m6.972656 152.011719c-3.375 9.207031 1.351563 19.410156 10.558594 22.785156l12.050781 4.421875-18.363281-33.753906c-1.828125 1.789062-3.304688 3.988281-4.246094 6.546875zm0 0"/><path d="m36.460938 119.824219c6.226562-10.246094 1.933593-23.460938-8.863282-28.214844-9.9375-4.378906-21.542968.128906-25.917968 10.066406-5.046876 11.457031 1.757812 24.652344 14.042968 27.183594l30.8125 56.628906c3.285156 6.050781 12.605469 2.066407 10.394532-4.527343zm0 0"/></svg>