<svg height="512pt" viewBox="0 0 512.0005 512" width="512pt" xmlns="http://www.w3.org/2000/svg"><path d="m95 150c24.8125 0 45-20.1875 45-45v-61.972656l36.679688 24.453125c6.890624 4.59375 16.207031 2.734375 20.800781-4.160157 4.597656-6.894531 2.734375-16.207031-4.160157-20.800781l-60-40c-4.601562-3.070312-10.519531-3.355469-15.398437-.746093-4.875 2.613281-7.921875 7.695312-7.921875 13.226562v47.582031c-4.695312-1.667969-9.742188-2.582031-15-2.582031-24.8125 0-45 20.1875-45 45s20.1875 45 45 45zm0 0"/><path d="m27 240h5v5c0 8.285156 6.714844 15 15 15s15-6.714844 15-15v-5h5c8.285156 0 15-6.714844 15-15s-6.714844-15-15-15h-5v-5c0-8.285156-6.714844-15-15-15s-15 6.714844-15 15v5h-5c-8.285156 0-15 6.714844-15 15s6.714844 15 15 15zm0 0"/><path d="m323 446c0 8.285156-6.714844 15-15 15s-15-6.714844-15-15 6.714844-15 15-15 15 6.714844 15 15zm0 0"/><path d="m464 323c0 8.285156-6.714844 15-15 15s-15-6.714844-15-15 6.714844-15 15-15 15 6.714844 15 15zm0 0"/><path d="m497 412h-5v-5c0-8.285156-6.714844-15-15-15s-15 6.714844-15 15v5h-5c-8.285156 0-15 6.714844-15 15s6.714844 15 15 15h5v5c0 8.285156 6.714844 15 15 15s15-6.714844 15-15v-5h5c8.285156 0 15-6.714844 15-15s-6.714844-15-15-15zm0 0"/><path d="m309.859375 26.644531-4.175781-4.175781c-5.855469-5.855469-15.355469-5.855469-21.214844 0-5.855469 5.859375-5.855469 15.355469 0 21.214844l4.175781 4.171875c3.0625-3.894531 6.378907-7.65625 9.96875-11.242188 3.589844-3.589843 7.347657-6.910156 11.246094-9.96875zm0 0"/><path d="m464.144531 223.355469 4.171875 4.175781c2.929688 2.929688 6.769532 4.394531 10.605469 4.394531 3.839844 0 7.679687-1.464843 10.609375-4.394531 5.855469-5.859375 5.855469-15.355469 0-21.214844l-4.175781-4.171875c-3.0625 3.894531-6.378907 7.65625-9.96875 11.242188-3.585938 3.589843-7.347657 6.910156-11.242188 9.96875zm0 0"/><path d="m288.644531 47.855469c-38.496093 49.011719-35.179687 120.382812 9.96875 165.53125 24.367188 24.371093 56.378907 36.554687 88.386719 36.554687 27.296875 0 54.585938-8.867187 77.144531-26.585937zm0 0"/><path d="m475.386719 36.609375c-45.144531-45.148437-116.519531-48.464844-165.527344-9.964844l175.5 175.5c38.496094-49.011719 35.175781-120.386719-9.972656-165.535156zm0 0"/><path d="m93.042969 338.945312 80.011719 80.011719 62.226562-50.914062-91.324219-91.324219zm0 0"/><path d="m163.046875 253.386719 95.566406 95.566406 31.113281-25.457031-101.222656-101.222656zm0 0"/><path d="m69.410156 364.808594c-17.769531 17.765625-20.800781 44.757812-9.125 65.695312l-55.890625 55.890625c-5.859375 5.855469-5.859375 15.355469 0 21.210938 2.929688 2.929687 6.765625 4.394531 10.605469 4.394531s7.679688-1.464844 10.605469-4.394531l55.890625-55.890625c8.300781 4.628906 17.550781 6.960937 26.804687 6.960937 14.082031 0 28.167969-5.363281 38.890625-16.085937l3.535156-3.535156-77.78125-77.78125zm0 0"/><path d="m236.785156 163.265625-29.1875 35.671875 105.464844 105.464844 35.671875-29.1875c-26.78125-6.753906-51.328125-20.605469-71.335937-40.613282-20.007813-20.007812-33.859376-44.554687-40.613282-71.335937zm0 0"/></svg>