<svg height="512" viewBox="0 0 64 64" width="512" xmlns="http://www.w3.org/2000/svg"><circle cx="18" cy="8" r="1"/><circle cx="22" cy="8" r="1"/><path d="m28 52a3 3 0 0 0 0 6h8a3 3 0 0 0 0-6zm9 3a1 1 0 0 1 -1 1h-8a1 1 0 0 1 0-2h8a1 1 0 0 1 1 1z"/><path d="m29 44a1 1 0 0 0 0 2h6a1 1 0 0 0 0-2h-2v-2.14a4 4 0 0 0 3-3.86v-4a4 4 0 0 0 -8 0v4a4 4 0 0 0 3 3.86v2.14zm3-12a2 2 0 0 1 2 2v2h-4v-2a2 2 0 0 1 2-2zm-2 6h4a2 2 0 0 1 -4 0z"/><path d="m40.57 41a1 1 0 0 0 1.43-.31 11.88 11.88 0 0 0 2-6.69 12 12 0 0 0 -24 0 11.88 11.88 0 0 0 2 6.69 1 1 0 0 0 1.66-1.12 10 10 0 1 1 16.6 0 1 1 0 0 0 .31 1.43z"/><path d="m19.21 43.59a1 1 0 1 0 1.6-1.2 13.87 13.87 0 0 1 -2.81-8.39 14 14 0 0 1 28 0 13.87 13.87 0 0 1 -2.81 8.39 1 1 0 0 0 .2 1.4 1 1 0 0 0 .6.2 1 1 0 0 0 .8-.4 15.86 15.86 0 0 0 3.21-9.59 16 16 0 0 0 -32 0 15.86 15.86 0 0 0 3.21 9.59z"/><path d="m32 26a8 8 0 0 0 -8 8 7.84 7.84 0 0 0 .9 3.67 1 1 0 1 0 1.77-.92 6 6 0 1 1 10.66 0 1 1 0 0 0 .42 1.35 1 1 0 0 0 .46.11 1 1 0 0 0 .89-.54 7.84 7.84 0 0 0 .9-3.67 8 8 0 0 0 -8-8z"/><path d="m40 49a1 1 0 0 0 -1-1h-14a1 1 0 0 0 0 2h14a1 1 0 0 0 1-1z"/><path d="m46 17h-3a1 1 0 0 0 0 2h3a1 1 0 0 0 0-2z"/><path d="m46 9h-8a1 1 0 0 0 0 2h8a1 1 0 0 0 0-2z"/><path d="m46 13h-6a1 1 0 0 0 0 2h6a1 1 0 0 0 0-2z"/><path d="m20 18a3 3 0 1 0 -3-3 3 3 0 0 0 3 3zm0-4a1 1 0 1 1 -1 1 1 1 0 0 1 1-1z"/><path d="m51 50a1 1 0 0 0 -1 1v6a3 3 0 0 1 -3 3h-30a3 3 0 0 1 -3-3v-33a1 1 0 0 0 -2 0v33a5 5 0 0 0 5 5h30a5 5 0 0 0 5-5v-6a1 1 0 0 0 -1-1z"/><path d="m47 2h-30a5 5 0 0 0 -5 5v13a1 1 0 0 0 2 0v-13a3 3 0 0 1 3-3h30a3 3 0 0 1 3 3v40a1 1 0 0 0 2 0v-40a5 5 0 0 0 -5-5z"/></svg>