<svg height="681pt" viewBox="-137 -21 681 681.33467" width="681pt" xmlns="http://www.w3.org/2000/svg"><path d="m355.273438 319.457031h-72.582032v-116.132812c0-48.109375-38.996094-87.105469-87.105468-87.105469-48.105469 0-87.101563 38.996094-87.101563 87.105469v116.132812h-72.585937c-8.019532 0-14.519532 6.503907-14.519532 14.519531 0 8.015626 6.5 14.515626 14.519532 14.515626h14.515624c.238282 74.324218 56.6875 136.414062 130.652344 143.707031v117.601562h-58.0625c-8.023437 0-14.519531 6.5-14.519531 14.515625s6.5 14.519532 14.519531 14.519532h145.167969c8.015625 0 14.519531-6.503907 14.519531-14.519532s-6.503906-14.515625-14.519531-14.515625h-58.070313v-117.601562c73.972657-7.296875 130.417969-69.382813 130.660157-143.707031h14.511719c8.019531 0 14.515624-6.5 14.515624-14.515626 0-8.015624-6.496093-14.519531-14.515624-14.519531zm-217.753907-116.132812c0-32.070313 26-58.070313 58.070313-58.070313 32.070312 0 58.066406 26 58.066406 58.070313v145.167969c0 32.066406-25.996094 58.066406-58.066406 58.066406-32.070313 0-58.070313-25.992188-58.070313-58.066406zm58.070313 261.304687c-64.113282-.074218-116.0625-52.027344-116.140625-116.136718h29.035156c0 48.105468 38.996094 87.101562 87.105469 87.101562 48.105468 0 87.101562-38.996094 87.101562-87.101562h29.035156c-.074218 64.109374-52.027343 116.0625-116.136718 116.136718zm0 0"/><path d="m195.589844.0820312c-112.199219.1289068-203.113282 91.0468748-203.242188 203.2421878v14.515625c0 8.019531 6.503906 14.515625 14.519532 14.515625 8.015624 0 14.511718-6.496094 14.511718-14.515625v-14.515625c0-96.214844 77.996094-174.207031 174.207032-174.207031 96.210937 0 174.203124 77.992187 174.203124 174.207031v14.515625c0 8.019531 6.503907 14.515625 14.519532 14.515625s14.515625-6.496094 14.515625-14.515625v-14.515625c-.125-112.195313-91.042969-203.113281-203.234375-203.2421878zm0 0"/><path d="m326.242188 232.359375c8.015624 0 14.519531-6.5 14.519531-14.519531v-14.515625c0-80.175781-64.996094-145.171875-145.171875-145.171875-80.179688 0-145.175782 64.996094-145.175782 145.171875v14.515625c0 8.019531 6.5 14.515625 14.519532 14.515625 8.015625 0 14.515625-6.496094 14.515625-14.515625v-14.515625c0-64.144531 52-116.136719 116.136719-116.136719 64.140624 0 116.132812 51.992188 116.132812 116.136719v14.515625c.007812 8.019531 6.503906 14.519531 14.523438 14.519531zm0 0"/></svg>