<?xml version="1.0" encoding="iso-8859-1"?>
<!-- Generator: Adobe Illustrator 19.0.0, SVG Export Plug-In . SVG Version: 6.00 Build 0)  -->
<svg version="1.1" id="Capa_1" xmlns="http://www.w3.org/2000/svg" xmlns:xlink="http://www.w3.org/1999/xlink" x="0px" y="0px"
	 viewBox="0 0 512 512" style="enable-background:new 0 0 512 512;" xml:space="preserve">
<g>
	<g>
		<g>
			<path d="M255.86,279.273c-58.182,0-69.818,34.909-69.818,69.818c0,34.909,11.636,116.364,23.273,139.636
				C220.951,512,232.587,512,232.587,512h46.545c0,0,11.636,0,23.273-23.273c11.636-23.273,23.273-104.727,23.273-139.636
				C325.678,314.182,314.042,279.273,255.86,279.273z M281.576,478.371c-1.759,3.803-4.116,7.299-6.982,10.356h-37.585
				c-2.866-3.057-5.223-6.553-6.982-10.356c-8.495-17.222-20.713-93.207-20.713-129.28c0-36.073,11.636-46.545,46.545-46.545
				c34.909,0,46.545,11.636,46.545,46.545C302.405,384,290.187,461.149,281.576,478.371z"/>
			<path d="M444.696,119.367C409.994,46.529,336.542,0.098,255.86,0C140.181,0.269,46.624,94.263,46.892,209.941
				C47.08,290.539,93.497,363.88,166.26,398.545c-1.047-9.775-1.978-19.084-2.56-27.462
				C74.374,320.153,43.248,206.452,94.179,117.127C145.11,27.801,258.81-3.325,348.136,47.606
				c89.326,50.931,120.451,164.631,69.521,253.957c-16.526,28.984-40.537,52.995-69.521,69.521c0,8.262-1.396,17.571-2.444,27.462
				C450.125,348.791,494.45,223.799,444.696,119.367z"/>
			<path d="M302.405,209.455c0-25.706-20.839-46.545-46.545-46.545s-46.545,20.839-46.545,46.545
				c0,25.706,20.839,46.545,46.545,46.545S302.405,235.161,302.405,209.455z M232.587,209.455c0-12.853,10.419-23.273,23.273-23.273
				c12.853,0,23.273,10.42,23.273,23.273c0,12.853-10.42,23.273-23.273,23.273C243.006,232.727,232.587,222.308,232.587,209.455z"/>
			<path d="M383.86,209.455c0.07-70.692-57.182-128.056-127.874-128.126S127.929,138.51,127.86,209.203
				c-0.036,36.54,15.547,71.354,42.822,95.67c2.807-7.347,6.732-14.216,11.636-20.364c-41.486-40.302-42.446-106.605-2.144-148.091
				c40.302-41.486,106.605-42.446,148.091-2.144c41.486,40.302,42.446,106.605,2.144,148.091c-0.938,0.966-1.895,1.913-2.869,2.842
				c4.855,6.182,8.775,13.043,11.636,20.364C367.26,281.494,383.554,246.445,383.86,209.455z"/>
		</g>
	</g>
</g>
<g>
</g>
<g>
</g>
<g>
</g>
<g>
</g>
<g>
</g>
<g>
</g>
<g>
</g>
<g>
</g>
<g>
</g>
<g>
</g>
<g>
</g>
<g>
</g>
<g>
</g>
<g>
</g>
<g>
</g>
</svg>
