<svg height="512pt" viewBox="0 0 512 512" width="512pt" xmlns="http://www.w3.org/2000/svg"><path d="m512 97.332031v-97.332031h-147.332031v67.332031h-75.878907l-23.097656 28.875-22.332031-28.875h-96.027344v-67.332031h-147.332031v97.332031h20.292969v317.332031h-20.292969v97.335938h147.332031v-67.332031h56.605469l19.285156-28.34375 20.007813 28.34375h121.4375v67.332031h147.332031v-97.332031h-20.292969v-317.335938zm-117.332031-67.332031h87.332031v37.332031h-87.332031zm-364.667969 0h87.332031v37.332031h-87.332031zm20.292969 67.332031h46.746093v317.332031h-46.746093zm67.039062 384.667969h-87.332031v-37.332031h87.332031zm141.4375-67.332031-36.003906-51.003907-34.703125 51.003907h-61.023438v-317.335938h101.601563l36.65625 47.394531 37.914063-47.394531h81.75v317.332031h-126.191407zm223.230469 67.332031h-87.332031v-37.332031h87.332031zm-20.292969-67.332031h-46.746093v-317.335938h46.746093zm0 0"/><path d="m164 181.667969h127.5v30h-127.5zm0 0"/><path d="m316.5 181.667969h32v30h-32zm0 0"/><path d="m164 239.832031h55.332031v30h-55.332031zm0 0"/><path d="m244.332031 239.832031h104.167969v30h-104.167969zm0 0"/><path d="m164 298h107.417969v30h-107.417969zm0 0"/><path d="m296.417969 298h52.082031v30h-52.082031zm0 0"/></svg>