<svg height="512" viewBox="0 0 60 60" width="512" xmlns="http://www.w3.org/2000/svg"><g id="_19-Pillar" data-name="19-Pillar"><path d="m50 20a10.011 10.011 0 0 1 -10-10v-1c0-1.729.836-5 4-5a1 1 0 0 1 0 2c-1.958 0-2 2.88-2 3v1a8 8 0 1 0 8-8h-40a8 8 0 1 0 8 8v-1c0-.12-.042-3-2-3a1 1 0 0 1 0-2c3.164 0 4 3.271 4 5v1a10 10 0 1 1 -10-10h40a10 10 0 0 1 0 20z"/><path d="m10 60a1 1 0 0 1 -1-1v-40a1 1 0 0 1 2 0v40a1 1 0 0 1 -1 1z"/><path d="m50 60a1 1 0 0 1 -1-1v-40a1 1 0 0 1 2 0v40a1 1 0 0 1 -1 1z"/><path d="m41 13h-22a1 1 0 0 1 0-2h22a1 1 0 0 1 0 2z"/><path d="m30 60a4 4 0 0 1 -4-4v-37a4 4 0 0 1 8 0v37a4 4 0 0 1 -4 4zm0-43a2 2 0 0 0 -2 2v37a2 2 0 0 0 4 0v-37a2 2 0 0 0 -2-2z"/><path d="m41 54a4 4 0 0 1 -4-4v-25a4 4 0 0 1 8 0v25a4 4 0 0 1 -4 4zm0-31a2 2 0 0 0 -2 2v25a2 2 0 0 0 4 0v-25a2 2 0 0 0 -2-2z"/><path d="m19 55a4 4 0 0 1 -4-4v-26a4 4 0 0 1 8 0v26a4 4 0 0 1 -4 4zm0-32a2 2 0 0 0 -2 2v26a2 2 0 0 0 4 0v-26a2 2 0 0 0 -2-2z"/><path d="m10 15a5 5 0 1 1 5-5 5.006 5.006 0 0 1 -5 5zm0-8a3 3 0 1 0 3 3 3 3 0 0 0 -3-3z"/><path d="m50 15a5 5 0 1 1 5-5 5.006 5.006 0 0 1 -5 5zm0-8a3 3 0 1 0 3 3 3 3 0 0 0 -3-3z"/><circle cx="38" cy="5" r="1"/><circle cx="34" cy="5" r="1"/><circle cx="30" cy="5" r="1"/><circle cx="26" cy="5" r="1"/><circle cx="22" cy="5" r="1"/><circle cx="24" cy="8" r="1"/><circle cx="28" cy="8" r="1"/><circle cx="32" cy="8" r="1"/><circle cx="36" cy="8" r="1"/></g></svg>