<svg height="512" viewBox="0 0 60 60" width="512" xmlns="http://www.w3.org/2000/svg"><g id="_19-Pillar" data-name="19-Pillar"><path d="m50 19v40h-40v-40a9.009 9.009 0 0 0 8.79-7.05l.21.05h22l.21-.05a9.009 9.009 0 0 0 8.79 7.05z" fill="#7e8596"/><path d="m41.21 11.95-.21.05h-22l-.21-.05a9 9 0 1 1 -8.79-10.95h40a9 9 0 1 1 -8.79 10.95z" fill="#cdd2e1"/><path d="m5 7a8.946 8.946 0 0 1 1.821-5.411 9 9 0 1 0 10.368 13.824 8.993 8.993 0 0 1 -12.189-8.413z" fill="#afb4c8"/><path d="m18 14a8.986 8.986 0 0 1 -8.055-13 8.932 8.932 0 0 0 -3.124.586 8.99 8.99 0 0 0 10.368 13.827 9.073 9.073 0 0 0 .874-1.413z" fill="#bec3d2"/><circle cx="50" cy="10" fill="#f2f6fc" r="4"/><circle cx="10" cy="10" fill="#f2f6fc" r="4"/><path d="m14 29a34.878 34.878 0 0 1 2.365-12.645 8.972 8.972 0 0 1 -6.365 2.645v40h20.968a34.978 34.978 0 0 1 -16.968-30z" fill="#707789"/><path d="m44 25v25a3 3 0 0 1 -6 0v-25a3 3 0 0 1 6 0z" fill="#bec3d2"/><path d="m33 19v37a3 3 0 0 1 -6 0v-37a3 3 0 0 1 6 0z" fill="#bec3d2"/><path d="m22 25v26a3 3 0 0 1 -6 0v-26a3 3 0 0 1 6 0z" fill="#bec3d2"/><path d="m60 10a10.011 10.011 0 0 0 -10-10h-40a10 10 0 0 0 -1 19.949v39.051a1 1 0 0 0 2 0v-39.051a10.021 10.021 0 0 0 8.539-6.949h20.922a10.021 10.021 0 0 0 8.539 6.949v39.051a1 1 0 0 0 2 0v-39.051a10.013 10.013 0 0 0 9-9.949zm-10 8a8.009 8.009 0 0 1 -8-8v-1c0-.123.042-3 2-3a1 1 0 0 0 0-2c-3.164 0-4 3.271-4 5v1a10.007 10.007 0 0 0 .051 1h-20.1a10.007 10.007 0 0 0 .049-1v-1c0-1.729-.836-5-4-5a1 1 0 0 0 0 2c1.958 0 2 2.88 2 3v1a8 8 0 1 1 -8-8h40a8 8 0 0 1 0 16z" fill="#26121e"/><path d="m30 15a4 4 0 0 0 -4 4v37a4 4 0 0 0 8 0v-37a4 4 0 0 0 -4-4zm2 41a2 2 0 0 1 -4 0v-37a2 2 0 0 1 4 0z" fill="#26121e"/><path d="m41 21a4 4 0 0 0 -4 4v25a4 4 0 0 0 8 0v-25a4 4 0 0 0 -4-4zm2 29a2 2 0 0 1 -4 0v-25a2 2 0 0 1 4 0z" fill="#26121e"/><path d="m19 21a4 4 0 0 0 -4 4v26a4 4 0 0 0 8 0v-26a4 4 0 0 0 -4-4zm2 30a2 2 0 0 1 -4 0v-26a2 2 0 0 1 4 0z" fill="#26121e"/><path d="m10 5a5 5 0 1 0 5 5 5.006 5.006 0 0 0 -5-5zm0 8a3 3 0 1 1 3-3 3 3 0 0 1 -3 3z" fill="#26121e"/><path d="m50 5a5 5 0 1 0 5 5 5.006 5.006 0 0 0 -5-5zm0 8a3 3 0 1 1 3-3 3 3 0 0 1 -3 3z" fill="#26121e"/><g fill="#afb4c8"><circle cx="38" cy="5" r="1"/><circle cx="34" cy="5" r="1"/><circle cx="30" cy="5" r="1"/><circle cx="26" cy="5" r="1"/><circle cx="22" cy="5" r="1"/><circle cx="24" cy="8" r="1"/><circle cx="28" cy="8" r="1"/><circle cx="32" cy="8" r="1"/><circle cx="36" cy="8" r="1"/></g></g></svg>