<svg height="512" viewBox="0 0 56 56" width="512" xmlns="http://www.w3.org/2000/svg"><g id="035---Rosetta-Stone"><path id="Shape" d="m52.149 2-2.5-2h-2.884l3.5 2z"/><path id="Shape" d="m48.045 45.578c1.211-9.687.767-5.356 1.935-19.382l-1.875-3.749c-.138-.583-.1 1.421-.1-9.447 0-.486.23-.639 2.886-4.181l-1.714-5.14-6.443-3.679h-39.084l-3.65 8.212v16.688l.98 4.9c.027.131.02-.636.02 7.2-.25707462 1.3917166-.59091768 2.7681516-1 4.123v9.342l2.555 1.7c.119.08-.168-.2 3.859 3.832h29.32l6.62-3.782zm-4.045.422h-12c-.5522847 0-1-.4477153-1-1s.4477153-1 1-1h12c.5522847 0 1 .4477153 1 1s-.4477153 1-1 1zm0-20h-23c-.5522847 0-1-.4477153-1-1s.4477153-1 1-1h23c.5522847 0 1 .4477153 1 1s-.4477153 1-1 1zm1 3c0 .5522847-.4477153 1-1 1h-8c-.5522847 0-1-.4477153-1-1s.4477153-1 1-1h8c.5522847 0 1 .4477153 1 1zm-12 0c0 .5522847-.4477153 1-1 1h-22c-.55228475 0-1-.4477153-1-1s.44771525-1 1-1h22c.5522847 0 1 .4477153 1 1zm11-19h-12c-.5522847 0-1-.44771525-1-1s.4477153-1 1-1h12c.5522847 0 1 .44771525 1 1s-.4477153 1-1 1zm1 3c0 .5522847-.4477153 1-1 1h-20c-.5522847 0-1-.4477153-1-1s.4477153-1 1-1h20c.5522847 0 1 .4477153 1 1zm-10-9h9c.5522847 0 1 .44771525 1 1s-.4477153 1-1 1h-9c-.5522847 0-1-.44771525-1-1s.4477153-1 1-1zm-9 0h5c.5522847 0 1 .44771525 1 1s-.4477153 1-1 1h-5c-.5522847 0-1-.44771525-1-1s.4477153-1 1-1zm-16 0h12c.5522847 0 1 .44771525 1 1s-.4477153 1-1 1h-12c-.55228475 0-1-.44771525-1-1s.44771525-1 1-1zm-5 0h1c.55228475 0 1 .44771525 1 1s-.44771525 1-1 1h-1c-.55228475 0-1-.44771525-1-1s.44771525-1 1-1zm0 4h23c.5522847 0 1 .44771525 1 1s-.4477153 1-1 1h-23c-.55228475 0-1-.44771525-1-1s.44771525-1 1-1zm16 5c0 .5522847-.4477153 1-1 1h-9c-.5522847 0-1-.4477153-1-1s.4477153-1 1-1h9c.5522847 0 1 .4477153 1 1zm-16-1h2c.55228475 0 1 .4477153 1 1s-.44771525 1-1 1h-2c-.55228475 0-1-.4477153-1-1s.44771525-1 1-1zm-1.707 8.293 4-4c.39049985-.3903819 1.02350015-.3903819 1.414 0l3.293 3.293 3.293-3.293c.3904999-.3903819 1.0235001-.3903819 1.414 0l3.293 3.293 3.293-3.293c.3904999-.3903819 1.0235001-.3903819 1.414 0l3.293 3.293 3.293-3.293c.3904999-.3903819 1.0235001-.3903819 1.414 0l3.293 3.293 3.293-3.293c.3904999-.3903819 1.0235001-.3903819 1.414 0l4 4c.3789722.3923789.3735524 1.0160848-.0121814 1.4018186s-1.0094397.3911536-1.4018186.0121814l-3.293-3.293-3.293 3.293c-.3904999.3903819-1.0235001.3903819-1.414 0l-3.293-3.293-3.293 3.293c-.3904999.3903819-1.0235001.3903819-1.414 0l-3.293-3.293-3.293 3.293c-.3904999.3903819-1.0235001.3903819-1.414 0l-3.293-3.293-3.293 3.293c-.3904999.3903819-1.0235001.3903819-1.414 0l-3.293-3.293-3.293 3.293c-.39237889.3789722-1.01608478.3735524-1.40181858-.0121814-.38573379-.3857338-.39115363-1.0094397-.01218142-1.4018186zm.707 3.707h13c.5522847 0 1 .4477153 1 1s-.4477153 1-1 1h-13c-.55228475 0-1-.4477153-1-1s.44771525-1 1-1zm0 4h2c.55228475 0 1 .4477153 1 1s-.44771525 1-1 1h-2c-.55228475 0-1-.4477153-1-1s.44771525-1 1-1zm-.707 8.293 4-4c.39049985-.3903819 1.02350015-.3903819 1.414 0l3.293 3.293 3.293-3.293c.3904999-.3903819 1.0235001-.3903819 1.414 0l3.293 3.293 3.293-3.293c.3904999-.3903819 1.0235001-.3903819 1.414 0l3.293 3.293 3.293-3.293c.3904999-.3903819 1.0235001-.3903819 1.414 0l3.293 3.293 3.293-3.293c.3904999-.3903819 1.0235001-.3903819 1.414 0l4 4c.3789722.3923789.3735524 1.0160848-.0121814 1.4018186s-1.0094397.3911536-1.4018186.0121814l-3.293-3.293-3.293 3.293c-.3904999.3903819-1.0235001.3903819-1.414 0l-3.293-3.293-3.293 3.293c-.3904999.3903819-1.0235001.3903819-1.414 0l-3.293-3.293-3.293 3.293c-.3904999.3903819-1.0235001.3903819-1.414 0l-3.293-3.293-3.293 3.293c-.3904999.3903819-1.0235001.3903819-1.414 0l-3.293-3.293-3.293 3.293c-.39237889.3789722-1.01608478.3735524-1.40181858-.0121814-.38573379-.3857338-.39115363-1.0094397-.01218142-1.4018186zm.707 3.707h40c.5522847 0 1 .4477153 1 1s-.4477153 1-1 1h-40c-.55228475 0-1-.4477153-1-1s.44771525-1 1-1zm25 5c0 .5522847-.4477153 1-1 1h-19c-.55228475 0-1-.4477153-1-1s.44771525-1 1-1h19c.5522847 0 1 .4477153 1 1zm-25-1h1c.55228475 0 1 .4477153 1 1s-.44771525 1-1 1h-1c-.55228475 0-1-.4477153-1-1s.44771525-1 1-1zm18 6h-18c-.55228475 0-1-.4477153-1-1s.44771525-1 1-1h18c.5522847 0 1 .4477153 1 1s-.4477153 1-1 1zm19 0h-15c-.5522847 0-1-.4477153-1-1s.4477153-1 1-1h15c.5522847 0 1 .4477153 1 1s-.4477153 1-1 1z"/><path id="Rectangle-path" d="m50 14h3v7h-3z"/><path id="Shape" d="m52.72 8h2.893l-1.334-4h-2.892z"/><path id="Shape" d="m51 12h2.5l1.5-2h-2.5z"/><path id="Shape" d="m45.174 52h3.311l3.572-5h-2.597z"/><path id="Shape" d="m51.618 25h2.764l-1-2h-2.764z"/><path id="Shape" d="m50.133 45h2.984c1.124-8.991.709-4.936 1.8-18h-2.997c-1.115 13.376-.696 9.254-1.787 18z"/><path id="Shape" d="m39.765 56h1.969l3.5-2h-1.969z"/></g></svg>