<svg height="512" viewBox="0 0 61 62" width="512" xmlns="http://www.w3.org/2000/svg"><g id="035---Rosetta-Stone"><path id="Shape" d="m58.948 5.684c-.132-.4.046-.17-5.323-4.465-.425-.339 2.446-.219-47.625-.219-.39528969-.00005017-.75351239.23275539-.914.594l-4 9c-.126.283-.086-.883-.086 17.406 0 .14-.076-.279 1 5.1v6.778l-.97 3.88c-.044.178-.03-.477-.03 10.242-.00005002.3342785.16693028.6464754.445.832l2.918 1.945 3.93 3.93c.18749273.1875494.44180519.2929434.707.293 38.527 0 36.153.065 36.5-.132 7.623-4.356 7.135-4.032 7.317-4.287 5.455-7.637 5.135-7.1 5.179-7.457 1.265-10.135.8-5.54 2-20.041.033-.387.029-.27-2-4.319v-8.431l2.804-3.733c.196577-.2625816.2518816-.6048727.148-.916zm-3.228 5.316-1.333-4h2.892l1.334 4zm-.571-6h-1.884l-3.5-2h2.884zm-45.735 54-3.707-3.707c-.1-.1.058.015-2.707-1.828v-9.342l.97-3.88c.046-.185.03.222.03-7.243 0-.14.076.279-1-5.1v-16.688l3.65-8.212h39.084l6.438 3.679 1.714 5.14-2.686 3.581c-.284.379-.2-.134-.2 9.6 0 .326-.046.144 1.98 4.2-1.212 14.557-.719 9.657-1.935 19.382l-5.691 6.64-6.62 3.778zm45.2-31-1-2h2.764l1 2zm1.386-4h-3v-7h3zm-11.266 35h-1.969l3.5-2h1.969zm6.751-4h-3.311l4.286-5h2.6zm4.632-7h-2.984c1.091-8.746.672-4.624 1.787-18h2.994c-1.13 13.558-.68 9.068-1.797 18zm.383-33h-2.5l1.5-2h2.5z"/><path id="Shape" d="m7.707 24.707 3.293-3.293 3.293 3.293c.3904999.3903819 1.0235001.3903819 1.414 0l3.293-3.293 3.293 3.293c.3904999.3903819 1.0235001.3903819 1.414 0l3.293-3.293 3.293 3.293c.3904999.3903819 1.0235001.3903819 1.414 0l3.293-3.293 3.293 3.293c.3904999.3903819 1.0235001.3903819 1.414 0l3.293-3.293 3.293 3.293c.3923789.3789722 1.0160848.3735524 1.4018186-.0121814s.3911536-1.0094397.0121814-1.4018186l-4-4c-.3904999-.3903819-1.0235001-.3903819-1.414 0l-3.293 3.293-3.293-3.293c-.3904999-.3903819-1.0235001-.3903819-1.414 0l-3.293 3.293-3.293-3.293c-.3904999-.3903819-1.0235001-.3903819-1.414 0l-3.293 3.293-3.293-3.293c-.3904999-.3903819-1.0235001-.3903819-1.414 0l-3.293 3.293-3.293-3.293c-.3904999-.3903819-1.0235001-.3903819-1.414 0l-4 4c-.37897221.3923789-.37355237 1.0160848.01218142 1.4018186.3857338.3857338 1.00943969.3911536 1.40181858.0121814z"/><path id="Shape" d="m7.707 40.707 3.293-3.293 3.293 3.293c.3904999.3903819 1.0235001.3903819 1.414 0l3.293-3.293 3.293 3.293c.3904999.3903819 1.0235001.3903819 1.414 0l3.293-3.293 3.293 3.293c.3904999.3903819 1.0235001.3903819 1.414 0l3.293-3.293 3.293 3.293c.3904999.3903819 1.0235001.3903819 1.414 0l3.293-3.293 3.293 3.293c.3923789.3789722 1.0160848.3735524 1.4018186-.0121814s.3911536-1.0094397.0121814-1.4018186l-4-4c-.3904999-.3903819-1.0235001-.3903819-1.414 0l-3.293 3.293-3.293-3.293c-.3904999-.3903819-1.0235001-.3903819-1.414 0l-3.293 3.293-3.293-3.293c-.3904999-.3903819-1.0235001-.3903819-1.414 0l-3.293 3.293-3.293-3.293c-.3904999-.3903819-1.0235001-.3903819-1.414 0l-3.293 3.293-3.293-3.293c-.3904999-.3903819-1.0235001-.3903819-1.414 0l-4 4c-.37897221.3923789-.37355237 1.0160848.01218142 1.4018186.3857338.3857338 1.00943969.3911536 1.40181858.0121814z"/><path id="Shape" d="m7 45h40c.5522847 0 1-.4477153 1-1s-.4477153-1-1-1h-40c-.55228475 0-1 .4477153-1 1s.44771525 1 1 1z"/><path id="Shape" d="m8 9h1c.55228475 0 1-.44771525 1-1s-.44771525-1-1-1h-1c-.55228475 0-1 .44771525-1 1s.44771525 1 1 1z"/><path id="Shape" d="m13 9h12c.5522847 0 1-.44771525 1-1s-.4477153-1-1-1h-12c-.5522847 0-1 .44771525-1 1s.4477153 1 1 1z"/><path id="Shape" d="m29 9h5c.5522847 0 1-.44771525 1-1s-.4477153-1-1-1h-5c-.5522847 0-1 .44771525-1 1s.4477153 1 1 1z"/><path id="Shape" d="m38 9h9c.5522847 0 1-.44771525 1-1s-.4477153-1-1-1h-9c-.5522847 0-1 .44771525-1 1s.4477153 1 1 1z"/><path id="Shape" d="m8 13h23c.5522847 0 1-.4477153 1-1s-.4477153-1-1-1h-23c-.55228475 0-1 .4477153-1 1s.44771525 1 1 1z"/><path id="Shape" d="m47 11h-12c-.5522847 0-1 .4477153-1 1s.4477153 1 1 1h12c.5522847 0 1-.4477153 1-1s-.4477153-1-1-1z"/><path id="Shape" d="m8 17h2c.5522847 0 1-.4477153 1-1s-.4477153-1-1-1h-2c-.55228475 0-1 .4477153-1 1s.44771525 1 1 1z"/><path id="Shape" d="m14 15c-.5522847 0-1 .4477153-1 1s.4477153 1 1 1h9c.5522847 0 1-.4477153 1-1s-.4477153-1-1-1z"/><path id="Shape" d="m47 15h-20c-.5522847 0-1 .4477153-1 1s.4477153 1 1 1h20c.5522847 0 1-.4477153 1-1s-.4477153-1-1-1z"/><path id="Shape" d="m7 29h13c.5522847 0 1-.4477153 1-1s-.4477153-1-1-1h-13c-.55228475 0-1 .4477153-1 1s.44771525 1 1 1z"/><path id="Shape" d="m47 27h-23c-.5522847 0-1 .4477153-1 1s.4477153 1 1 1h23c.5522847 0 1-.4477153 1-1s-.4477153-1-1-1z"/><path id="Shape" d="m7 33h2c.55228475 0 1-.4477153 1-1s-.44771525-1-1-1h-2c-.55228475 0-1 .4477153-1 1s.44771525 1 1 1z"/><path id="Shape" d="m13 31c-.5522847 0-1 .4477153-1 1s.4477153 1 1 1h22c.5522847 0 1-.4477153 1-1s-.4477153-1-1-1z"/><path id="Shape" d="m47 31h-8c-.5522847 0-1 .4477153-1 1s.4477153 1 1 1h8c.5522847 0 1-.4477153 1-1s-.4477153-1-1-1z"/><path id="Shape" d="m7 49h1c.55228475 0 1-.4477153 1-1s-.44771525-1-1-1h-1c-.55228475 0-1 .4477153-1 1s.44771525 1 1 1z"/><path id="Shape" d="m12 47c-.5522847 0-1 .4477153-1 1s.4477153 1 1 1h19c.5522847 0 1-.4477153 1-1s-.4477153-1-1-1z"/><path id="Shape" d="m47 47h-12c-.5522847 0-1 .4477153-1 1s.4477153 1 1 1h12c.5522847 0 1-.4477153 1-1s-.4477153-1-1-1z"/><path id="Shape" d="m25 51h-18c-.55228475 0-1 .4477153-1 1s.44771525 1 1 1h18c.5522847 0 1-.4477153 1-1s-.4477153-1-1-1z"/><path id="Shape" d="m44 51h-15c-.5522847 0-1 .4477153-1 1s.4477153 1 1 1h15c.5522847 0 1-.4477153 1-1s-.4477153-1-1-1z"/></g></svg>