<svg height="512" viewBox="0 0 64 64" width="512" xmlns="http://www.w3.org/2000/svg"><path d="m31 19h2v2h-2z"/><path d="m61 2h-52a7.008 7.008 0 0 0 -7 7v48a5.006 5.006 0 0 0 5 5h54a1 1 0 0 0 1-1v-58a1 1 0 0 0 -1-1zm-57 7a5.008 5.008 0 0 1 4-4.9v47.9h-1a4.948 4.948 0 0 0 -3 1.026zm56 47h-54v2h54v2h-53a3 3 0 0 1 0-6h53zm0-4h-50v-48h50z"/><path d="m13 34h44a1 1 0 0 0 1-1v-26a1 1 0 0 0 -1-1h-44a1 1 0 0 0 -1 1v26a1 1 0 0 0 1 1zm6.964-2 2.182-3h8.854v-2h-7.4l1.455-2h3.945v-2h-2.491l7.074-9.727 2.653 9.727h-3.236v2h3.782l1.909 7zm20.8 0-.546-2h1.782v-2h-2.327l-3.273-12 11.636 16zm-26.764-24h42v24h-5.491l-15.7-21.588a1.038 1.038 0 0 0 -1.618 0l-15.7 21.588h-3.491z"/><path d="m49 20a5 5 0 1 0 -5-5 5.006 5.006 0 0 0 5 5zm0-8a3 3 0 1 1 -3 3 3 3 0 0 1 3-3z"/><path d="m20 11h2v2h-2z"/><path d="m20 15h2v2h-2z"/><path d="m18 13h2v2h-2z"/><path d="m22 13h2v2h-2z"/><path d="m15 49v1h40v-1a2 2 0 0 1 2-2h1v-8h-1a2 2 0 0 1 -2-2v-1h-40v1a2 2 0 0 1 -2 2h-1v8h1a2 2 0 0 1 2 2zm-1-8.127a4.015 4.015 0 0 0 2.874-2.873h36.252a4.015 4.015 0 0 0 2.874 2.873v4.254a4.015 4.015 0 0 0 -2.874 2.873h-36.252a4.015 4.015 0 0 0 -2.874-2.873z"/><path d="m21 40h4v2h-4z"/><path d="m27 40h14v2h-14z"/><path d="m43 40h4v2h-4z"/><path d="m18 44h6v2h-6z"/><path d="m26 44h18v2h-18z"/><path d="m46 44h6v2h-6z"/></svg>