<svg height="512" viewBox="0 0 60 60" width="512" xmlns="http://www.w3.org/2000/svg"><g id="008---Roman-Boat"><path id="Shape" d="m53 30c-.5522847 0-1 .4477153-1 1s.4477153 1 1 1c2.7614237 0 5 2.2385763 5 5s-2.2385763 5-5 5h-.632c-3.308-2.765-3.368-8.938-3.368-9-.0002055-.2808653-.1185159-.5486968-.326-.738-3.6654524-3.8407605-5.6992756-8.9529187-5.674-14.262-.0239286-5.3083401 2.0093156-10.4195857 5.673-14.261.3050257-.27807482.4078629-.71498545.2588921-1.09991912-.1489709-.38493368-.5191377-.63878983-.9318921-.63908088h-17v-1c0-.55228475-.4477153-1-1-1s-1 .44771525-1 1v1c-16.437 0-15.269-.106-15.673.26-4.11342623 4.19966074-6.3894235 9.861775-6.327 15.74-.04067042 5.7100028 2.1000713 11.2201326 5.985 15.405-.072 1.412-.532 6.236-3.353 8.595h-2.632c-2.76005315-.0033061-4.99669388-2.2399468-5-5 0-.5522847-.44771525-1-1-1s-1 .4477153-1 1c.004393 3.7519522 2.96615614 6.8332444 6.715 6.986.685.402 3.285 2.12 3.285 5.014 0 2.653-4.53 4.537-6.275 5.039-.47861739.1377302-.78293129.6066626-.7137656 1.0998769.0691657.4932142.49072582.860354.9887656.8611231h15.034l2.109 3.515c.2892402.4622053.8954316.6075113 1.3627839.3266637.4673523-.2808477.6235797-.8843167.3512161-1.3566637l-1.491-2.485h3.668l2.109 3.515c.1806127.3132279.516242.5045637.8777878.5004101.3615459-.0041537.6926908-.2031497.8660598-.5204443.1733689-.3172946.1619565-.7034632-.0298476-1.0099658l-1.491-2.485h3.668l2.109 3.515c.2892402.4622053.8954316.6075113 1.3627839.3266637.4673523-.2808477.6235797-.8843167.3512161-1.3566637l-1.491-2.485h3.668l2.109 3.515c.1806127.3132279.516242.5045637.8777878.5004101.3615459-.0041537.6926908-.2031497.8660598-.5204443.1733689-.3172946.1619565-.7034632-.0298476-1.0099658l-1.491-2.485h3.668l2.109 3.515c.2892402.4622053.8954316.6075113 1.3627839.3266637.4673523-.2808477.6235797-.8843167.3512161-1.3566637l-1.531-2.552c1.1188166-.0894871 2.2249963-.2973148 3.3-.62l2.521 4.2c.1806127.3132279.516242.5045637.8777878.5004101.3615459-.0041537.6926908-.2031497.8660598-.5204443.1733689-.3172946.1619565-.7034632-.0298476-1.0099658l-2.338-3.883c5.7593347-2.5747633 9.4700142-8.2913319 9.477-14.6v-3c-.0044086-3.8641657-3.1358343-6.9955914-7-7zm-3.34 12h-18.66v-8h16.047c.155417 2.849475 1.0564733 5.6081624 2.613 8zm-40.66-24c-.00967865-5.1793365 1.9216001-10.17433048 5.413-14h31.353c-6.3568755 8.2509262-6.3568755 19.7490738 0 28h-31.353c-3.4913999-3.8256695-5.42267865-8.8206635-5.413-14zm5.953 16h14.047v8h-16.66c1.5565267-2.3918376 2.457583-5.150525 2.613-8zm34.538 18.875-2.634-4.39c-.1806127-.3132279-.516242-.5045637-.8777878-.5004101-.3615459.0041537-.6926908.2031497-.8660598.5204443-.1733689.3172946-.1619565.7034632.0298476 1.0099658l2.407 4.011c-1.1062327.2939703-2.2444789.4504834-3.389.466l-3.3-5.507c-.2892402-.4622053-.8954316-.6075113-1.3627839-.3266637-.4673523.2808477-.6235797.8843167-.3512161 1.3566637l2.687 4.485h-3.668l-3.309-5.515c-.1806127-.3132279-.516242-.5045637-.8777878-.5004101-.3615459.0041537-.6926908.2031497-.8660598.5204443-.1733689.3172946-.1619565.7034632.0298476 1.0099658l2.691 4.485h-3.668l-3.309-5.515c-.2892402-.4622053-.8954316-.6075113-1.3627839-.3266637-.4673523.2808477-.6235797.8843167-.3512161 1.3566637l2.691 4.485h-3.668l-3.309-5.515c-.1806127-.3132279-.516242-.5045637-.8777878-.5004101-.3615459.0041537-.6926908.2031497-.8660598.5204443-.1733689.3172946-.1619565.7034632.0298476 1.0099658l2.691 4.485h-3.668l-3.309-5.515c-.2892402-.4622053-.8954316-.6075113-1.3627839-.3266637-.4673523.2808477-.6235797.8843167-.3512161 1.3566637l2.691 4.485h-9.242c1.769-1.138 3.408-2.79 3.408-5-.0204573-1.8755223-.7712843-3.6691845-2.093-5h43.093c1.8019172-.0003261 3.5336889-.6984825 4.832-1.948-.7164332 4.809546-3.8726552 8.9049531-8.341 10.823z"/><path id="Shape" d="m16 8h1c.5522847 0 1-.44771525 1-1s-.4477153-1-1-1h-1c-.5522847 0-1 .44771525-1 1s.4477153 1 1 1z"/><path id="Shape" d="m21 8h19c.5522847 0 1-.44771525 1-1s-.4477153-1-1-1h-19c-.5522847 0-1 .44771525-1 1s.4477153 1 1 1z"/></g></svg>