<svg height="512" viewBox="0 0 60 60" width="512" xmlns="http://www.w3.org/2000/svg"><g id="008---Roman-Boat"><path id="Shape" d="m16.857 48.485c-.2892402-.4622053-.8954316-.6075113-1.3627839-.3266637-.4673523.2808477-.6235797.8843167-.3512161 1.3566637l6 10c.1806127.3132279.516242.5045637.8777878.5004101.3615459-.0041537.6926908-.2031497.8660598-.5204443.1733689-.3172946.1619565-.7034632-.0298476-1.0099658z"/><path id="Shape" d="m22.857 48.485c-.1806127-.3132279-.516242-.5045637-.8777878-.5004101-.3615459.0041537-.6926908.2031497-.8660598.5204443-.1733689.3172946-.1619565.7034632.0298476 1.0099658l6 10c.1806127.3132279.516242.5045637.8777878.5004101.3615459-.0041537.6926908-.2031497.8660598-.5204443.1733689-.3172946.1619565-.7034632-.0298476-1.0099658z"/><path id="Shape" d="m28.857 48.485c-.2892402-.4622053-.8954316-.6075113-1.3627839-.3266637-.4673523.2808477-.6235797.8843167-.3512161 1.3566637l6 10c.1806127.3132279.516242.5045637.8777878.5004101.3615459-.0041537.6926908-.2031497.8660598-.5204443.1733689-.3172946.1619565-.7034632-.0298476-1.0099658z"/><path id="Shape" d="m34.857 48.485c-.1806127-.3132279-.516242-.5045637-.8777878-.5004101-.3615459.0041537-.6926908.2031497-.8660598.5204443-.1733689.3172946-.1619565.7034632.0298476 1.0099658l6 10c.1806127.3132279.516242.5045637.8777878.5004101.3615459-.0041537.6926908-.2031497.8660598-.5204443.1733689-.3172946.1619565-.7034632-.0298476-1.0099658z"/><path id="Shape" d="m40.857 48.485c-.2892402-.4622053-.8954316-.6075113-1.3627839-.3266637-.4673523.2808477-.6235797.8843167-.3512161 1.3566637l6 10c.1806127.3132279.516242.5045637.8777878.5004101.3615459-.0041537.6926908-.2031497.8660598-.5204443.1733689-.3172946.1619565-.7034632-.0298476-1.0099658z"/><path id="Shape" d="m53 30c-.5522847 0-1 .4477153-1 1s.4477153 1 1 1c2.7614237 0 5 2.2385763 5 5s-2.2385763 5-5 5h-.751c-3.4477096-1.7617861-5.7693937-5.1489084-6.169-9h.756c.1947844-.0003193.3716529-.1137284.4532246-.29061.0815716-.1768817.0529961-.3850344-.0732246-.53339-3.3808844-3.9478198-5.2318525-8.978365-5.216-14.176-.0459537-5.5936417 2.1090393-10.98112407 6-15h-17v-2c0-.55228475-.4477153-1-1-1s-1 .44771525-1 1v2c-15.78 0-14.936-.068-15.145.139-3.7902726 4.01631986-5.88720096 9.3386857-5.855 14.861-.01492842 5.0900659 1.75944763 10.0234897 5.013 13.938-.0054221.0204233-.0097614.0411188-.013.062 0 .071-.059 6.924-3.4 10h-2.6c-2.76005315-.0033061-4.99669388-2.2399468-5-5 0-.5522847-.44771525-1-1-1s-1 .4477153-1 1c.004393 3.7519522 2.96615614 6.8332444 6.715 6.986.685.402 3.285 2.12 3.285 5.014 0 2.653-4.53 4.537-6.275 5.039-.47861739.1377302-.78293129.6066626-.7137656 1.0998769.0691657.4932142.49072582.860354.9887656.8611231h12.7l-3.274-5.457c-.5745322-.920067-.6076521-2.0786145-.08662-3.0300009s1.5150547-1.5474135 2.5997115-1.5588163c1.0846569-.0114028 2.0909902.5635949 2.6319085 1.5038172l.512.853c.2821761-1.1850066 1.2528916-2.0817429 2.4565065-2.2692936 1.2036148-.1875507 2.4011477.371323 3.0304935 1.4142936l.513.854c.28245-1.1848652 1.253288-2.0813337 2.4568631-2.2686589 1.2035751-.1873251 2.4009442.3716823 3.0301369 1.4146589l.513.854c.28245-1.1848652 1.253288-2.0813337 2.4568631-2.2686589 1.2035751-.1873251 2.4009442.3716823 3.0301369 1.4146589l.513.854c.28245-1.1848652 1.253288-2.0813337 2.4568631-2.2686589 1.2035751-.1873251 2.4009442.3716823 3.0301369 1.4146589l.513.854c.28245-1.1848652 1.253288-2.0813337 2.4568631-2.2686589 1.2035751-.1873251 2.4009442.3716823 3.0301369 1.4146589l3.721 6.2c4.7784616-2.8930862 7.7008916-8.0699838 7.709-13.656v-3c-.0044086-3.8641657-3.1358343-6.9955914-7-7zm-40.765 12c2.091-3 2.6-7.12 2.725-9h14.04v9zm18.765 0v-9h13.067c.3504618 3.4654303 1.9823927 6.6750846 4.576 9z"/><path id="Shape" d="m46.857 48.485c-.1806127-.3132279-.516242-.5045637-.8777878-.5004101-.3615459.0041537-.6926908.2031497-.8660598.5204443-.1733689.3172946-.1619565.7034632.0298476 1.0099658l6 10c.1806127.3132279.516242.5045637.8777878.5004101.3615459-.0041537.6926908-.2031497.8660598-.5204443.1733689-.3172946.1619565-.7034632-.0298476-1.0099658z"/></g></svg>