<svg height="512" viewBox="0 0 64 64" width="512" xmlns="http://www.w3.org/2000/svg"><path d="m60 2h-56v4h-2v14h2v4h2v28h-4v10h60v-10h-4v-28h2v-4h2v-14h-2zm-54 2h52v2h-52zm-2 50h2v2h-2zm56 6h-56v-2h56zm-34-36v28h-8v-28h2v-4h4v4zm0 30v2h-8v-2zm-8-32h-12v-2h12zm-2 15v19h-2v-8h-2v8h-4v-6h2v-2h-2v-19h2v-2h-2v-3h8v11h-2v2zm30-13v28h-8v-28h2v-4h4v4zm0 30v2h-8v-2zm-8-32h-12v-2h12zm-2 23v11h-2v-6h-2v6h-4v-6h2v-2h-2v-18h2v-2h-2v-4h4v8h2v-8h2v19h-2v2zm12 0v-16h2v-2h-2v-3h8v11h-2v2h2v19h-3v-7h-2v7h-3v-9h2v-2zm12 9v2h-2v-2zm-2-32h-12v-2h12zm2-4h-56v-6h56zm0-8h-56v-2h56z"/><path d="m31 14h2v2h-2z"/><path d="m23 14h2v2h-2z"/><path d="m15 14h2v2h-2z"/><path d="m8 14h2v2h-2z"/><path d="m54 14h2v2h-2z"/><path d="m46 14h2v2h-2z"/><path d="m39 14h2v2h-2z"/><path d="m30 38h2v8h-2z"/><path d="m32 34h2v2h-2z"/><path d="m52 25h2v7h-2z"/><path d="m50 34h2v8h-2z"/><path d="m52 44h2v2h-2z"/><path d="m12 25h2v7h-2z"/><path d="m10 34h2v8h-2z"/><path d="m12 44h2v2h-2z"/></svg>