<svg height="512" viewBox="0 0 64 64" width="512" xmlns="http://www.w3.org/2000/svg"><g id="Filled_outline" data-name="Filled outline"><path d="m5 3h54v4h-54z" fill="#5a6470"/><path d="m3 7h58v4h-58z" fill="#7d8d9c"/><path d="m3 11h58v8h-58z" fill="#cfdfe8"/><path d="m31 14h2v2h-2z" fill="#143441"/><path d="m23 14h2v2h-2z" fill="#143441"/><path d="m15 14h2v2h-2z" fill="#143441"/><path d="m8 14h2v2h-2z" fill="#143441"/><path d="m54 14h2v2h-2z" fill="#143441"/><path d="m46 14h2v2h-2z" fill="#143441"/><path d="m39 14h2v2h-2z" fill="#143441"/><path d="m27 23h10v34h-10z" fill="#cfdfe8" transform="matrix(-1 0 0 -1 64 80)"/><path d="m3 57h58v4h-58z" fill="#5a6470"/><path d="m25 19h14v4h-14z" fill="#7d8d9c"/><path d="m32 50h2v7h-2z" fill="#7d8d9c"/><path d="m30 38h2v8h-2z" fill="#7d8d9c"/><path d="m32 23h2v9h-2z" fill="#7d8d9c"/><path d="m32 34h2v2h-2z" fill="#7d8d9c"/><path d="m27 48h3v2h-3z" fill="#7d8d9c"/><path d="m34 43h3v2h-3z" fill="#7d8d9c"/><path d="m27 28h3v2h-3z" fill="#7d8d9c"/><path d="m47 23h10v34h-10z" fill="#cfdfe8" transform="matrix(-1 0 0 -1 104 80)"/><path d="m45 19h14v4h-14z" fill="#7d8d9c" transform="matrix(-1 0 0 -1 104 42)"/><path d="m52 25h2v7h-2z" fill="#7d8d9c"/><path d="m50 34h2v8h-2z" fill="#7d8d9c"/><path d="m51 49h2v9h-2z" fill="#7d8d9c"/><path d="m52 44h2v2h-2z" fill="#7d8d9c"/><path d="m47 27h3v2h-3z" fill="#7d8d9c"/><path d="m54 35h3v2h-3z" fill="#7d8d9c"/><path d="m47 45h3v2h-3z" fill="#7d8d9c"/><path d="m7 23h10v34h-10z" fill="#cfdfe8" transform="matrix(-1 0 0 -1 24 80)"/><g fill="#7d8d9c"><path d="m5 19h14v4h-14z" transform="matrix(-1 0 0 -1 24 42)"/><path d="m12 25h2v7h-2z"/><path d="m10 34h2v8h-2z"/><path d="m12 48h2v9h-2z"/><path d="m12 44h2v2h-2z"/><path d="m7 27h3v2h-3z"/><path d="m14 35h3v2h-3z"/><path d="m7 48h3v2h-3z"/><path d="m17 53h10v4h-10z"/><path d="m37 53h10v4h-10z"/><path d="m57 53h4v4h-4z"/><path d="m3 53h4v4h-4z"/></g><path d="m60 2h-56v4h-2v14h2v4h2v28h-4v10h60v-10h-4v-28h2v-4h2v-14h-2zm-54 2h52v2h-52zm-2 50h2v2h-2zm56 6h-56v-2h56zm-34-36v28h-8v-28h2v-4h4v4zm0 30v2h-8v-2zm-8-32h-12v-2h12zm-2 15v19h-2v-8h-2v8h-4v-6h2v-2h-2v-19h2v-2h-2v-3h8v11h-2v2zm30-13v28h-8v-28h2v-4h4v4zm0 30v2h-8v-2zm-8-32h-12v-2h12zm-2 23v11h-2v-6h-2v6h-4v-6h2v-2h-2v-18h2v-2h-2v-4h4v8h2v-8h2v19h-2v2zm12 0v-16h2v-2h-2v-3h8v11h-2v2h2v19h-3v-7h-2v7h-3v-9h2v-2zm12 9v2h-2v-2zm-2-32h-12v-2h12zm2-4h-56v-6h56zm0-8h-56v-2h56z"/><path d="m31 14h2v2h-2z"/><path d="m23 14h2v2h-2z"/><path d="m15 14h2v2h-2z"/><path d="m8 14h2v2h-2z"/><path d="m54 14h2v2h-2z"/><path d="m46 14h2v2h-2z"/><path d="m39 14h2v2h-2z"/><path d="m30 38h2v8h-2z"/><path d="m32 34h2v2h-2z"/><path d="m52 25h2v7h-2z"/><path d="m50 34h2v8h-2z"/><path d="m52 44h2v2h-2z"/><path d="m12 25h2v7h-2z"/><path d="m10 34h2v8h-2z"/><path d="m12 44h2v2h-2z"/></g></svg>