<svg height="512" viewBox="0 0 30 56" width="512" xmlns="http://www.w3.org/2000/svg"><path id="Shape" d="m1.058 32.654c7.847 3.142 22.013 3.151 29.884 0-.415219 3.9287057-1.6889396 7.7181183-3.731 11.1-7.3812699 1.6650103-15.0407301 1.6650103-22.422 0-2.04206045-3.3818817-3.31578103-7.1712943-3.731-11.1zm8.389-10.216c2.0242952-.3519487 3.7261537-1.7184953 4.507-3.619.7242756-1.8530434 1.0795958-3.8297247 1.046-5.819.1078243-3.4907822-1.4396122-6.8273726-4.174-9h10.348c-2.7343878 2.1726274-4.2818243 5.5092178-4.174 9-.0336969 1.9889585.3216291 3.9653321 1.046 5.818.7804159 1.9010092 2.4824 3.2680344 4.507 3.62 3.845.637 6.28 2.052 7.5 4.422-7.357 2.869-20.749 2.869-28.108 0 1.222-2.37 3.655-3.785 7.502-4.422zm21.285 6.3c.1258041.5690095.2057275 1.1471998.239 1.729-7.478 3.39-22.447 3.4-29.942 0 .03327254-.5818002.1131959-1.1599905.239-1.729 7.818 3.028 21.632 3.034 29.464.004zm.268-16.738c.0222037 3.7855774-.4265752 7.5592163-1.336 11.234-.5458118-.4504347-1.1369922-.8428793-1.764-1.171.746527-3.3018596 1.1155595-6.6778357 1.1-10.063 0-4.041-3.059-5.667-7.118-6.006.7186386-.66633796 1.5338413-1.22025773 2.418-1.643 4.608 1.042 6.7 3.879 6.7 7.649zm-29-11c0-.55228475.44771525-1 1-1h26c.5522847 0 1 .44771525 1 1s-.4477153 1-1 1h-26c-.55228475 0-1-.44771525-1-1zm5.7 3.351c.88443539.42194887 1.69998673.97520218 2.419 1.641-4.019.336-7.119 1.943-7.119 6.008-.0155595 3.3851643.35347296 6.7611404 1.1 10.063-.627355.328061-1.21887307.7205073-1.765 1.171-.9090879-3.6748261-1.35753076-7.4484644-1.335-11.234 0-3.792 2.12-6.614 6.7-7.649zm13.3 49.649c1.1045695 0 2 .8954305 2 2h-14c0-1.1045695.8954305-2 2-2zm-14.584-7.825c6.3416442 1.1039964 12.8263558 1.1039964 19.168 0-5.834 7.639-13.155 7.874-19.168 0z" transform="translate(-1)"/></svg>