<svg height="512" viewBox="0 0 34 60" width="512" xmlns="http://www.w3.org/2000/svg"><path id="Shape" d="m35 14c.1178443-3.2337581-1.5004276-6.28422347-4.244-8h.244c1.6568542-.00000002 3-1.34314577 3-3s-1.3431458-2.99999998-3-3h-26c-1.65685423.00000002-2.99999996 1.34314577-2.99999996 3s1.34314573 2.99999998 2.99999996 3c.548 0 .166-.118-1.005.934-1.9849083 1.80309947-3.07958183 4.3857249-2.995 7.066-.04132538 4.3956443.53771431 8.7751369 1.72 13.009-3.65 5.341-.86 14.456 2.485 19.969.04176667.1053577.10129656.2027703.176.288 1.635732 2.76595 3.87724274 5.1250751 6.556 6.9-1.7271269.4760741-2.92706373 2.042488-2.937 3.834v1c0 .5522847.44771525 1 1 1h16c.5522847 0 1-.4477153 1-1v-1c-.0078266-1.7936534-1.2086981-3.3627976-2.938-3.839 2.6793006-1.7745938 4.921205-4.1337734 6.557-6.9.0747034-.0852297.1342333-.1826423.176-.288 3.358-5.535 6.123-14.646 2.485-19.969 1.1818194-4.2322521 1.7608547-8.6100285 1.72-13.004zm-5.789 31.757c-7.3812699 1.6650103-15.0407301 1.6650103-22.422 0-2.04206045-3.3818817-3.31578103-7.1712943-3.731-11.1 7.847 3.142 22.013 3.151 29.884 0-.415219 3.9287057-1.6889396 7.7181183-3.731 11.1zm-22.211-31.757c-.0791728-.9676172.28452501-1.9189683.989-2.587 1.276-1.15 3.756-1.507 5.7-1.476 1.773 2.971 1.582 7.278.413 10.122-.5151705 1.2614582-1.6419911 2.1700139-2.984 2.406-1.0702695.1726043-2.12378707.4365692-3.149.789-.65715276-3.0404761-.98205875-6.143345-.969-9.254zm4.447 10.438c2.0242952-.3519487 3.7261537-1.7184953 4.507-3.619.7242756-1.8530434 1.0795958-3.8297247 1.046-5.819.1078243-3.4907822-1.4396122-6.8273726-4.174-9h10.348c-2.7343878 2.1726274-4.2818243 5.5092178-4.174 9-.0336969 1.9889585.3216291 3.9653321 1.046 5.818.7804159 1.9010092 2.4824 3.2680344 4.507 3.62 3.845.637 6.28 2.052 7.5 4.422-7.357 2.869-20.749 2.869-28.108 0 1.222-2.37 3.655-3.785 7.502-4.422zm16.582-1.184c-1.0252129-.3524308-2.0787305-.6163957-3.149-.789-1.3407274-.2374426-2.4658422-1.1462182-2.98-2.407-1.148-2.791-1.382-7.111.413-10.121 1.939-.03 4.426.327 5.707 1.48.6996613.6690341 1.0597928 1.618238.98 2.583.0124016 3.1107278-.313175 6.2135975-.971 9.254zm4.942 9.217c-7.478 3.39-22.447 3.4-29.942 0 .03327254-.5818002.1131959-1.1599905.239-1.729 7.818 3.024 21.631 3.03 29.464 0 .1258041.5690095.2057275 1.1471998.239 1.729zm.029-18.471c.0222037 3.7855774-.4265752 7.5592163-1.336 11.234-.5458118-.4504347-1.1369922-.8428793-1.764-1.171.746527-3.3018596 1.1155595-6.6778357 1.1-10.063 0-4.041-3.059-5.667-7.118-6.006.7186016-.66611635 1.5338218-1.21971086 2.418-1.642 4.625 1.048 6.7 3.893 6.7 7.648zm-29-11c0-.55228475.44771525-1 1-1h26c.5522847 0 1 .44771525 1 1s-.4477153 1-1 1h-26c-.55228475 0-1-.44771525-1-1zm5.7 3.354c.8822871.42127185 1.6958134.97351227 2.413 1.638-4.013.336-7.113 1.943-7.113 6.008-.0155595 3.3851643.35347296 6.7611404 1.1 10.063-.627355.328061-1.21887307.7205073-1.765 1.171-.9090879-3.6748261-1.35753076-7.4484644-1.335-11.234 0-3.79 2.107-6.606 6.7-7.646zm13.3 49.646c1.1045695 0 2 .8954305 2 2h-14c0-1.1045695.8954305-2 2-2zm-14.584-7.825c6.3416442 1.1039964 12.8263558 1.1039964 19.168 0-5.834 7.639-13.155 7.874-19.168 0z" transform="translate(-1)"/></svg>