<svg height="512" viewBox="0 0 56 56" width="512" xmlns="http://www.w3.org/2000/svg"><g id="036---Castle"><path id="Shape" d="m47 23h-2c-1.1045695 0-2 .8954305-2 2v4h-3v-14h12v14h-3v-4c0-1.1045695-.8954305-2-2-2zm-9-23c.5522847 0 1 .44771525 1 1v3c0 1.1045695.8954305 2 2 2h2c1.1045695 0 2-.8954305 2-2v-3c0-.55228475.4477153-1 1-1s1 .44771525 1 1v3c0 1.1045695.8954305 2 2 2h2c1.1045695 0 2-.8954305 2-2v-3c0-.55228475.4477153-1 1-1s1 .44771525 1 1v6c0 .55228475-.4477153 1-1 1h-16c-.5522847 0-1-.44771525-1-1v-6c0-.55228475.4477153-1 1-1zm15.325 11.514-.891 1.486h-12.868l-.891-1.486c-.185146-.3089813-.1898122-.6936601-.0122156-1.0070416.1775966-.3133814.5100094-.50703398.8702156-.5069584h12.934c.3602062-.00007558.692619.193577.8702156.5069584.1775966.3133815.1729304.6980603-.0122156 1.0070416zm-42.325 11.486h-2c-1.1045695 0-2 .8954305-2 2v4h-3v-14h12v14h-3v-4c0-1.1045695-.8954305-2-2-2zm-9-23c.55228475 0 1 .44771525 1 1v3c0 1.1045695.8954305 2 2 2h2c1.1045695 0 2-.8954305 2-2v-3c0-.55228475.44771525-1 1-1 .5522847 0 1 .44771525 1 1v3c0 1.1045695.8954305 2 2 2h2c1.1045695 0 2-.8954305 2-2v-3c0-.55228475.4477153-1 1-1s1 .44771525 1 1v6c0 .55228475-.4477153 1-1 1h-16c-.55228475 0-1-.44771525-1-1v-6c0-.55228475.44771525-1 1-1zm15.325 11.514-.891 1.486h-12.868l-.891-1.486c-.18514598-.3089813-.1898122-.6936601-.01221558-1.0070416.17759662-.3133814.51000941-.50703398.87021558-.5069584h12.934c.3602062-.00007558.692619.193577.8702156.5069584.1775966.3133815.1729304.6980603-.0122156 1.0070416zm8.675 39.486v-3h4v3zm4 2v3h-4v-3zm-9-5h3v3h-3zm11 0h3v3h-3zm0-2v-2c0-.5522847-.4477153-1-1-1s-1 .4477153-1 1v2h-4v-2c0-.5522847-.4477153-1-1-1s-1 .4477153-1 1v2h-2.92c.494295-3.441787 3.4428998-5.9971786 6.92-5.9971786s6.425705 2.5553916 6.92 5.9971786zm-11 7h3v3h-3zm11 3v-3h3v3zm5 0v-9c0-4.9705627-4.0294373-9-9-9s-9 4.0294373-9 9v9h-2v-9c0-6.0751322 4.9248678-11 11-11s11 4.9248678 11 11v9zm19 0h-15v-9c0-7.1797017-5.8202983-13-13-13s-13 5.8202983-13 13v9h-15v-31h2v4c0 1.1045695.8954305 2 2 2h3c1.1045695 0 2-.8954305 2-2v-4h2v4c0 1.1045695.8954305 2 2 2h3c1.1045695 0 2-.8954305 2-2v-4h2v4c0 1.1045695.8954305 2 2 2h3c1.1045695 0 2-.8954305 2-2v-4h2v4c0 1.1045695.8954305 2 2 2h3c1.1045695 0 2-.8954305 2-2v-4h2v4c0 1.1045695.8954305 2 2 2h3c1.1045695 0 2-.8954305 2-2v-4h2v4c0 1.1045695.8954305 2 2 2h3c1.1045695 0 2-.8954305 2-2v-4h2z"/><path id="Shape" d="m5 39c-.55228475 0-1 .4477153-1 1v6c0 .5522847.44771525 1 1 1s1-.4477153 1-1v-6c0-.5522847-.44771525-1-1-1z"/><path id="Shape" d="m11 39c-.5522847 0-1 .4477153-1 1v6c0 .5522847.4477153 1 1 1s1-.4477153 1-1v-6c0-.5522847-.4477153-1-1-1z"/><path id="Shape" d="m45 39c-.5522847 0-1 .4477153-1 1v6c0 .5522847.4477153 1 1 1s1-.4477153 1-1v-6c0-.5522847-.4477153-1-1-1z"/><path id="Shape" d="m51 39c-.5522847 0-1 .4477153-1 1v6c0 .5522847.4477153 1 1 1s1-.4477153 1-1v-6c0-.5522847-.4477153-1-1-1z"/></g></svg>