<svg height="512" viewBox="0 0 60 60" width="512" xmlns="http://www.w3.org/2000/svg"><g id="036---Castle"><path id="Shape" d="m58 25h-2v-8.723c3.03-5.05 2.805-4.662 2.894-4.847.151-.312.106.37.106-9.43 0-1.1045695-.8954305-2-2-2h-2c-1.1045695 0-2 .8954305-2 2v4h-2v-4c0-1.1045695-.8954305-2-2-2h-2c-1.1045695 0-2 .8954305-2 2v4h-2v-4c0-1.1045695-.8954305-2-2-2h-2c-1.1045695 0-2 .8954305-2 2 0 9.282-.056 9.183.143 9.515l2.857 4.762v8.723h-2c-1.1045695 0-2 .8954305-2 2v4h-3v-4c0-1.1045695-.8954305-2-2-2h-2c-1.1045695 0-2 .8954305-2 2v4h-3v-4c0-1.1045695-.8954305-2-2-2h-2v-8.723c2.915-4.858 3-4.877 3-5.277v-9c0-1.1045695-.8954305-2-2-2h-2c-1.1045695 0-2 .8954305-2 2v4h-2v-4c0-1.1045695-.8954305-2-2-2h-2c-1.1045695 0-2 .8954305-2 2v4h-2v-4c0-1.1045695-.8954305-2-2-2h-2c-1.1045695 0-2 .8954305-2 2 0 9.282-.056 9.183.143 9.515l2.857 4.762v8.723h-2c-1.1045695 0-2 .8954305-2 2v31c0 1.1045695.8954305 2 2 2h56c1.1045695 0 2-.8954305 2-2v-31c0-1.1045695-.8954305-2-2-2zm-9 0h-2c-1.1045695 0-2 .8954305-2 2v4h-3v-14h12v14h-3v-4c0-1.1045695-.8954305-2-2-2zm-10-23h2v4c0 1.1045695.8954305 2 2 2h2c1.1045695 0 2-.8954305 2-2v-4h2v4c0 1.1045695.8954305 2 2 2h2c1.1045695 0 2-.8954305 2-2v-4h2v8h-18zm17.233 10-1.8 3h-12.867l-1.8-3zm-43.233 13h-2c-1.1045695 0-2 .8954305-2 2v4h-3v-14h12v14h-3v-4c0-1.1045695-.8954305-2-2-2zm-10-23h2v4c0 1.1045695.8954305 2 2 2h2c1.1045695 0 2-.8954305 2-2v-4h2v4c0 1.1045695.8954305 2 2 2h2c1.1045695 0 2-.8954305 2-2v-4h2v8h-18zm17.233 10-1.8 3h-12.867l-1.8-3zm7.767 41v-3h4v3zm4 2v3h-4v-3zm-9-5h3v3h-3zm11 0h3v3h-3zm0-2v-2c0-.5522847-.4477153-1-1-1s-1 .4477153-1 1v2h-4v-2c0-.5522847-.4477153-1-1-1s-1 .4477153-1 1v2h-2.92c.494295-3.441787 3.4428998-5.9971786 6.92-5.9971786s6.425705 2.5553916 6.92 5.9971786zm-11 7h3v3h-3zm11 3v-3h3v3zm5 0v-9c0-4.9705627-4.0294373-9-9-9s-9 4.0294373-9 9v9h-2v-9c0-6.0751322 4.9248678-11 11-11s11 4.9248678 11 11v9zm19 0h-15v-9c0-7.1797017-5.8202983-13-13-13s-13 5.8202983-13 13v9h-15v-31h2v4c0 1.1045695.8954305 2 2 2h3c1.1045695 0 2-.8954305 2-2v-4h2v4c0 1.1045695.8954305 2 2 2h3c1.1045695 0 2-.8954305 2-2v-4h2v4c0 1.1045695.8954305 2 2 2h3c1.1045695 0 2-.8954305 2-2v-4h2v4c0 1.1045695.8954305 2 2 2h3c1.1045695 0 2-.8954305 2-2v-4h2v4c0 1.1045695.8954305 2 2 2h3c1.1045695 0 2-.8954305 2-2v-4h2v4c0 1.1045695.8954305 2 2 2h3c1.1045695 0 2-.8954305 2-2v-4h2z"/><path id="Shape" d="m7 41c-.55228475 0-1 .4477153-1 1v6c0 .5522847.44771525 1 1 1s1-.4477153 1-1v-6c0-.5522847-.44771525-1-1-1z"/><path id="Shape" d="m13 41c-.5522847 0-1 .4477153-1 1v6c0 .5522847.4477153 1 1 1s1-.4477153 1-1v-6c0-.5522847-.4477153-1-1-1z"/><path id="Shape" d="m47 41c-.5522847 0-1 .4477153-1 1v6c0 .5522847.4477153 1 1 1s1-.4477153 1-1v-6c0-.5522847-.4477153-1-1-1z"/><path id="Shape" d="m53 41c-.5522847 0-1 .4477153-1 1v6c0 .5522847.4477153 1 1 1s1-.4477153 1-1v-6c0-.5522847-.4477153-1-1-1z"/></g></svg>