<svg height="512pt" viewBox="-24 0 512 512" width="512pt" xmlns="http://www.w3.org/2000/svg"><path d="m48.09375 47.09375h65.128906v17.03125h-32.0625v47.09375h47.089844v-111.21875h-95.183594v64.125h-32.0625v47.09375h47.089844zm65.128906 49.09375h-17.035156v-17.03125h17.035156zm-65.128906-81.15625h65.128906v17.03125h-65.128906zm-15.027344 81.15625h-17.035156v-17.03125h17.035156zm0 0"/><path d="m383.75 224.4375v-33.0625h-15.03125v33.0625h-17.03125v-64.125h-48.09375v-17.03125h65.125v32.0625h15.03125v-47.09375h-303.59375v96.1875h-80.15625v199.390625h15.03125v-184.359375h97.1875v80.15625h239.46875v-80.15625h97.1875v257.5h-433.84375v-57.109375h-15.03125v72.140625h463.90625v-287.5625zm-112.21875-81.15625h17.03125v17.03125h-17.03125zm-32.0625 0h17.03125v17.03125h-17.03125zm-32.0625 0h17.03125v17.03125h-17.03125zm-32.0625 0h17.03125v17.03125h-17.03125zm-63.125 81.15625h-17.03125v-81.15625h65.125v17.03125h-48.09375zm224.4375 80.15625h-161.3125v-17.03125h-15.03125v17.03125h-33.0625v-25.046875h209.40625zm0-40.078125h-209.40625v-25.046875h17.03125v16.03125h15.03125v-16.03125h17.03125v16.03125h15.03125v-16.03125h17.03125v16.03125h15.03125v-16.03125h17.03125v16.03125h15.03125v-16.03125h17.03125v16.03125h15.03125v-16.03125h17.03125v16.03125h15.03125v-16.03125h17.03125zm-145.28125-40.078125v-17.03125h17.03125v17.03125zm32.0625 0v-17.03125h17.03125v17.03125zm32.0625 0v-17.03125h17.03125v17.03125zm81.15625 0h-49.09375v-32.0625h-111.21875v32.0625h-49.09375v-49.09375h209.40625zm0 0"/><path d="m160.3125 487.953125h143.28125v-103.203125h-143.28125zm15.03125-88.171875h113.21875v73.140625h-113.21875zm0 0"/><path d="m303.59375 328.640625h-143.28125v47.09375h143.28125zm-111.21875 32.0625h-17.03125v-17.03125h17.03125zm32.0625 0h-17.03125v-17.03125h17.03125zm32.0625 0h-17.03125v-17.03125h17.03125zm32.0625 0h-17.03125v-17.03125h17.03125zm0 0"/><path d="m192.375 455.890625h79.15625v-39.078125h-79.15625zm15.03125-24.046875h49.09375v9.015625h-49.09375zm0 0"/><path d="m88.171875 479.4375c30.664063 0 55.609375-24.945312 55.609375-55.609375s-24.945312-55.609375-55.609375-55.609375-55.609375 24.945312-55.609375 55.609375 24.945312 55.609375 55.609375 55.609375zm0-96.1875c22.375 0 40.578125 18.203125 40.578125 40.578125s-18.203125 40.578125-40.578125 40.578125-40.578125-18.203125-40.578125-40.578125 18.203125-40.578125 40.578125-40.578125zm0 0"/><path d="m88.171875 447.375c12.984375 0 23.546875-10.5625 23.546875-23.546875s-10.5625-23.546875-23.546875-23.546875-23.546875 10.5625-23.546875 23.546875 10.5625 23.546875 23.546875 23.546875zm0-32.0625c4.695313 0 8.515625 3.820312 8.515625 8.515625s-3.820312 8.515625-8.515625 8.515625-8.515625-3.820312-8.515625-8.515625 3.820312-8.515625 8.515625-8.515625zm0 0"/><path d="m321.128906 423.828125c0 30.664063 24.945313 55.609375 55.605469 55.609375 30.664063 0 55.609375-24.945312 55.609375-55.609375s-24.945312-55.609375-55.609375-55.609375c-30.660156 0-55.605469 24.945312-55.605469 55.609375zm55.605469-40.578125c22.375 0 40.582031 18.203125 40.582031 40.578125s-18.207031 40.578125-40.582031 40.578125-40.578125-18.203125-40.578125-40.578125 18.203125-40.578125 40.578125-40.578125zm0 0"/><path d="m376.734375 447.375c12.984375 0 23.546875-10.5625 23.546875-23.546875s-10.5625-23.546875-23.546875-23.546875c-12.980469 0-23.542969 10.5625-23.542969 23.546875s10.5625 23.546875 23.542969 23.546875zm0-32.0625c4.699219 0 8.519531 3.820312 8.519531 8.515625s-3.820312 8.515625-8.519531 8.515625c-4.695313 0-8.515625-3.820312-8.515625-8.515625s3.820312-8.515625 8.515625-8.515625zm0 0"/><path d="m64.125 351.1875c17.402344 0 31.5625-14.160156 31.5625-31.5625s-14.160156-31.5625-31.5625-31.5625-31.5625 14.160156-31.5625 31.5625 14.160156 31.5625 31.5625 31.5625zm0-48.09375c9.117188 0 16.53125 7.414062 16.53125 16.53125 0 9.113281-7.414062 16.53125-16.53125 16.53125s-16.53125-7.417969-16.53125-16.53125c0-9.117188 7.414062-16.53125 16.53125-16.53125zm0 0"/><path d="m400.78125 351.1875c17.40625 0 31.5625-14.160156 31.5625-31.5625s-14.15625-31.5625-31.5625-31.5625c-17.402344 0-31.558594 14.160156-31.558594 31.5625s14.15625 31.5625 31.558594 31.5625zm0-48.09375c9.117188 0 16.535156 7.414062 16.535156 16.53125 0 9.113281-7.417968 16.53125-16.535156 16.53125-9.113281 0-16.53125-7.417969-16.53125-16.53125 0-9.117188 7.417969-16.53125 16.53125-16.53125zm0 0"/><path d="m40.078125 256.5h16.03125v15.03125h-16.03125zm0 0"/><path d="m72.140625 256.5h16.03125v15.03125h-16.03125zm0 0"/><path d="m376.734375 256.5h16.03125v15.03125h-16.03125zm0 0"/><path d="m408.796875 256.5h16.03125v15.03125h-16.03125zm0 0"/><path d="m407.796875 47.09375h48.09375v-47.09375h-63.125v64.125h-32.0625v47.09375h47.09375zm0-32.0625h33.0625v17.03125h-33.0625zm-15.03125 81.15625h-17.03125v-17.03125h17.03125zm0 0"/></svg>