<svg height="512pt" viewBox="0 -24 512 512" width="512pt" xmlns="http://www.w3.org/2000/svg"><path d="m280.546875 191.875c-57.179687 0-103.703125 46.519531-103.703125 103.703125h15.03125c0-48.894531 39.777344-88.675781 88.671875-88.675781zm0 0"/><path d="m395.273438 333.308594c-16.320313 49.648437-62.421876 83.003906-114.726563 83.003906-66.574219 0-120.734375-54.160156-120.734375-120.734375s54.160156-120.738281 120.734375-120.738281c23.070313 0 45.496094 6.527344 64.847656 18.875 18.851563 12.027344 33.984375 28.988281 43.753907 49.042968l13.511718-6.582031c-10.988281-22.550781-27.996094-41.613281-49.179687-55.128906-21.773438-13.890625-46.992188-21.234375-72.933594-21.234375-74.859375 0-135.765625 60.902344-135.765625 135.765625 0 74.859375 60.90625 135.765625 135.765625 135.765625 58.8125 0 110.652344-37.511719 129.003906-93.339844zm0 0"/><path d="m48.09375 463.90625h463.90625v-335.65625h-463.90625zm15.03125-320.625h433.84375v305.59375h-433.84375zm0 0"/><path d="m280.546875 351.1875c30.664063 0 55.609375-24.949219 55.609375-55.609375 0-30.664063-24.945312-55.609375-55.609375-55.609375-30.660156 0-55.609375 24.945312-55.609375 55.609375 0 30.660156 24.949219 55.609375 55.609375 55.609375zm0-96.191406c22.375 0 40.582031 18.207031 40.582031 40.582031s-18.207031 40.578125-40.582031 40.578125-40.578125-18.203125-40.578125-40.578125 18.203125-40.582031 40.578125-40.582031zm0 0"/><path d="m280.546875 319.125c12.984375 0 23.546875-10.5625 23.546875-23.546875s-10.5625-23.546875-23.546875-23.546875c-12.980469 0-23.542969 10.5625-23.542969 23.546875s10.5625 23.546875 23.542969 23.546875zm0-32.0625c4.695313 0 8.519531 3.820312 8.519531 8.515625s-3.824218 8.515625-8.519531 8.515625-8.515625-3.820312-8.515625-8.515625 3.820312-8.515625 8.515625-8.515625zm0 0"/><path d="m112.21875 222.933594c17.402344 0 31.5625-14.15625 31.5625-31.558594s-14.160156-31.5625-31.5625-31.5625-31.5625 14.160156-31.5625 31.5625 14.160156 31.558594 31.5625 31.558594zm0-48.09375c9.117188 0 16.53125 7.417968 16.53125 16.535156 0 9.113281-7.414062 16.53125-16.53125 16.53125s-16.53125-7.417969-16.53125-16.53125c0-9.117188 7.414062-16.535156 16.53125-16.535156zm0 0"/><path d="m104.203125 375.234375c12.984375 0 23.546875-10.5625 23.546875-23.546875s-10.5625-23.546875-23.546875-23.546875-23.546875 10.5625-23.546875 23.546875 10.5625 23.546875 23.546875 23.546875zm0-32.0625c4.695313 0 8.515625 3.820313 8.515625 8.515625s-3.820312 8.515625-8.515625 8.515625-8.515625-3.820313-8.515625-8.515625 3.820312-8.515625 8.515625-8.515625zm0 0"/><path d="m80.15625 431.84375h79.15625v-47.09375h-79.15625zm64.125-15.03125h-17.03125v-17.03125h17.03125zm-49.09375-17.03125h17.03125v17.03125h-17.03125zm0 0"/><path d="m463.90625 303.59375h-15.03125v57.109375h-16.03125v47.09375h16.03125v24.046875h15.03125v-24.046875h16.03125v-47.09375h-16.03125zm1 89.171875h-17.03125v-17.03125h17.03125zm0 0"/><path d="m408.796875 268.417969-16.28125 16.53125-7.890625-8.015625-34.609375 34.675781 26.6875 26.65625 34.691406-34.671875-8.257812-8.015625 20.691406-20.9375v-67.234375h16.03125v-47.09375h-47.09375v47.09375h16.03125zm-32.0625 48.59375-5.402344-5.402344 13.417969-13.421875 5.40625 5.40625zm31.0625-141.667969h17.03125v17.03125h-17.03125zm0 0"/><path d="m47.09375 47.09375h65.125v17.03125h-32.0625v47.09375h47.09375v-111.21875h-95.1875v64.125h-32.0625v47.09375h47.09375zm65.125 49.09375h-17.03125v-17.03125h17.03125zm-80.15625 0h-17.03125v-17.03125h17.03125zm80.15625-81.15625v17.03125h-65.125v-17.03125zm0 0"/><path d="m376.734375 416.8125h16.03125v15.03125h-16.03125zm0 0"/><path d="m408.796875 416.8125h16.03125v15.03125h-16.03125zm0 0"/><path d="m96.1875 263.515625h15.03125v16.03125h-15.03125zm0 0"/><path d="m96.1875 295.578125h15.03125v16.03125h-15.03125zm0 0"/></svg>