<svg height="512pt" viewBox="-48 0 512 512" width="512pt" xmlns="http://www.w3.org/2000/svg"><path d="m208.40625 328.640625h16.03125v15.03125h-16.03125zm0 0"/><path d="m64.125 328.640625h16.03125v15.03125h-16.03125zm0 0"/><path d="m240.46875 328.640625h16.03125v15.03125h-16.03125zm0 0"/><path d="m32.0625 328.640625h16.03125v15.03125h-16.03125zm0 0"/><path d="m32.0625 319.625h223.4375v-136.265625h-15.03125v121.234375h-193.375v-193.375h193.375v56.109375h15.03125v-71.140625h-223.4375zm0 0"/><path d="m144.28125 487.453125c43.921875 0 79.65625-35.734375 79.65625-79.65625s-35.734375-79.65625-79.65625-79.65625-79.65625 35.734375-79.65625 79.65625 35.734375 79.65625 79.65625 79.65625zm7.015625-15.480469v-41.867187c7.011719-2.347657 12.949219-8.28125 15.292969-14.292969h41.867187c-3.449219 29.054688-27.101562 52.710938-57.160156 56.160156zm0-128.351562c30.058594 3.449218 53.710937 27.101562 57.160156 57.160156h-41.867187c-2.34375-7.011719-8.28125-12.949219-15.292969-15.292969zm-7.015625 55.660156c4.695312 0 8.515625 3.820312 8.515625 8.515625s-3.820313 8.515625-8.515625 8.515625-8.515625-3.820312-8.515625-8.515625 3.820313-8.515625 8.515625-8.515625zm-8.015625-55.660156v41.867187c-6.011719 2.34375-11.945313 8.28125-14.292969 15.292969h-41.867187c3.449219-30.058594 27.105469-53.710938 56.160156-57.160156zm-14.292969 72.191406c2.347656 6.011719 8.28125 11.945312 14.292969 14.292969v41.867187c-29.054687-3.449218-52.710937-27.105468-56.160156-56.160156zm0 0"/><path d="m112.21875 295.578125c10.355469 0 19.164062-7.015625 22.308594-16.03125h89.910156v-15.03125h-89.910156c-3.144532-10.019531-11.953125-16.03125-22.308594-16.03125s-19.164062 6.011719-22.308594 16.03125h-25.785156v15.03125h25.785156c3.144532 9.015625 11.953125 16.03125 22.308594 16.03125zm0-32.5625c4.695312 0 8.515625 3.820313 8.515625 8.515625s-3.820313 8.515625-8.515625 8.515625-8.515625-3.820313-8.515625-8.515625 3.820313-8.515625 8.515625-8.515625zm0 0"/><path d="m399.898438 215.421875h-.117188v-55.109375h-16.03125v-32.0625h-64.125v-17.03125h64.125v-47.09375h-64.125v-17.03125h64.125v-47.09375h-327.640625v32.0625h-16.03125v32.0625h-40.078125v199.390625h15.03125v-184.359375h257.5v417.8125h-257.5v-217.421875h-15.03125v232.453125h287.5625v-447.875h-200.390625v-32.0625h-16.03125v-17.03125h297.578125v17.03125h-64.125v47.09375h64.125v17.03125h-64.125v47.09375h64.125v17.03125h-16.03125v55.109375h.886719c-9.933594 7.195313-16.414063 18.882813-16.414063 32.0625 0 21.820313 17.753906 39.578125 39.574219 39.578125 21.824219 0 39.578125-17.757812 39.578125-39.578125 0-13.179687-6.480469-24.867187-16.414062-32.0625zm-327.757813-168.328125v17.03125h-17.03125v-17.03125zm295.578125 128.25h17.03125v33.496094c-2.003906-.605469-5.589844-.933594-8.515625-.933594-2.921875 0-5.511719.328125-8.515625.933594zm9.015625 96.6875c-13.535156 0-24.546875-11.011719-24.546875-24.546875 0-13.539063 11.011719-24.550781 24.546875-24.550781 13.539063 0 24.550781 11.011718 24.550781 24.550781 0 13.535156-11.011718 24.546875-24.550781 24.546875zm0 0"/><path d="m71.140625 135.265625h25.046875v-15.03125h-40.078125v39.078125h15.03125zm0 0"/><path d="m368.71875 240.46875h16.03125v15.03125h-16.03125zm0 0"/><path d="m151.296875 175.34375h48.09375v-47.09375h-63.125v64.125h-32.0625v47.09375h47.09375zm0-32.0625h33.0625v17.03125h-33.0625zm-15.03125 81.15625h-17.03125v-17.03125h17.03125zm0 0"/></svg>