<svg height="512pt" viewBox="0 -20 512 512" width="512pt" xmlns="http://www.w3.org/2000/svg"><path d="m455 159c0-28.058594-20-51.304688-48-54.980469v-9.019531h-15v9.019531c-15 2.144531-28.984375 10.980469-37.660156 23.980469h-51.339844v-8h-143v8h-40v8h-32v16h-24v15h24v16h32v8h40v80h32v25.734375c-9 3.136719-16 11.929687-16 22.265625s7 19.128906 16 22.265625v18.734375h-24v111h15v-64h33v-15h-33v-17h129v17h-80v15h80v64h15v-111h-24v-18.734375c10-3.136719 16-11.929687 16-22.265625s-6-19.128906-16-22.265625v-25.734375h32v-80h19.339844c8.675781 12 22.660156 20.835938 37.660156 22.980469v9.019531h15v-9.019531c28-3.675781 48-26.921875 48-54.980469zm-167-7h-17v-17h17zm-49 32v-49h17v49zm-32 0v-49h17v49zm-15-49v49h-17v-49zm-89 33v-17h17v17zm32 8v-33h25v33zm145.5 143c0 4.6875-3.8125 8.5-8.5 8.5-.683594 0-1.351562-.09375-1.996094-.253906.964844-2.566406 1.496094-5.34375 1.496094-8.246094s-.53125-5.679688-1.496094-8.246094c.644532-.160156 1.3125-.253906 1.996094-.253906 4.6875 0 8.5 3.8125 8.5 8.5zm-24 0c0 4.6875-3.8125 8.5-8.5 8.5-.679688 0-1.351562-.09375-1.996094-.253906.964844-2.566406 1.496094-5.34375 1.496094-8.246094s-.53125-5.679688-1.496094-8.246094c.644532-.160156 1.3125-.253906 1.996094-.253906 4.6875 0 8.5 3.8125 8.5 8.5zm-24 0c0 4.6875-3.8125 8.5-8.5 8.5-.683594 0-1.351562-.09375-1.996094-.253906.964844-2.566406 1.496094-5.34375 1.496094-8.246094s-.53125-5.679688-1.496094-8.246094c.644532-.160156 1.316406-.253906 1.996094-.253906 4.6875 0 8.5 3.8125 8.5 8.5zm-32.5-8.5c4.6875 0 8.5 3.8125 8.5 8.5s-3.8125 8.5-8.5 8.5-8.5-3.8125-8.5-8.5 3.8125-8.5 8.5-8.5zm7 49.5v-18.734375c2-.535156 3.34375-1.230469 4.757812-2.078125 3.578126 2.125 7.835938 3.3125 12.117188 3.3125 4.386719 0 8.554688-1.210938 12.070312-3.3125 3.578126 2.125 7.742188 3.3125 12.023438 3.3125 4.382812 0 8.507812-1.210938 12.023438-3.308594 3.578124 2.121094 7.71875 3.308594 12 3.308594 4.382812 0 8.246093-1.210938 11.761718-3.3125 1.417969.84375 3.246094 1.542969 4.246094 2.074219v18.738281zm89-32.5c-.683594 0-1.351562-.09375-1.996094-.253906.964844-2.566406 1.496094-5.34375 1.496094-8.246094s-.53125-5.679688-1.496094-8.246094c.644532-.160156 1.3125-.253906 1.996094-.253906 4.6875 0 8.5 3.8125 8.5 8.5s-3.8125 8.5-8.5 8.5zm24-71.5h-32v40.738281c-1 .53125-2.820312 1.230469-4.242188 2.074219-3.515624-2.101562-7.496093-3.3125-11.882812-3.3125-4.28125 0-8.351562 1.1875-11.929688 3.3125-3.515624-2.101562-7.589843-3.3125-11.976562-3.3125-4.28125 0-8.398438 1.1875-11.976562 3.3125-3.515626-2.101562-7.613282-3.3125-12-3.3125-4.28125 0-8.65625 1.1875-12.234376 3.3125-1.414062-.84375-2.757812-1.542969-4.757812-2.078125v-40.734375h-32v-57h113v9h-24c-8.546875 0-16 6.453125-16 15v24h15v-24c0-.273438.726562 0 1 0h39v-39h-32v-17h49zm15-80v-24h-32v-9h44.003906c-1.625 5-2.503906 10.757812-2.503906 16.5s.878906 10.5 2.503906 16.5zm24-17c0-19.769531 15-36.265625 33-39.792969v47.792969h15v-47.792969c19 3.527344 33 20.023438 33 39.792969s-14 36.265625-33 39.792969v-15.792969h-15v15.792969c-18-3.527344-33-20.023438-33-39.792969zm0 0"/><path d="m208 432h16v15h-16zm0 0"/><path d="m240 432h16v15h-16zm0 0"/><path d="m272 432h16v15h-16zm0 0"/><path d="m29.054688 124.304688 10.945312-11.199219v29.894531h15v-29.894531l11.445312 11.199219 10.734376-10.359376-11.074219-10.945312h29.894531v-15h-29.894531l11.199219-11.445312-10.859376-10.734376-11.445312 11.074219v-29.894531h-15v29.894531l-10.945312-11.199219-10.484376 10.859376 11.324219 11.445312h-29.894531v15h29.894531l-11.324219 10.945312zm0 0"/><path d="m512 248h-29.894531l11.199219-11.445312-10.859376-10.734376-11.445312 11.074219v-29.894531h-15v29.894531l-10.945312-11.199219-10.484376 10.859376 11.324219 11.445312h-29.894531v15h29.894531l-11.199219 10.945312 10.359376 10.484376 10.945312-11.324219v29.894531h15v-29.894531l11.445312 11.199219 10.734376-10.359376-11.074219-10.945312h29.894531zm0 0"/><path d="m279 47h65v17h-32v47h47v-111h-95v64h-32v47h47zm65 49h-17v-17h17zm-80 0h-17v-17h17zm80-81v17h-65v-17zm0 0"/><path d="m56 264h-32v47h47v-64h65v17h-32v47h47v-111h-95zm0 32h-17v-17h17zm80 0h-17v-17h17zm0-81v17h-65v-17zm0 0"/></svg>