<svg height="512pt" viewBox="-24 0 512 512" width="512pt" xmlns="http://www.w3.org/2000/svg"><path d="m463.90625 272.53125h-32.0625v-32.0625h-16.03125v-33.0625h8.015625v-207.40625h-383.75v207.40625h8.015625v33.0625h-16.03125v32.0625h-32.0625v79.15625h32.0625v32.0625h111.21875v-143.28125h-48.09375v-33.0625h8.015625v-72.140625h-15.03125v57.109375h-33.0625v-177.34375h353.6875v177.34375h-33.0625v-134.15625l22.09375-21.84375-10.5-10.378906-21.71875 22.097656h-266.308594l-21.847656-22.097656-10.875 10.503906 21.59375 21.71875v61.015625h15.03125v-56.109375h257.5v144.28125h8.015625v33.0625h-48.09375v143.28125h32.0625v40.078125h16.03125v41.078125h-48.09375v47.09375h15.03125v-32.0625h48.09375v-56.109375h16.03125v-40.078125h32.0625v-32.0625h32.0625zm-448.875 64.125v-49.09375h17.03125v49.09375zm32.0625-81.15625h17.03125v113.21875h-17.03125zm81.15625 113.21875h-49.09375v-113.21875h49.09375zm-48.09375-128.25h-17.03125v-33.0625h17.03125zm303.59375-33.0625h17.03125v33.0625h-17.03125zm1 201.390625h-17.03125v-25.046875h17.03125zm32.0625-40.078125h-17.03125v-49.09375h-15.03125v49.09375h-49.09375v-113.21875h49.09375v48.09375h15.03125v-48.09375h17.03125zm32.0625-32.0625h-17.03125v-49.09375h17.03125zm0 0"/><path d="m200.390625 328.640625h-32.0625v47.09375h47.09375v-64.125h65.125v17.03125h-32.0625v47.09375h47.09375v-111.21875h-95.1875zm0 32.0625h-17.03125v-17.03125h17.03125zm80.15625 0h-17.03125v-17.03125h17.03125zm0-81.15625v17.03125h-65.125v-17.03125zm0 0"/><path d="m176.34375 24.046875h16.03125v15.03125h-16.03125zm0 0"/><path d="m208.40625 24.046875h16.03125v15.03125h-16.03125zm0 0"/><path d="m240.46875 24.046875h16.03125v15.03125h-16.03125zm0 0"/><path d="m272.53125 24.046875h16.03125v15.03125h-16.03125zm0 0"/></svg>