<?xml version="1.0" encoding="iso-8859-1"?>
<!-- Generator: Adobe Illustrator 21.0.0, SVG Export Plug-In . SVG Version: 6.00 Build 0)  -->
<svg xmlns="http://www.w3.org/2000/svg" xmlns:xlink="http://www.w3.org/1999/xlink" version="1.1" id="Capa_1" x="0px" y="0px" viewBox="0 0 512 512" style="enable-background:new 0 0 512 512;" xml:space="preserve" width="512" height="512">
<g>
	<path d="M41.223,244.83c4.143,0,7.5-3.357,7.5-7.5V114.146c0-9.099,7.402-16.5,16.5-16.5h141.444c4.143,0,7.5-3.357,7.5-7.5   s-3.357-7.5-7.5-7.5H65.223c-17.369,0-31.5,14.131-31.5,31.5V237.33C33.723,241.473,37.08,244.83,41.223,244.83z"/>
	<path d="M305.333,97.646h141.444c9.098,0,16.5,7.401,16.5,16.5V237.33c0,4.143,3.357,7.5,7.5,7.5s7.5-3.357,7.5-7.5V114.146   c0-17.369-14.131-31.5-31.5-31.5H305.333c-4.143,0-7.5,3.357-7.5,7.5S301.19,97.646,305.333,97.646z"/>
	<path d="M496.5,368.657h-18.223V267.331c0-4.143-3.357-7.5-7.5-7.5s-7.5,3.357-7.5,7.5v101.326h-13.049V138.982   c0-12.958-10.542-23.5-23.5-23.5H322.297c-4.143,0-7.5,3.357-7.5,7.5s3.357,7.5,7.5,7.5h104.432c4.687,0,8.5,3.813,8.5,8.5v229.675   H76.771V138.982c0-4.687,3.813-8.5,8.5-8.5h104.433c4.143,0,7.5-3.357,7.5-7.5s-3.357-7.5-7.5-7.5H85.271   c-12.958,0-23.5,10.542-23.5,23.5v229.675H48.723V267.331c0-4.143-3.357-7.5-7.5-7.5s-7.5,3.357-7.5,7.5v101.326H15.5   c-8.547,0-15.5,6.953-15.5,15.5v19.078c0,17.369,14.131,31.5,31.5,31.5h449c17.369,0,31.5-14.131,31.5-31.5v-19.078   C512,375.61,505.047,368.657,496.5,368.657z M300.167,383.657v5.533c0,1.379-1.121,2.5-2.5,2.5h-83.334c-1.379,0-2.5-1.121-2.5-2.5   v-5.533H300.167z M497,403.235c0,9.098-7.401,16.5-16.5,16.5h-449c-9.099,0-16.5-7.402-16.5-16.5v-19.078   c0-0.275,0.225-0.5,0.5-0.5h181.333v5.533c0,9.649,7.851,17.5,17.5,17.5h83.334c9.649,0,17.5-7.851,17.5-17.5v-5.533H496.5   c0.275,0,0.5,0.225,0.5,0.5V403.235z"/>
	<path d="M173.064,220.914c5.377,9.311,15.005,14.87,25.757,14.87h114.357c10.752,0,20.38-5.56,25.757-14.87   c5.376-9.313,5.376-20.431,0-29.743l-57.179-99.035c-5.376-9.312-15.005-14.871-25.757-14.871s-20.381,5.56-25.757,14.871   l-57.179,99.035C167.688,200.483,167.688,211.602,173.064,220.914z M186.055,198.671l57.179-99.035   c2.665-4.615,7.438-7.371,12.767-7.371s10.102,2.756,12.767,7.371l57.179,99.035c2.665,4.615,2.664,10.127-0.001,14.742   c-2.664,4.615-7.437,7.371-12.766,7.371H198.821c-5.329,0-10.102-2.756-12.766-7.371   C183.391,208.798,183.39,203.286,186.055,198.671z"/>
	<path d="M256,172.675c4.143,0,7.5-3.357,7.5-7.5v-38.108c0-4.143-3.357-7.5-7.5-7.5s-7.5,3.357-7.5,7.5v38.108   C248.5,169.317,251.857,172.675,256,172.675z"/>
	<path d="M256,203.416c4.143,0,7.5-3.357,7.5-7.5v-1.191c0-4.143-3.357-7.5-7.5-7.5s-7.5,3.357-7.5,7.5v1.191   C248.5,200.059,251.857,203.416,256,203.416z"/>
	<path d="M154.745,283.324c3.654-1.95,5.036-6.493,3.086-10.148c-1.951-3.652-6.49-5.035-10.148-3.086   c-12.358,6.595-20.036,19.388-20.036,33.385c0,20.854,16.967,37.821,37.821,37.821h57.824c3.519,5.253,9.465,8.528,16.022,8.527   c0.322,0,0.646-0.008,0.972-0.023c10.292-0.506,18.354-9.168,18.354-19.721v-5.088h47.885l7.678,11.813   c2.841,4.37,7.704,6.86,12.711,6.86c1.801,0,3.621-0.322,5.371-0.995l45.104-17.348c4.167-1.603,6.966-5.679,6.966-10.142v-26.977   c0-4.463-2.799-8.539-6.966-10.142l-45.104-17.348c-6.617-2.543-14.22-0.078-18.081,5.864l-7.679,11.813H258.64v-5.515   c0-5.951-2.682-11.481-7.357-15.171c-4.678-3.689-10.734-5.001-16.622-3.592c-6.168,1.476-11.006,5.858-13.264,11.54h-40.183   c-4.143,0-7.5,3.357-7.5,7.5s3.357,7.5,7.5,7.5h46.29c4.143,0,7.5-3.357,7.5-7.5v-0.178c0-2.04,1.323-3.838,3.146-4.274   c1.813-0.428,3.088,0.186,3.841,0.78c1.049,0.826,1.649,2.064,1.649,3.395v57.202c0,2.502-1.835,4.628-4.09,4.738   c-2,0.121-3.809-1.177-4.367-3.106c-0.929-3.208-3.865-5.415-7.204-5.415h-62.511c-12.584,0-22.821-10.237-22.821-22.821   C142.646,295.027,147.282,287.306,154.745,283.324z M309.681,293.392c3.123,0,6.003-1.564,7.7-4.179l9.399-14.46   c0.025-0.04,0.079-0.054,0.119-0.039l42.454,16.329v21.297l-42.454,16.329c-0.04,0.016-0.094,0.001-0.12-0.039l-9.399-14.462   c-1.7-2.615-4.579-4.177-7.699-4.177H258.64v-16.6H309.681z"/>
	<path d="M213.436,309.191c4.143,0,7.5-3.357,7.5-7.5s-3.357-7.5-7.5-7.5h-39.498c-4.143,0-7.5,3.357-7.5,7.5s3.357,7.5,7.5,7.5   H213.436z"/>
</g>















</svg>
