<?xml version="1.0" encoding="iso-8859-1"?>
<!-- Generator: Adobe Illustrator 21.0.0, SVG Export Plug-In . SVG Version: 6.00 Build 0)  -->
<svg xmlns="http://www.w3.org/2000/svg" xmlns:xlink="http://www.w3.org/1999/xlink" version="1.1" id="Capa_1" x="0px" y="0px" viewBox="0 0 512 512" style="enable-background:new 0 0 512 512;" xml:space="preserve" width="512" height="512">
<g>
	<path d="M41.223,242.64c4.142,0,7.5-3.358,7.5-7.5V110.955c0-9.098,7.402-16.5,16.5-16.5h381.555c9.098,0,16.5,7.402,16.5,16.5   V235.14c0,4.142,3.358,7.5,7.5,7.5s7.5-3.358,7.5-7.5V110.955c0-17.369-14.131-31.5-31.5-31.5H65.223   c-17.369,0-31.5,14.131-31.5,31.5V235.14C33.723,239.282,37.081,242.64,41.223,242.64z"/>
	<path d="M496.5,366.467h-18.223V265.14c0-4.142-3.358-7.5-7.5-7.5s-7.5,3.358-7.5,7.5v101.327h-13.048V135.791   c0-12.958-10.542-23.5-23.5-23.5H85.271c-12.958,0-23.5,10.542-23.5,23.5v230.676H48.723V265.14c0-4.142-3.358-7.5-7.5-7.5   s-7.5,3.358-7.5,7.5v101.327H15.5c-8.547,0-15.5,6.953-15.5,15.5v19.078c0,17.369,14.131,31.5,31.5,31.5h449   c17.369,0,31.5-14.131,31.5-31.5v-19.078C512,373.42,505.047,366.467,496.5,366.467z M76.771,135.791c0-4.687,3.813-8.5,8.5-8.5   h341.458c4.687,0,8.5,3.813,8.5,8.5v230.676H347.5v-45.789c0-7.412-5.115-13.652-12-15.377V233.03h9.828   c0.378,7.245,3.595,14.122,8.958,19.051c5.564,5.115,13.22,7.909,21.176,7.243l34.802-2.94c7.723-0.654,13.547-6.993,13.547-14.743   v-8.81c0-8.161-6.639-14.8-14.8-14.8h-18.59v-23.65h18.59c8.161,0,14.8-6.639,14.8-14.8v-8.81c0-7.751-5.824-14.09-13.549-14.744   l-40.98-3.46c-6.157-0.516-12.294,1.58-16.84,5.758c-4.544,4.177-7.15,10.113-7.15,16.285v4.77h-9.79v-1.44   c0-11.723-9.374-21.59-20.891-21.995c-5.54-0.193-10.816,1.664-14.968,5.266c-3.8-3.289-8.753-5.281-14.162-5.281   c-5.414,0-10.37,1.995-14.172,5.289c-3.804-3.294-8.762-5.289-14.178-5.289c-5.409,0-10.361,1.992-14.162,5.281   c-4.151-3.603-9.416-5.466-14.962-5.266c-11.522,0.405-20.896,10.272-20.896,21.995v1.44h-40.416   c-0.253-7.435-3.498-14.521-8.99-19.565c-5.719-5.252-13.437-7.888-21.165-7.228l-34.801,2.94   c-7.724,0.653-13.548,6.992-13.548,14.743v8.8c0,8.167,6.639,14.81,14.8,14.81h18.59v23.65h-18.59c-8.161,0-14.8,6.639-14.8,14.8   v8.8c0,7.756,5.824,14.099,13.549,14.754l40.981,3.46c0.617,0.052,1.232,0.078,1.847,0.078c5.522,0,10.902-2.077,14.993-5.837   c8.913-8.193,6.861-18.742,7.149-20.555h17.75v17.2c0,17.513,14.252,31.76,31.77,31.76h5.88v23.31   c-6.887,1.724-12.002,7.964-12.002,15.377v45.789H76.771V135.791z M121.81,178.88h-18.62v-8.422l34.617-2.924   c3.62-0.308,7.078,0.875,9.75,3.329c2.678,2.459,4.153,5.818,4.153,9.458v6.56c0,4.142,3.358,7.5,7.5,7.5h47.9v23.61h-15.15   c-0.261,0-0.52,0.013-0.774,0.04H159.21c-4.142,0-7.5,3.358-7.5,7.5c-0.507,9.704,1.38,13.627-2.301,17.012   c-1.486,1.366-3.412,2.023-5.428,1.855l-40.791-3.444v-8.423h18.62c8.144,0,14.77-6.626,14.77-14.77v-24.12   C136.58,185.501,129.954,178.88,121.81,178.88z M199.46,232.99h15.15c4.142,0,7.5-3.358,7.5-7.5v-47.55   c0-3.738,2.882-6.88,6.43-7.005c1.838-0.066,3.565,0.596,4.88,1.863c1.316,1.27,2.041,2.975,2.041,4.802c0,4.142,3.358,7.5,7.5,7.5   s7.5-3.358,7.5-7.5c0-3.678,2.992-6.67,6.67-6.67c3.684,0,6.68,2.992,6.68,6.67c0,4.142,3.358,7.5,7.5,7.5s7.5-3.358,7.5-7.5   c0-3.678,2.992-6.67,6.67-6.67s6.67,2.992,6.67,6.67c0,4.142,3.358,7.5,7.5,7.5s7.5-3.358,7.5-7.5c0-1.827,0.725-3.532,2.041-4.802   c1.313-1.268,3.053-1.938,4.886-1.863c3.542,0.125,6.424,3.267,6.424,7.004v126.888h-83.39V274.49c0-4.142-3.358-7.5-7.5-7.5   h-13.38c-9.247,0-16.77-7.519-16.77-16.76V232.99z M390.19,233.03h18.62v8.423l-34.61,2.924c-3.62,0.306-7.089-0.88-9.763-3.338   s-4.146-5.813-4.146-9.448v-6.06c0-4.142-3.358-7.5-7.5-7.5H335.5v-23.65h17.29c4.142,0,7.5-3.358,7.5-7.5v-12.27   c0-2.016,0.817-3.877,2.301-5.242c1.486-1.366,3.415-2.025,5.428-1.854l40.791,3.444v8.422h-18.62   c-8.144,0-14.77,6.622-14.77,14.76v24.13C375.42,226.409,382.046,233.03,390.19,233.03z M211.833,381.467h88.333V387   c0,1.378-1.122,2.5-2.5,2.5h-83.333c-1.378,0-2.5-1.122-2.5-2.5V381.467z M225.108,366.467c0.38-46.51-0.802-46.639,0.851-46.639   c111.417,0.076,106.542-0.543,106.542,0.85v45.789H225.108z M497,401.045c0,9.098-7.402,16.5-16.5,16.5h-449   c-9.098,0-16.5-7.402-16.5-16.5v-19.078c0-0.276,0.224-0.5,0.5-0.5h181.333V387c0,9.649,7.851,17.5,17.5,17.5h83.333   c9.649,0,17.5-7.851,17.5-17.5v-5.533H496.5c0.276,0,0.5,0.224,0.5,0.5V401.045z"/>
	<path d="M245.667,335.647H237c-4.142,0-7.5,3.358-7.5,7.5s3.358,7.5,7.5,7.5h8.667c4.142,0,7.5-3.358,7.5-7.5   S249.809,335.647,245.667,335.647z"/>
</g>















</svg>
