<?xml version="1.0" encoding="iso-8859-1"?>
<!-- Generator: Adobe Illustrator 21.0.0, SVG Export Plug-In . SVG Version: 6.00 Build 0)  -->
<svg xmlns="http://www.w3.org/2000/svg" xmlns:xlink="http://www.w3.org/1999/xlink" version="1.1" id="Capa_1" x="0px" y="0px" viewBox="0 0 512 512" style="enable-background:new 0 0 512 512;" xml:space="preserve" width="512" height="512">
<g>
	<path d="M481.386,25.05H152.599c-4.142,0-7.5,3.357-7.5,7.5s3.358,7.5,7.5,7.5h328.787c8.609,0,15.614,7.004,15.614,15.613v57.512   H15V55.663c0-8.609,7.004-15.613,15.614-15.613h89.671c4.142,0,7.5-3.357,7.5-7.5s-3.358-7.5-7.5-7.5H30.614   C13.733,25.05,0,38.783,0,55.663v400.674c0,16.88,13.733,30.613,30.614,30.613h450.772c16.88,0,30.614-13.733,30.614-30.613V55.663   C512,38.783,498.267,25.05,481.386,25.05z M92.048,263.476h32.017c9.454,0,17.145-7.691,17.145-17.145v-24.987   c0-1.208,0.983-2.191,2.191-2.191h11.683c1.129,0,2.088,0.882,2.184,2.007l3.902,46.18c0.464,5.497-1.336,10.763-5.069,14.825   c-3.734,4.063-8.829,6.3-14.347,6.3h-8.043c-4.142,0-7.5,3.357-7.5,7.5v175.962H89.903V295.964c0-4.143-3.358-7.5-7.5-7.5H66.116   c-3.373,0-6.486-1.367-8.769-3.851s-3.383-5.701-3.099-9.062l4.597-54.393c0.095-1.125,1.054-2.007,2.184-2.007h11.683   c1.208,0,2.191,0.983,2.191,2.191v24.987C74.903,255.784,82.595,263.476,92.048,263.476z M382.074,296.163l-19.965-12.978   c-1.179-0.766-1.668-2.273-1.164-3.585l23.25-60.448h33.33l23.249,60.448v0.001c0.504,1.311,0.016,2.818-1.163,3.584   l-19.965,12.977c-2.799,1.819-4.471,4.898-4.471,8.237v73.33h-28.632v-73.33C386.544,301.061,384.873,297.981,382.074,296.163z    M440.645,392.729c4.862,0,8.817,3.955,8.817,8.817s-3.956,8.817-8.817,8.817h-0.382c-4.142,0-7.5,3.357-7.5,7.5v54.062h-11.976   v-39.78c0.08-0.439,0.122-0.892,0.122-1.354c0-4.143-3.358-7.5-7.5-7.5h-0.122c-4.142,0-7.5,3.357-7.5,7.5v41.135H394.01v-41.789   c0-4.143-3.358-7.5-7.5-7.5s-7.5,3.357-7.5,7.5v41.789h-14.978v-54.715c0-3.338-2.207-6.274-5.413-7.204   c-3.746-1.085-6.361-4.563-6.361-8.46c0-4.862,3.956-8.817,8.817-8.817H440.645z M481.386,471.95h-33.624v-47.672   c9.667-3.034,16.7-12.077,16.7-22.731c0-13.133-10.685-23.817-23.817-23.817h-10.469v-70.521l17.611-11.447   c7.081-4.603,10.02-13.665,6.987-21.547v0.001l-23.952-62.276c-1.792-4.658-6.348-7.787-11.338-7.787h-37.248   c-4.991,0-9.548,3.13-11.338,7.787l-23.953,62.276c-3.031,7.882-0.093,16.943,6.988,21.546l17.61,11.446v70.521h-10.469   c-13.133,0-23.817,10.685-23.817,23.817c0,8.53,4.636,16.319,11.774,20.531v49.872H141.21V303.464h0.543   c9.624,0,18.879-4.064,25.391-11.15s9.782-16.649,8.972-26.238l-3.902-46.18c-0.747-8.828-8.271-15.743-17.13-15.743h-11.683   c-9.479,0-17.191,7.712-17.191,17.191v24.987c0,1.183-0.962,2.145-2.145,2.145H92.048c-1.183,0-2.145-0.962-2.145-2.145v-24.987   c0-9.479-7.712-17.191-17.191-17.191H61.029c-8.859,0-16.383,6.915-17.13,15.743l-4.597,54.394   c-0.632,7.482,1.919,14.945,7.001,20.475c5.082,5.529,12.303,8.7,19.813,8.7h8.787V471.95h-44.29   c-8.609,0-15.614-7.004-15.614-15.613V128.175h482v328.162C497,464.946,489.996,471.95,481.386,471.95z"/>
	<path d="M47.648,76.612c0,13.309,10.828,24.137,24.137,24.137s24.137-10.828,24.137-24.137S85.094,52.476,71.785,52.476   S47.648,63.304,47.648,76.612z M80.922,76.612c0,5.038-4.099,9.137-9.137,9.137s-9.137-4.099-9.137-9.137s4.099-9.137,9.137-9.137   S80.922,71.574,80.922,76.612z"/>
	<path d="M112.305,76.612c0,13.309,10.828,24.137,24.137,24.137s24.137-10.828,24.137-24.137s-10.828-24.137-24.137-24.137   S112.305,63.304,112.305,76.612z M136.442,67.476c5.038,0,9.137,4.099,9.137,9.137s-4.099,9.137-9.137,9.137   s-9.137-4.099-9.137-9.137S131.404,67.476,136.442,67.476z"/>
	<path d="M225.236,76.612c0-13.309-10.828-24.137-24.137-24.137s-24.137,10.828-24.137,24.137s10.828,24.137,24.137,24.137   S225.236,89.921,225.236,76.612z M191.962,76.612c0-5.038,4.099-9.137,9.137-9.137s9.137,4.099,9.137,9.137   s-4.099,9.137-9.137,9.137S191.962,81.65,191.962,76.612z"/>
	<path d="M252.896,311.98c-4.142,0-7.5,3.357-7.5,7.5s3.358,7.5,7.5,7.5c10.326,0,18.726,8.4,18.726,18.726   s-8.4,18.726-18.726,18.726c-10.325,0-18.726-8.4-18.726-18.726c0-1.275,0.128-2.548,0.38-3.782   c0.83-4.059-1.787-8.021-5.845-8.851c-4.06-0.826-8.021,1.787-8.851,5.845c-0.454,2.222-0.685,4.506-0.685,6.788   c0,18.597,15.129,33.726,33.726,33.726c18.597,0,33.726-15.129,33.726-33.726S271.493,311.98,252.896,311.98z"/>
	<path d="M333.139,310.688l-9.795-16.966c-3.293-5.704-10.043-8.527-16.418-6.862l-16.813,4.392   c-2.764-1.893-5.662-3.57-8.669-5.018l-4.601-16.742c-1.745-6.352-7.564-10.787-14.151-10.787h-19.589   c-6.586,0-12.406,4.436-14.152,10.787l-4.6,16.742c-3.008,1.447-5.906,3.125-8.669,5.018l-16.814-4.392   c-6.37-1.66-13.124,1.158-16.417,6.862l-9.794,16.965c-3.294,5.705-2.363,12.963,2.266,17.649l12.21,12.366   c-0.132,1.692-0.199,3.365-0.199,5.003s0.066,3.311,0.199,5.003l-12.209,12.366c-4.628,4.687-5.56,11.944-2.267,17.649   l9.795,16.965c3.293,5.704,10.046,8.525,16.417,6.861l16.813-4.391c2.765,1.893,5.663,3.57,8.67,5.017l4.6,16.744   c1.746,6.351,7.565,10.786,14.152,10.786h19.589c6.587,0,12.406-4.436,14.151-10.787l4.601-16.743   c3.007-1.446,5.906-3.124,8.67-5.017l16.813,4.391c6.375,1.664,13.125-1.157,16.418-6.861l9.795-16.965   c3.293-5.705,2.361-12.963-2.267-17.649l-12.209-12.366c0.132-1.693,0.199-3.366,0.199-5.003s-0.066-3.31-0.199-5.003   l12.209-12.366C335.5,323.649,336.433,316.392,333.139,310.688z M305.497,332.688c-1.628,1.649-2.403,3.958-2.098,6.256   c0.307,2.313,0.462,4.588,0.462,6.763c0,2.174-0.155,4.449-0.462,6.765c-0.304,2.297,0.47,4.605,2.098,6.254l14.527,14.714   l-9.548,16.536l-20.006-5.225c-2.247-0.587-4.639-0.1-6.478,1.32c-3.597,2.776-7.533,5.054-11.7,6.771   c-2.145,0.884-3.761,2.71-4.375,4.947l-5.473,19.919h-19.096l-5.473-19.919c-0.615-2.237-2.23-4.064-4.376-4.947   c-4.166-1.716-8.103-3.994-11.701-6.771c-1.839-1.419-4.23-1.907-6.478-1.319l-20.006,5.225l-9.547-16.536l14.527-14.714   c1.628-1.649,2.403-3.958,2.098-6.256c-0.307-2.311-0.462-4.586-0.462-6.763s0.155-4.452,0.462-6.763   c0.305-2.298-0.47-4.606-2.098-6.256l-14.527-14.713l9.547-16.538l20.006,5.226c2.248,0.586,4.64,0.099,6.478-1.319   c3.598-2.777,7.535-5.056,11.702-6.772c2.145-0.884,3.76-2.711,4.375-4.947l5.473-19.918h19.096l5.473,19.918   c0.615,2.236,2.229,4.063,4.375,4.947c4.167,1.717,8.104,3.995,11.702,6.772c1.838,1.418,4.23,1.905,6.478,1.319l20.005-5.226   l9.548,16.537L305.497,332.688z"/>
</g>















</svg>
