<?xml version="1.0" encoding="iso-8859-1"?>
<!-- Generator: Adobe Illustrator 21.0.0, SVG Export Plug-In . SVG Version: 6.00 Build 0)  -->
<svg version="1.1" id="Capa_1" xmlns="http://www.w3.org/2000/svg" xmlns:xlink="http://www.w3.org/1999/xlink" x="0px" y="0px"
	 viewBox="0 0 512 512" style="enable-background:new 0 0 512 512;" xml:space="preserve">
<g>
	<g>
		<path d="M280.143,338.036h-48.287c-4.143,0-7.5,3.357-7.5,7.5s3.357,7.5,7.5,7.5h48.287c4.143,0,7.5-3.357,7.5-7.5
			S284.286,338.036,280.143,338.036z"/>
	</g>
</g>
<g>
	<g>
		<path d="M256.109,74.756c-35.906,0-65.119,29.212-65.119,65.12c0,35.906,29.213,65.119,65.119,65.119
			c35.906,0,65.119-29.213,65.119-65.119C321.227,103.968,292.015,74.756,256.109,74.756z M256.109,189.994
			c-27.636,0-50.118-22.482-50.118-50.118s22.482-50.119,50.118-50.119s50.118,22.483,50.118,50.119
			S283.744,189.994,256.109,189.994z"/>
	</g>
</g>
<g>
	<g>
		<path d="M287.202,120.636c-2.89-2.965-7.637-3.026-10.607-0.136l-26.881,26.201l-11.033-10.814
			c-2.958-2.898-7.706-2.851-10.607,0.106c-2.899,2.959-2.852,7.707,0.106,10.607l16.269,15.944
			c2.91,2.852,7.565,2.859,10.485,0.015l32.13-31.316C290.033,128.351,290.093,123.602,287.202,120.636z"/>
	</g>
</g>
<g>
	<g>
		<path d="M504.5,192.428c4.143,0,7.5-3.357,7.5-7.5V51.68c0-21.669-17.63-39.299-39.299-39.299c-7.559,0-428.689,0-433.402,0
			C17.629,12.381,0,30.011,0,51.68c0,16.446,0,289.18,0,301.497c0,21.669,17.629,39.299,39.298,39.299h173.869v55.662h-67.885
			c-10.624,0-19.266,8.643-19.266,19.266v12.949c0,10.623,8.643,19.265,19.266,19.265h93.217c4.143,0,7.5-3.357,7.5-7.5
			s-3.357-7.5-7.5-7.5h-93.217c-2.352,0-4.265-1.913-4.265-4.264v-12.949c0-2.352,1.913-4.265,4.265-4.265
			c4.894,0,216.809,0,221.435,0c2.352,0,4.265,1.913,4.265,4.265v12.949c0,2.351-1.913,4.264-4.265,4.264h-93.217
			c-4.143,0-7.5,3.357-7.5,7.5s3.357,7.5,7.5,7.5h93.217c10.624,0,19.266-8.643,19.266-19.265v-12.949
			c0-10.624-8.643-19.266-19.266-19.266h-67.886v-55.662H472.7c21.669,0,39.299-17.63,39.299-39.299c0-6.167,0-128.022,0-133.247
			c0-4.143-3.357-7.5-7.5-7.5s-7.5,3.357-7.5,7.5v78.668h-20.331c0-10.94,0-223.178,0-234.112c0-9.249-7.523-16.772-16.772-16.772
			H344.142l-5.363-5.363c-5.706-5.704-14.938-5.704-20.643,0.001l-10.995,10.996c-8.172-4.844-16.923-8.471-26.119-10.822V27.382
			h191.679c13.398,0,24.298,10.9,24.298,24.298v133.247C496.999,189.07,500.356,192.428,504.5,192.428z M15.001,51.68
			c0-13.398,10.9-24.298,24.297-24.298h191.679v15.143c-9.195,2.351-17.944,5.977-26.119,10.822l-10.995-10.996
			c-5.706-5.704-14.937-5.706-20.643,0l-5.362,5.362c-10.306,0-104.88,0-118.172,0c-7.914,0-14.355,6.438-14.355,14.354v40.49
			v196.041h-20.33V51.68z M143.102,164.898h15.547c2.351,9.195,5.977,17.944,10.822,26.119l-10.996,10.996
			c-5.701,5.703-5.707,14.937,0,20.642l14.745,14.747c5.692,5.689,14.952,5.69,20.643-0.001l10.996-10.996
			c8.032,4.761,16.762,8.43,26.118,10.822v15.547c0,8.048,6.548,14.597,14.597,14.597h20.853c8.048,0,14.596-6.548,14.596-14.597
			v-15.549c9.195-2.351,17.944-5.977,26.119-10.822l10.995,10.996c5.703,5.701,14.937,5.707,20.642,0l14.747-14.745
			c5.689-5.69,5.689-14.95-0.001-20.643l-10.996-10.996c4.844-8.172,8.471-16.922,10.822-26.118h15.547
			c8.049,0,14.597-6.547,14.597-14.596v-20.853c0-8.048-6.547-14.596-14.596-14.596h-15.548c-0.413-1.614-0.879-3.208-1.37-4.794
			h109.687v188.54H50.332v-188.54c22.577,0,86.62,0,109.687,0c-0.491,1.586-0.957,3.18-1.37,4.794h-15.547
			c-8.049,0-14.596,6.548-14.596,14.597v20.853C128.506,158.351,135.053,164.898,143.102,164.898z M50.332,95.057V62.714h37.839
			v32.343H50.332z M103.172,95.057V62.714h51.798c-1.701,5.01-0.621,10.898,3.505,15.022l10.996,10.998
			c-1.228,2.071-2.375,4.18-3.446,6.323H103.172z M283.83,448.139h-55.662v-55.662h55.662V448.139z M496.999,313.599v39.578
			c0,13.398-10.9,24.299-24.298,24.299c-6.807,0-426.275,0-433.402,0c-13.398,0-24.297-10.901-24.297-24.299v-39.578
			C22.839,313.599,475.892,313.599,496.999,313.599z M353.524,77.737c3.903-3.904,5.276-9.768,3.495-15.023h102.875
			c0.977,0,1.771,0.795,1.771,1.771v30.571H345.974c-1.071-2.143-2.219-4.252-3.446-6.323L353.524,77.737z M303.079,68.499
			c3.533,2.333,8.266,1.857,11.256-1.131l14.123-14.124c12.643,12.643,2.578,2.58,14.173,14.173L328.507,81.54
			c-2.989,2.99-3.465,7.724-1.131,11.256c5.732,8.672,10.164,18.987,12.388,29.892c0.844,4.152,4.527,7.166,8.76,7.166h19.97v20.043
			h-19.97c-4.231,0-7.916,3.014-8.759,7.16c-2.248,11.022-6.564,21.084-12.389,29.898v0.001c-0.001,0.002-0.003,0.005-0.004,0.007
			c-0.026,0.04-0.047,0.082-0.073,0.122c-2.237,3.514-1.744,8.165,1.21,11.126l14.123,14.123l-14.172,14.172l-14.123-14.123
			c-2.989-2.987-7.723-3.464-11.256-1.131c-15.221,10.062-28.626,11.975-30.656,12.579c-3.753,1.115-6.401,4.6-6.401,8.568v0.001
			v19.97h-20.043v-19.97v-0.001c0-4.232-3.015-7.916-7.16-8.758c-10.707-2.184-20.765-6.352-29.898-12.389
			c-3.528-2.332-8.26-1.858-11.256,1.132l-14.123,14.123l-14.172-14.174l14.128-14.128c2.984-2.99,3.458-7.721,1.126-11.25
			c-6.037-9.135-10.205-19.192-12.388-29.892c-0.844-4.152-4.526-7.166-8.759-7.166h-19.97v-20.043h19.97
			c4.231,0,7.914-3.014,8.758-7.16c2.26-11.078,6.792-21.429,12.389-29.898c2.334-3.531,1.858-8.266-1.131-11.255l-14.123-14.124
			l6.899-6.898c0.001-0.001,0.002-0.003,0.003-0.004l7.269-7.269l14.128,14.128c2.99,2.985,7.721,3.457,11.25,1.126
			c9.133-6.036,19.19-10.205,29.89-12.387c4.153-0.843,7.168-4.527,7.168-8.761v-19.97h20.043v19.97
			c-0.002,4.232,3.012,7.915,7.158,8.759C283.888,58.295,293.947,62.463,303.079,68.499z"/>
	</g>
</g>
<g>
</g>
<g>
</g>
<g>
</g>
<g>
</g>
<g>
</g>
<g>
</g>
<g>
</g>
<g>
</g>
<g>
</g>
<g>
</g>
<g>
</g>
<g>
</g>
<g>
</g>
<g>
</g>
<g>
</g>
</svg>
