<?xml version="1.0" encoding="iso-8859-1"?>
<!-- Generator: Adobe Illustrator 21.0.0, SVG Export Plug-In . SVG Version: 6.00 Build 0)  -->
<svg version="1.1" id="Capa_1" xmlns="http://www.w3.org/2000/svg" xmlns:xlink="http://www.w3.org/1999/xlink" x="0px" y="0px"
	 viewBox="0 0 511.999 511.999" style="enable-background:new 0 0 511.999 511.999;" xml:space="preserve">
<g>
	<g>
		<path d="M256.001,149.535c-58.717,0-106.489,47.772-106.489,106.489c0,58.717,47.772,106.489,106.489,106.489
			c58.717,0,106.489-47.771,106.489-106.489C362.49,197.306,314.718,149.535,256.001,149.535z M256.001,347.512
			c-50.447,0-91.488-41.041-91.488-91.488c0-50.447,41.041-91.488,91.488-91.488s91.488,41.041,91.488,91.488
			C347.489,306.471,306.447,347.512,256.001,347.512z"/>
	</g>
</g>
<g>
	<g>
		<path d="M325.265,250.125l-31.219-24.513c-3.258-2.557-7.973-1.99-10.532,1.268c-2.558,3.258-1.99,7.973,1.268,10.531
			l23.705,18.613l-23.705,18.613c-3.258,2.558-3.825,7.272-1.268,10.531c2.562,3.261,7.277,3.821,10.532,1.268l31.219-24.513
			C329.088,258.922,329.084,253.122,325.265,250.125z"/>
	</g>
</g>
<g>
	<g>
		<path d="M227.219,274.636l-23.706-18.612l23.706-18.612c3.258-2.559,3.826-7.274,1.268-10.533
			c-2.56-3.256-7.272-3.823-10.532-1.268l-31.22,24.512c-3.824,3.003-3.819,8.801,0,11.8l31.22,24.512
			c3.259,2.557,7.974,1.989,10.532-1.268C231.045,281.909,230.477,277.194,227.219,274.636z"/>
	</g>
</g>
<g>
	<g>
		<path d="M266.579,213.258c-4.019-0.999-8.087,1.458-9.082,5.479l-17.556,70.969c-1.17,4.729,2.412,9.304,7.286,9.304
			c3.367,0,6.43-2.285,7.274-5.701l17.556-70.969C273.055,218.32,270.6,214.253,266.579,213.258z"/>
	</g>
</g>
<g>
	<g>
		<path d="M256.297,121.681c-74.064,0-134.32,60.255-134.32,134.32c0,32.582,11.814,64.006,33.266,88.482
			c21.248,24.243,50.445,40.053,82.214,44.515c4.096,0.581,7.894-2.281,8.471-6.384c0.576-4.102-2.281-7.894-6.384-8.47
			c-58.471-8.214-102.565-59.003-102.565-118.142c0-65.793,53.526-119.319,119.319-119.319s119.318,53.526,119.318,119.319
			c0,59.42-44.333,110.243-103.12,118.22c-4.105,0.557-6.98,4.335-6.424,8.44c0.558,4.126,4.364,6.981,8.439,6.423
			c31.91-4.329,61.26-20.088,82.641-44.375c21.58-24.512,33.465-56.017,33.465-88.709
			C390.615,181.937,330.361,121.681,256.297,121.681z"/>
	</g>
</g>
<g>
	<g>
		<path d="M504.498,266.002c-4.143,0-7.5,3.357-7.5,7.5v4.091c0,3.967-3.228,7.194-7.194,7.194h-42.194
			c-4.957,0-9.275,3.534-10.268,8.401c-4.729,23.184-13.754,44.966-26.827,64.742c-2.734,4.142-2.179,9.69,1.323,13.197
			l29.842,29.842c2.805,2.805,2.805,7.367,0,10.173l-30.537,30.537c-2.806,2.808-7.368,2.804-10.175,0l-29.841-29.841
			c-3.504-3.504-9.056-4.06-13.199-1.321c-19.772,13.07-41.554,22.095-64.738,26.825c-4.869,0.992-8.403,5.31-8.403,10.267v42.195
			c0,3.967-3.227,7.194-7.193,7.194h-43.187c-3.967,0-7.193-3.228-7.193-7.194v-42.195c0-4.956-3.534-9.274-8.403-10.267
			c-23.185-4.729-44.967-13.755-64.742-26.827c-4.141-2.734-9.69-2.18-13.197,1.323l-29.842,29.842
			c-2.805,2.805-7.367,2.805-10.173,0l-30.538-30.537c-2.805-2.805-2.805-7.369,0-10.174l29.844-29.845
			c3.5-3.504,4.056-9.053,1.319-13.197c-13.07-19.772-22.095-41.553-26.825-64.737c-0.992-4.869-5.31-8.403-10.267-8.403H22.196
			c-3.967,0-7.193-3.228-7.193-7.194v-43.186c0-3.967,3.227-7.193,7.193-7.193h42.195c4.956,0,9.274-3.534,10.267-8.403
			c4.729-23.185,13.755-44.967,26.826-64.742c2.736-4.143,2.181-9.693-1.322-13.198L70.32,111.031
			c-2.805-2.805-2.805-7.368-0.001-10.174l30.539-30.537c2.805-2.805,7.367-2.805,10.173,0l29.845,29.844
			c3.505,3.502,9.057,4.055,13.197,1.319c19.773-13.071,41.555-22.096,64.738-26.825c4.869-0.993,8.404-5.311,8.404-10.268V22.194
			c0-3.966,3.227-7.193,7.193-7.193h43.187c3.967,0,7.193,3.227,7.193,7.193V64.39c0,4.957,3.534,9.276,8.401,10.268
			c23.183,4.728,44.965,13.753,64.739,26.824c4.142,2.739,9.694,2.185,13.2-1.321l29.842-29.841c2.805-2.803,7.37-2.805,10.174,0
			l30.538,30.538c2.81,2.81,2.812,7.36-0.001,10.173l-29.843,29.843c-3.502,3.503-4.058,9.054-1.32,13.198
			c13.071,19.775,22.097,41.556,26.825,64.739c0.992,4.869,5.31,8.404,10.268,8.404h42.195c3.967,0,7.193,3.227,7.193,7.192v4.093
			c0,4.143,3.357,7.5,7.5,7.5s7.5-3.357,7.5-7.5v-4.093c0.002-12.237-9.955-22.192-22.192-22.192h-38.533
			c-5.025-22.536-13.838-43.804-26.237-63.323l27.254-27.253c8.673-8.674,8.674-22.713,0-31.388l-30.538-30.538
			c-8.654-8.651-22.734-8.653-31.389,0.001L363.11,86.964c-19.519-12.397-40.788-21.21-63.322-26.236V22.194
			C299.788,9.957,289.832,0,277.594,0h-43.187c-12.238,0-22.194,9.957-22.194,22.194v38.533
			c-22.536,5.025-43.804,13.838-63.322,26.237l-27.254-27.252c-8.654-8.654-22.734-8.654-31.389,0L59.712,90.25
			c-8.651,8.654-8.651,22.733,0,31.387l27.254,27.253c-12.398,19.517-21.211,40.787-26.238,63.323H22.196
			c-12.238,0-22.195,9.957-22.195,22.195v43.186c0,12.239,9.957,22.195,22.194,22.195h38.532
			c5.027,22.537,13.841,43.808,26.237,63.321l-27.252,27.254c-8.651,8.652-8.651,22.733,0,31.388l30.538,30.538
			c8.677,8.674,22.712,8.674,31.389,0l27.253-27.254c19.517,12.397,40.786,21.21,63.322,26.237v38.532
			c0,12.239,9.957,22.195,22.194,22.195h43.187c12.238,0,22.194-9.957,22.194-22.195v-38.532
			c22.534-5.026,43.806-13.84,63.321-26.237l27.253,27.253c8.676,8.674,22.713,8.674,31.39,0l30.537-30.537
			c8.674-8.677,8.674-22.712,0-31.389l-27.254-27.253c12.398-19.517,21.21-40.786,26.237-63.321h38.532
			c12.239,0,22.195-9.957,22.195-22.195v-4.091C511.999,269.359,508.641,266.002,504.498,266.002z"/>
	</g>
</g>
<g>
</g>
<g>
</g>
<g>
</g>
<g>
</g>
<g>
</g>
<g>
</g>
<g>
</g>
<g>
</g>
<g>
</g>
<g>
</g>
<g>
</g>
<g>
</g>
<g>
</g>
<g>
</g>
<g>
</g>
</svg>
