<svg height="511pt" viewBox="1 0 511.999 511" width="511pt" xmlns="http://www.w3.org/2000/svg"><path d="m419.75 289.652344c8.378906-23.300782 12.632812-47.753906 12.632812-72.960938 0-57.746094-22.488281-112.035156-63.320312-152.871094-40.835938-40.832031-95.125-63.320312-152.871094-63.320312s-112.039062 22.488281-152.871094 63.320312c-40.832031 40.835938-63.320312 95.125-63.320312 152.871094s22.488281 112.035156 63.320312 152.871094c40.832032 40.832031 95.125 63.320312 152.871094 63.320312 25.382813 0 49.996094-4.3125 73.4375-12.804687 9.496094 52.25 55.332032 91.996094 110.28125 91.996094 61.804688 0 112.089844-50.285157 112.089844-112.089844 0-55.039063-39.871094-100.9375-92.25-110.332031zm-131.335938 98.757812c-12.851562 5.425782-26.152343 9.34375-39.808593 11.730469 21.496093-31.410156 37.242187-66.292969 46.628906-102.957031h60.027344c-36.28125 15.816406-62.628907 50.285156-66.847657 91.226562zm-258.472656-171.71875c0-13.527344 1.460938-26.71875 4.214844-39.433594h95.230469c-1.597657 13.027344-2.425781 26.191407-2.425781 39.425782 0 17.019531 1.34375 33.917968 3.96875 50.558594h-94.015626c-4.539062-16.082032-6.972656-33.035157-6.972656-50.550782zm126.960938-.007812c0-13.246094.898437-26.417969 2.65625-39.425782h113.242187c1.757813 13.007813 2.65625 26.179688 2.65625 39.425782 0 17.039062-1.492187 33.949218-4.386719 50.558594h-109.78125c-2.894531-16.609376-4.386718-33.519532-4.386718-50.558594zm8.300781-69.367188c9.425781-38.902344 26.714844-75.683594 50.976563-107.933594 24.261718 32.25 41.550781 69.03125 50.976562 107.933594zm237.238281 69.375c0 17.324219-2.324218 34.234375-6.921875 50.550782h-94.089843c2.625-16.640626 3.96875-33.539063 3.96875-50.558594 0-13.234375-.832032-26.398438-2.425782-39.425782h95.253906c2.753907 12.714844 4.214844 25.90625 4.214844 39.433594zm-138.21875 80.492188c-9.875 34.785156-26.105468 67.648437-48.042968 96.800781-21.9375-29.152344-38.167969-62.015625-48.046876-96.800781zm124.808594-149.867188h-91.15625c-8.910156-40.714844-25.597656-79.476562-49.238281-114.039062 63.941406 11.277344 116.726562 55.285156 140.394531 114.039062zm-205.3125-114.035156c-23.640625 34.5625-40.324219 73.320312-49.234375 114.035156h-91.132813c23.664063-58.746094 76.4375-102.75 140.367188-114.035156zm-135.46875 263.902344h88.875c9.386719 36.648437 25.121094 71.519531 46.601562 102.921875-59.832031-10.5625-109.90625-49.777344-135.476562-102.921875zm351.660156 184.949218c-45.296875 0-82.148437-36.851562-82.148437-82.148437s36.851562-82.148437 82.148437-82.148437 82.148438 36.851562 82.148438 82.148437-36.851563 82.148437-82.148438 82.148437zm0 0"/><path d="m445.121094 385.011719c-.730469-2.210938-1.625-4.351563-2.660156-6.40625l9.609374-9.613281-21.171874-21.167969-9.609376 9.609375c-2.054687-1.035156-4.195312-1.929688-6.40625-2.660156v-13.585938h-29.941406v13.585938c-2.214844.730468-4.351562 1.625-6.410156 2.660156l-9.609375-9.609375-21.171875 21.171875 9.609375 9.609375c-1.035156 2.054687-1.925781 4.195312-2.660156 6.410156h-13.585938v29.941406h13.585938c.734375 2.210938 1.625 4.351563 2.660156 6.40625l-9.609375 9.609375 21.171875 21.171875 9.609375-9.609375c2.058594 1.035156 4.199219 1.929688 6.410156 2.664063v13.582031h29.941406v-13.585938c2.210938-.734374 4.351563-1.625 6.40625-2.660156l9.613282 9.609375 21.167968-21.171875-9.609374-9.609375c1.035156-2.058593 1.929687-4.195312 2.664062-6.410156h13.582031v-29.941406zm-27.515625 14.972656c0 9.757813-7.9375 17.695313-17.695313 17.695313-9.757812 0-17.695312-7.9375-17.695312-17.695313s7.9375-17.695313 17.695312-17.695313c9.757813 0 17.695313 7.9375 17.695313 17.695313zm0 0"/></svg>