<svg height="512pt" viewBox="0 0 511 512" width="512pt" xmlns="http://www.w3.org/2000/svg"><path d="m507.445312 320.960938c-4.882812-11.414063-13.859374-20.148438-25.277343-24.597657-11.214844-4.367187-23.433594-4.046875-34.433594.914063l-88.027344 39.863281c-4.671875-16.898437-18.640625-30.121094-36.804687-32.882813l-108.230469-16.460937c-30.1875-4.59375-61.304687 5.605469-83.273437 27.273437l-11.890626 11.472657v-25.796875h-119.007812v211.253906h119.007812v-24.835938l71.070313-57.410156 140.667969 20.785156 153.085937-69.09375c22.644531-10.21875 33.011719-37.351562 23.113281-60.484374zm-417.890624 161.085937h-59.101563v-151.347656h59.101563zm382.457031-127.902344-145.078125 65.480469-144.964844-21.421875-62.460938 50.457031v-80.5l32.746094-31.59375.128906-.125c15.507813-15.324218 36.570313-22.261718 57.785157-19.035156l108.226562 16.460938c8.109375 1.230468 13.910157 9.222656 12.929688 17.808593-.511719 4.496094-2.707031 8.433594-6.179688 11.09375-3.214843 2.460938-7.148437 3.484375-11.074219 2.886719l-101.960937-15.507812-4.503906 29.613281 101.960937 15.507812c2.265625.34375 4.527344.515625 6.773438.515625 9.707031 0 19.101562-3.179687 27.011718-9.230468 5.195313-3.976563 9.4375-9.058594 12.503907-14.792969l104.210937-47.191407c3.585938-1.617187 7.574219-1.722656 11.230469-.296874 3.855469 1.503906 6.917969 4.511718 8.609375 8.46875 3.527344 8.246093-.015625 17.847656-7.894531 21.402343zm0 0"/><path d="m231.175781 180.488281-14.566406 21.535157 48.660156 48.761718 21.5625-14.523437c2.824219 1.3125 5.703125 2.511719 8.625 3.589843l4.953125 25.507813h68.886719l4.953125-25.511719c2.847656-1.046875 5.65625-2.210937 8.410156-3.488281l21.535156 14.566406 48.761719-48.660156-14.519531-21.566406c1.3125-2.824219 2.507812-5.703125 3.585938-8.625l25.511718-4.949219v-68.886719l-25.511718-4.953125c-1.050782-2.847656-2.214844-5.65625-3.492188-8.414062l14.566406-21.535156-48.660156-48.757813-21.5625 14.519531c-2.824219-1.3125-5.703125-2.507812-8.625-3.585937l-4.953125-25.511719h-68.886719l-4.949218 25.511719c-2.851563 1.050781-5.65625 2.214843-8.414063 3.488281l-21.535156-14.566406-48.761719 48.664062 14.523438 21.5625c-1.3125 2.824219-2.511719 5.703125-3.589844 8.625l-25.507813 4.953125v68.886719l25.511719 4.953125c1.046875 2.847656 2.210938 5.652344 3.488281 8.410156zm.949219-57.554687 19.054688-3.699219 2.472656-8.945313c1.851562-6.707031 4.539062-13.171874 7.992187-19.21875l4.613281-8.078124-10.867187-16.140626 13.796875-13.769531 16.121094 10.902344 8.085937-4.597656c6.007813-3.414063 12.425781-6.078125 19.070313-7.910157l8.945312-2.46875 3.699219-19.054687h19.492187l3.699219 19.054687 8.945313 2.46875c6.707031 1.851563 13.171875 4.542969 19.222656 7.996094l8.074219 4.613282 16.140625-10.871094 13.769531 13.800781-10.902344 16.117187 4.597657 8.085938c3.414062 6.007812 6.074218 12.421875 7.910156 19.070312l2.472656 8.945313 19.054688 3.699219v19.496094l-19.054688 3.699218-2.472656 8.945313c-1.847656 6.703125-4.539063 13.167969-7.996094 19.21875l-4.609375 8.078125 10.867187 16.140625-13.796874 13.769531-16.121094-10.902344-8.085938 4.59375c-6.007812 3.417969-12.425781 6.078125-19.070312 7.914063l-8.945313 2.46875-3.699219 19.054687h-19.492187l-3.699219-19.054687-8.949218-2.46875c-6.703126-1.851563-13.167969-4.542969-19.21875-7.996094l-8.078126-4.613281-16.136718 10.871094-13.769532-13.800782 10.898438-16.117187-4.59375-8.085938c-3.414062-6.011719-6.078125-12.425781-7.910156-19.070312l-2.472656-8.945313-19.050782-3.699218v-19.496094zm0 0"/><path d="m335.871094 192.449219c32.957031 0 59.769531-26.8125 59.769531-59.769531 0-32.957032-26.8125-59.769532-59.769531-59.769532-32.957032 0-59.769532 26.8125-59.769532 59.769532 0 32.957031 26.8125 59.769531 59.769532 59.769531zm0-89.585938c16.441406 0 29.816406 13.375 29.816406 29.816407 0 16.441406-13.375 29.820312-29.816406 29.820312s-29.816406-13.378906-29.816406-29.820312c0-16.441407 13.375-29.816407 29.816406-29.816407zm0 0"/></svg>