<svg height="512pt" viewBox="0 -42 512 512" width="512pt" xmlns="http://www.w3.org/2000/svg"><path d="m482.914062 315.0625v-315.0625h-453.132812v315.0625h-29.78125v30.851562c0 44.726563 36.386719 81.113282 81.113281 81.113282h349.773438c44.726562 0 81.113281-36.386719 81.113281-81.113282v-30.851562zm-423.015624-284.945312h392.898437v284.941406h-155.769531v25.5625h-82.054688v-25.5625h-155.074218zm421.984374 315.796874c0 28.117188-22.875 50.992188-50.996093 50.992188h-349.773438c-28.121093 0-50.996093-22.875-50.996093-50.992188v-.734374h154.738281v25.5625h142.289062v-25.5625h154.738281zm0 0"/><path d="m422.675781 60.238281h-332.652343v224.699219h332.652343zm-30.121093 194.582031h-272.414063v-164.464843h272.417969v164.464843zm0 0"/><path d="m213.199219 194.269531-9.667969 9.667969 21.296875 21.292969 9.664063-9.667969c2.070312 1.042969 4.222656 1.941406 6.449218 2.679688v13.664062h30.117188v-13.664062c2.222656-.738282 4.378906-1.636719 6.445312-2.679688l9.667969 9.667969 21.296875-21.292969-9.667969-9.667969c1.042969-2.070312 1.9375-4.222656 2.679688-6.449219h13.660156v-30.117187h-13.660156c-.738281-2.226563-1.636719-4.378906-2.679688-6.445313l9.667969-9.667968-21.296875-21.296875-9.667969 9.667969c-2.066406-1.042969-4.21875-1.941407-6.445312-2.679688v-13.664062h-30.117188v13.664062c-2.226562.738281-4.378906 1.636719-6.445312 2.679688l-9.667969-9.667969-21.296875 21.296875 9.667969 9.667968c-1.042969 2.066407-1.941407 4.21875-2.679688 6.445313h-13.664062v30.117187h13.664062c.738281 2.226563 1.636719 4.378907 2.679688 6.449219zm25-21.507812c0-9.816407 7.984375-17.800781 17.800781-17.800781s17.800781 7.984374 17.800781 17.800781c0 9.816406-7.984375 17.800781-17.800781 17.800781s-17.800781-7.984375-17.800781-17.800781zm0 0"/></svg>