<?xml version="1.0"?>
<svg xmlns="http://www.w3.org/2000/svg" viewBox="0 0 60 60" width="512" height="512"><g id="_28-Telephone" data-name="28-Telephone"><path d="M59,21H43a1,1,0,0,1-1-1V13a1,1,0,0,1,1-1h6a1,1,0,0,1,0,2H44v5H58V12C58,11.99,57,2,51,2H9C3,2,2.005,11.99,2,12.091L2,19H16V14H11a1,1,0,0,1,0-2h6a1,1,0,0,1,1,1v7a1,1,0,0,1-1,1H1a1,1,0,0,1-1-1V12C.048,11.423,1.177,0,9,0H51c7.823,0,8.952,11.423,9,11.91L60,20A1,1,0,0,1,59,21Z"/><path d="M15,14a1,1,0,0,1-.894-1.447l2-4A1,1,0,0,1,17,8H30a1,1,0,0,1,0,2H17.618L15.9,13.447A1,1,0,0,1,15,14Z"/><path d="M45,14a1,1,0,0,1-.9-.553L42.382,10H30a1,1,0,0,1,0-2H43a1,1,0,0,1,.9.553l2,4A1,1,0,0,1,45,14Z"/><path d="M59,60H1a1,1,0,0,1-1-1V53a5.006,5.006,0,0,1,5-5,1,1,0,0,1,0,2,3,3,0,0,0-3,3v5H58V53a3,3,0,0,0-3-3,1,1,0,0,1,0-2,5.006,5.006,0,0,1,5,5v6A1,1,0,0,1,59,60Z"/><path d="M34,53H26a1,1,0,0,1-.6-.2L21.667,50H5a1,1,0,0,1-1-1V43a1,1,0,0,1,.252-.664C4.33,42.249,12,33.491,12,24a1,1,0,0,1,1-1h9V19a3,3,0,0,1,6,0v4a.915.915,0,0,0,1,1h2a.918.918,0,0,0,1-1.012V19a3,3,0,0,1,6,0v4h9a1,1,0,0,1,1,1c0,9.491,7.67,18.249,7.748,18.336A1,1,0,0,1,56,43v6a1,1,0,0,1-1,1H38.333L34.6,52.8A1,1,0,0,1,34,53Zm-7.667-2h7.334L37.4,48.2A1,1,0,0,1,38,48H54V43.371c-1.36-1.616-7.536-9.42-7.976-18.371H37a1,1,0,0,1-1-1V19a1,1,0,0,0-2,0v4a2.916,2.916,0,0,1-3,3H29a2.916,2.916,0,0,1-3-3V19a1,1,0,0,0-2,0v5a1,1,0,0,1-1,1H13.976C13.536,33.951,7.36,41.755,6,43.371V48H22a1,1,0,0,1,.6.2Z"/><path d="M30,46a9,9,0,1,1,9-9A9.01,9.01,0,0,1,30,46Zm0-16a7,7,0,1,0,7,7A7.008,7.008,0,0,0,30,30Z"/><circle cx="30" cy="33" r="1"/><circle cx="30" cy="41" r="1"/><circle cx="34" cy="37" r="1"/><circle cx="26" cy="37" r="1"/><circle cx="27" cy="34" r="1"/><circle cx="33" cy="34" r="1"/><circle cx="33" cy="40" r="1"/><circle cx="27" cy="40" r="1"/><path d="M21,44H6a1,1,0,0,1,0-2H21a1,1,0,0,1,0,2Z"/><path d="M55,44H40a1,1,0,0,1,0-2H55a1,1,0,0,1,0,2Z"/><path d="M5,50a1,1,0,0,1-.707-1.707l6-6a1,1,0,0,1,1.414,1.414l-6,6A1,1,0,0,1,5,50Z"/><path d="M10,50a1,1,0,0,1-.707-1.707l6-6a1,1,0,0,1,1.414,1.414l-6,6A1,1,0,0,1,10,50Z"/><path d="M15,50a1,1,0,0,1-.707-1.707l6-6a1,1,0,0,1,1.414,1.414l-6,6A1,1,0,0,1,15,50Z"/><path d="M39,50a1,1,0,0,1-.707-1.707l6-6a1,1,0,0,1,1.414,1.414l-6,6A1,1,0,0,1,39,50Z"/><path d="M44,50a1,1,0,0,1-.707-1.707l6-6a1,1,0,0,1,1.414,1.414l-6,6A1,1,0,0,1,44,50Z"/><path d="M49,50a1,1,0,0,1-.707-1.707l6-6a1,1,0,0,1,1.414,1.414l-6,6A1,1,0,0,1,49,50Z"/></g></svg>
