<svg height="512" viewBox="0 0 60 60" width="512" xmlns="http://www.w3.org/2000/svg"><g id="_40-Phone_Call" data-name="40-Phone Call"><path d="m30 60a30.019 30.019 0 0 1 -28.168-40.345 1 1 0 0 1 1.877.69 28 28 0 1 0 12.091-14.484 1 1 0 0 1 -1.016-1.722 30 30 0 1 1 15.216 55.861z"/><path d="m37.472 52.841a6.88 6.88 0 0 1 -5.047-2.068l-29.7-29.7c-5.531-5.529 1.749-14.404 2.061-14.78l5.714-5.724a1.029 1.029 0 0 1 1.414 0l11.318 11.314a1 1 0 0 1 0 1.414l-4.95 4.95a1 1 0 0 1 -.707.293 1 1 0 0 1 -.707-.293l-4.242-4.247a1 1 0 0 1 1.414-1.41l3.535 3.536 3.536-3.536-9.9-9.9-4.949 4.951c0 .01-6.366 7.777-2.121 12.02l29.7 29.7c4.254 4.255 12.01-2.117 12.087-2.182l4.884-4.888-9.9-9.9-3.536 3.536 3.534 3.533a1 1 0 1 1 -1.41 1.414l-4.243-4.242a1 1 0 0 1 0-1.414l4.95-4.95a1 1 0 0 1 .707-.293 1 1 0 0 1 .707.293l11.31 11.314a1 1 0 0 1 0 1.414l-5.658 5.656c-.321.272-5.094 4.189-9.801 4.189z"/><path d="m33.132 39.753a1 1 0 0 1 -.707-.293l-9.193-9.192a1 1 0 0 1 1.414-1.414l8.754 8.754 3.656-1.217a1 1 0 1 1 .632 1.9l-4.24 1.409a.987.987 0 0 1 -.316.053z"/><path d="m23.939 30.561a1 1 0 0 1 -.707-.293l-9.192-9.193a1 1 0 0 1 -.241-1.023l1.414-4.242a1 1 0 1 1 1.9.632l-1.221 3.658 8.754 8.756a1 1 0 0 1 -.707 1.707z"/><path d="m34 24a3 3 0 1 1 3-3 3 3 0 0 1 -3 3zm0-4a1 1 0 1 0 1 1 1 1 0 0 0 -1-1z"/><path d="m36 22a1 1 0 0 1 -1-1c0-4.781-2.7-4.992-3.013-5a1.007 1.007 0 0 1 -.98-1.014.994.994 0 0 1 .993-.986c.05 0 5 .08 5 7a1 1 0 0 1 -1 1z"/><path d="m42 24a3 3 0 1 1 3-3 3 3 0 0 1 -3 3zm0-4a1 1 0 1 0 1 1 1 1 0 0 0 -1-1z"/><path d="m44 22a1 1 0 0 1 -1-1c0-4.781-2.7-4.992-3.013-5a1.007 1.007 0 0 1 -.98-1.014.994.994 0 0 1 .993-.986c.05 0 5 .08 5 7a1 1 0 0 1 -1 1z"/></g></svg>