<svg height="682.66669pt" viewBox="-21 -21 682.66669 682.66669" width="682.66669pt" xmlns="http://www.w3.org/2000/svg"><path d="m639.96875 12.203125c-.046875-1.910156-.5-3.808594-1.421875-5.558594-2.171875-4.085937-6.417969-6.644531-11.046875-6.644531h-545c-45.488281 0-82.5 37.007812-82.5 82.5v475c0 45.488281 37.007812 82.5 82.5 82.5h450c4.0625 0 7.972656-1.992188 10.34375-5.484375l95-140c1.40625-2.070313 2.15625-4.515625 2.15625-7.015625v-475c0-.117188-.019531-.199219-.03125-.296875zm-557.46875 12.796875h521.410156l-13.566406 20h-289.515625c-6.902344 0-12.5 5.59375-12.5 12.5s5.597656 12.5 12.5 12.5h272.546875l-17.054688 25.136719c-.570312-.082031-1.144531-.136719-1.734374-.136719h-472.085938c-6.90625 0-12.5 5.59375-12.5 12.5s5.59375 12.5 12.5 12.5h456.949219l-13.574219 20h-443.375c-31.703125 0-57.5-25.796875-57.5-57.5s25.796875-57.5 57.5-57.5zm437.5 140v400h-131.324219c-6.902343 0-12.5 5.59375-12.5 12.5 0 6.898438 5.597657 12.5 12.5 12.5h131.324219v25h-395v-450zm-495 392.5v-48.550781c14.875 14.472656 35.15625 23.417969 57.5 23.417969 6.90625 0 12.5-5.59375 12.5-12.5 0-6.902344-5.59375-12.5-12.5-12.5-31.703125 0-57.5-25.796876-57.5-57.5v-70.785157c14.875 14.472657 35.15625 23.417969 57.5 23.417969 6.90625 0 12.5-5.601562 12.5-12.5 0-6.90625-5.59375-12.5-12.5-12.5-31.703125 0-57.5-25.796875-57.5-57.5v-70.785156c14.875 14.476562 35.15625 23.417968 57.5 23.417968 6.90625 0 12.5-5.597656 12.5-12.5 0-6.90625-5.59375-12.5-12.5-12.5-31.703125 0-57.5-25.796874-57.5-57.5v-48.550781c14.875 14.476563 35.15625 23.417969 57.5 23.417969h17.5v450h-17.5c-31.703125 0-57.5-25.796875-57.5-57.5zm567.5-40.683594v-251.617187c0-6.898438-5.59375-12.5-12.5-12.5s-12.5 5.601562-12.5 12.5v285.425781c0 .898438.097656 1.777344.277344 2.621094l-22.777344 33.570312v-430.472656l70-103.160156v430.472656zm0 0"/><path d="m580 194.785156c-3.289062 0-6.515625 1.339844-8.835938 3.660156-2.328124 2.332032-3.664062 5.554688-3.664062 8.839844 0 3.292969 1.335938 6.511719 3.664062 8.839844 2.320313 2.320312 5.546876 3.660156 8.835938 3.660156 3.285156 0 6.515625-1.339844 8.835938-3.660156 2.328124-2.328125 3.664062-5.546875 3.664062-8.839844 0-3.285156-1.335938-6.507812-3.664062-8.839844-2.320313-2.320312-5.550782-3.660156-8.835938-3.660156zm0 0"/><path d="m204.585938 518.796875c6.902343 0 12.5-5.597656 12.5-12.5v-15.8125c0-6.898437-5.597657-12.5-12.5-12.5-6.90625 0-12.5 5.601563-12.5 12.5v15.8125c0 6.902344 5.59375 12.5 12.5 12.5zm0 0"/><path d="m204.585938 594.574219c6.902343 0 12.5-5.59375 12.5-12.5v-15.808594c0-6.90625-5.597657-12.5-12.5-12.5-6.90625 0-12.5 5.59375-12.5 12.5v15.808594c0 6.90625 5.59375 12.5 12.5 12.5zm0 0"/><path d="m250.382812 523.78125h-15.816406c-6.90625 0-12.5 5.597656-12.5 12.5s5.59375 12.5 12.5 12.5h15.816406c6.902344 0 12.5-5.597656 12.5-12.5s-5.597656-12.5-12.5-12.5zm0 0"/><path d="m158.789062 548.78125h15.8125c6.902344 0 12.5-5.597656 12.5-12.5s-5.597656-12.5-12.5-12.5h-15.8125c-6.90625 0-12.5 5.597656-12.5 12.5s5.59375 12.5 12.5 12.5zm0 0"/><path d="m445.453125 242.648438c6.90625 0 12.5-5.597657 12.5-12.5v-15.8125c0-6.90625-5.59375-12.5-12.5-12.5-6.902344 0-12.5 5.59375-12.5 12.5v15.8125c0 6.902343 5.597656 12.5 12.5 12.5zm0 0"/><path d="m445.453125 318.429688c6.90625 0 12.5-5.601563 12.5-12.5v-15.816407c0-6.902343-5.59375-12.5-12.5-12.5-6.902344 0-12.5 5.597657-12.5 12.5v15.816407c0 6.902343 5.597656 12.5 12.5 12.5zm0 0"/><path d="m475.4375 272.632812h15.8125c6.90625 0 12.5-5.601562 12.5-12.5 0-6.90625-5.59375-12.5-12.5-12.5h-15.816406c-6.898438 0-12.5 5.59375-12.5 12.5 0 6.898438 5.601562 12.5 12.503906 12.5zm0 0"/><path d="m399.65625 272.632812h15.8125c6.90625 0 12.5-5.601562 12.5-12.5 0-6.90625-5.59375-12.5-12.5-12.5h-15.8125c-6.902344 0-12.5 5.59375-12.5 12.5 0 6.898438 5.597656 12.5 12.5 12.5zm0 0"/><path d="m320.15625 473.125c56.3125 0 116.929688-14.964844 116.929688-47.8125 0-17.210938-16.640626-29.507812-40.578126-37.320312-23.570312-29.628907-40.964843-63.050782-51.695312-99.40625l-12.664062-42.945313c-1.566407-5.320313-6.449219-8.964844-11.988282-8.964844-5.542968 0-10.425781 3.644531-11.992187 8.964844l-12.664063 42.945313c-10.730468 36.355468-28.125 69.777343-51.695312 99.40625-23.933594 7.8125-40.570313 20.109374-40.570313 37.320312-.003906 32.847656 60.605469 47.8125 116.917969 47.8125zm-.679688-177.464844.679688-2.308594.683594 2.308594c8.882812 30.117188 21.980468 58.382813 39.058594 84.378906-12.914063-1.703124-26.445313-2.539062-39.742188-2.539062-13.289062 0-26.820312.835938-39.734375 2.539062 17.074219-25.996093 30.167969-54.261718 39.054687-84.378906zm-67.375 115.9375c18.28125-5.863281 42.449219-9.097656 68.054688-9.097656 25.609375 0 49.78125 3.234375 68.0625 9.097656 18.578125 5.964844 23.5625 12.355469 23.855469 13.714844-.292969 1.359375-5.277344 7.75-23.855469 13.710938-18.28125 5.867187-42.453125 9.101562-68.0625 9.101562-25.605469 0-49.773438-3.234375-68.054688-9.101562-18.757812-6.015626-23.660156-12.46875-23.867187-13.671876.207031-1.28125 5.109375-7.734374 23.867187-13.753906zm0 0"/><path d="m244.164062 70c3.296876 0 6.507813-1.335938 8.839844-3.664062 2.332032-2.320313 3.660156-5.550782 3.660156-8.835938s-1.328124-6.515625-3.660156-8.835938c-2.332031-2.328124-5.542968-3.664062-8.839844-3.664062-3.289062 0-6.511718 1.335938-8.835937 3.664062-2.324219 2.320313-3.664063 5.550782-3.664063 8.835938s1.339844 6.515625 3.664063 8.835938c2.324219 2.328124 5.546875 3.664062 8.835937 3.664062zm0 0"/></svg>