<?xml version="1.0" encoding="iso-8859-1"?>
<!-- Generator: Adobe Illustrator 19.0.0, SVG Export Plug-In . SVG Version: 6.00 Build 0)  -->
<svg version="1.1" id="Capa_1" xmlns="http://www.w3.org/2000/svg" xmlns:xlink="http://www.w3.org/1999/xlink" x="0px" y="0px"
	 viewBox="0 0 382.148 382.148" style="enable-background:new 0 0 382.148 382.148;" xml:space="preserve">
<path style="fill:#5B7DBB;" d="M305.681,91.473h14.982v246.246H96.154c-19.529,0-35.509-14.115-35.509-31.368V98.015
	c0-17.252,15.979-31.368,35.509-31.368h128.354"/>
<path style="fill:#BFA1DB;" d="M251.057,256.805c0-0.006-0.044-191.282-0.044-189.196c0-12.711-11.773-23.112-26.163-23.112
	l0.044,189.196C239.284,233.693,251.057,244.094,251.057,256.805z"/>
<path style="fill:#EED9EB;" d="M250.729,258.816H148.412c0.004-0.151,0.012-0.301,0.012-0.453c0-11.294-8.801-20.526-19.918-21.228
	v-125.09c0.254,0.009,0.507,0.02,0.762,0.02c11.75,0,21.276-9.526,21.276-21.276c0-0.736-0.038-1.463-0.11-2.179h73.135
	c1.199,1.199,0,14.539,0,14.539h-60.684c-3.447,9.346-10.685,16.87-19.839,20.7v102.428c7.608,3.786,13.667,10.195,17.022,18h90.66
	L250.729,258.816z"/>
<g>
	
		<rect x="8.613" y="207.822" transform="matrix(-0.7071 -0.7071 0.7071 -0.7071 -118.6994 393.5763)" style="fill:#E77B73;" width="27.1" height="27.1"/>
	
		<rect x="346.44" y="143.646" transform="matrix(-0.7071 -0.7071 0.7071 -0.7071 503.3869 522.9007)" style="fill:#E77B73;" width="27.1" height="27.1"/>
	
		<rect x="125.937" y="43.192" transform="matrix(-0.7071 -0.7071 0.7071 -0.7071 197.9959 195.4961)" style="fill:#E77B73;" width="27.1" height="27.1"/>
</g>
<path style="fill:#BDCBE4;" d="M305.668,78.526h-53.594v180.045l-11.418,19.804l9.927,1.569H101.226
	c-12.278,0-22.324,10.046-22.324,22.324l0,0c0,12.277,10.046,22.323,22.324,22.323h203.512V280.18h0.93V78.526z"/>
<g>
	<path style="fill:#204184;" d="M224.507,69.647h-75.593c-1.657,0-3-1.343-3-3s1.343-3,3-3h75.593c1.657,0,3,1.343,3,3
		S226.164,69.647,224.507,69.647z"/>
	<path style="fill:#204184;" d="M320.664,340.72H96.154c-21.233,0-38.509-15.418-38.509-34.368V98.015
		c0-18.951,17.275-34.368,38.509-34.368h34.072c1.657,0,3,1.343,3,3s-1.343,3-3,3H96.154c-17.926,0-32.509,12.726-32.509,28.368
		V306.35c0,15.642,14.583,28.368,32.509,28.368h221.51V94.473h-11.982c-1.657,0-3-1.343-3-3s1.343-3,3-3h14.982c1.657,0,3,1.343,3,3
		v246.246C323.664,339.376,322.321,340.72,320.664,340.72z"/>
	<path style="fill:#204184;" d="M304.738,327.591H101.226c-13.964,0-25.324-11.359-25.324-25.322
		c0-13.964,11.36-25.324,25.324-25.324h203.512c1.657,0,3,1.344,3,3v44.646C307.738,326.248,306.395,327.591,304.738,327.591z
		 M101.226,282.944c-10.655,0-19.324,8.668-19.324,19.324c0,10.654,8.669,19.322,19.324,19.322h200.512v-38.646H101.226z"/>
	<path style="fill:#204184;" d="M304.738,307.77c-1.657,0-3-1.344-3-3V81.526h-46.262c-1.657,0-3-1.343-3-3s1.343-3,3-3h49.262
		c1.657,0,3,1.343,3,3v226.245C307.738,306.427,306.395,307.77,304.738,307.77z"/>
	<path style="fill:#204184;" d="M100.488,280.278c-0.002,0-0.004,0-0.006,0c-1.657-0.004-2.998-1.35-2.994-3.007l0.336-160.042
		V68.391c0-1.657,1.343-3,3-3s3,1.343,3,3v48.845l-0.336,160.049C103.484,278.938,102.142,280.278,100.488,280.278z"/>
	<path style="fill:#204184;" d="M224.894,282.918c-1.657,0-3-1.343-3-3s1.343-3,3-3c12.772,0,23.163-9.022,23.163-20.112v-0.002
		c-0.001-11.089-10.392-20.11-23.163-20.11c-1.656,0-3-1.343-3-2.999L221.85,44.499c0-0.795,0.315-1.559,0.879-2.122
		c0.563-0.563,1.325-0.879,2.121-0.879c16.075,0,29.155,11.706,29.163,26.099l0,0c0,0,0,0.001,0,0.002c0,0.004,0,0.008,0,0.012
		c0,0.151-0.011,0.3-0.033,0.445c0.033,0.539,0.033,1.103,0.034,1.663l0.043,187.088l0,0l0,0
		C254.057,271.204,240.975,282.918,224.894,282.918z M227.893,230.831c8.197,0.753,15.399,4.559,20.16,10.121
		c-0.01-45.197-0.039-171.487-0.04-173.335c0-0.002,0-0.004,0-0.007c0-10.208-8.803-18.663-20.162-19.944L227.893,230.831z"/>
	<path style="fill:#204184;" d="M302.746,296.471h-136.25c-1.657,0-3-1.343-3-3c0-1.656,1.343-3,3-3h136.25c1.657,0,3,1.344,3,3
		C305.746,295.129,304.403,296.471,302.746,296.471z"/>
	<path style="fill:#204184;" d="M216.567,311.376H135.07c-1.657,0-3-1.344-3-3s1.343-3,3-3h81.497c1.657,0,3,1.344,3,3
		S218.224,311.376,216.567,311.376z"/>
</g>
<g>
	<path style="fill:#204184;" d="M285.97,206.987h-34.601c-1.657,0-3-1.344-3-3s1.343-3,3-3h34.601c1.657,0,3,1.344,3,3
		S287.628,206.987,285.97,206.987z"/>
	<path style="fill:#204184;" d="M285.97,220.403h-34.601c-1.657,0-3-1.344-3-3c0-1.657,1.343-3,3-3h34.601c1.657,0,3,1.343,3,3
		C288.97,219.059,287.628,220.403,285.97,220.403z"/>
	<path style="fill:#204184;" d="M285.97,233.655h-34.601c-1.657,0-3-1.344-3-3c0-1.657,1.343-3,3-3h34.601c1.657,0,3,1.343,3,3
		C288.97,232.311,287.628,233.655,285.97,233.655z"/>
	<path style="fill:#204184;" d="M285.97,247.069h-34.601c-1.657,0-3-1.343-3-3c0-1.656,1.343-3,3-3h34.601c1.657,0,3,1.344,3,3
		C288.97,245.726,287.628,247.069,285.97,247.069z"/>
	<path style="fill:#204184;" d="M251.819,161.208c-1.657,0-3-1.343-3-3s1.343-3,3-3c13.2,0,23.938-10.739,23.938-23.938
		s-10.738-23.938-23.938-23.938c-1.657,0-3-1.343-3-3s1.343-3,3-3c16.508,0,29.938,13.43,29.938,29.938
		S268.327,161.208,251.819,161.208z"/>
	<path style="fill:#204184;" d="M206.694,370.315c-1.536,0-2.846-1.174-2.984-2.733c-0.146-1.65,1.072-3.107,2.723-3.255
		c22.691-2.02,44.08-7.994,61.854-17.279c5.904-3.086,11.716-6.675,17.335-10.146l1.212-0.748c1.407-0.871,3.258-0.432,4.128,0.978
		s0.433,3.259-0.978,4.128l-1.209,0.748c-5.71,3.526-11.614,7.174-17.71,10.358c-18.466,9.647-40.631,15.85-64.101,17.938
		C206.874,370.311,206.784,370.315,206.694,370.315z"/>
	<path style="fill:#204184;" d="M170.396,369.923c-0.102,0-0.204-0.004-0.307-0.015c-28.037-2.845-55.419-12.843-79.186-28.913
		c-1.372-0.928-1.732-2.793-0.805-4.165c0.929-1.372,2.792-1.733,4.166-0.806c22.947,15.517,49.376,25.169,76.43,27.914
		c1.648,0.168,2.85,1.639,2.682,3.287C173.22,368.771,171.917,369.923,170.396,369.923z"/>
	<path style="fill:#204184;" d="M59.319,312.807c-0.81,0-1.616-0.326-2.208-0.969c-8.825-9.585-16.679-20.705-23.342-33.049
		c-0.787-1.458-0.243-3.278,1.215-4.065c1.46-0.787,3.279-0.241,4.064,1.215c6.427,11.906,13.989,22.617,22.477,31.837
		c1.122,1.219,1.044,3.116-0.175,4.238C60.773,312.546,60.045,312.807,59.319,312.807z"/>
	<path style="fill:#204184;" d="M14.729,168.703c-0.134,0-0.269-0.009-0.404-0.027c-1.642-0.221-2.794-1.731-2.573-3.374
		c4.868-36.143,22.882-72.398,49.421-99.47c1.16-1.183,3.06-1.202,4.243-0.042c1.183,1.16,1.201,3.059,0.042,4.242
		c-25.653,26.167-43.061,61.184-47.759,96.07C17.496,167.609,16.208,168.703,14.729,168.703z"/>
	<path style="fill:#204184;" d="M97.976,43.934c-0.935,0-1.855-0.435-2.441-1.252c-0.965-1.347-0.656-3.221,0.69-4.186
		c18.243-13.079,41.734-21.418,73.929-26.244c1.631-0.244,3.166,0.883,3.411,2.522c0.246,1.639-0.884,3.166-2.522,3.412
		c-31.217,4.68-53.88,12.683-71.321,25.186C99.192,43.752,98.581,43.934,97.976,43.934z"/>
	<path style="fill:#204184;" d="M341.338,101.833c-1.005,0-1.986-0.504-2.554-1.421c-11.163-18.032-25.239-33.818-41.837-46.92
		c-16.842-13.294-35.386-23.104-55.116-29.16c-11.482-3.524-23.282-5.712-35.073-6.504c-1.653-0.111-2.903-1.541-2.792-3.194
		c0.11-1.653,1.524-2.913,3.194-2.792c12.251,0.822,24.508,3.095,36.431,6.754c20.444,6.274,39.646,16.43,57.073,30.186
		c17.148,13.536,31.69,29.845,43.222,48.472c0.872,1.409,0.438,3.258-0.972,4.13C342.422,101.688,341.877,101.833,341.338,101.833z"
		/>
	<path style="fill:#204184;" d="M321.485,313.358c-0.728,0-1.457-0.264-2.034-0.797c-1.218-1.123-1.293-3.021-0.169-4.238
		c19.046-20.627,32.828-45.917,39.859-73.138c1.99-7.707,3.446-15.604,4.328-23.47c0.184-1.646,1.682-2.828,3.315-2.646
		c1.646,0.184,2.832,1.668,2.647,3.314c-0.913,8.146-2.421,16.322-4.482,24.303c-7.277,28.176-21.545,54.355-41.26,75.707
		C323.098,313.034,322.294,313.358,321.485,313.358z"/>
	<path style="fill:#204184;" d="M22.164,243.54c-0.796,0-1.559-0.316-2.121-0.879L0.879,223.497c-1.172-1.172-1.172-3.071,0-4.242
		l19.164-19.164c0.563-0.563,1.325-0.879,2.121-0.879l0,0c0.796,0,1.559,0.315,2.121,0.879l19.163,19.164
		c1.172,1.171,1.172,3.07,0,4.242l-19.163,19.164C23.722,243.223,22.96,243.54,22.164,243.54z M7.242,221.376l14.922,14.921
		l14.921-14.921l-14.921-14.922L7.242,221.376z"/>
	<path style="fill:#204184;" d="M359.984,179.372L359.984,179.372c-0.796,0-1.559-0.316-2.121-0.879L338.7,159.329
		c-1.172-1.171-1.172-3.071,0-4.242l19.163-19.164c1.125-1.126,3.117-1.126,4.242,0l19.164,19.164
		c0.563,0.563,0.879,1.326,0.879,2.121c0,0.796-0.316,1.559-0.879,2.122l-19.164,19.164
		C361.543,179.056,360.78,179.372,359.984,179.372z M345.063,157.208l14.921,14.921l14.922-14.921l-14.922-14.921L345.063,157.208z"
		/>
	<path style="fill:#204184;" d="M139.49,78.905c-0.768,0-1.535-0.293-2.121-0.878l-19.164-19.164
		c-0.563-0.563-0.879-1.326-0.879-2.122c0-0.795,0.316-1.559,0.879-2.121l19.164-19.164c1.172-1.172,3.07-1.172,4.242,0
		l19.164,19.164c0.563,0.563,0.879,1.326,0.879,2.121c0,0.796-0.316,1.559-0.879,2.122l-19.164,19.164
		C141.025,78.612,140.258,78.905,139.49,78.905z M124.568,56.741l14.922,14.921l14.922-14.921L139.49,41.82L124.568,56.741z"/>
</g>
<g>
</g>
<g>
</g>
<g>
</g>
<g>
</g>
<g>
</g>
<g>
</g>
<g>
</g>
<g>
</g>
<g>
</g>
<g>
</g>
<g>
</g>
<g>
</g>
<g>
</g>
<g>
</g>
<g>
</g>
</svg>
