<?xml version="1.0" encoding="iso-8859-1"?>
<!-- Generator: Adobe Illustrator 19.0.0, SVG Export Plug-In . SVG Version: 6.00 Build 0)  -->
<svg version="1.1" id="Capa_1" xmlns="http://www.w3.org/2000/svg" xmlns:xlink="http://www.w3.org/1999/xlink" x="0px" y="0px"
	 viewBox="0 0 409.386 409.386" style="enable-background:new 0 0 409.386 409.386;" xml:space="preserve">
<g>
	<polygon style="fill:#EED9EB;" points="248.127,406.386 154.268,404.683 112.688,215.713 296.532,219.047 	"/>
	<path style="fill:#EED9EB;" d="M176.313,111.398c0,0,7.888,42.066-8.512,65.725c-16.4,23.658-55.113,38.59-55.113,38.59
		l183.878,3.336c0,0-38.146-16.326-53.678-40.564c-15.531-24.238-6.123-65.99-6.123-65.99"/>
</g>
<polyline style="fill:#5B7DBB;" points="234.467,93.66 243.733,65.324 209.047,3.002 209.058,2.993 172.136,64.016 180.367,92.67 
	"/>
<path style="fill:#BFA1DB;" d="M136.633,249.347c21.657,0.393,21.381,15.612,43.038,16.006
	c21.659,0.393,21.937-14.828,43.596-14.436c21.66,0.394,23.743,15.656,45.403,16.049l-0.007,0.383l-31.806,123.096l-69.455-1.26
	L136.633,249.347z"/>
<g>
	<circle style="fill:#FFFFF8;" cx="216.802" cy="279.513" r="8.511"/>
	<path style="fill:#FFFFF8;" d="M216.802,288.523c-0.056,0-0.11,0-0.166-0.001c-2.406-0.044-4.652-1.022-6.322-2.755
		c-1.671-1.732-2.566-4.012-2.523-6.418s1.021-4.652,2.754-6.323s3.994-2.571,6.419-2.522c4.968,0.09,8.937,4.204,8.847,9.172l0,0
		C225.72,284.588,221.695,288.523,216.802,288.523z M216.796,271.502c-2.084,0-4.052,0.794-5.557,2.244
		c-1.54,1.486-2.409,3.482-2.448,5.621c-0.039,2.14,0.758,4.166,2.243,5.707c1.485,1.539,3.481,2.41,5.621,2.448
		c0.049,0.001,0.098,0.001,0.147,0.001c4.35,0,7.928-3.498,8.008-7.865c0.038-2.14-0.758-4.166-2.244-5.707
		c-1.485-1.539-3.481-2.409-5.621-2.447C216.895,271.502,216.845,271.502,216.796,271.502z"/>
	<circle style="fill:#FFFFF8;" cx="197.552" cy="349.023" r="9.457"/>
	<path style="fill:#FFFFF8;" d="M197.554,358.98c-0.062,0-0.124-0.001-0.186-0.002c-2.659-0.049-5.14-1.129-6.986-3.043
		c-1.846-1.915-2.836-4.434-2.788-7.093c0.1-5.489,4.638-9.874,10.136-9.774c2.658,0.049,5.14,1.129,6.986,3.043
		c1.846,1.915,2.836,4.434,2.788,7.093s-1.13,5.14-3.044,6.986C202.591,357.994,200.144,358.98,197.554,358.98z M197.547,340.067
		c-4.864,0-8.864,3.911-8.953,8.794c-0.043,2.392,0.847,4.657,2.508,6.379c1.661,1.723,3.893,2.695,6.285,2.738
		c2.382,0.047,4.657-0.848,6.38-2.508c1.722-1.66,2.693-3.893,2.737-6.285s-0.847-4.657-2.509-6.379
		c-1.66-1.723-3.893-2.695-6.284-2.738C197.657,340.068,197.602,340.067,197.547,340.067z"/>
</g>
<path style="fill:#EED9EB;" d="M243.253,110.812l-73.396-1.332c-4.455-0.081-8.033-3.792-7.952-8.246l0,0
	c0.081-4.454,3.792-8.033,8.246-7.952l73.396,1.332c4.455,0.081,8.033,3.792,7.952,8.246l0,0
	C251.418,107.314,247.707,110.892,243.253,110.812z"/>
<g>
	<path style="fill:#204184;" d="M248.127,409.386c-0.018,0-0.037,0-0.055-0.001l-93.858-1.702c-1.388-0.025-2.578-1-2.875-2.355
		l-41.58-188.971c-0.198-0.896,0.027-1.835,0.609-2.545c0.582-0.711,1.461-1.123,2.375-1.1l183.844,3.335
		c0.919,0.017,1.779,0.453,2.335,1.185c0.556,0.73,0.745,1.676,0.517,2.565l-48.406,187.339
		C250.688,408.463,249.492,409.386,248.127,409.386z M156.689,401.726l89.125,1.617l46.861-181.365l-176.241-3.197L156.689,401.726z
		"/>
	<path style="fill:#204184;" d="M112.689,218.714c-1.204,0-2.34-0.73-2.799-1.921c-0.597-1.545,0.173-3.282,1.718-3.879
		c0.378-0.146,38.054-14.889,53.729-37.5c15.484-22.338,8.104-63.055,8.028-63.464c-0.304-1.628,0.769-3.195,2.397-3.5
		c1.624-0.307,3.195,0.766,3.5,2.396c0.332,1.768,7.924,43.578-8.995,67.986c-7.059,10.183-18.729,19.961-34.686,29.064
		c-11.789,6.725-21.41,10.46-21.814,10.616C113.412,218.648,113.047,218.714,112.689,218.714z"/>
	<path style="fill:#204184;" d="M296.564,222.048c-0.394,0-0.793-0.078-1.178-0.242c-1.593-0.682-39.178-16.974-55.023-41.704
		c-16.023-25.006-6.92-66.514-6.524-68.269c0.364-1.616,1.97-2.63,3.585-2.267c1.616,0.363,2.632,1.969,2.269,3.585
		c-0.091,0.405-8.942,40.829,5.722,63.713c14.844,23.166,51.96,39.265,52.334,39.425c1.521,0.652,2.229,2.416,1.576,3.938
		C298.836,221.367,297.728,222.048,296.564,222.048z"/>
	<path style="fill:#204184;" d="M234.468,96.661c-0.31,0-0.623-0.048-0.934-0.149c-1.574-0.515-2.434-2.209-1.919-3.784
		l8.858-27.091L208.94,8.98l-33.56,55.468l7.87,27.394c0.458,1.592-0.462,3.254-2.055,3.711c-1.589,0.456-3.254-0.462-3.711-2.055
		l-8.231-28.653c-0.231-0.804-0.116-1.666,0.316-2.382l36.826-60.864c0.183-0.345,0.435-0.659,0.753-0.919
		c1.13-0.924,2.768-0.905,3.871,0.052c0.33,0.287,0.585,0.632,0.76,1.009l34.576,62.125c0.406,0.73,0.489,1.597,0.229,2.391
		l-9.266,28.337C236.906,95.858,235.73,96.661,234.468,96.661z"/>
	<path style="fill:#204184;" d="M186.998,407.496c-1.486,0-2.776-1.104-2.971-2.617c-8.153-63.172-23.758-183.67-24.463-187.564
		c-0.195-1.079,0.214-2.18,1.067-2.868c0.357-0.291,36.165-30.302,32.651-101.499c-0.082-1.655,1.193-3.063,2.848-3.145
		c1.642-0.085,3.062,1.193,3.145,2.849c3.329,67.44-26.698,99.017-33.551,105.308c2.669,18.926,23.335,179.029,24.254,186.152
		c0.212,1.644-0.948,3.147-2.591,3.359C187.256,407.488,187.126,407.496,186.998,407.496z"/>
	<path style="fill:#204184;" d="M217.258,408.029c-0.163,0-0.329-0.013-0.495-0.041c-1.635-0.271-2.739-1.816-2.468-3.451
		c1.177-7.086,27.635-166.334,30.989-185.149c-6.62-6.536-35.482-39.181-29.71-106.456c0.142-1.651,1.597-2.882,3.245-2.732
		c1.651,0.142,2.875,1.594,2.732,3.245c-6.113,71.254,28.598,102.311,28.949,102.616c0.828,0.721,1.197,1.834,0.963,2.906
		c-0.848,3.865-20.812,123.719-31.25,186.555C219.97,406.988,218.699,408.029,217.258,408.029z"/>
	<path style="fill:#204184;" d="M223.658,68.696c-0.018,0-0.035,0-0.054-0.001l-32.583-0.591c-0.934-0.017-1.806-0.467-2.36-1.219
		c-0.554-0.751-0.727-1.718-0.467-2.614l17.973-62.104c0.379-1.312,1.61-2.177,2.961-2.165c1.365,0.036,2.533,0.988,2.843,2.318
		l14.61,62.694c0.211,0.9-0.007,1.848-0.589,2.566C225.421,68.287,224.563,68.696,223.658,68.696z M195.046,62.176l24.817,0.45
		l-11.129-47.751L195.046,62.176z"/>
	<path style="fill:#204184;" d="M194.271,94.046c-1.493,0-2.786-1.113-2.974-2.633l-3.2-25.94c-0.203-1.645,0.966-3.142,2.61-3.345
		c1.638-0.202,3.142,0.965,3.345,2.61l3.2,25.94c0.203,1.645-0.966,3.142-2.61,3.345C194.517,94.038,194.393,94.046,194.271,94.046z
		"/>
	<path style="fill:#204184;" d="M220.051,95.423c-0.134,0-0.269-0.009-0.405-0.027c-1.643-0.222-2.793-1.733-2.572-3.375
		l3.611-26.728c0.223-1.642,1.727-2.788,3.375-2.571c1.642,0.223,2.793,1.733,2.571,3.375l-3.61,26.728
		C222.817,94.33,221.529,95.423,220.051,95.423z"/>
	<path style="fill:#204184;" d="M243.402,113.813c-0.068,0-0.135,0-0.203-0.002l0,0l-73.396-1.332
		c-2.956-0.053-5.72-1.261-7.782-3.4c-2.063-2.139-3.169-4.945-3.115-7.9c0.111-6.119,5.177-11.045,11.3-10.897l73.396,1.332
		c2.955,0.053,5.719,1.261,7.781,3.4c2.063,2.139,3.17,4.945,3.115,7.9C254.388,108.965,249.429,113.813,243.402,113.813z
		 M243.306,107.812c2.811,0.067,5.143-2.195,5.193-5.007c0.023-1.354-0.485-2.642-1.436-3.626c-0.95-0.985-2.219-1.542-3.572-1.566
		l-73.395-1.332c-2.81-0.045-5.142,2.195-5.192,5.007c-0.024,1.354,0.485,2.642,1.435,3.626c0.95,0.985,2.219,1.542,3.572,1.566
		L243.306,107.812z"/>
	<path style="fill:#204184;" d="M327.931,80.48c-0.752,0-1.504-0.28-2.087-0.845C315.19,69.317,303.277,60.4,290.437,53.132
		c-1.442-0.816-1.949-2.647-1.133-4.089c0.815-1.441,2.645-1.95,4.088-1.133c13.283,7.519,25.606,16.742,36.626,27.414
		c1.19,1.153,1.221,3.053,0.068,4.242C329.498,80.175,328.714,80.48,327.931,80.48z"/>
	<path style="fill:#204184;" d="M376.001,160.145c-1.315,0-2.522-0.873-2.89-2.203c-5.178-18.763-13.469-36.105-24.64-51.544
		c-0.972-1.342-0.671-3.218,0.672-4.189s3.218-0.67,4.189,0.672c11.593,16.021,20.192,34.01,25.562,53.465
		c0.441,1.597-0.496,3.25-2.094,3.69C376.534,160.109,376.265,160.145,376.001,160.145z"/>
	<path style="fill:#204184;" d="M259.172,376.205c-1.229,0-2.384-0.762-2.823-1.986c-0.561-1.559,0.25-3.277,1.809-3.838
		c19.598-7.043,44.529-17.699,63.529-37.755c0.195-0.206,0.42-0.384,0.666-0.528c8.617-5.026,14.594-12.906,20.92-21.25
		c1.98-2.611,4.026-5.311,6.177-7.943c3.826-5.74,7.772-11.669,10.663-17.418c1.516-4.026,3.288-8.078,5.004-12
		c1.686-3.854,3.429-7.838,4.891-11.721c2.906-10.658,5.906-21.672,7.875-32.446c0.972-14.566,1.965-29.626,0.333-44.66
		c-0.179-1.647,1.011-3.127,2.659-3.306c1.645-0.181,3.127,1.012,3.306,2.659c1.695,15.615,0.67,31-0.322,45.877
		c-0.007,0.113-0.021,0.227-0.042,0.338c-2.023,11.127-5.09,22.375-8.057,33.252c-0.024,0.09-0.053,0.178-0.086,0.264
		c-1.527,4.076-3.324,8.181-5.061,12.15c-1.705,3.896-3.467,7.926-4.939,11.85c-0.037,0.099-0.078,0.195-0.125,0.289
		c-3.084,6.167-7.203,12.346-11.188,18.322c-0.055,0.082-0.112,0.16-0.174,0.236c-2.115,2.584-4.158,5.277-6.133,7.883
		c-6.321,8.336-12.855,16.952-22.305,22.588c-19.83,20.775-45.438,31.734-65.563,38.967
		C259.852,376.148,259.509,376.205,259.172,376.205z"/>
	<path style="fill:#204184;" d="M147.399,375.18c-0.517,0-1.04-0.134-1.517-0.414c-1.125-0.661-2.533-0.949-4.163-1.282
		c-1.215-0.248-2.471-0.505-3.802-0.949c-0.038-0.012-0.076-0.025-0.113-0.04c-36.28-13.728-67.553-40.392-88.057-75.079
		c-20.369-34.459-28.945-74.765-24.148-113.493c0.204-1.645,1.704-2.813,3.346-2.608c1.645,0.204,2.812,1.702,2.608,3.346
		c-4.634,37.42,3.661,76.38,23.359,109.703c19.802,33.5,49.972,59.244,84.957,72.498c0.973,0.319,1.983,0.525,3.052,0.744
		c1.974,0.404,4.016,0.821,6.001,1.988c1.428,0.84,1.906,2.678,1.066,4.106C149.429,374.65,148.427,375.18,147.399,375.18z"/>
	<path style="fill:#204184;" d="M33.853,160.032c-0.266,0-0.536-0.036-0.804-0.11c-1.596-0.443-2.531-2.097-2.088-3.693
		c5.408-19.474,13.999-37.482,25.536-53.526c0.967-1.345,2.843-1.651,4.187-0.684c1.345,0.967,1.651,2.842,0.684,4.187
		c-11.123,15.468-19.408,32.838-24.625,51.628C36.374,159.161,35.168,160.032,33.853,160.032z"/>
	<path style="fill:#204184;" d="M81.714,80.541c-0.784,0-1.567-0.306-2.156-0.914c-1.153-1.19-1.122-3.089,0.069-4.241
		c11.76-11.385,24.944-21.095,39.188-28.859c1.454-0.793,3.277-0.257,4.07,1.197c0.793,1.455,0.257,3.277-1.198,4.07
		C107.919,59.3,95.172,68.688,83.8,79.696C83.218,80.259,82.465,80.541,81.714,80.541z"/>
</g>
<g>
</g>
<g>
</g>
<g>
</g>
<g>
</g>
<g>
</g>
<g>
</g>
<g>
</g>
<g>
</g>
<g>
</g>
<g>
</g>
<g>
</g>
<g>
</g>
<g>
</g>
<g>
</g>
<g>
</g>
</svg>
