<?xml version="1.0" encoding="iso-8859-1"?>
<!-- Generator: Adobe Illustrator 19.0.0, SVG Export Plug-In . SVG Version: 6.00 Build 0)  -->
<svg version="1.1" id="Capa_1" xmlns="http://www.w3.org/2000/svg" xmlns:xlink="http://www.w3.org/1999/xlink" x="0px" y="0px"
	 viewBox="0 0 382.412 382.412" style="enable-background:new 0 0 382.412 382.412;" xml:space="preserve">
<polyline style="fill:#EED9EB;" points="203.666,341.839 203.666,208.915 233.85,208.915 233.85,345.259 "/>
<polygon style="fill:#E77B73;" points="203.666,209.358 218.758,118.161 233.85,209.358 "/>
<polyline style="fill:#BFA1DB;" points="91.129,236.165 203.666,236.165 203.666,251.185 98.494,251.185 "/>
<path style="fill:#EED9EB;" d="M88.192,249.128v82.523h115.927v-82.523H88.192z M142.917,299.286l-1.778-1.372
	c-1.234,4.327-4.758,7.902-10.587,7.902c-12.194,0-14.318-15.573-6.433-21.069v-9.728c0-5.169,4.229-9.398,9.399-9.398
	s9.399,4.229,9.399,9.398V299.286z M180.497,321.126l-18.797-8.334V275.02c0-5.169,4.229-9.398,9.398-9.398
	c5.169,0,9.399,4.229,9.399,9.398V321.126z"/>
<polygon style="fill:#BFA1DB;" points="169.81,201.221 158.677,142.805 147.542,201.221 147.488,201.221 147.488,236.165 
	169.865,236.165 169.865,201.221 "/>
<path style="fill:#B3A3B0;" d="M170.365,236.665h-23.377V200.72h0.141l11.548-60.585l11.547,60.585h0.141L170.365,236.665
	L170.365,236.665z M147.988,235.665h21.377v-34.211l-0.046-0.141l-10.643-55.838l-10.688,56.076L147.988,235.665L147.988,235.665z"
	/>
<polygon style="fill:#E77B73;" points="267.208,166.082 291.88,33.303 316.553,166.082 "/>
<rect x="259.826" y="166.086" style="fill:#5B7DBB;" width="64.1" height="11.245"/>
<polyline style="fill:#BFA1DB;" points="320.363,309.46 320.363,274.936 263.397,274.936 263.397,337.722 "/>
<path style="fill:#EED9EB;" d="M269.41,177.327v97.609h44.939v-97.609H269.41z M301.315,236.165h-18.869v-24.369
	c0-5.189,4.246-9.435,9.435-9.435s9.435,4.245,9.435,9.435L301.315,236.165L301.315,236.165z"/>
<path style="fill:#5B7DBB;" d="M233.628,330.49c-85.458,0-154.735-69.277-154.735-154.735c0-68.969,45.127-127.389,107.461-147.37
	c-93.657,4.671-168.158,82.084-168.158,176.9c0,97.824,79.302,177.127,177.126,177.127c79.174,0,146.208-51.951,168.893-123.623
	c-11.566,18.151-26.812,33.729-44.686,45.683C294.956,320.907,265.411,330.49,233.628,330.49z"/>
<g>
	<path style="fill:#204184;" d="M75.635,317.537c-0.813,0-1.624-0.329-2.216-0.977c-5.168-5.657-9.985-11.725-14.317-18.032
		c-0.938-1.366-0.591-3.234,0.775-4.172c1.365-0.938,3.233-0.591,4.171,0.775c4.175,6.08,8.818,11.928,13.8,17.382
		c1.118,1.224,1.032,3.121-0.191,4.238C77.082,317.278,76.357,317.537,75.635,317.537z"/>
	<path style="fill:#204184;" d="M233.85,331.675c-1.656,0-3-1.343-3-3v-116.76h-24.184v113.756c0,1.657-1.344,3-3,3s-3-1.343-3-3
		V208.915c0-1.657,1.344-3,3-3h30.184c1.657,0,3,1.343,3,3v119.76C236.85,330.332,235.507,331.675,233.85,331.675z"/>
	<path style="fill:#204184;" d="M233.85,212.358h-30.184c-0.881,0-1.718-0.388-2.288-1.06c-0.569-0.672-0.815-1.562-0.672-2.431
		l15.093-91.197c0.239-1.448,1.492-2.51,2.959-2.51c1.469,0,2.721,1.062,2.961,2.51l15.092,91.197
		c0.143,0.869-0.103,1.759-0.672,2.431C235.568,211.971,234.731,212.358,233.85,212.358z M207.203,206.358h23.109l-11.555-69.822
		L207.203,206.358z"/>
	<path style="fill:#204184;" d="M218.758,121.161c-1.656,0-3-1.343-3-3V87.857c0-1.657,1.344-3,3-3c1.657,0,3,1.343,3,3v30.304
		C221.758,119.818,220.415,121.161,218.758,121.161z"/>
	<path style="fill:#204184;" d="M203.666,254.185H98.494c-1.657,0-3-1.343-3-3c0-1.656,1.343-3,3-3h102.172v-9.02H91.129
		c-1.657,0-3-1.343-3-3c0-1.656,1.343-3,3-3h112.537c1.656,0,3,1.344,3,3v15.02C206.666,252.842,205.322,254.185,203.666,254.185z"
		/>
	<path style="fill:#204184;" d="M180.497,324.126c-1.657,0-3-1.343-3-3V275.02c0-3.528-2.871-6.399-6.399-6.399
		s-6.398,2.871-6.398,6.399v37.772c0,1.656-1.343,3-3,3s-3-1.344-3-3V275.02c0-6.837,5.562-12.399,12.398-12.399
		c6.837,0,12.399,5.563,12.399,12.399v46.106C183.497,322.783,182.154,324.126,180.497,324.126z"/>
	<path style="fill:#204184;" d="M142.917,302.286L142.917,302.286c-1.657,0-3-1.343-3-3v-24.267c0-3.528-2.871-6.399-6.399-6.399
		s-6.399,2.871-6.399,6.399v9.753c0,1.656-1.343,3-3,3s-3-1.344-3-3v-9.753c0-6.837,5.562-12.399,12.399-12.399
		s12.399,5.563,12.399,12.399v24.267C145.917,300.943,144.574,302.286,142.917,302.286z"/>
	<path style="fill:#204184;" d="M169.865,239.165h-22.377c-1.657,0-3-1.343-3-3V201.22c0-0.391,0.075-0.766,0.211-1.108
		l11.03-57.868c0.27-1.415,1.506-2.438,2.947-2.438s2.677,1.023,2.947,2.438l11.029,57.866c0.137,0.343,0.212,0.718,0.212,1.11
		v34.945C172.865,237.822,171.522,239.165,169.865,239.165z M150.488,233.165h16.377V201.79c0-0.002-0.001-0.006-0.001-0.008
		l-8.187-42.954l-8.188,42.954c0,0.002,0,0.004-0.001,0.006L150.488,233.165L150.488,233.165z"/>
	<path style="fill:#204184;" d="M314.35,277.936h-44.939c-1.656,0-3-1.344-3-3v-97.609c0-1.657,1.344-3,3-3h44.939
		c1.656,0,3,1.343,3,3v97.609C317.35,276.593,316.007,277.936,314.35,277.936z M272.41,271.936h38.939v-91.609H272.41V271.936z"/>
	<path style="fill:#204184;" d="M316.553,169.082h-49.346c-0.891,0-1.736-0.396-2.307-1.082c-0.57-0.686-0.805-1.589-0.643-2.466
		l24.672-132.779c0.265-1.421,1.505-2.452,2.95-2.452s2.686,1.031,2.95,2.452l24.672,132.779c0.162,0.876-0.072,1.78-0.643,2.466
		C318.29,168.686,317.444,169.082,316.553,169.082z M270.816,163.082h42.127L291.88,49.724L270.816,163.082z"/>
	<path style="fill:#204184;" d="M323.932,180.327H259.83c-1.657,0-3-1.343-3-3v-11.245c0-1.657,1.343-3,3-3h64.102
		c1.657,0,3,1.343,3,3v11.245C326.932,178.984,325.589,180.327,323.932,180.327z M262.829,174.327h58.102v-5.245h-58.102V174.327z"
		/>
	<path style="fill:#204184;" d="M263.397,330.628c-1.657,0-3-1.343-3-3v-52.692c0-1.656,1.343-3,3-3h56.965c1.657,0,3,1.344,3,3
		v28.973c0,1.656-1.343,3-3,3s-3-1.344-3-3v-25.973h-50.965v49.691C266.397,329.285,265.056,330.628,263.397,330.628z"/>
	<path style="fill:#204184;" d="M259.829,169.082c-1.657,0-3-1.343-3-3v-31.478c0-1.657,1.343-3,3-3s3,1.343,3,3v31.478
		C262.829,167.739,261.487,169.082,259.829,169.082z"/>
	<path style="fill:#204184;" d="M323.932,166.914c-1.657,0-3-1.343-3-3v-31.478c0-1.657,1.343-3,3-3s3,1.343,3,3v31.478
		C326.932,165.571,325.589,166.914,323.932,166.914z"/>
	<path style="fill:#204184;" d="M291.88,36.303c-1.657,0-3-1.343-3-3V3c0-1.657,1.343-3,3-3s3,1.343,3,3v30.303
		C294.88,34.96,293.538,36.303,291.88,36.303z"/>
	<path style="fill:#204184;" d="M223.9,246.829c-1.656,0-3-1.344-3-3v-30.805c0-1.657,1.344-3,3-3c1.657,0,3,1.343,3,3v30.805
		C226.9,245.485,225.558,246.829,223.9,246.829z"/>
	<path style="fill:#204184;" d="M214.714,330.628c-1.657,0-3-1.343-3-3v-30.805c0-1.656,1.343-3,3-3s3,1.344,3,3v30.805
		C217.714,329.285,216.371,330.628,214.714,330.628z"/>
	<path style="fill:#204184;" d="M301.315,239.165h-18.869c-1.657,0-3-1.343-3-3v-24.369c0-6.856,5.578-12.435,12.435-12.435
		s12.435,5.578,12.435,12.435v24.369C304.315,237.822,302.973,239.165,301.315,239.165z M285.445,233.165h12.869v-21.369
		c0-3.548-2.887-6.435-6.435-6.435s-6.435,2.887-6.435,6.435v21.369H285.445z"/>
	<path style="fill:#204184;" d="M320.363,292.011h-37.917c-1.657,0-3-1.343-3-3c0-1.656,1.343-3,3-3h37.917c1.657,0,3,1.344,3,3
		C323.363,290.668,322.02,292.011,320.363,292.011z"/>
	<path style="fill:#204184;" d="M297.173,307.636h-33.775c-1.657,0-3-1.344-3-3s1.343-3,3-3h33.775c1.657,0,3,1.344,3,3
		S298.831,307.636,297.173,307.636z"/>
	<path style="fill:#204184;" d="M297.361,26.902H286.4c-1.657,0-3-1.343-3-3s1.343-3,3-3h10.961c1.657,0,3,1.343,3,3
		S299.018,26.902,297.361,26.902z"/>
	<path style="fill:#204184;" d="M218.758,73.713c-1.656,0-3-1.343-3-3v-7.332c0-1.657,1.344-3,3-3c1.657,0,3,1.343,3,3v7.332
		C221.758,72.37,220.415,73.713,218.758,73.713z"/>
	<path style="fill:#204184;" d="M195.322,370.413c-36.595,0-71.286-11.773-100.321-34.048c-3.553-2.726-7.043-5.636-10.374-8.648
		c-1.229-1.112-1.324-3.009-0.212-4.237c1.111-1.229,3.008-1.324,4.237-0.213c3.211,2.906,6.575,5.711,10,8.338
		c27.979,21.463,61.406,32.809,96.669,32.809c1.656,0,3,1.343,3,3C198.322,369.069,196.979,370.413,195.322,370.413z"/>
	<path style="fill:#204184;" d="M119.544,183.339h-11.142c-1.657,0-3-1.343-3-3c0-1.657,1.343-3,3-3h11.142c1.657,0,3,1.343,3,3
		C122.544,181.996,121.201,183.339,119.544,183.339z"/>
	<path style="fill:#204184;" d="M113.973,195.069c-1.657,0-3-1.343-3-3v-23.991c0-1.657,1.343-3,3-3s3,1.343,3,3v23.991
		C116.973,193.727,115.63,195.069,113.973,195.069z"/>
	<path style="fill:#204184;" d="M347.69,82.309h-11.141c-1.657,0-3-1.343-3-3s1.343-3,3-3h11.141c1.657,0,3,1.343,3,3
		S349.348,82.309,347.69,82.309z"/>
	<path style="fill:#204184;" d="M342.12,94.039c-1.656,0-3-1.343-3-3V67.047c0-1.657,1.344-3,3-3s3,1.343,3,3v23.992
		C345.12,92.696,343.776,94.039,342.12,94.039z"/>
	<path style="fill:#204184;" d="M298.988,154.263c-3.569,0-5.516-1.868-6.804-3.104c-1.109-1.064-1.549-1.433-2.648-1.433
		s-1.539,0.368-2.648,1.433c-1.288,1.236-3.234,3.104-6.804,3.104s-5.514-1.868-6.801-3.104c-1.107-1.064-1.546-1.432-2.645-1.432
		c-1.657,0-3-1.343-3-3c0-1.657,1.343-3,3-3c3.569,0,5.514,1.868,6.801,3.104c1.107,1.064,1.546,1.432,2.645,1.432
		c1.101,0,1.54-0.368,2.649-1.433c1.287-1.236,3.232-3.104,6.803-3.104s5.516,1.868,6.803,3.104
		c1.109,1.064,1.549,1.433,2.649,1.433c1.657,0,3,1.343,3,3C301.988,152.92,300.645,154.263,298.988,154.263z"/>
	<path style="fill:#204184;" d="M308.949,129.422c-2.835,0-4.398-1.502-5.333-2.399c-0.757-0.727-0.813-0.727-1.177-0.727
		c-0.366,0-0.422,0-1.181,0.728c-0.934,0.897-2.498,2.398-5.334,2.398c-2.835,0-4.399-1.501-5.334-2.398
		c-0.758-0.728-0.814-0.728-1.18-0.728c-1.657,0-3-1.343-3-3s1.343-3,3-3c2.835,0,4.399,1.501,5.334,2.398
		c0.758,0.728,0.814,0.728,1.18,0.728s0.422,0,1.18-0.728c0.936-0.897,2.5-2.398,5.335-2.398s4.398,1.502,5.333,2.399
		c0.757,0.727,0.813,0.727,1.177,0.727c1.657,0,3,1.343,3,3C311.948,128.079,310.605,129.422,308.949,129.422z"/>
</g>
<g>
</g>
<g>
</g>
<g>
</g>
<g>
</g>
<g>
</g>
<g>
</g>
<g>
</g>
<g>
</g>
<g>
</g>
<g>
</g>
<g>
</g>
<g>
</g>
<g>
</g>
<g>
</g>
<g>
</g>
</svg>
