<?xml version="1.0" encoding="iso-8859-1"?>
<!-- Generator: Adobe Illustrator 19.0.0, SVG Export Plug-In . SVG Version: 6.00 Build 0)  -->
<svg version="1.1" id="Capa_1" xmlns="http://www.w3.org/2000/svg" xmlns:xlink="http://www.w3.org/1999/xlink" x="0px" y="0px"
	 viewBox="0 0 411.876 411.876" style="enable-background:new 0 0 411.876 411.876;" xml:space="preserve">
<path style="fill:#BDCBE4;" d="M224.591,58.248c20.465,4.387,40.098,12.455,57.747,23.703
	c17.294,11.021,32.642,25.052,45.177,41.283c12.7,16.444,22.479,35.115,28.712,54.938c6.436,20.465,9.06,42.075,7.829,63.487
	c-1.181,20.555-5.961,40.863-14.119,59.77c-7.943,18.408-19.049,35.424-32.668,50.137c-13.531,14.619-29.518,26.939-47.115,36.273
	c-18.071,9.584-37.795,15.977-58.053,18.813c-18,2.52-36.383,2.27-54.305-0.736l-4.163-2.307
	c12.98-84.549,114.79-124.049,106.09-190.564c-8.7-66.516-67.498-48.695-67.498-48.695l-1.401,0.615l-12.197-7.624l1.906-19.821
	L224.591,58.248"/>
<path style="fill:#FFFFF8;" d="M180.533,137.52c0,0,77.049-34.894,103.221,31.223c26.171,66.117-31.682,128.102-31.682,128.102
	s-56.527,55.697-39.972,109.807l-35.788,3.145l-20.558-3.99l-1.482-11.162l15.115-35.332l27.586-37.672l33.735-38.566l24.118-31.684
	l5.51-30.305l-6.887-30.303l-11.02-17.907l-19.285-9.643l-20.662-1.377l-11.66,3.108L180.533,137.52z"/>
<path style="fill:#BFA1DB;" d="M249.289,74.872l-11.702-2.514c-10.356-2.225-15.853-13.601-11.16-23.096l22.807-46.155
	l-49.933,56.174l-8.317,15.598l7.58,28.327L249.289,74.872z"/>
<path style="fill:#B3A3B0;" d="M198.245,103.956l-7.797-29.138l8.478-15.869L251.326,0l-24.451,49.484
	c-2.168,4.387-2.19,9.43-0.062,13.835s6.094,7.522,10.878,8.55l12.999,2.792L198.245,103.956z M191.517,74.94l7.363,27.516
	l49.007-27.374l-10.407-2.236c-5.087-1.093-9.303-4.407-11.567-9.092c-2.264-4.686-2.24-10.048,0.065-14.714L247.14,6.214
	l-47.427,53.354L191.517,74.94z"/>
<path style="fill:#BFA1DB;" d="M217.6,104.893l16.024-20.506l-36.869,22.246l-12.99,18.764l3.351,18.028l54.738-3.219l-16.785-7.424
	C214.253,127.996,210.623,114.442,217.6,104.893z"/>
<path style="fill:#B3A3B0;" d="M186.705,143.949l-3.469-18.666l13.261-19.079l39.192-23.647L218,105.193
	c-3.232,4.428-4.272,10.004-2.854,15.3c1.419,5.299,5.109,9.61,10.126,11.83l18.674,8.26L186.705,143.949z M184.295,125.509
	l3.232,17.39l52.236-3.072l-14.896-6.59c-5.295-2.342-9.19-6.893-10.688-12.485s-0.398-11.48,3.018-16.155l0.01-0.013l14.354-18.367
	l-34.455,20.788L184.295,125.509z"/>
<path style="fill:#BDCBE4;" d="M33.093,246.719l20.096,16.572c8.693,7.172,21.326,6.9,29.706-0.635l106.572-93.912
	c4.304-3.87-14.346-54.187-14.346-54.187c-0.145-0.421-0.114-0.882,0.083-1.281l7.26-14.637c9.194-18.539,16.355-38.02,21.357-58.1
	l1.053-4.227c0.376-1.508-1.336-2.663-2.594-1.75l-72.496,52.606c-14.813,10.749-26.91,24.81-35.326,41.061l-45.049,86.53
	L33.093,246.719z"/>
<path style="fill:#5B7DBB;" d="M195.658,71.057c10.6,50.767-12.183,65.405-12.183,65.405l-9.561-23.171L195.658,71.057z"/>
<path style="fill:#204184;" d="M105.381,167.176l3.273-5.184l4.189-6.634l10.703-16.63l1.977,8.93
	c1.185,5.348-2.013,10.69-7.285,12.175l-7.918,1.733"/>
<path id="SVGCleanerId_0" style="fill:#204184;" d="M105.378,170.177c-0.548,0-1.102-0.15-1.599-0.464
	c-1.401-0.885-1.819-2.738-0.935-4.139l7.463-11.817l10.717-16.651c0.655-1.019,1.862-1.542,3.051-1.33
	c1.192,0.213,2.139,1.123,2.4,2.305l1.977,8.93c1.527,6.896-2.602,13.797-9.4,15.711c-0.057,0.016-0.114,0.03-0.172,0.043
	l-7.918,1.733c-0.127,0.028-0.253,0.047-0.379,0.058l-2.666,4.222C107.347,169.682,106.373,170.177,105.378,170.177z
	 M122.174,146.406l-7.107,11.052l2.437-0.533c3.692-1.083,5.926-4.852,5.092-8.617L122.174,146.406z"/>
<path style="fill:#BFA1DB;" d="M316.455,281.522c0,0,56.719-70.918,68.144-84.94l-42.293,116.84"/>
<path style="fill:#B3A3B0;" d="M342.775,313.592l-0.939-0.342l41.285-114.055c-14.562,17.981-65.734,81.963-66.275,82.639
	l-0.781-0.625c0.567-0.709,56.851-71.08,68.146-84.943l1.86-2.283L342.775,313.592z"/>
<path style="fill:#5B7DBB;" d="M258.171,391.881c0,0-3.509-65.973,46.32-102.467s87.254-61.578,87.254-61.578l-23.217,30.488
	c-7.846,9.516-13.545,24.209-1.256,23.162l-24.002,34.355l-18.856,28.035l-30.755,29.838L258.171,391.881z"/>
<g>
	<polygon style="fill:#EED9EB;" points="230.709,283.073 222.383,216.842 209.894,276.639 193.241,237.28 171.291,308.051 
		176.74,343.928 210.015,306.022 	"/>
	<polygon style="fill:#EED9EB;" points="75.677,366.838 97.013,301.749 112.565,343.026 100.202,386.178 	"/>
</g>
<polygon style="fill:#E77B73;" points="99.699,382.428 121.658,308.381 135.957,342.086 159.958,244.038 175.789,335.448 
	193.662,294.594 201.833,315.02 190.363,331.694 169.389,359.311 158.901,383.083 155.756,405.805 134.432,400.211 102.97,386.928 
	"/>
<g>
	<path style="fill:#204184;" d="M30.321,316.198c-1.082,0-2.126-0.586-2.662-1.611c-4.018-7.691-7.504-15.742-10.36-23.93
		c-0.545-1.564,0.28-3.273,1.845-3.82c1.565-0.545,3.275,0.279,3.821,1.844c2.76,7.914,6.129,15.695,10.013,23.127
		c0.767,1.469,0.198,3.281-1.27,4.049C31.264,316.088,30.789,316.198,30.321,316.198z"/>
	<path style="fill:#204184;" d="M187.274,411.876c-3.657,0-7.296-0.121-10.906-0.365c-27.108-1.834-54.677-9.9-77.629-22.715
		c-10.584-5.908-20.655-13.078-29.934-21.313c-10.038-8.908-18-18.592-25.109-27.729l-0.231-0.299
		c-1.871-2.404-3.807-4.889-5.5-7.578c-0.883-1.402-0.462-3.254,0.94-4.137c1.401-0.885,3.255-0.463,4.138,0.939
		c1.533,2.436,3.294,4.697,5.157,7.092l0.232,0.297c6.933,8.912,14.681,18.34,24.355,26.926c8.954,7.947,18.67,14.865,28.876,20.563
		c22.193,12.391,48.867,20.191,75.108,21.967c22.058,1.494,45.211-1.771,66.965-9.438c20.344-7.166,39.081-17.859,55.689-31.783
		c16.904-14.172,30.611-30.871,40.74-49.635c0.786-1.457,2.607-2.002,4.064-1.215c1.458,0.787,2.002,2.607,1.215,4.064
		c-10.49,19.434-24.677,36.723-42.164,51.383c-17.163,14.389-36.526,25.439-57.551,32.846
		C226.771,408.426,206.769,411.876,187.274,411.876z"/>
	<path style="fill:#204184;" d="M364.098,224.833c-1.584,0-2.908-1.242-2.993-2.842c-0.968-18.246-4.773-36.09-11.312-53.035
		c-10.312-26.727-27.131-50.668-48.64-69.237c-22.152-19.125-48.845-32.452-77.192-38.538c-1.62-0.348-2.651-1.943-2.304-3.563
		c0.349-1.62,1.941-2.65,3.563-2.303c29.328,6.297,56.941,20.081,79.854,39.862c22.252,19.21,39.651,43.976,50.316,71.619
		c6.766,17.536,10.704,36,11.706,54.877c0.088,1.654-1.183,3.068-2.837,3.154C364.206,224.831,364.152,224.833,364.098,224.833z"/>
	<path style="fill:#204184;" d="M153.637,406.608c-0.151,0-0.305-0.012-0.459-0.035c-1.638-0.252-2.762-1.783-2.51-3.42
		c6.494-42.305,35.094-73.936,60.327-101.846c26.836-29.682,50.013-55.314,45.754-87.875c-2.578-19.713-9.919-33.603-21.816-41.283
		c-18.353-11.847-41.604-5-41.836-4.929c-1.586,0.481-3.261-0.415-3.741-2.001c-0.48-1.585,0.415-3.261,2.001-3.741
		c1.059-0.32,26.17-7.707,46.831,5.631c13.447,8.68,21.694,24.004,24.512,45.544c4.618,35.309-20.578,63.176-47.252,92.68
		c-25.873,28.615-52.625,58.205-58.848,98.73C156.37,405.545,155.092,406.608,153.637,406.608z"/>
	<path style="fill:#204184;" d="M67.687,271.547c-5.792,0-11.596-1.973-16.408-5.941l-20.095-16.572
		c-1.085-0.896-1.402-2.426-0.763-3.68l16.316-31.959l45.06-86.55c8.583-16.575,21.111-31.136,36.226-42.104l72.496-52.606
		c1.605-1.164,3.704-1.202,5.35-0.091c1.645,1.11,2.397,3.07,1.917,4.996l-1.053,4.227c-5.046,20.255-12.307,40.007-21.583,58.708
		l-7.003,14.122c0.915,2.495,4.998,13.727,8.621,25.202c8.155,25.829,6.879,29.723,4.704,31.679L84.878,264.909
		C79.966,269.325,73.833,271.547,67.687,271.547z M36.86,245.938l18.236,15.039c7.609,6.275,18.457,6.045,25.792-0.551
		l106.209-93.592c0.843-4.735-6.916-29.987-14.79-51.233c-0.426-1.238-0.341-2.545,0.208-3.654l7.26-14.639
		c9.083-18.313,16.194-37.657,21.135-57.492l0.168-0.673l-69.532,50.455c-14.361,10.422-26.266,24.258-34.424,40.012L52.07,216.146
		L36.86,245.938z"/>
	<path style="fill:#204184;" d="M183.479,139.462c-0.987,0-1.954-0.487-2.527-1.379c-0.896-1.394-0.491-3.25,0.902-4.146
		c0.191-0.127,20.845-14.482,10.868-62.268c-0.339-1.622,0.701-3.211,2.323-3.55c1.626-0.338,3.212,0.702,3.55,2.323
		c10.897,52.188-12.496,67.899-13.497,68.542C184.596,139.308,184.033,139.462,183.479,139.462z"/>
	<path style="fill:#204184;" d="M198.565,106.207c-1.052,0-2.072-0.554-2.622-1.538c-0.808-1.446-0.29-3.274,1.156-4.082
		l43.779-24.453l-3.922-0.843c-5.847-1.256-10.692-5.064-13.294-10.448c-2.603-5.384-2.575-11.548,0.074-16.91l12.937-26.181
		l-35.131,39.522c-1.101,1.238-2.999,1.35-4.235,0.249c-1.238-1.101-1.35-2.997-0.249-4.235l49.933-56.173
		c0.998-1.124,2.674-1.333,3.918-0.496c1.246,0.839,1.68,2.471,1.014,3.817L229.116,50.59c-1.824,3.691-1.843,7.934-0.051,11.641
		c1.791,3.707,5.126,6.328,9.151,7.192l11.702,2.514c1.221,0.262,2.151,1.253,2.337,2.488s-0.414,2.456-1.504,3.064l-50.726,28.334
		C199.563,106.084,199.061,106.207,198.565,106.207z"/>
	<path style="fill:#204184;" d="M187.113,146.424c-1.576,0-2.898-1.23-2.992-2.824c-0.097-1.654,1.165-3.074,2.819-3.171
		l42.372-2.492l-5.457-2.414c-5.989-2.649-10.396-7.797-12.09-14.124c-1.695-6.327-0.451-12.989,3.412-18.277l16.083-20.583
		c1.021-1.306,2.907-1.536,4.212-0.517c1.305,1.02,1.536,2.906,0.517,4.211l-16.024,20.505c-2.729,3.738-3.626,8.544-2.404,13.108
		c1.223,4.564,4.402,8.277,8.723,10.188l16.785,7.425c1.267,0.561,1.984,1.915,1.738,3.277s-1.394,2.38-2.776,2.461l-54.738,3.219
		C187.232,146.422,187.173,146.424,187.113,146.424z"/>
</g>
<g>
	<path id="SVGCleanerId_0_1_" style="fill:#204184;" d="M105.378,170.177c-0.548,0-1.102-0.15-1.599-0.464
		c-1.401-0.885-1.819-2.738-0.935-4.139l7.463-11.817l10.717-16.651c0.655-1.019,1.862-1.542,3.051-1.33
		c1.192,0.213,2.139,1.123,2.4,2.305l1.977,8.93c1.527,6.896-2.602,13.797-9.4,15.711c-0.057,0.016-0.114,0.03-0.172,0.043
		l-7.918,1.733c-0.127,0.028-0.253,0.047-0.379,0.058l-2.666,4.222C107.347,169.682,106.373,170.177,105.378,170.177z
		 M122.174,146.406l-7.107,11.052l2.437-0.533c3.692-1.083,5.926-4.852,5.092-8.617L122.174,146.406z"/>
</g>
<g>
	<path style="fill:#204184;" d="M62.76,242.356c-1.576,0-2.898-1.229-2.992-2.822c-0.188-3.213-1.616-6.158-4.021-8.295
		c-2.405-2.137-5.488-3.205-8.708-3.021c-1.635,0.104-3.074-1.164-3.171-2.818s1.165-3.074,2.819-3.17
		c4.804-0.287,9.444,1.324,13.046,4.525s5.741,7.615,6.024,12.426c0.097,1.654-1.165,3.074-2.819,3.172
		C62.879,242.356,62.819,242.356,62.76,242.356z"/>
	<path style="fill:#204184;" d="M346.659,192.418c-0.769,0-1.536-0.293-2.121-0.878l-12.761-12.76
		c-0.563-0.563-0.879-1.326-0.879-2.122v-13.069c0-1.657,1.343-3,3-3s3,1.343,3,3v11.826l9.809,9.809l7.652-7.309
		c1.197-1.144,3.097-1.102,4.241,0.097c1.145,1.198,1.102,3.097-0.097,4.242l-9.772,9.334
		C348.151,192.142,347.405,192.418,346.659,192.418z"/>
	<path style="fill:#204184;" d="M321.679,192.857c-0.796,0-1.559-0.316-2.121-0.878l-12.761-12.76
		c-0.563-0.563-0.879-1.326-0.879-2.122v-13.069c0-1.657,1.343-3,3-3s3,1.343,3,3v11.826l9.761,9.76l9.205-9.206v-12.936
		c0-1.657,1.343-3,3-3s3,1.343,3,3v14.178c0,0.795-0.316,1.559-0.879,2.121L323.8,191.977
		C323.238,192.541,322.475,192.857,321.679,192.857z"/>
</g>
<path id="SVGCleanerId_1" style="fill:#204184;" d="M296.632,192.498c-0.768,0-1.535-0.293-2.121-0.879l-12.76-12.76
	c-0.563-0.563-0.879-1.326-0.879-2.121V163.67c0-1.657,1.343-3,3-3s3,1.343,3,3v11.826l9.76,9.76l9.206-9.206v-12.935
	c0-1.657,1.343-3,3-3s3,1.343,3,3v14.178c0,0.796-0.316,1.559-0.879,2.122l-12.206,12.206
	C298.167,192.205,297.4,192.498,296.632,192.498z"/>
<g>
	<path id="SVGCleanerId_1_1_" style="fill:#204184;" d="M296.632,192.498c-0.768,0-1.535-0.293-2.121-0.879l-12.76-12.76
		c-0.563-0.563-0.879-1.326-0.879-2.121V163.67c0-1.657,1.343-3,3-3s3,1.343,3,3v11.826l9.76,9.76l9.206-9.206v-12.935
		c0-1.657,1.343-3,3-3s3,1.343,3,3v14.178c0,0.796-0.316,1.559-0.879,2.122l-12.206,12.206
		C298.167,192.205,297.4,192.498,296.632,192.498z"/>
</g>
<g>
	<path style="fill:#204184;" d="M311.659,286.594c-1.657,0-3-1.342-3-3v-7.262c0-1.658,1.343-3,3-3s3,1.342,3,3v7.262
		C314.659,285.252,313.316,286.594,311.659,286.594z"/>
	<path style="fill:#204184;" d="M293.074,299.588c-0.806,0-1.608-0.322-2.2-0.959c-5.926-6.385-8.59-14.725-7.126-22.311
		c0.313-1.627,1.88-2.695,3.514-2.379c1.627,0.314,2.691,1.889,2.377,3.516c-1.103,5.715,1.004,12.104,5.634,17.092
		c1.127,1.213,1.056,3.111-0.158,4.238C294.537,299.323,293.804,299.588,293.074,299.588z"/>
	<path style="fill:#204184;" d="M274.473,306.153c-0.768,0-1.535-0.293-2.121-0.879l-12.76-12.76
		c-0.563-0.563-0.879-1.326-0.879-2.121v-13.068c0-1.656,1.343-3,3-3s3,1.344,3,3v11.826l9.76,9.76l9.206-9.205V276.77
		c0-1.656,1.343-3,3-3s3,1.344,3,3v14.178c0,0.797-0.316,1.559-0.879,2.121l-12.206,12.207
		C276.008,305.86,275.241,306.153,274.473,306.153z"/>
</g>
<path id="SVGCleanerId_2" style="fill:#204184;" d="M249.427,305.795c-0.796,0-1.559-0.316-2.121-0.879l-12.761-12.76
	c-0.563-0.563-0.879-1.326-0.879-2.121v-13.068c0-1.658,1.343-3,3-3s3,1.342,3,3v11.824l9.761,9.762l9.205-9.207V276.41
	c0-1.656,1.343-3,3-3s3,1.344,3,3v14.18c0,0.795-0.316,1.559-0.879,2.121l-12.205,12.205
	C250.986,305.479,250.223,305.795,249.427,305.795z"/>
<g>
	<path id="SVGCleanerId_2_1_" style="fill:#204184;" d="M249.427,305.795c-0.796,0-1.559-0.316-2.121-0.879l-12.761-12.76
		c-0.563-0.563-0.879-1.326-0.879-2.121v-13.068c0-1.658,1.343-3,3-3s3,1.342,3,3v11.824l9.761,9.762l9.205-9.207V276.41
		c0-1.656,1.343-3,3-3s3,1.344,3,3v14.18c0,0.795-0.316,1.559-0.879,2.121l-12.205,12.205
		C250.986,305.479,250.223,305.795,249.427,305.795z"/>
</g>
<g>
	<path style="fill:#204184;" d="M276.828,321.626c-0.808,0-1.611-0.324-2.203-0.963c-4.399-4.756-3.81-11.295-3.335-16.549
		l0.117-1.328c0.137-1.65,1.565-2.877,3.237-2.74c1.651,0.137,2.879,1.586,2.741,3.238c-0.037,0.447-0.078,0.904-0.12,1.369
		c-0.405,4.492-0.825,9.139,1.764,11.936c1.125,1.217,1.052,3.113-0.165,4.24C278.287,321.362,277.556,321.626,276.828,321.626z"/>
	<path style="fill:#204184;" d="M262.177,332.301c-0.768,0-1.535-0.293-2.121-0.879l-12.761-12.76
		c-0.563-0.563-0.879-1.326-0.879-2.121v-13.068c0-1.656,1.343-3,3-3s3,1.344,3,3v11.826l9.761,9.76l9.205-9.205v-12.936
		c0-1.656,1.343-3,3-3s3,1.344,3,3v14.178c0,0.795-0.316,1.559-0.879,2.121l-12.205,12.205
		C263.712,332.008,262.945,332.301,262.177,332.301z"/>
</g>
<path id="SVGCleanerId_3" style="fill:#204184;" d="M237.13,331.944c-0.768,0-1.535-0.293-2.121-0.879l-12.76-12.762
	c-0.563-0.563-0.879-1.324-0.879-2.121v-13.068c0-1.656,1.343-3,3-3s3,1.344,3,3v11.826l9.76,9.76l9.206-9.205v-12.936
	c0-1.656,1.343-3,3-3s3,1.344,3,3v14.178c0,0.797-0.316,1.559-0.879,2.123l-12.206,12.205
	C238.666,331.651,237.898,331.944,237.13,331.944z"/>
<g>
	<path id="SVGCleanerId_3_1_" style="fill:#204184;" d="M237.13,331.944c-0.768,0-1.535-0.293-2.121-0.879l-12.76-12.762
		c-0.563-0.563-0.879-1.324-0.879-2.121v-13.068c0-1.656,1.343-3,3-3s3,1.344,3,3v11.826l9.76,9.76l9.206-9.205v-12.936
		c0-1.656,1.343-3,3-3s3,1.344,3,3v14.178c0,0.797-0.316,1.559-0.879,2.123l-12.206,12.205
		C238.666,331.651,237.898,331.944,237.13,331.944z"/>
</g>
<g>
	<path style="fill:#204184;" d="M161.069,195.97c-0.768,0-1.535-0.293-2.121-0.879l-12.76-12.76
		c-0.563-0.563-0.879-1.326-0.879-2.121v-13.068c0-1.657,1.343-3,3-3s3,1.343,3,3v11.825l9.76,9.76l9.206-9.206v-12.935
		c0-1.657,1.343-3,3-3s3,1.343,3,3v14.178c0,0.796-0.316,1.559-0.879,2.122l-12.206,12.206
		C162.605,195.677,161.837,195.97,161.069,195.97z"/>
	<path style="fill:#204184;" d="M173.355,170.925c-0.796,0-1.559-0.316-2.121-0.879l-12.76-12.76
		c-0.563-0.563-0.879-1.326-0.879-2.121v-13.068c0-1.657,1.343-3,3-3s3,1.343,3,3v11.826l9.76,9.76l10.084-10.084
		c1.172-1.172,3.07-1.171,4.242,0c1.172,1.172,1.172,3.071,0,4.243l-12.205,12.206C174.914,170.609,174.151,170.925,173.355,170.925
		z"/>
	<path style="fill:#204184;" d="M317.678,282.989c-0.65,0-1.305-0.209-1.854-0.643c-1.302-1.025-1.525-2.912-0.5-4.213l3.131-3.975
		c15.904-20.189,32.351-41.066,48.872-61.338c5.119-6.281,10.155-12.393,14.968-18.161c0.932-1.117,2.534-1.404,3.795-0.681
		c1.263,0.724,1.824,2.249,1.332,3.619l-16.956,47.131c-0.561,1.559-2.277,2.369-3.839,1.809c-1.559-0.561-2.368-2.279-1.808-3.84
		l11.136-30.953c-1.318,1.609-2.645,3.232-3.977,4.867c-16.49,20.232-32.921,41.09-48.81,61.26l-3.132,3.975
		C319.445,282.598,318.566,282.989,317.678,282.989z"/>
	<path style="fill:#204184;" d="M258.168,394.881c-1.583,0-2.908-1.24-2.993-2.842c-0.036-0.691-0.839-17.193,4.563-38.445
		c5.004-19.688,16.522-47.221,42.981-66.6c49.309-36.115,86.981-61.398,87.356-61.65c1.216-0.816,2.849-0.633,3.854,0.436
		c1.005,1.068,1.091,2.707,0.202,3.875l-23.217,30.486c-0.023,0.031-0.048,0.063-0.072,0.092
		c-5.955,7.223-8.689,14.955-7.419,17.375c0.521,0.996,2.479,0.984,3.594,0.891c1.167-0.1,2.28,0.486,2.859,1.5
		c0.58,1.014,0.518,2.271-0.158,3.225l-24.383,34.354c-0.96,1.352-2.831,1.67-4.183,0.711s-1.669-2.832-0.71-4.184l21.493-30.281
		c-2.015-0.809-3.167-2.17-3.826-3.428c-3.571-6.807,3.371-18.223,8.065-23.934l11.968-15.715
		c-15.487,10.666-41.462,28.811-71.88,51.088c-47.965,35.131-45.131,99.244-45.097,99.887c0.088,1.654-1.183,3.066-2.837,3.154
		C258.277,394.879,258.222,394.881,258.168,394.881z"/>
</g>
<g>
</g>
<g>
</g>
<g>
</g>
<g>
</g>
<g>
</g>
<g>
</g>
<g>
</g>
<g>
</g>
<g>
</g>
<g>
</g>
<g>
</g>
<g>
</g>
<g>
</g>
<g>
</g>
<g>
</g>
</svg>
