<svg height="511pt" viewBox="0 -17 511.99934 511" width="511pt" xmlns="http://www.w3.org/2000/svg"><path d="m486.953125 289.265625-14.414063-14.410156c-14.300781-14.308594-37.574218-14.300781-51.882812 0-1.527344 1.527343-2.386719 3.601562-2.386719 5.761719 0 2.160156.859375 4.238281 2.386719 5.765624l34.589844 34.589844c4.53125 4.53125 6.046875 12.914063 4.15625 23.003906-1.839844 9.859376-6.871094 20.066407-12.800782 26.003907-11.125 11.121093-29.226562 11.121093-40.355468 0l-39.433594-39.4375c4.671875-15.6875 2.285156-32.660157-6.738281-46.359375l-6.433594-9.75c-5.847656-7.957032-12.394531-15.574219-19.457031-22.636719-3.492188-3.496094-7.300782-6.964844-11.785156-10.730469 1.054687-5.246094 3.308593-9.613281 6.710937-13.023437 1.679687-1.679688 3.730469-3.136719 6.101563-4.332031 3.164062-1.597657 4.929687-5.0625 4.371093-8.5625-1.835937-11.46875.589844-21.222657 6.824219-27.457032 5.867188-5.867187 13.699219-7.269531 19.238281-7.417968 4.335938-.113282 7.824219-3.601563 7.933594-7.933594.148437-5.542969 1.554687-13.375 7.417969-19.242188 9.328125-9.316406 26.699218-9.859375 44.269531-1.382812 2.519531 1.222656 5.484375 1.050781 7.863281-.425782 2.375-1.488281 3.820313-4.085937 3.832032-6.886718.019531-5.804688 1.328124-14.007813 7.449218-20.128906 7.214844-7.207032 17.207032-7.925782 24.289063-7.269532 3.40625.324219 6.636719-1.511718 8.109375-4.589844 1.472656-3.078124.882812-6.75-1.492188-9.195312-21.433594-22.140625-24.953125-54.074219-7.847656-71.183594.363281-.363281.753906-.679687 1.140625-1.007812l.785156-.671875c2.109375-1.835938 3.128907-4.632813 2.691407-7.398438-.429688-2.769531-2.246094-5.117187-4.820313-6.230469-74.140625-32.019531-158.914063-15.824218-215.980469 41.25-16.5 16.5-29.78125 35.558594-39.464844 56.636719-1.15625 2.519531-.953124 5.457031.539063 7.792969 1.496094 2.335938 4.074219 3.753906 6.847656 3.761719 16.613281.042969 30.695313 5.371093 40.726563 15.398437 18.480468 18.484375 20.34375 50.453125 5.5 81.828125l-1.597656-1.605469c2.027343-9.457031-1.4375-18.730468-10.359376-27.648437-8.902343-8.902344-22.769531-17.101563-36.179687-21.390625-12.828125-4.109375-23.824219-4.25-31.914063-.585938l-18.378906-18.375c-3.183594-3.183593-8.34375-3.183593-11.527344 0-3.183593 3.183594-3.183593 8.347657 0 11.527344l18.390626 18.386719c-8.824219 19.304687 5.726562 51.851563 21.960937 68.085937 8.917969 8.914063 18.167969 12.378907 27.652344 10.355469l2.414062 2.414063c-32.359375 16.480468-65.554687 15.164062-84.832031-4.117188-10.03125-10.027344-15.351562-24.113281-15.398438-40.730468-.007812-2.773438-1.421874-5.351563-3.761718-6.847657-2.335938-1.484375-5.273438-1.6875-7.792969-.539062-21.074219 9.683593-40.128906 22.964843-56.636719 39.464843-57.070312 57.070313-73.261718 141.851563-41.25 215.984376 1.113282 2.578124 3.46875 4.394531 6.242188 4.824218 2.789062.433594 5.566406-.597656 7.402344-2.714844l.617187-.722656c.339844-.398437.671875-.804687 1.046875-1.183594 17.113281-17.097656 49.035156-13.589843 71.183594 7.847657 1.554687 1.503906 3.601562 2.292969 5.671875 2.292969 1.195312 0 2.398437-.261719 3.523437-.800782 3.074219-1.476562 4.910156-4.710937 4.589844-8.109375-.660156-7.101562.066406-17.082031 7.269531-24.289062 6.125-6.125 14.328125-7.433594 20.128907-7.453125 2.800781-.007813 5.402343-1.460938 6.886718-3.832032 1.480469-2.375 1.644532-5.34375.425782-7.867187-8.480469-17.566406-7.941407-34.9375 1.386718-44.261719 5.871094-5.867187 13.703125-7.273437 19.234375-7.417968 4.339844-.109376 7.828125-3.597657 7.9375-7.9375.144531-5.535157 1.550781-13.367188 7.417969-19.238282 6.238281-6.234375 15.984375-8.648437 27.460938-6.828125 3.476562.574219 6.96875-1.207031 8.566406-4.375 1.1875-2.355469 2.644531-4.40625 4.328125-6.089843 3.40625-3.40625 7.769531-5.652344 13.019531-6.714844 3.746094 4.460937 7.210938 8.273437 10.730469 11.789062 7.050781 7.050782 14.667969 13.59375 22.320312 19.207032l4.910157 3.996093c12.910156 10.511719 29.839843 14.554688 46.15625 11.207031l39.289062 39.292969c32.824219 32.824219 84.96875 35.441407 118.722656 5.929688 18.066406-15.800781 28.460938-37.691407 29.261719-61.644531.78125-23.628907-8.328125-46.742188-25-63.414063zm-15.003906 112.785156c-27.308594 23.875-69.675781 21.601563-96.460938-5.183593l-42.550781-42.550782c-2.128906-2.128906-5.257812-2.910156-8.09375-2.050781-12.582031 3.75-26.039062 1.121094-36.039062-7.011719l-5.222657-4.242187c-7.3125-5.375-14.300781-11.378907-20.769531-17.847657-4.003906-4.003906-7.984375-8.484374-12.527344-14.082031-1.691406-2.09375-4.273437-3.234375-7-2.996093-10.886718.894531-20.320312 5.042968-27.28125 12.003906-1.589844 1.589844-3.050781 3.347656-4.371094 5.246094-14.445312-1.027344-27.078124 3.148437-35.980468 12.050781-6.085938 6.089843-10 13.96875-11.507813 23.078125-9.105469 1.503906-16.988281 5.417968-23.078125 11.507812-12.4375 12.4375-15.5 31.894532-8.753906 52.476563-7.824219 1.8125-14.640625 5.503906-20.078125 10.9375-5.472656 5.480469-9.195313 12.457031-10.992187 20.394531-13.160157-8.707031-27.703126-13.152344-41.535157-13.152344-11.890625 0-23.253906 3.285156-32.75 9.964844-23.460937-65.289062-7.539062-137.6875 42.042969-187.273438 12.304688-12.304687 26.15625-22.652343 41.285156-30.863281 2.296875 15.609375 8.835938 29.101563 19.246094 39.511719 26.542969 26.546875 72.363281 27.089844 114.003906 1.351562 2.117188-1.3125 3.523438-3.523437 3.808594-5.992187.292969-2.476563-.566406-4.949219-2.332031-6.707031l-13.515625-13.515625c-2.375-2.375-5.972656-3.046875-9.042969-1.703125-2.410156 1.066406-6.917969 3.046875-15.097656-5.136719-15.191407-15.191406-24.886719-44.289063-17.292969-51.886719 3.375-3.371094 11.914062-3.410156 22.265625-.097656 10.917969 3.496094 22.546875 10.320312 29.617187 17.390625 8.175782 8.179687 6.207032 12.679687 5.140626 15.101563-1.34375 3.070312-.671876 6.660156 1.707031 9.035156l12.917969 12.921875c1.78125 1.789062 4.3125 2.648437 6.804687 2.324219 2.503906-.324219 4.71875-1.789063 5.996094-3.96875 23.84375-40.75 22.621093-85.375-3.054688-111.042969-10.40625-10.410157-23.902343-16.949219-39.503906-19.25 8.207031-15.132813 18.554687-28.976563 30.859375-41.28125 49.585938-49.585938 121.996094-65.503907 187.269531-42.046875-14.449219 20.535156-13.015625 49.816406 3.191407 74.285156-7.941407 1.796875-14.914063 5.519531-20.394532 10.996094-5.429687 5.433594-9.125 12.246094-10.9375 20.074218-20.582031-6.738281-40.042968-3.675781-52.476562 8.753907-6.085938 6.085937-10 13.972656-11.503906 23.085937-9.113282 1.5-17 5.414063-23.085938 11.503906-8.902344 8.898438-13.09375 21.527344-12.046875 35.980469-1.902344 1.320313-3.65625 2.78125-5.246094 4.375-6.957031 6.957031-11.109375 16.390625-12.003906 27.285157-.214844 2.679687.898437 5.300781 2.992187 7 5.636719 4.570312 10.113282 8.550781 14.082032 12.523437 6.484375 6.480469 12.488281 13.472656 17.609375 20.421875l6.195312 9.40625c7.078125 10.742188 8.355469 24.371094 3.421875 36.457031-1.238281 3.035157-.535156 6.523438 1.785156 8.84375l43.058594 43.058594c17.472656 17.484375 45.925782 17.484375 63.410156 0 8.351563-8.351563 14.820313-21.265625 17.300782-34.535156 2.929687-15.6875-.140625-29.015625-8.65625-37.527344l-27.621094-27.621094c7.320312-2.863281 15.960938-1.339843 21.855469 4.558594l14.417969 14.410156c13.488281 13.496094 20.859374 32.210938 20.21875 51.34375-.652344 19.382813-9.070313 37.113281-23.699219 49.90625zm0 0"/><path d="m104.53125 262.183594c2.546875-3.703125 1.617188-8.78125-2.082031-11.332032-3.695313-2.566406-8.773438-1.628906-11.332031 2.0625-.554688.804688-55.039063 81.253907 6.707031 143 1.589843 1.589844 3.679687 2.386719 5.765625 2.386719 2.082031 0 4.167968-.796875 5.761718-2.386719 3.183594-3.183593 3.183594-8.34375 0-11.527343-52.0625-52.0625-6.773437-119.363281-4.820312-122.203125zm0 0"/><path d="m386.066406 107.667969c1.59375 1.589843 3.679688 2.386719 5.765625 2.386719 2.085938 0 4.171875-.796876 5.765625-2.386719 3.183594-3.183594 3.183594-8.34375 0-11.527344-61.738281-61.742187-142.183594-7.253906-143-6.703125-3.699218 2.5625-4.625 7.640625-2.0625 11.34375 2.558594 3.691406 7.632813 4.617188 11.347656 2.0625.691407-.480469 69.9375-47.414062 122.183594 4.824219zm0 0"/><path d="m153.351562 336.738281c-14.398437-7.199219-9.664062-19.9375-7.859374-23.6875 1.984374-4.023437.347656-8.890625-3.667969-10.902343-4.027344-2.011719-8.925781-.382813-10.9375 3.648437-.382813.761719-3.742188 7.742187-3.742188 16.613281-.003906 12.546875 6.714844 22.8125 18.917969 28.917969 1.167969.582031 2.414062.859375 3.636719.859375 2.992187 0 5.871093-1.652344 7.300781-4.507812 2.011719-4.027344.382812-8.925782-3.648438-10.941407zm0 0"/><path d="m331.476562 158.609375c1.429688 2.859375 4.308594 4.511719 7.300782 4.507813 1.226562 0 2.46875-.277344 3.640625-.859376 4.027343-2.015624 5.660156-6.914062 3.644531-10.941406-11.132812-22.265625-33.316406-21.261718-45.53125-15.175781-4.003906 2.003906-5.617188 6.851563-3.640625 10.875 1.976563 4.015625 6.835937 5.691406 10.882813 3.738281 3.738281-1.804687 16.5-6.554687 23.703124 7.855469zm0 0"/></svg>