<?xml version="1.0"?>
<svg xmlns="http://www.w3.org/2000/svg" viewBox="0 0 64 64" width="512" height="512"><g id="Ebook"><path d="M21,58H43a1,1,0,0,0,0-2H21a1,1,0,0,0,0,2Z"/><path d="M60,19H57V17a1,1,0,0,0-.684-.949l-4.41-1.47c-.3-.1-.6-.173-.906-.261V7a5.006,5.006,0,0,0-5-5H18a5.006,5.006,0,0,0-5,5v7.32c-.3.088-.607.162-.906.261l-4.41,1.47A1,1,0,0,0,7,17v2H4a1,1,0,0,0-1,1V51a1,1,0,0,0,1,1h9v5a5.006,5.006,0,0,0,5,5H46a5.006,5.006,0,0,0,5-5V52h9a1,1,0,0,0,1-1V20A1,1,0,0,0,60,19Zm-5-1.279V47.613l-3.094-1.032a25.163,25.163,0,0,0-15.812,0L33,47.612V18a.961.961,0,0,0-.053-.262l3.78-1.259a23.134,23.134,0,0,1,14.546,0ZM22,4H42V7a1,1,0,0,1-1,1H23a1,1,0,0,1-1-1ZM15,7a3,3,0,0,1,3-3h2V7a3,3,0,0,0,3,3H41a3,3,0,0,0,3-3V4h2a3,3,0,0,1,3,3v6.827a25.165,25.165,0,0,0-12.906.754L32,15.946l-4.094-1.365A25.165,25.165,0,0,0,15,13.827ZM9,17.721l3.727-1.242a23.134,23.134,0,0,1,14.546,0l3.78,1.259A.961.961,0,0,0,31,18V47.612l-3.094-1.031a25.168,25.168,0,0,0-15.812,0L9,47.613ZM49,57a3,3,0,0,1-3,3H18a3,3,0,0,1-3-3V52H49Zm10-7H5V21H7V49a1,1,0,0,0,1.316.949l4.411-1.47a23.134,23.134,0,0,1,14.546,0l4.411,1.47a1,1,0,0,0,.632,0l4.411-1.47a23.134,23.134,0,0,1,14.546,0l4.411,1.47A1.01,1.01,0,0,0,56,50a1,1,0,0,0,1-1V21h2Z"/><path d="M12.138,41.18a23.148,23.148,0,0,1,14.546,0,1,1,0,1,0,.632-1.9,25.146,25.146,0,0,0-15.811,0,1,1,0,1,0,.633,1.9Z"/><path d="M12.138,37.18a23.148,23.148,0,0,1,14.546,0,1,1,0,1,0,.632-1.9,25.146,25.146,0,0,0-15.811,0,1,1,0,1,0,.633,1.9Z"/><path d="M12.138,33.18a23.148,23.148,0,0,1,14.546,0,1,1,0,1,0,.632-1.9,25.146,25.146,0,0,0-15.811,0,1,1,0,1,0,.633,1.9Z"/><path d="M12.138,29.18a23.148,23.148,0,0,1,14.546,0,1,1,0,1,0,.632-1.9,25.146,25.146,0,0,0-15.811,0,1,1,0,0,0,.633,1.9Z"/><path d="M12.138,25.18a23.148,23.148,0,0,1,14.546,0,1,1,0,1,0,.632-1.9,25.146,25.146,0,0,0-15.811,0,1,1,0,0,0,.633,1.9Z"/><path d="M52.5,39.283a25.146,25.146,0,0,0-15.811,0,1,1,0,1,0,.632,1.9,23.148,23.148,0,0,1,14.546,0,1,1,0,0,0,.633-1.9Z"/><path d="M52.5,35.283a25.146,25.146,0,0,0-15.811,0,1,1,0,1,0,.632,1.9,23.148,23.148,0,0,1,14.546,0,1,1,0,1,0,.633-1.9Z"/><path d="M52.5,31.283a25.146,25.146,0,0,0-15.811,0,1,1,0,1,0,.632,1.9,23.148,23.148,0,0,1,14.546,0,1,1,0,1,0,.633-1.9Z"/><path d="M52.5,27.283a25.146,25.146,0,0,0-15.811,0,1,1,0,1,0,.632,1.9,23.148,23.148,0,0,1,14.546,0,1,1,0,0,0,.633-1.9Z"/><path d="M36.051,24.548a1,1,0,0,0,1.265.632,23.148,23.148,0,0,1,14.546,0,1,1,0,0,0,.633-1.9,25.146,25.146,0,0,0-15.811,0A1,1,0,0,0,36.051,24.548Z"/></g></svg>
