<svg id="Capa_1" enable-background="new 0 0 512 512" height="512" viewBox="0 0 512 512" width="512" xmlns="http://www.w3.org/2000/svg"><circle cx="256" cy="474.5" r="7.5"/><path d="m414.5 0h-317c-20.678 0-37.5 16.822-37.5 37.5v437c0 20.678 16.822 37.5 37.5 37.5h317c20.678 0 37.5-16.822 37.5-37.5v-437c0-20.678-16.822-37.5-37.5-37.5zm22.5 474.5c0 12.407-10.093 22.5-22.5 22.5h-317c-12.407 0-22.5-10.093-22.5-22.5v-437c0-12.407 10.093-22.5 22.5-22.5h317c12.407 0 22.5 10.093 22.5 22.5z"/><path d="m157.5 278.5h197c4.142 0 7.5-3.358 7.5-7.5s-3.358-7.5-7.5-7.5h-197c-4.142 0-7.5 3.358-7.5 7.5s3.358 7.5 7.5 7.5z"/><path d="m157.5 323.5h197c4.142 0 7.5-3.358 7.5-7.5s-3.358-7.5-7.5-7.5h-197c-4.142 0-7.5 3.358-7.5 7.5s3.358 7.5 7.5 7.5z"/><path d="m157.5 368.5h197c4.142 0 7.5-3.358 7.5-7.5s-3.358-7.5-7.5-7.5h-197c-4.142 0-7.5 3.358-7.5 7.5s3.358 7.5 7.5 7.5z"/><path d="m157.5 233.5h197c4.142 0 7.5-3.358 7.5-7.5s-3.358-7.5-7.5-7.5h-197c-4.142 0-7.5 3.358-7.5 7.5s3.358 7.5 7.5 7.5z"/><path d="m157.5 188.5h197c4.142 0 7.5-3.358 7.5-7.5s-3.358-7.5-7.5-7.5h-197c-4.142 0-7.5 3.358-7.5 7.5s3.358 7.5 7.5 7.5z"/><path d="m157.5 143.5h197c4.142 0 7.5-3.358 7.5-7.5s-3.358-7.5-7.5-7.5h-197c-4.142 0-7.5 3.358-7.5 7.5s3.358 7.5 7.5 7.5z"/><path d="m414.5 45h-317c-4.142 0-7.5 3.358-7.5 7.5v181c0 4.142 3.358 7.5 7.5 7.5s7.5-3.358 7.5-7.5v-173.5h302v377h-302v-173.5c0-4.142-3.358-7.5-7.5-7.5s-7.5 3.358-7.5 7.5v181c0 4.142 3.358 7.5 7.5 7.5h317c4.142 0 7.5-3.358 7.5-7.5v-392c0-4.142-3.358-7.5-7.5-7.5z"/></svg>