<svg id="Capa_1" enable-background="new 0 0 511.997 511.997" height="512" viewBox="0 0 511.997 511.997" width="512" xmlns="http://www.w3.org/2000/svg"><path d="m494.949 255.998 15.925-36.835c1.827-4.229 1.406-9.05-1.123-12.899-2.529-3.848-6.788-6.146-11.392-6.146h-36.907c-4.143 0-7.5 3.357-7.5 7.5s3.357 7.5 7.5 7.5h34.829l-15.337 35.475c-1.484 3.435-1.484 7.376.001 10.812l15.336 35.474h-54.298l2.213-2.287c20.935-21.641 20.935-55.545-.001-77.187l-2.835-2.93c-8.749-9.045-12.757-21.377-10.994-33.836l.571-4.038c4.217-29.813-15.712-57.242-45.369-62.444l-4.016-.703c-12.394-2.175-22.885-9.797-28.783-20.912l-1.911-3.604c-14.111-26.598-46.356-37.071-73.405-23.852l-3.664 1.79c-.001.001-.001.001-.002.001-11.304 5.528-24.271 5.527-35.578-.001l-3.662-1.789c-27.055-13.226-59.296-2.746-73.407 23.852l-1.911 3.602c-5.898 11.116-16.39 18.738-28.782 20.912l-4.018.704c-29.656 5.202-49.585 32.631-45.368 62.445l.571 4.037c.947 6.695.213 13.348-2.012 19.479h-65.982c-4.604 0-8.862 2.298-11.392 6.146-2.529 3.85-2.95 8.671-1.122 12.901l15.924 36.833-15.925 36.835c-1.827 4.229-1.406 9.05 1.123 12.899 2.529 3.848 6.788 6.146 11.392 6.146h65.981c2.226 6.131 2.959 12.785 2.012 19.479l-.571 4.038c-4.217 29.813 15.712 57.242 45.369 62.444l4.016.703c12.394 2.175 22.885 9.797 28.783 20.912l1.911 3.604c9.981 18.813 29.035 29.562 48.906 29.562 8.222-.001 16.583-1.841 24.499-5.71l3.666-1.791c11.304-5.526 24.271-5.526 35.578.001l3.662 1.789c27.055 13.225 59.296 2.746 73.407-23.852l1.911-3.602c5.898-11.116 16.39-18.738 28.782-20.912l4.018-.704c29.656-5.202 49.585-32.631 45.368-62.445l-.571-4.037c-.947-6.695-.213-13.348 2.012-19.479h65.981c4.604 0 8.862-2.298 11.392-6.146 2.529-3.85 2.95-8.671 1.122-12.901zm-463.896 5.406c1.484-3.435 1.484-7.376-.001-10.812l-15.336-35.474h54.298l-2.213 2.287c-20.935 21.641-20.935 55.545.001 77.187l2.212 2.286h-54.298zm351.925 121.661-4.018.705c-16.983 2.979-31.359 13.424-39.441 28.656l-1.911 3.603c-10.299 19.408-33.826 27.058-53.571 17.403l-3.662-1.789c-15.493-7.572-33.263-7.571-48.75-.001l-3.666 1.791c-19.739 9.652-43.27 2.005-53.569-17.404l-1.911-3.604c-8.082-15.231-22.458-25.677-39.442-28.656l-4.016-.704c-21.643-3.796-36.185-23.813-33.108-45.568l.571-4.037c2.416-17.072-3.075-33.973-15.065-46.368l-2.835-2.93c-15.277-15.792-15.277-40.534-.001-56.325l2.837-2.932c11.989-12.395 17.48-29.295 15.064-46.367l-.571-4.036c-3.076-21.757 11.466-41.773 33.107-45.569l4.018-.705c16.983-2.979 31.359-13.424 39.441-28.656l1.911-3.603c7.285-13.729 21.188-21.571 35.689-21.571 6 0 12.104 1.343 17.882 4.168l3.662 1.789c15.492 7.572 33.26 7.572 48.752 0l3.664-1.79c19.741-9.65 43.271-2.004 53.569 17.404l1.911 3.604c8.082 15.231 22.458 25.677 39.442 28.656l4.016.704c21.643 3.796 36.185 23.813 33.108 45.568l-.571 4.037c-2.416 17.072 3.075 33.973 15.065 46.368l2.835 2.93c15.277 15.792 15.277 40.534.001 56.325l-2.837 2.932c-11.989 12.395-17.48 29.295-15.064 46.367l.571 4.036c3.076 21.756-11.466 41.773-33.107 45.569z"/><path d="m323.1 139.159c.031.018.149.086.182.104 1.164.659 2.427.973 3.673.973 2.596 0 5.115-1.359 6.504-3.776 2.055-3.576.811-8.155-2.754-10.23l-3.812 6.459 3.793-6.471c-3.573-2.092-8.168-.897-10.264 2.678-2.095 3.573-.895 8.168 2.678 10.263z"/><path d="m122.888 205.14c1.002.453 2.051.667 3.082.667 2.857 0 5.588-1.642 6.84-4.415.028-.062.096-.215.121-.277 1.603-3.819-.195-8.215-4.016-9.816-3.794-1.592-8.156.172-9.784 3.938-1.69 3.77-.012 8.201 3.757 9.903z"/><path d="m184.765 140.377c1.302 0 2.62-.335 3.818-1.037 3.573-2.096 4.772-6.69 2.678-10.264-2.096-3.573-6.692-4.772-10.264-2.678l-.085.05c-3.573 2.096-4.729 6.665-2.635 10.238 1.393 2.376 3.908 3.691 6.488 3.691z"/><path d="m115.284 233.879c.518.11 1.034.163 1.544.163 3.477 0 6.609-2.457 7.359-5.991.859-4.053-1.729-8.034-5.78-8.894-4.056-.857-8.034 1.729-8.894 5.78l-.021.097c-.859 4.053 1.74 7.986 5.792 8.845z"/><path d="m136.365 178.578c1.342.995 2.906 1.474 4.458 1.474 2.295 0 4.562-1.05 6.032-3.036.026-.034.11-.149.135-.185 2.408-3.371 1.642-8.074-1.729-10.482-3.372-2.406-8.041-1.647-10.448 1.725l6.016 4.479-6.026-4.464c-2.467 3.327-1.768 8.025 1.562 10.489z"/><path d="m211.835 128.278c.74 0 1.494-.11 2.239-.344.067-.021.228-.073.295-.096 3.917-1.347 6.001-5.613 4.654-9.531-1.338-3.888-5.553-5.973-9.443-4.684-3.941 1.243-6.135 5.442-4.901 9.39 1.003 3.209 3.962 5.265 7.156 5.265z"/><path d="m297.443 127.779c.787.262 1.587.387 2.373.387 3.141 0 6.066-1.987 7.114-5.13 1.31-3.93-.813-8.178-4.743-9.487-.045-.015-.185-.06-.229-.073-3.955-1.237-8.18.961-9.416 4.914s.948 8.153 4.901 9.389z"/><path d="m387.753 227.784c.748 3.527 3.862 5.945 7.329 5.945.516 0 1.039-.054 1.564-.165 4.052-.859 6.64-4.841 5.78-8.894l-.021-.097c-.86-4.053-4.838-6.595-8.883-5.731-4.05.859-6.628 4.889-5.769 8.942z"/><path d="m378.991 200.951c1.227 2.829 3.986 4.52 6.886 4.52.995 0 2.007-.199 2.979-.62 3.8-1.647 5.546-6.063 3.899-9.864-.016-.035-.071-.159-.087-.194-1.704-3.775-6.149-5.46-9.925-3.756-3.776 1.705-5.458 6.139-3.752 9.914z"/><path d="m240.92 122.076c.277 0 .557-.016.838-.047 4.087-.413 7.087-4.041 6.714-8.141-.375-4.125-4.021-7.169-8.147-6.79-.066.006-.23.023-.296.031-4.111.483-7.041 4.205-6.561 8.316.446 3.819 3.697 6.631 7.452 6.631z"/><path d="m269.925 121.995c.271.029.542.044.81.044 3.739 0 6.975-2.793 7.436-6.599.499-4.112-2.431-7.85-6.543-8.348-.081-.01-.261-.028-.342-.035-4.12-.378-7.753 2.682-8.119 6.808-.366 4.107 2.661 7.735 6.758 8.13z"/><path d="m389.044 307.001c-3.777-1.707-8.218-.026-9.922 3.748-.028.062-.096.215-.121.277-1.603 3.819.195 8.215 4.016 9.816.947.397 1.931.586 2.897.586 2.904 0 5.665-1.698 6.887-4.524 1.691-3.77.012-8.201-3.757-9.903zm-1.893 7.376-1.193-.541 1.309.591z"/><path d="m375.539 333.545c-3.327-2.468-8.026-1.768-10.49 1.563-.026.034-.11.149-.135.185-2.408 3.371-1.642 8.074 1.729 10.482 1.327.947 2.854 1.404 4.367 1.404 2.329 0 4.621-1.085 6.081-3.129l-6.016-4.479 6.026 4.464c2.467-3.328 1.767-8.025-1.562-10.49z"/><path d="m396.68 278.272c-4.047-.862-8.043 1.775-8.903 5.828-.859 4.053 1.729 8.034 5.78 8.894.525.111 1.048.165 1.564.165 3.467 0 6.581-2.419 7.329-5.945l.021-.097c.859-4.053-1.739-7.986-5.791-8.845z"/><path d="m370.965 179.766c1.509 0 3.032-.454 4.354-1.398 3.37-2.407 4.151-7.091 1.743-10.462-.024-.035-.108-.15-.135-.185-2.465-3.328-7.171-4.042-10.499-1.575-3.329 2.466-4.037 7.15-1.571 10.479 1.464 2.049 3.768 3.141 6.108 3.141z"/><path d="m398.211 248.235c-4.143 0-7.5 3.406-7.5 7.549 0 .053.001.104.002.156-.001.053-.002.104-.002.157 0 4.143 3.357 7.5 7.5 7.5s7.5-3.357 7.5-7.5v-.099c0-.036 0-.071-.001-.107.001-.036.001-.071.001-.107v-.099c0-4.143-3.357-7.45-7.5-7.45z"/><path d="m121.285 256.056c0-4.143-3.357-7.5-7.5-7.5s-7.5 3.357-7.5 7.5v.099c0 4.143 3.357 7.451 7.5 7.451s7.5-3.407 7.5-7.55z"/><path d="m124.21 284.059c-.859-4.052-4.837-6.639-8.894-5.78-4.052.859-6.64 4.841-5.78 8.894l.021.097c.747 3.521 3.842 5.898 7.299 5.898.522 0 1.053-.054 1.584-.167 4.052-.86 6.63-4.889 5.77-8.942z"/><path d="m132.943 310.902c-1.647-3.801-6.063-5.547-9.864-3.899-3.8 1.647-5.546 6.063-3.899 9.864.016.035.071.159.087.194 1.253 2.775 3.987 4.421 6.848 4.421 1.03 0 2.078-.214 3.077-.665 3.774-1.705 5.456-6.14 3.751-9.915z"/><path d="m165.726 156.003c3.109-2.736 3.412-7.475.675-10.585-2.736-3.109-7.476-3.412-10.585-.675-.041.036-.155.14-.196.177-3.048 2.805-3.271 7.571-.467 10.62 1.484 1.613 3.505 2.434 5.53 2.434 1.802 0 3.607-.65 5.043-1.971z"/><path d="m356.052 144.628-5.089 5.509 5.078-5.52c-3.048-2.803-7.793-2.607-10.598.441s-2.606 7.793.441 10.598c.041.037.155.141.196.177 1.433 1.261 3.217 1.882 4.992 1.882 2.08 0 4.147-.853 5.624-2.529 2.738-3.11 2.465-7.821-.644-10.558z"/><path d="m136.585 333.502c-3.37 2.407-4.151 7.091-1.743 10.462.024.035.108.15.135.185 1.474 1.99 3.747 3.045 6.05 3.045 1.549 0 3.111-.478 4.449-1.47 3.329-2.466 4.037-7.15 1.571-10.479-2.407-3.371-7.09-4.154-10.462-1.743z"/><path d="m342.461 359.3c-12.178 10.206-26.018 18.098-40.793 23.42v-72.412c0-5.543-3.042-10.381-7.538-12.959v-19.384c.488-2.871 1.354-4.708 3.413-9.066.648-1.373 1.385-2.93 2.219-4.759 3.016-6.605 7.019-12.704 11.895-18.124 3.129-3.476 3.748-8.578 1.539-12.697-6.347-11.828-13.309-23.493-20.693-34.671-8.071-12.22-16.859-24.179-26.118-35.546-5.2-6.384-15.468-6.591-20.855-.081-9.565 11.559-18.586 23.777-26.813 36.315-7.163 10.921-13.877 22.316-19.954 33.871-2.279 4.334-1.426 9.73 2.076 13.127 5.803 5.628 10.231 12.218 13.164 19.585.432 1.085.822 2.054 1.178 2.932 2.129 5.271 2.487 6.23 2.668 9.235.005.076.018.149.024.224v19.041c-4.494 2.579-7.534 7.415-7.534 12.957v20.784c0 .007-.001.013-.001.019s.001.013.001.019v28.844c0 4.143 3.357 7.5 7.5 7.5s7.5-3.357 7.5-7.5v-21.363h61.33v48.544c-9.995 2.339-20.283 3.552-30.67 3.552-31.589 0-62.295-11.154-86.463-31.408-3.175-2.661-7.904-2.245-10.565.931-2.661 3.175-2.244 7.905.931 10.565 26.863 22.514 60.992 34.912 96.098 34.912 13.384 0 26.625-1.808 39.377-5.286.578-.094 1.135-.247 1.661-.464 20.072-5.723 38.884-15.605 55.06-29.162 3.175-2.66 3.592-7.391.931-10.565-2.662-3.174-7.393-3.591-10.568-.93zm-109.589-74.165h46.258v10.233h-46.258zm-19.501-47.459c5.497-10.268 11.507-20.386 17.887-30.111 5.414-8.252 11.191-16.356 17.243-24.216v58.095c0 4.143 3.357 7.5 7.5 7.5s7.5-3.357 7.5-7.5v-57.746c5.755 7.565 11.277 15.333 16.485 23.217 6.643 10.055 12.932 20.519 18.717 31.136-5.089 6.026-9.316 12.696-12.587 19.86-.803 1.76-1.511 3.258-2.135 4.578-1.391 2.942-2.476 5.238-3.302 7.646h-49.031c-.606-2.063-1.447-4.145-2.562-6.902-.346-.856-.728-1.802-1.148-2.86-3.358-8.439-8.252-16.061-14.567-22.697zm11.973 85.936.024-13.243h61.262c.013 0 .025-.002.038-.002v13.245z"/></svg>