<svg id="Capa_1" enable-background="new 0 0 512.001 512.001" height="512" viewBox="0 0 512.001 512.001" width="512" xmlns="http://www.w3.org/2000/svg"><path d="m505.695 44.263-37.943-37.952c-4.102-4.103-9.538-6.37-15.358-6.308-5.802.035-11.228 2.341-15.28 6.494l-8.045 8.244c-3.778-2.036-8.023-3.118-12.435-3.118-7.017 0-13.614 2.733-18.575 7.696l-257.756 257.815c-.001.001-.002.001-.002.002s-.001.002-.002.003l-18.055 18.06c-5.606 5.607-6.983 13.863-4.141 20.776l-17.315 17.479c-9.104 6.768-18.446 11.888-28.545 15.629-11 4.075-22.541 6.44-34.302 7.032-5.521.277-10.31 4.01-11.917 9.29-6.042 19.857-11.239 40.229-15.445 60.552-4.595 22.203-8.123 44.899-10.483 67.458-1.125 10.74 7.935 19.464 18.276 18.513 23.109-2.124 46.345-5.563 69.062-10.224 19.782-4.059 39.599-9.13 58.899-15.075 5.525-1.701 9.333-6.908 9.26-12.662-.168-13.182 2.356-25.885 7.503-37.758 4.898-11.3 11.069-19.482 15.425-24.393l17.629-17.796c2.265.927 4.71 1.416 7.231 1.416 5.098 0 9.89-1.985 13.495-5.591l18.053-18.058.002-.002s.001-.002.002-.002l257.757-257.816c8.379-8.381 9.898-21.061 4.565-31.006l8.253-8.058c4.151-4.053 6.457-9.48 6.492-15.281.036-5.802-2.203-11.257-6.305-15.359zm-53.21-29.26h.041c1.745 0 3.383.679 4.619 1.914l37.942 37.952c1.245 1.245 1.925 2.901 1.915 4.663-.011 1.761-.711 3.409-1.971 4.639l-7.58 7.401-11.094-11.096-35.909-35.917 7.402-7.585c1.229-1.261 2.875-1.961 4.635-1.971zm-279.469 381.056-29.491-29.572c-2.925-2.933-7.674-2.94-10.606-.015-2.933 2.925-2.939 7.674-.015 10.606l30.012 30.095c-4.384 5.69-9.395 13.406-13.584 23.071-5.804 13.389-8.745 27.665-8.748 42.458-18.421 5.627-37.309 10.439-56.166 14.307-18.997 3.897-38.365 6.913-57.71 9.002l68.02-68.035c2.7 1.218 5.644 1.879 8.695 1.879 5.658 0 10.977-2.204 14.977-6.205 8.256-8.259 8.256-21.696 0-29.955-4-4.001-9.319-6.205-14.977-6.205s-10.976 2.204-14.977 6.205c-6.388 6.39-7.811 15.872-4.314 23.665l-68.041 68.057c2.256-18.903 5.33-37.839 9.176-56.421 4.025-19.451 8.978-38.947 14.727-57.973 12.838-.772 25.433-3.42 37.459-7.875 9.648-3.574 18.662-8.255 27.401-14.196l6.938 6.958c2.924 2.933 7.673 2.94 10.606.015s2.939-7.673.015-10.606l-6.153-6.17 11.416-11.524 56.827 56.84zm-65.225 16.987c-1.167 1.167-2.718 1.811-4.369 1.811s-3.202-.643-4.369-1.811c-2.41-2.411-2.41-6.333 0-8.744 1.167-1.167 2.719-1.81 4.369-1.81s3.202.643 4.369 1.81c2.411 2.41 2.411 6.333 0 8.744zm98.476-33.805c-.771.771-1.797 1.196-2.887 1.196-1.091 0-2.116-.425-2.888-1.196l-64.59-64.605-2.947-2.948-.104-.104c-1.593-1.594-1.593-4.187 0-5.781l12.753-12.756 73.418 73.436zm275.816-275.879-252.456 252.514-73.418-73.436 252.458-252.516c2.128-2.129 4.958-3.301 7.967-3.301 3.01 0 5.84 1.172 7.968 3.301l12.026 12.028-90.684 90.705c-2.929 2.929-2.928 7.678.001 10.606 2.929 2.929 7.678 2.929 10.606-.001l90.682-90.703 6.265 6.267 5.956 5.957-127.636 127.666c-1.013 1.013-2.36 1.571-3.793 1.571h-9.997v-10c0-1.434.559-2.783 1.572-3.797l13.905-13.908c2.928-2.929 2.928-7.678-.001-10.607-2.929-2.928-7.677-2.927-10.607.001l-13.904 13.908c-3.847 3.847-5.965 8.962-5.965 14.402v11.309c0 7.55 6.142 13.692 13.691 13.692h11.306c5.441 0 10.556-2.119 14.401-5.966l127.633-127.662 12.023 12.026c4.396 4.396 4.396 11.548.001 15.944z"/></svg>