<svg id="Capa_1" enable-background="new 0 0 512 512" height="512" viewBox="0 0 512 512" width="512" xmlns="http://www.w3.org/2000/svg"><path d="m488.92 64.782h-254.962c-.02 0-.039-.003-.058-.003h-67.74c-.02 0-.038.003-.058.003h-143.022c-12.726 0-23.08 10.35-23.08 23.071v336.297c0 12.721 10.354 23.07 23.08 23.07h465.84c12.726 0 23.08-10.35 23.08-23.07v-336.297c0-12.721-10.354-23.071-23.08-23.071zm-441.161 320.076h6.331c.013 0 .026.002.039.002s.026-.002.039-.002h10.28v16.689h-16.689zm17.85-15h-3.98v-244.016h88.613c-3.057 5.759-6.8 11.132-11.19 16.007-3.224 3.579-3.855 8.847-1.568 13.11 7.003 13.053 14.689 25.932 22.845 38.276 7.655 11.589 15.878 22.936 24.535 33.877-4.757 1.694-8.178 6.23-8.178 11.561v22.127c0 .047.007.093.007.14zm126.077-111.776v-16.689h16.688v15.458c0 .052-.001.105 0 .157v1.074zm15.844-45.158v-50.547c0-4.143-3.358-7.5-7.5-7.5s-7.5 3.357-7.5 7.5v50.177c-6.895-8.971-13.483-18.197-19.686-27.587-7.46-11.293-14.516-23.047-20.991-34.968 5.736-6.717 10.492-14.172 14.153-22.193.978-2.142 1.867-4.32 2.681-6.524.034-.08.06-.163.092-.244 1.54-4.207 2.784-8.517 3.714-12.907h54.707c.884 5.83 2.423 11.521 4.6 16.99 3.746 9.412 9.238 17.898 16.343 25.259-6.166 11.555-12.917 22.938-20.087 33.867-6.425 9.793-13.293 19.386-20.526 28.677zm18.869-119.793h-52.739v-13.349h52.739zm270.601 331.019c0 4.45-3.625 8.07-8.08 8.07h-465.84c-4.455 0-8.08-3.62-8.08-8.07v-336.297c0-4.45 3.625-8.07 8.08-8.07h135.58v20.531c-.536 3.565-1.301 7.083-2.307 10.528h-99.953c-5.388 0-9.771 4.379-9.771 9.762v249.255h-1.588c-6.772 0-12.282 5.51-12.282 12.282v22.126c0 6.771 5.51 12.281 12.282 12.281h22.125c6.772 0 12.282-5.51 12.282-12.281v-3.106h24.265c4.142 0 7.5-3.357 7.5-7.5s-3.358-7.5-7.5-7.5h-24.265v-4.02c0-1.45-.266-2.835-.729-4.128l107.376-105.284c.923.223 1.882.353 2.872.353h22.125c2.944 0 5.647-1.043 7.765-2.776l68.642 67.306v21.577c0 6.773 5.51 12.283 12.283 12.283h22.124c.043 0 .085-.004.127-.004l5.761 5.653c-.828 1.652-1.306 3.509-1.306 5.48v3.561h-193.154c-4.142 0-7.5 3.357-7.5 7.5s3.358 7.5 7.5 7.5h193.154v3.565c0 6.772 5.51 12.282 12.282 12.282h22.125c6.772 0 12.282-5.51 12.282-12.282v-3.565h60.948v3.565c0 6.772 5.51 12.282 12.282 12.282h22.125c6.772 0 12.282-5.51 12.282-12.282v-22.127c0-6.771-5.51-12.281-12.282-12.281h-3.161v-249.715c0-5.383-4.383-9.762-9.771-9.762h-182.196c-4.142 0-7.5 3.357-7.5 7.5s3.358 7.5 7.5 7.5h176.967v244.477h-3.964c-.371 0-.737.023-1.099.056l-59.697-58.535v-17.812c0-6.771-5.51-12.281-12.282-12.281h-22.125c-6.772 0-12.282 5.51-12.282 12.281v17.022l-14.323 14.045c-.875-.197-1.775-.313-2.693-.313h-22.124c-1.188 0-2.344.169-3.445.489l-72.963-71.543v-15.052c0-5.262-3.334-9.75-7.996-11.494 8.952-11.168 17.404-22.792 25.218-34.704 7.904-12.049 15.315-24.629 22.027-37.389 2.356-4.479 1.465-10.071-2.168-13.6 0-.001-.001-.001-.001-.001-6.486-6.298-11.438-13.67-14.719-21.912-2.455-6.168-3.904-12.693-4.307-19.394-.005-.091-.021-.179-.029-.269v-20.13h247.521c4.455 0 8.08 3.62 8.08 8.07zm-152.401-97.659c1.91 1.224 4.173 1.944 6.605 1.944h22.125c2.224 0 4.306-.603 6.107-1.642l54.867 53.8c-.108.655-.179 1.322-.179 2.007v3.561h-60.948v-3.561c0-6.771-5.51-12.281-12.282-12.281h-18.614l-8.445-8.286c.223-.924.354-1.876.354-2.844v-22.125c0-.118-.01-.235-.013-.352zm9.323-13.056v-16.689h16.688v16.689zm95.203 71.883h8.708c.013 0 .025.002.039.002s.026-.002.039-.002h7.904v16.689h-16.688v-16.689zm-107.637 0h16.689v8.274c0 .023-.003.045-.003.068s.003.045.003.068v8.28h-16.689zm-22.299-45.538v16.691h-16.689v-16.691z"/><path d="m200.03 129.449c-4.145 0-7.505 3.36-7.505 7.505s3.36 7.505 7.505 7.505 7.505-3.36 7.505-7.505-3.36-7.505-7.505-7.505z"/><path d="m310.84 241.396c18.95 0 34.368-15.418 34.368-34.368 0-18.951-15.417-34.369-34.368-34.369s-34.368 15.418-34.368 34.369 15.418 34.368 34.368 34.368zm0-53.737c10.679 0 19.368 8.688 19.368 19.369 0 10.68-8.688 19.368-19.368 19.368s-19.368-8.688-19.368-19.368 8.689-19.369 19.368-19.369z"/></svg>