<svg id="Capa_1" enable-background="new 0 0 512.039 512.039" height="512" viewBox="0 0 512.039 512.039" width="512" xmlns="http://www.w3.org/2000/svg"><path d="m481.297 131.958h-199.565c-14.127 0-26.05 9.587-29.623 22.595h-108.811c-4.143 0-7.5 3.357-7.5 7.5s3.357 7.5 7.5 7.5h107.713v16.863h-107.713c-4.143 0-7.5 3.357-7.5 7.5s3.357 7.5 7.5 7.5h107.713v16.863h-107.713c-4.143 0-7.5 3.357-7.5 7.5s3.357 7.5 7.5 7.5h107.713v16.864h-107.713c-4.143 0-7.5 3.357-7.5 7.5s3.357 7.5 7.5 7.5h107.713v16.863h-107.713c-4.143 0-7.5 3.357-7.5 7.5s3.357 7.5 7.5 7.5h107.713v16.863h-107.713c-4.143 0-7.5 3.357-7.5 7.5s3.357 7.5 7.5 7.5h107.713v16.863h-107.713c-4.143 0-7.5 3.357-7.5 7.5s3.357 7.5 7.5 7.5h107.713v16.863h-107.713c-4.143 0-7.5 3.357-7.5 7.5s3.357 7.5 7.5 7.5h107.713v75.89h-206.375v-27.081h180.812c4.143 0 7.5-3.357 7.5-7.5s-3.357-7.5-7.5-7.5h-181.698c-7.782 0-14.114 6.332-14.114 14.115v28.852c0 7.782 6.332 14.114 14.114 14.114h207.346c.346 4.926 1.853 9.535 4.256 13.553h-224.61c-8.67 0-15.723-7.053-15.723-15.722v-450.594c.001-8.669 7.053-15.722 15.723-15.722h328.703c8.669 0 15.722 7.053 15.722 15.722v72.97c0 4.143 3.357 7.5 7.5 7.5s7.5-3.357 7.5-7.5v-72.97c0-16.941-13.781-30.722-30.722-30.722h-328.703c-16.94 0-30.722 13.781-30.722 30.722v450.596c0 16.94 13.782 30.722 30.723 30.722h450.555c16.94 0 30.723-13.781 30.723-30.722v-318.638c-.001-16.941-13.784-30.722-30.724-30.722zm15.723 349.359c0 8.669-7.053 15.722-15.723 15.722h-199.565c-8.669 0-15.722-7.053-15.722-15.722v-318.637c0-8.669 7.053-15.722 15.722-15.722h199.564c8.67 0 15.723 7.053 15.723 15.722v318.637z"/><path d="m360.678 106.909v-63.995c0-7.782-6.332-14.114-14.114-14.114h-302.814c-7.782 0-14.114 6.332-14.114 14.114v63.995c0 7.783 6.332 14.115 14.114 14.115h302.813c7.783 0 14.115-6.332 14.115-14.115zm-15-.885h-301.042v-62.224h301.042z"/><path d="m466.419 426.405h-169.808c-7.783 0-14.115 6.332-14.115 14.115v28.852c0 7.782 6.332 14.114 14.115 14.114h169.808c7.783 0 14.115-6.332 14.115-14.114v-28.852c0-7.783-6.332-14.115-14.115-14.115zm-.885 42.081h-168.038v-27.081h168.038z"/><path d="m43.75 131.958c-7.782 0-14.114 6.332-14.114 14.114v252.648c0 7.783 6.332 14.115 14.114 14.115h57.864c7.783 0 14.115-6.332 14.115-14.115v-252.648c0-7.782-6.332-14.114-14.115-14.114zm56.979 265.877h-56.093v-250.877h56.094v250.877z"/><path d="m466.419 161.575h-169.808c-7.783 0-14.115 6.332-14.115 14.114v63.995c0 7.783 6.332 14.115 14.115 14.115h169.808c7.783 0 14.115-6.332 14.115-14.115v-63.995c0-7.782-6.332-14.114-14.115-14.114zm-.885 77.225h-168.038v-62.225h168.038z"/><path d="m473.034 285.144h-183.038c-4.143 0-7.5 3.357-7.5 7.5s3.357 7.5 7.5 7.5h183.038c4.143 0 7.5-3.357 7.5-7.5s-3.357-7.5-7.5-7.5z"/><path d="m473.034 317.007h-183.038c-4.143 0-7.5 3.357-7.5 7.5s3.357 7.5 7.5 7.5h183.038c4.143 0 7.5-3.357 7.5-7.5s-3.357-7.5-7.5-7.5z"/><path d="m473.034 348.87h-183.038c-4.143 0-7.5 3.357-7.5 7.5s3.357 7.5 7.5 7.5h183.038c4.143 0 7.5-3.357 7.5-7.5s-3.357-7.5-7.5-7.5z"/><path d="m405.209 395.733c4.143 0 7.5-3.357 7.5-7.5s-3.357-7.5-7.5-7.5h-115.213c-4.143 0-7.5 3.357-7.5 7.5s3.357 7.5 7.5 7.5z"/></svg>