<svg xmlns="http://www.w3.org/2000/svg" height="701pt" version="1.1" viewBox="0 -25 701.25002 701" width="701pt">
<g id="surface1">
<path d="M 462.246094 424.890625 C 462.246094 459.382812 434.277344 487.355469 399.78125 487.355469 C 365.28125 487.355469 337.3125 459.382812 337.3125 424.890625 C 337.3125 390.394531 365.28125 362.425781 399.78125 362.425781 C 434.277344 362.425781 462.246094 390.394531 462.246094 424.890625 Z M 462.246094 424.890625 " style=" stroke:none;fill-rule:nonzero;fill:rgb(0%,0%,0%);fill-opacity:1;" />
<path d="M 599.667969 75.082031 L 599.667969 25.109375 C 599.667969 11.308594 588.484375 0.125 574.683594 0.125 L 24.984375 0.125 C 11.183594 0.125 0 11.308594 0 25.109375 L 0 524.835938 C 0 538.632812 11.183594 549.820312 24.984375 549.820312 L 74.957031 549.820312 L 74.957031 125.054688 C 74.957031 97.460938 97.335938 75.082031 124.929688 75.082031 Z M 124.929688 25.109375 L 149.917969 25.109375 L 149.917969 50.097656 L 124.929688 50.097656 Z M 49.972656 50.097656 L 24.984375 50.097656 L 24.984375 25.109375 L 49.972656 25.109375 Z M 99.945312 50.097656 L 74.957031 50.097656 L 74.957031 25.109375 L 99.945312 25.109375 Z M 99.945312 50.097656 " style=" stroke:none;fill-rule:nonzero;fill:rgb(0%,0%,0%);fill-opacity:1;" />
<path d="M 532.683594 390.535156 C 529.488281 378.128906 524.570312 366.238281 518.0625 355.203125 C 515.171875 350.296875 515.964844 344.050781 519.988281 340.027344 L 541.113281 318.886719 L 505.78125 283.542969 L 484.644531 304.679688 C 480.613281 308.710938 474.367188 309.503906 469.457031 306.605469 C 458.429688 300.097656 446.535156 295.175781 434.136719 291.984375 C 428.621094 290.566406 424.765625 285.59375 424.765625 279.894531 L 424.765625 249.988281 L 374.792969 249.988281 L 374.792969 279.894531 C 374.792969 285.59375 370.9375 290.566406 365.421875 291.984375 C 353.023438 295.175781 341.128906 300.097656 330.101562 306.605469 C 325.191406 309.503906 318.945312 308.710938 314.914062 304.679688 L 293.777344 283.542969 L 258.445312 318.886719 L 279.574219 340.027344 C 283.589844 344.050781 284.382812 350.285156 281.496094 355.1875 C 279.117188 359.238281 276.953125 363.410156 275 367.679688 C 271.617188 375.054688 268.894531 382.726562 266.875 390.582031 C 265.453125 396.097656 260.480469 399.953125 254.785156 399.953125 L 224.875 399.953125 L 224.875 449.925781 L 254.785156 449.925781 C 260.480469 449.925781 265.453125 453.78125 266.875 459.296875 C 270.070312 471.699219 274.988281 483.589844 281.496094 494.628906 C 284.390625 499.53125 283.59375 505.777344 279.574219 509.804688 L 258.445312 530.941406 L 293.777344 566.28125 L 314.914062 545.148438 C 318.945312 541.117188 325.191406 540.320312 330.101562 543.222656 C 341.128906 549.730469 353.023438 554.652344 365.421875 557.839844 C 370.9375 559.265625 374.792969 564.242188 374.792969 569.933594 L 374.792969 599.792969 L 424.765625 599.792969 L 424.765625 569.882812 C 424.765625 564.183594 428.621094 559.214844 434.136719 557.792969 C 446.535156 554.605469 458.429688 549.679688 469.457031 543.171875 C 474.367188 540.273438 480.613281 541.066406 484.644531 545.097656 L 505.78125 566.234375 L 541.113281 530.890625 L 519.988281 509.757812 C 515.964844 505.730469 515.171875 499.484375 518.0625 494.578125 C 524.570312 483.539062 529.488281 471.648438 532.683594 459.246094 C 534.105469 453.734375 539.078125 449.878906 544.773438 449.878906 L 574.683594 449.878906 L 574.683594 399.90625 L 544.773438 399.90625 C 539.078125 399.90625 534.105469 396.050781 532.683594 390.535156 Z M 399.78125 512.34375 C 351.476562 512.34375 312.328125 473.191406 312.328125 424.890625 C 312.328125 376.585938 351.476562 337.4375 399.78125 337.4375 C 448.082031 337.4375 487.230469 376.585938 487.230469 424.890625 C 487.179688 473.164062 448.054688 512.285156 399.78125 512.34375 Z M 399.78125 512.34375 " style=" stroke:none;fill-rule:nonzero;fill:rgb(0%,0%,0%);fill-opacity:1;" />
<path d="M 697.964844 123.078125 C 697.867188 109.285156 686.609375 98.175781 672.816406 98.269531 L 123.121094 101.878906 C 109.320312 101.972656 98.207031 113.226562 98.296875 127.03125 L 101.578125 626.757812 C 101.675781 640.546875 112.9375 651.65625 126.730469 651.5625 L 676.429688 647.953125 C 690.234375 647.863281 701.347656 636.59375 701.25 622.789062 Z M 224.875 125.054688 L 249.863281 125.054688 L 249.863281 150.042969 L 224.875 150.042969 Z M 174.902344 125.054688 L 199.890625 125.054688 L 199.890625 150.042969 L 174.902344 150.042969 Z M 124.929688 125.054688 L 149.917969 125.054688 L 149.917969 150.042969 L 124.929688 150.042969 Z M 124.929688 237.496094 L 224.875 237.496094 L 224.875 262.480469 L 124.929688 262.480469 Z M 124.929688 312.453125 L 124.929688 287.464844 L 199.890625 287.464844 L 199.890625 312.453125 Z M 587.175781 474.863281 L 554.15625 474.863281 C 551.511719 483.070312 548.214844 491.050781 544.273438 498.726562 L 567.625 522.058594 C 572.496094 526.9375 572.496094 534.84375 567.625 539.726562 L 514.613281 592.734375 C 509.734375 597.609375 501.828125 597.609375 496.949219 592.734375 L 473.617188 569.394531 C 465.933594 573.320312 457.957031 576.617188 449.753906 579.265625 L 449.753906 612.289062 C 449.753906 619.183594 444.160156 624.78125 437.257812 624.78125 L 362.300781 624.78125 C 355.398438 624.78125 349.808594 619.183594 349.808594 612.289062 L 349.808594 579.265625 C 341.605469 576.617188 333.625 573.320312 325.945312 569.394531 L 302.613281 592.734375 C 297.730469 597.609375 289.824219 597.609375 284.945312 592.734375 L 231.933594 539.726562 C 227.0625 534.84375 227.0625 526.9375 231.933594 522.058594 L 255.285156 498.726562 C 251.347656 491.050781 248.046875 483.070312 245.402344 474.863281 L 212.382812 474.863281 C 205.484375 474.863281 199.890625 469.265625 199.890625 462.371094 L 199.890625 387.410156 C 199.890625 380.511719 205.484375 374.917969 212.382812 374.917969 L 245.402344 374.917969 C 247.34375 368.890625 249.636719 362.988281 252.273438 357.226562 C 253.226562 355.152344 254.226562 353.105469 255.273438 351.054688 L 231.933594 327.71875 C 227.0625 322.835938 227.0625 314.933594 231.933594 310.050781 L 284.945312 257.042969 C 289.824219 252.167969 297.730469 252.167969 302.613281 257.042969 L 325.945312 280.378906 C 333.625 276.460938 341.605469 273.15625 349.808594 270.511719 L 349.808594 237.496094 C 349.808594 230.59375 355.398438 225 362.300781 225 L 437.257812 225 C 444.160156 225 449.753906 230.59375 449.753906 237.496094 L 449.753906 270.511719 C 457.957031 273.15625 465.933594 276.460938 473.617188 280.378906 L 496.949219 257.042969 C 501.828125 252.167969 509.734375 252.167969 514.613281 257.042969 L 567.625 310.050781 C 572.496094 314.933594 572.496094 322.835938 567.625 327.71875 L 544.273438 351.054688 C 548.214844 358.726562 551.511719 366.707031 554.15625 374.917969 L 587.175781 374.917969 C 594.078125 374.917969 599.667969 380.511719 599.667969 387.410156 L 599.667969 462.371094 C 599.667969 469.265625 594.078125 474.863281 587.175781 474.863281 Z M 674.628906 624.78125 L 599.667969 624.78125 L 599.667969 599.792969 L 674.628906 599.792969 Z M 674.628906 200.015625 L 124.929688 200.015625 L 124.929688 175.027344 L 674.628906 175.027344 Z M 674.628906 200.015625 " style=" stroke:none;fill-rule:nonzero;fill:rgb(0%,0%,0%);fill-opacity:1;" />
</g>
</svg>