<svg xmlns="http://www.w3.org/2000/svg" height="725pt" version="1.1" viewBox="-12 0 725 725" width="725pt">
<g id="surface1">
<path d="M 387.5 275 C 387.5 295.707031 370.707031 312.5 350 312.5 C 329.292969 312.5 312.5 295.707031 312.5 275 C 312.5 254.292969 329.292969 237.5 350 237.5 C 370.707031 237.5 387.5 254.292969 387.5 275 Z M 387.5 275 " style=" stroke:none;fill-rule:nonzero;fill:rgb(0%,0%,0%);fill-opacity:1;" />
<path d="M 100 450 L 600 450 C 613.808594 450 625 438.808594 625 425 L 625 25 C 625 11.191406 613.808594 0 600 0 L 100 0 C 86.191406 0 75 11.191406 75 25 L 75 425 C 75 438.808594 86.191406 450 100 450 Z M 473.75 363.382812 L 438.382812 398.75 C 433.507812 403.632812 425.589844 403.632812 420.710938 398.75 L 398.414062 376.464844 C 394.851562 378.15625 391.210938 379.664062 387.5 380.984375 L 387.5 412.5 C 387.5 419.40625 381.90625 425 375 425 L 325 425 C 318.09375 425 312.5 419.40625 312.5 412.5 L 312.5 380.976562 C 308.789062 379.648438 305.148438 378.144531 301.585938 376.453125 L 279.289062 398.75 C 274.410156 403.632812 266.492188 403.632812 261.617188 398.75 L 226.25 363.382812 C 221.367188 358.507812 221.367188 350.589844 226.25 345.710938 L 248.535156 323.414062 C 246.851562 319.851562 245.34375 316.210938 244.023438 312.5 L 212.5 312.5 C 205.59375 312.5 200 306.90625 200 300 L 200 250 C 200 243.09375 205.59375 237.5 212.5 237.5 L 244.023438 237.5 C 245.351562 233.789062 246.855469 230.148438 248.546875 226.585938 L 226.25 204.289062 C 221.367188 199.410156 221.367188 191.492188 226.25 186.617188 L 261.617188 151.25 C 266.492188 146.367188 274.410156 146.367188 279.289062 151.25 L 301.585938 173.535156 C 305.148438 171.851562 308.789062 170.34375 312.5 169.023438 L 312.5 137.5 C 312.5 130.59375 318.09375 125 325 125 L 375 125 C 381.90625 125 387.5 130.59375 387.5 137.5 L 387.5 169.023438 C 391.210938 170.351562 394.851562 171.855469 398.414062 173.546875 L 420.710938 151.25 C 425.589844 146.367188 433.507812 146.367188 438.382812 151.25 L 473.75 186.617188 C 478.632812 191.492188 478.632812 199.410156 473.75 204.289062 L 451.464844 226.585938 C 453.15625 230.148438 454.664062 233.789062 455.984375 237.5 L 487.5 237.5 C 494.40625 237.5 500 243.09375 500 250 L 500 300 C 500 306.90625 494.40625 312.5 487.5 312.5 L 455.976562 312.5 C 454.648438 316.210938 453.144531 319.851562 451.453125 323.414062 L 473.75 345.710938 C 478.632812 350.589844 478.632812 358.507812 473.75 363.382812 Z M 600 412.5 L 487.5 412.5 L 487.5 387.5 L 600 387.5 Z M 600 362.5 L 525 362.5 L 525 337.5 L 600 337.5 Z M 600 312.5 L 525 312.5 L 525 287.5 L 600 287.5 Z M 600 262.5 L 525 262.5 L 525 237.5 L 600 237.5 Z M 600 212.5 L 512.5 212.5 L 512.5 187.5 L 600 187.5 Z M 600 162.5 L 487.5 162.5 L 487.5 137.5 L 600 137.5 Z M 200 25 L 225 25 L 225 50 L 200 50 Z M 150 25 L 175 25 L 175 50 L 150 50 Z M 100 25 L 125 25 L 125 50 L 100 50 Z M 100 75 L 600 75 L 600 100 L 100 100 Z M 100 137.5 L 212.5 137.5 L 212.5 162.5 L 100 162.5 Z M 100 187.5 L 187.5 187.5 L 187.5 212.5 L 100 212.5 Z M 100 237.5 L 175 237.5 L 175 262.5 L 100 262.5 Z M 100 287.5 L 175 287.5 L 175 312.5 L 100 312.5 Z M 100 337.5 L 175 337.5 L 175 362.5 L 100 362.5 Z M 100 387.5 L 212.5 387.5 L 212.5 412.5 L 100 412.5 Z M 100 387.5 " style=" stroke:none;fill-rule:nonzero;fill:rgb(0%,0%,0%);fill-opacity:1;" />
<path d="M 425.3125 319.359375 C 429.449219 312.335938 432.585938 304.761719 434.625 296.867188 C 436.046875 291.347656 441.023438 287.492188 446.722656 287.492188 L 475 287.492188 L 475 262.5 L 446.722656 262.5 C 441.023438 262.5 436.046875 258.640625 434.625 253.125 C 432.585938 245.226562 429.449219 237.652344 425.3125 230.625 C 422.414062 225.710938 423.199219 219.457031 427.242188 215.425781 L 447.234375 195.421875 L 429.566406 177.753906 L 409.566406 197.75 C 405.527344 201.789062 399.273438 202.578125 394.359375 199.679688 C 387.335938 195.539062 379.761719 192.402344 371.867188 190.359375 C 366.347656 188.941406 362.492188 183.960938 362.492188 178.265625 L 362.492188 150 L 337.5 150 L 337.5 178.277344 C 337.5 183.976562 333.640625 188.953125 328.125 190.375 C 320.226562 192.414062 312.652344 195.550781 305.625 199.6875 C 300.710938 202.585938 294.457031 201.800781 290.425781 197.757812 L 270.421875 177.765625 L 252.753906 195.433594 L 272.75 215.433594 C 276.789062 219.472656 277.578125 225.726562 274.679688 230.640625 C 270.539062 237.664062 267.402344 245.238281 265.359375 253.132812 C 263.941406 258.652344 258.960938 262.507812 253.265625 262.507812 L 225 262.507812 L 225 287.507812 L 253.277344 287.507812 C 258.976562 287.507812 263.953125 291.367188 265.375 296.882812 C 267.414062 304.785156 270.550781 312.359375 274.6875 319.382812 C 277.585938 324.296875 276.800781 330.554688 272.757812 334.589844 L 252.765625 354.589844 L 270.433594 372.261719 L 290.433594 352.265625 C 294.472656 348.234375 300.726562 347.4375 305.640625 350.335938 C 312.664062 354.472656 320.238281 357.613281 328.132812 359.648438 C 333.652344 361.074219 337.507812 366.054688 337.507812 371.753906 L 337.507812 400 L 362.507812 400 L 362.507812 371.722656 C 362.507812 366.023438 366.367188 361.046875 371.882812 359.625 C 379.785156 357.585938 387.359375 354.449219 394.382812 350.3125 C 399.296875 347.414062 405.554688 348.199219 409.589844 352.242188 L 429.589844 372.234375 L 447.261719 354.566406 L 427.265625 334.566406 C 423.21875 330.539062 422.417969 324.277344 425.3125 319.359375 Z M 350 337.5 C 315.484375 337.5 287.5 309.515625 287.5 275 C 287.5 240.484375 315.484375 212.5 350 212.5 C 384.515625 212.5 412.5 240.484375 412.5 275 C 412.457031 309.5 384.5 337.457031 350 337.5 Z M 350 337.5 " style=" stroke:none;fill-rule:nonzero;fill:rgb(0%,0%,0%);fill-opacity:1;" />
<path d="M 0 550 C 0 563.808594 11.191406 575 25 575 L 675 575 C 688.808594 575 700 563.808594 700 550 L 700 525 L 0 525 Z M 0 550 " style=" stroke:none;fill-rule:nonzero;fill:rgb(0%,0%,0%);fill-opacity:1;" />
<path d="M 675 100 L 650 100 L 650 425 C 650 452.613281 627.613281 475 600 475 L 100 475 C 72.386719 475 50 452.613281 50 425 L 50 100 L 25 100 C 11.191406 100 0 111.191406 0 125 L 0 500 L 700 500 L 700 125 C 700 111.191406 688.808594 100 675 100 Z M 675 100 " style=" stroke:none;fill-rule:nonzero;fill:rgb(0%,0%,0%);fill-opacity:1;" />
<path d="M 403.199219 600 L 296.800781 600 L 266.800781 700 L 212.5 700 L 212.5 725 L 487.5 725 L 487.5 700 L 433.199219 700 Z M 403.199219 600 " style=" stroke:none;fill-rule:nonzero;fill:rgb(0%,0%,0%);fill-opacity:1;" />
</g>
</svg>