<svg xmlns="http://www.w3.org/2000/svg" height="700pt" version="1.1" viewBox="0 -75 700 700" width="700pt">
<g id="surface1">
<path d="M 375 400 L 475 400 L 475 450 L 375 450 Z M 375 400 " style=" stroke:none;fill-rule:nonzero;fill:rgb(0%,0%,0%);fill-opacity:1;" />
<path d="M 200 400 L 300 400 L 300 450 L 200 450 Z M 200 400 " style=" stroke:none;fill-rule:nonzero;fill:rgb(0%,0%,0%);fill-opacity:1;" />
<path d="M 550 400 L 650 400 L 650 450 L 550 450 Z M 550 400 " style=" stroke:none;fill-rule:nonzero;fill:rgb(0%,0%,0%);fill-opacity:1;" />
<path d="M 625 75 L 625 25 C 625 11.191406 613.808594 0 600 0 L 25 0 C 11.191406 0 0 11.191406 0 25 L 0 425 C 0 438.808594 11.191406 450 25 450 L 125 450 L 125 125 C 125 97.386719 147.386719 75 175 75 Z M 100 412.5 L 25 412.5 L 25 387.5 L 100 387.5 Z M 100 362.5 L 25 362.5 L 25 337.5 L 100 337.5 Z M 100 287.5 L 25 287.5 L 25 262.5 L 100 262.5 Z M 100 237.5 L 25 237.5 L 25 212.5 L 100 212.5 Z M 100 187.5 L 25 187.5 L 25 162.5 L 100 162.5 Z M 100 137.5 L 25 137.5 L 25 112.5 L 100 112.5 Z M 100 50 L 25 50 L 25 25 L 100 25 Z M 325 25 L 400 25 L 400 50 L 325 50 Z M 225 25 L 300 25 L 300 50 L 225 50 Z M 125 50 L 125 25 L 200 25 L 200 50 Z M 125 50 " style=" stroke:none;fill-rule:nonzero;fill:rgb(0%,0%,0%);fill-opacity:1;" />
<path d="M 581.414062 200 L 268.585938 200 L 425 249.390625 Z M 581.414062 200 " style=" stroke:none;fill-rule:nonzero;fill:rgb(0%,0%,0%);fill-opacity:1;" />
<path d="M 268.585938 325 L 581.414062 325 L 425 275.609375 Z M 268.585938 325 " style=" stroke:none;fill-rule:nonzero;fill:rgb(0%,0%,0%);fill-opacity:1;" />
<path d="M 675 100 L 175 100 C 161.191406 100 150 111.191406 150 125 L 150 525 C 150 538.808594 161.191406 550 175 550 L 675 550 C 688.808594 550 700 538.808594 700 525 L 700 125 C 700 111.191406 688.808594 100 675 100 Z M 475 125 L 550 125 L 550 150 L 475 150 Z M 375 125 L 450 125 L 450 150 L 375 150 Z M 275 125 L 350 125 L 350 150 L 275 150 Z M 175 125 L 250 125 L 250 150 L 175 150 Z M 325 525 L 175 525 L 175 500 L 325 500 Z M 325 462.5 C 325 469.40625 319.40625 475 312.5 475 L 187.5 475 C 180.59375 475 175 469.40625 175 462.5 L 175 387.5 C 175 380.59375 180.59375 375 187.5 375 L 312.5 375 C 319.40625 375 325 380.59375 325 387.5 Z M 500 525 L 350 525 L 350 500 L 500 500 Z M 500 462.5 C 500 469.40625 494.40625 475 487.5 475 L 362.5 475 C 355.59375 475 350 469.40625 350 462.5 L 350 387.5 C 350 380.59375 355.59375 375 362.5 375 L 487.5 375 C 494.40625 375 500 380.59375 500 387.5 Z M 675 525 L 525 525 L 525 500 L 675 500 Z M 675 462.5 C 675 469.40625 669.40625 475 662.5 475 L 537.5 475 C 530.59375 475 525 469.40625 525 462.5 L 525 387.5 C 525 380.59375 530.59375 375 537.5 375 L 662.5 375 C 669.40625 375 675 380.59375 675 387.5 Z M 675 337.5 C 675 344.40625 669.40625 350 662.5 350 L 187.5 350 C 180.59375 350 175 344.40625 175 337.5 L 175 187.5 C 175 180.59375 180.59375 175 187.5 175 L 662.5 175 C 669.40625 175 675 180.59375 675 187.5 Z M 675 337.5 " style=" stroke:none;fill-rule:nonzero;fill:rgb(0%,0%,0%);fill-opacity:1;" />
<path d="M 650 320.453125 L 650 204.546875 L 466.507812 262.5 Z M 650 320.453125 " style=" stroke:none;fill-rule:nonzero;fill:rgb(0%,0%,0%);fill-opacity:1;" />
<path d="M 200 204.546875 L 200 320.453125 L 383.492188 262.5 Z M 200 204.546875 " style=" stroke:none;fill-rule:nonzero;fill:rgb(0%,0%,0%);fill-opacity:1;" />
</g>
</svg>