<svg xmlns="http://www.w3.org/2000/svg" height="700pt" version="1.1" viewBox="0 -100 700 700" width="700pt">
<g id="surface1">
<path d="M 62.5 37.5 C 62.5 30.59375 68.09375 25 75 25 L 625 25 C 631.90625 25 637.5 30.59375 637.5 37.5 L 637.5 425 L 662.5 425 L 662.5 37.5 C 662.5 16.792969 645.707031 0 625 0 L 75 0 C 54.292969 0 37.5 16.792969 37.5 37.5 L 37.5 425 L 62.5 425 Z M 62.5 37.5 " style=" stroke:none;fill-rule:nonzero;fill:rgb(0%,0%,0%);fill-opacity:1;" />
<path d="M 350 123.75 L 210 350 L 490.125 350 Z M 362.5 325 L 337.5 325 L 337.5 300 L 362.5 300 Z M 337.5 275 L 337.5 200 L 362.5 200 L 362.5 275 Z M 337.5 275 " style=" stroke:none;fill-rule:nonzero;fill:rgb(0%,0%,0%);fill-opacity:1;" />
<path d="M 273.523438 425 C 286.835938 424.957031 299.015625 432.492188 304.925781 444.414062 C 306.632812 447.847656 310.136719 450.007812 313.976562 450 L 386.023438 450 C 389.863281 450.007812 393.367188 447.847656 395.074219 444.414062 C 400.984375 432.492188 413.164062 424.957031 426.476562 425 L 612.5 425 L 612.5 50 L 87.5 50 L 87.5 425 Z M 188.675781 336.835938 L 328.75 110.589844 C 333.304688 103.234375 341.347656 98.753906 350 98.753906 C 358.652344 98.753906 366.695312 103.234375 371.25 110.589844 L 511.25 336.835938 C 516.019531 344.535156 516.25 354.21875 511.855469 362.132812 C 507.460938 370.058594 499.121094 374.976562 490.0625 375 L 210 375 C 200.933594 375 192.574219 370.085938 188.164062 362.164062 C 183.75 354.242188 183.980469 344.550781 188.75 336.835938 Z M 188.675781 336.835938 " style=" stroke:none;fill-rule:nonzero;fill:rgb(0%,0%,0%);fill-opacity:1;" />
<path d="M 426.476562 450 C 422.636719 449.992188 419.132812 452.152344 417.425781 455.585938 C 411.515625 467.507812 399.335938 475.042969 386.023438 475 L 313.976562 475 C 300.664062 475.042969 288.484375 467.507812 282.574219 455.585938 C 280.867188 452.152344 277.363281 449.992188 273.523438 450 L 0 450 L 0 475 C 0 488.808594 11.191406 500 25 500 L 675 500 C 688.808594 500 700 488.808594 700 475 L 700 450 Z M 426.476562 450 " style=" stroke:none;fill-rule:nonzero;fill:rgb(0%,0%,0%);fill-opacity:1;" />
</g>
</svg>