<svg xmlns="http://www.w3.org/2000/svg" height="700pt" version="1.1" viewBox="0 -37 700 700" width="700pt">
<g id="surface1">
<path d="M 600 125 L 600 50 L 50 50 L 50 125 Z M 387.5 75 L 462.5 75 L 462.5 100 L 387.5 100 Z M 287.5 75 L 362.5 75 L 362.5 100 L 287.5 100 Z M 187.5 75 L 262.5 75 L 262.5 100 L 187.5 100 Z M 87.5 75 L 162.5 75 L 162.5 100 L 87.5 100 Z M 87.5 75 " style=" stroke:none;fill-rule:nonzero;fill:rgb(0%,0%,0%);fill-opacity:1;" />
<path d="M 0 450 C 0 463.808594 11.191406 475 25 475 L 487.5 475 L 487.5 425 L 0 425 Z M 0 450 " style=" stroke:none;fill-rule:nonzero;fill:rgb(0%,0%,0%);fill-opacity:1;" />
<path d="M 512.5 575 C 512.5 588.808594 523.691406 600 537.5 600 L 675 600 C 688.808594 600 700 588.808594 700 575 L 700 562.5 L 512.5 562.5 Z M 512.5 575 " style=" stroke:none;fill-rule:nonzero;fill:rgb(0%,0%,0%);fill-opacity:1;" />
<path d="M 275 200 L 375 200 L 375 275 L 275 275 Z M 275 200 " style=" stroke:none;fill-rule:nonzero;fill:rgb(0%,0%,0%);fill-opacity:1;" />
<path d="M 600 225 L 600 150 L 50 150 L 50 375 L 25 375 L 25 37.5 C 25 30.59375 30.59375 25 37.5 25 L 612.5 25 C 619.40625 25 625 30.59375 625 37.5 L 625 225 L 650 225 L 650 25 C 650 11.191406 638.808594 0 625 0 L 25 0 C 11.191406 0 0 11.191406 0 25 L 0 400 L 487.5 400 L 487.5 275 C 487.5 247.386719 509.886719 225 537.5 225 Z M 225 375 L 200 375 L 200 350 L 100 350 L 100 375 L 75 375 L 75 337.5 C 75 330.59375 80.59375 325 87.5 325 L 212.5 325 C 219.40625 325 225 330.59375 225 337.5 Z M 225 287.5 C 225 294.40625 219.40625 300 212.5 300 L 87.5 300 C 80.59375 300 75 294.40625 75 287.5 L 75 187.5 C 75 180.59375 80.59375 175 87.5 175 L 212.5 175 C 219.40625 175 225 180.59375 225 187.5 Z M 400 375 L 375 375 L 375 350 L 275 350 L 275 375 L 250 375 L 250 337.5 C 250 330.59375 255.59375 325 262.5 325 L 387.5 325 C 394.40625 325 400 330.59375 400 337.5 Z M 400 287.5 C 400 294.40625 394.40625 300 387.5 300 L 262.5 300 C 255.59375 300 250 294.40625 250 287.5 L 250 187.5 C 250 180.59375 255.59375 175 262.5 175 L 387.5 175 C 394.40625 175 400 180.59375 400 187.5 Z M 462.5 350 L 450 350 L 450 375 L 425 375 L 425 337.5 C 425 330.59375 430.59375 325 437.5 325 L 462.5 325 Z M 450 200 L 450 275 L 462.5 275 L 462.5 300 L 437.5 300 C 430.59375 300 425 294.40625 425 287.5 L 425 187.5 C 425 180.59375 430.59375 175 437.5 175 L 562.5 175 C 569.40625 175 575 180.59375 575 187.5 L 575 200 Z M 450 200 " style=" stroke:none;fill-rule:nonzero;fill:rgb(0%,0%,0%);fill-opacity:1;" />
<path d="M 271.800781 500 L 241.800781 600 L 408.199219 600 L 378.199219 500 Z M 271.800781 500 " style=" stroke:none;fill-rule:nonzero;fill:rgb(0%,0%,0%);fill-opacity:1;" />
<path d="M 100 200 L 200 200 L 200 275 L 100 275 Z M 100 200 " style=" stroke:none;fill-rule:nonzero;fill:rgb(0%,0%,0%);fill-opacity:1;" />
<path d="M 675 250 L 537.5 250 C 523.691406 250 512.5 261.191406 512.5 275 L 512.5 537.5 L 700 537.5 L 700 275 C 700 261.191406 688.808594 250 675 250 Z M 675 512.5 L 650 512.5 L 650 500 L 562.5 500 L 562.5 512.5 L 537.5 512.5 L 537.5 487.5 C 537.5 480.59375 543.09375 475 550 475 L 662.5 475 C 669.40625 475 675 480.59375 675 487.5 Z M 675 437.5 C 675 444.40625 669.40625 450 662.5 450 L 550 450 C 543.09375 450 537.5 444.40625 537.5 437.5 L 537.5 337.5 C 537.5 330.59375 543.09375 325 550 325 L 662.5 325 C 669.40625 325 675 330.59375 675 337.5 Z M 675 300 L 537.5 300 L 537.5 275 L 675 275 Z M 675 300 " style=" stroke:none;fill-rule:nonzero;fill:rgb(0%,0%,0%);fill-opacity:1;" />
<path d="M 562.5 350 L 650 350 L 650 425 L 562.5 425 Z M 562.5 350 " style=" stroke:none;fill-rule:nonzero;fill:rgb(0%,0%,0%);fill-opacity:1;" />
<path d="M 187.5 600 L 462.5 600 L 462.5 625 L 187.5 625 Z M 187.5 600 " style=" stroke:none;fill-rule:nonzero;fill:rgb(0%,0%,0%);fill-opacity:1;" />
</g>
</svg>