<svg id="Layer_1" enable-background="new 0 0 123.998 123.998" height="512" viewBox="0 0 123.998 123.998" width="512" xmlns="http://www.w3.org/2000/svg"><path d="m40.839 21.738c1.464-.296 2.965-.001 4.227.833 1.32.872 2.218 2.217 2.529 3.789.62 3.131-1.339 6.181-4.376 6.839-.008.239-.029.475-.044.713h80.823v-14.547h-84.772c.268.394 1.263 2.475 1.613 2.373zm74.496 1.713c1.392 0 2.52 1.119 2.52 2.498v.041c0 1.38-1.128 2.498-2.52 2.498-1.392 0-2.52-1.119-2.52-2.498v-.041c0-1.38 1.128-2.498 2.52-2.498zm-11.262 0c1.392 0 2.52 1.118 2.52 2.498v.041c0 1.38-1.128 2.498-2.52 2.498-1.392 0-2.52-1.118-2.52-2.498v-.041c0-1.38 1.128-2.498 2.52-2.498zm-11.262 0c1.392 0 2.52 1.118 2.52 2.498v.041c0 1.38-1.128 2.498-2.52 2.498-1.392 0-2.52-1.118-2.52-2.498v-.041c0-1.38 1.128-2.498 2.52-2.498z"/><path d="m42.508 38.132c-.063.247-.225.508.095.617 2.567 1.792 3.286 5.399 1.603 8.042-.844 1.325-2.147 2.22-3.669 2.522-1.39.272-2.801.021-4.013-.713-1.292 1.267-2.726 2.354-4.286 3.25.586 3.135-1.406 6.173-4.466 6.79-1.466.295-2.967-.001-4.228-.834-1.034-.684-1.809-1.658-2.246-2.804v31.237c7.42-2.447 14.849-4.903 22.282-7.364.402-.134.832-.145 1.24-.034 10.946 2.989 21.854 5.934 32.801 8.881 4.449.968 8.142 5.377 7.007 10.008 7.03-1.422 14.061-2.838 21.088-4.273 4.336-1.085 8.895 1.674 10.07 6.163.37 1.439.363 2.938.01 4.351h8.203v-65.839zm17.66 28.231-5.87 6.127c-.826.863-2.26.863-3.087 0l-3.072-3.207c-.81-.845-.775-2.18.077-2.983.853-.803 2.199-.769 3.01.077l1.528 1.595 4.326-4.515c.809-.845 2.156-.879 3.01-.077.853.803.887 2.139.078 2.983zm0-16.737-5.87 6.127c-.826.863-2.26.863-3.087 0l-3.072-3.207c-.81-.845-.775-2.18.077-2.983.853-.803 2.199-.769 3.01.077l1.528 1.595 4.326-4.515c.809-.845 2.156-.879 3.01-.077.853.803.887 2.138.078 2.983zm40.399 21.557h-30.473c-1.176 0-2.129-.945-2.129-2.11s.953-2.11 2.129-2.11h30.473c1.176 0 2.129.945 2.129 2.11s-.953 2.11-2.129 2.11zm0-17.836h-30.473c-1.176 0-2.129-.945-2.129-2.11s.953-2.11 2.129-2.11h30.473c1.176 0 2.129.945 2.129 2.11s-.953 2.11-2.129 2.11z"/><path d="m30.878 104.151 23.162 8.148c2.779 1.191 5.411 2.212 8.421 2.699 15.55-2.973 31.058-5.946 46.61-8.96 2.029-.814 3.163-3.139 2.591-5.364-.597-2.282-2.795-3.646-4.999-3.1-4.806.984-9.522 1.937-14.239 2.889-4.144.838-8.426 1.46-12.484 2.626-1.751.503-3.62.146-5.393-.022-2.156-.205-4.324-.297-6.468-.612l-16.131-3.247c-2.749-.553-2.038-4.72.726-4.16l16.142 3.249c2.699.25 8.766.824 9.102.799 1.234-.089 2.158-1.023 2.522-2.194.761-2.45-1.665-4.605-3.834-5.079-10.842-2.915-21.55-5.806-32.291-8.737 0 0-20.36 6.74-30.336 10.018l-.461 17.073z"/><ellipse cx="22.003" cy="32.032" rx="7.559" ry="7.494"/><path d="m43.989 27.372c-.105-1.041-.765-1.857-1.881-1.975-1.29-.136-3.411 1.161-4.116-.532-.977-2.353-2.386-4.452-4.188-6.237-1.035-1.024.106-2.215.621-3.19.595-1.126.638-2.41-.522-3.209-2.724-1.876-3.119 3.734-5.57 2.646-2.235-.991-4.649-1.494-7.196-1.496-2.501.081-1.021-4.432-3.83-4.379-3.587.068-.211 4.708-2.565 5.672-2.36.97-4.45 2.427-6.211 4.333-1.657 1.801-4.091-2.307-5.62.249-.632 1.056-.291 2.096.524 2.913.715.716 1.965 1.375 1.489 2.567-1.01 2.529-1.464 5.207-1.349 7.959.06 1.461-1.384 1.48-2.344 1.958-.819.408-1.306 1.146-1.223 2.068.094 1.04.802 1.804 1.842 1.926 1.127.132 2.618-.625 3.216.818 1.055 2.54 2.596 4.769 4.581 6.624.742.692.416 1.545.032 2.344-.566 1.177-.851 2.571.442 3.397 2.561 1.635 2.878-3.071 5.194-2.127 2.406.965 4.92 1.377 7.474 1.221 2.443-.192 1.242 3.944 3.665 4.138 1.674.135 2.241-1.403 2.059-2.791-.138-1.049-.601-2.393.625-2.973 2.258-1.069 4.234-2.587 5.874-4.514 1.753-2.042 4.188 2.656 5.979.134.825-1.163.37-2.359-.612-3.195-.849-.722-2.509-1.364-2.012-2.746.865-2.403 1.24-4.92 1.115-7.481-.069-1.412 1.419-1.601 2.491-1.819 1.235-.25 2.022-1.003 2.016-2.303-.105-1.041.006 1.3 0 0zm-10.383 4.66c0 6.342-5.205 11.502-11.603 11.502s-11.603-5.16-11.603-11.502 5.205-11.502 11.603-11.502 11.603 5.16 11.603 11.502z"/></svg>