<svg id="Layer_1" enable-background="new 0 0 124 124" height="512" viewBox="0 0 124 124" width="512" xmlns="http://www.w3.org/2000/svg"><path d="m75.813 2.805v13.335h14.688z"/><path d="m93.069 66.93v-46.502h-19.285c-1.181 0-2.138-.958-2.138-2.14v-17.288h-71.646v122h93.069v-9.218c-9.419-3.916-15.645-13.144-15.645-23.426s6.226-19.51 15.645-23.426zm-80.254-46.748h33.719c1.181 0 2.138.958 2.138 2.14s-.957 2.14-2.138 2.14h-33.719c-1.181 0-2.138-.958-2.138-2.14s.957-2.14 2.138-2.14zm58.407 83.372h-58.407c-1.181 0-2.138-.958-2.138-2.14s.957-2.14 2.138-2.14h58.407c1.181 0 2.138.958 2.138 2.14s-.957 2.14-2.138 2.14zm0-26.364h-58.407c-1.181 0-2.138-.958-2.138-2.14s.957-2.14 2.138-2.14h58.407c1.181 0 2.138.958 2.138 2.14s-.957 2.14-2.138 2.14zm0-26.363h-58.407c-1.181 0-2.138-.958-2.138-2.14s.957-2.14 2.138-2.14h58.407c1.181 0 2.138.958 2.138 2.14s-.957 2.14-2.138 2.14z"/><path d="m102.85 69.258c-11.663 0-21.151 9.464-21.151 21.098s9.488 21.098 21.151 21.098c11.662 0 21.15-9.464 21.15-21.098s-9.488-21.098-21.15-21.098zm13.798 14.23-17.773 17.735c-.822.821-2.197.821-3.019 0l-5.566-5.555c-.836-.834-.838-2.189-.004-3.027.833-.837 2.186-.84 3.023-.004l4.057 4.048 16.263-16.228c.836-.836 2.189-.832 3.023.004.834.838.832 2.193-.004 3.027z"/></svg>