<svg id="Capa_1" enable-background="new 0 0 512 512" height="512" viewBox="0 0 512 512" width="512" xmlns="http://www.w3.org/2000/svg"><path d="m486.096 418.107h-125.5c-5.315 0-9.623 4.304-9.623 9.614 0 12.332-10.007 22.329-22.35 22.329h-145.246c-12.344 0-22.35-9.997-22.35-22.329 0-5.31-4.308-9.614-9.623-9.614h-125.5c-14.307 0-25.904 11.586-25.904 25.879 0 30.107 24.43 54.514 54.567 54.514h402.866c30.136 0 54.567-24.407 54.567-54.514 0-14.293-11.597-25.879-25.904-25.879z"/><path d="m312.346 270.732 6.58 28.603 26.241-13.145 54.306-115.308-32.822-15.458z"/><path d="m447.28 13.5h-382.56c-35.69 0-64.72 29.02-64.72 64.67v245.31c0 35.67 29.03 64.67 64.72 64.67h106.43c8.22 0 14.88 6.66 14.88 14.88 0 4.45 1.81 8.48 4.72 11.4 2.92 2.91 6.95 4.72 11.4 4.72h107.75c8.91 0 16.13-7.22 16.13-16.12 0-4.11 1.67-7.83 4.36-10.52s6.41-4.36 10.51-4.36h106.38c35.69 0 64.72-29 64.72-64.67v-245.31c0-35.65-29.03-64.67-64.72-64.67zm-211.053 307.792c0 8.284-6.716 15-15 15h-145.287c-8.284 0-15-6.716-15-15v-117.178c0-8.284 6.716-15 15-15h145.287c8.284 0 15 6.716 15 15zm-175.287-181.903c0-8.284 6.716-15 15-15h140.834c8.284 0 15 6.716 15 15s-6.716 15-15 15h-140.834c-8.284 0-15-6.716-15-15zm200.834-35h-185.834c-8.284 0-15-6.716-15-15s6.716-15 15-15h185.834c8.284 0 15 6.716 15 15s-6.716 15-15 15zm184.701 37.102-76.378 162.176c-1.433 3.042-3.846 5.514-6.852 7.02l-47.941 24.016c-2.113 1.059-4.415 1.589-6.719 1.589-2.183 0-4.365-.476-6.391-1.43-4.163-1.96-7.196-5.723-8.228-10.208l-12.021-52.256c-.754-3.277-.385-6.712 1.048-9.754l76.379-162.176c5.479-11.633 15.159-20.436 27.26-24.788 12.099-4.352 25.169-3.73 36.803 1.748h-.001c24.015 11.311 34.351 40.049 23.041 64.063z"/><path d="m410.653 104.57c-4.383-2.064-9.31-2.298-13.868-.659-4.56 1.64-8.207 4.957-10.271 9.34l-7.08 15.032 32.821 15.458 7.08-15.032c4.261-9.048.366-19.877-8.682-24.139z"/><path d="m90.94 219.114h115.287v87.179h-115.287z"/></svg>