<svg height="464pt" viewBox="0 0 464 464" width="464pt" xmlns="http://www.w3.org/2000/svg"><path d="m208 176h144v16h-144zm0 0"/><path d="m80 96h64v32h-64zm0 0"/><path d="m368 0h-320v48h320zm-288 32h-16v-16h16zm32 0h-16v-16h16zm32 0h-16v-16h16zm0 0"/><path d="m368 176h16v48h-16zm0 0"/><path d="m200 96h64v32h-64zm0 0"/><path d="m368 240h-169.457031l-57.863281-21.695312c-7.582032-2.855469-12.679688-10.207032-12.679688-18.304688s5.097656-15.449219 12.679688-18.296875l57.863281-21.703125h169.457031v-96h-320v256h320zm-184-160h96v64h-96zm-120 0h96v64h-96zm0 80h56v16h-56zm0 32h48v16h-48zm0 32h56v16h-56zm256 80h-256v-16h256zm32 0h-16v-16h16zm0-32h-288v-16h288zm0 0"/><path d="m440 128h-56v32h24c22.054688 0 40 17.945312 40 40s-17.945312 40-40 40h-24v96h-352v-208h-8c-13.230469 0-24 10.769531-24 24v216h464v-216c0-13.230469-10.769531-24-24-24zm0 0"/><path d="m0 392c0 13.230469 10.769531 24 24 24h416c13.230469 0 24-10.769531 24-24v-8h-464zm0 0"/><path d="m432 200c0-13.230469-10.769531-24-24-24h-8v48h8c13.230469 0 24-10.761719 24-24zm0 0"/><path d="m320 432h-176v16h-32v16h240v-16h-32zm0 0"/><path d="m144 200c0 1.472656.929688 2.808594 2.304688 3.328125l45.695312 17.128906v-40.914062l-45.695312 17.136719c-1.375.519531-2.304688 1.855468-2.304688 3.320312zm0 0"/><path d="m208 208h144v16h-144zm0 0"/></svg>