<svg height="464pt" viewBox="0 0 464 464" width="464pt" xmlns="http://www.w3.org/2000/svg"><path d="m256 203.3125-20.6875 20.6875h20.6875zm0 0"/><path d="m112 288h144v16h-144zm0 0"/><path d="m80 288h16v48h-16zm0 0"/><path d="m32 312c0 13.230469 10.769531 24 24 24h8v-48h-8c-13.230469 0-24 10.769531-24 24zm0 0"/><path d="m416 0h-416v48h416zm-384 32h-16v-16h16zm32 0h-16v-16h16zm32 0h-16v-16h16zm0 0"/><path d="m16 312c0-22.054688 17.945312-40 40-40h152v-43.3125l52.6875-52.6875h155.3125v-112h-416v304h208v-16h-152c-22.054688 0-40-17.945312-40-40zm0-232h176v80h-176zm0 96h176v80h-176zm0 0"/><path d="m32 96h144v48h-144zm0 0"/><path d="m32 192h144v48h-144zm0 0"/><path d="m112 320h144v16h-144zm0 0"/><path d="m320 312c0-1.472656-.929688-2.808594-2.304688-3.328125l-45.695312-17.128906v40.914062l45.695312-17.136719c1.375-.511718 2.304688-1.847656 2.304688-3.320312zm0 0"/><path d="m272 192v48h-48v32h41.457031l57.863281 21.695312c7.582032 2.863282 12.679688 10.214844 12.679688 18.304688s-5.097656 15.449219-12.679688 18.296875l-57.863281 21.703125h-41.457031v112h240v-272zm144 256h-176v-16h176zm32 0h-16v-16h16zm0-32h-208v-16h208zm0-32h-208v-16h208zm0-32h-96v-16h96zm0-32h-96v-16h96zm0-32h-96v-16h96zm0-32h-160v-16h160zm0-32h-160v-16h160zm0 0"/></svg>