<svg height="464pt" viewBox="0 0 464 464" width="464pt" xmlns="http://www.w3.org/2000/svg"><path d="m0 392c0 13.230469 10.769531 24 24 24h416c13.230469 0 24-10.769531 24-24v-8h-464zm0 0"/><path d="m320 432h-176v16h-32v16h240v-16h-32zm0 0"/><path d="m232 304c83.816406 0 152-68.183594 152-152s-68.183594-152-152-152-152 68.183594-152 152 68.183594 152 152 152zm43-213.0625 10-12.496094 87.808594 70.246094-87.808594 70.25-10-12.496094 72.191406-57.753906zm-22.265625-28.144531 15.160156 5.144531-56.621093 166.636719-15.160157-5.140625zm-73.734375 15.640625 10 12.496094-72.191406 57.75 72.191406 57.753906-10 12.496094-87.808594-70.25zm0 0"/><path d="m440 128h-41.921875c1.136719 7.863281 1.921875 15.832031 1.921875 24 0 92.632812-75.367188 168-168 168s-168-75.367188-168-168c0-8.167969.785156-16.136719 1.921875-24h-41.921875c-13.230469 0-24 10.769531-24 24v216h464v-216c0-13.230469-10.769531-24-24-24zm-344 224h-80v-16h80zm0-32h-80v-16h80zm0-32h-80v-16h80zm352 64h-80v-16h80zm0-32h-80v-16h80zm0-32h-80v-16h80zm0 0"/></svg>