<svg height="464pt" viewBox="0 0 464 464" width="464pt" xmlns="http://www.w3.org/2000/svg"><path d="m136 176.070312v2.65625c0 16.144532 13.136719 29.273438 29.273438 29.273438h133.453124c16.144532 0 29.273438-13.136719 29.273438-29.273438v-2.65625c0-4.199218-.878906-8.277343-2.625-12.109374l-66.726562-146.800782c-4.738282-10.425781-15.191407-17.160156-26.648438-17.160156s-21.910156 6.734375-26.648438 17.160156l-66.726562 146.808594c-1.746094 3.824219-2.625 7.902344-2.625 12.101562zm95.238281-160.070312h1.515625c12.8125 0 23.246094 10.433594 23.246094 23.246094 0 .800781-.039062 1.578125-.128906 2.378906l-7.117188 71.214844c-.867187 8.648437-8.074218 15.167968-16.761718 15.167968s-15.886719-6.511718-16.761719-15.167968l-7.125-71.28125c-.066407-.734375-.105469-1.519532-.105469-2.3125 0-12.8125 10.433594-23.246094 23.238281-23.246094zm.761719 128c13.230469 0 24 10.769531 24 24s-10.769531 24-24 24-24-10.769531-24-24 10.769531-24 24-24zm0 0"/><path d="m240 168c0 4.417969-3.582031 8-8 8s-8-3.582031-8-8 3.582031-8 8-8 8 3.582031 8 8zm0 0"/><path d="m376 384h-288c-4.414062 0-8 3.585938-8 8v8h304v-8c0-4.40625-3.585938-8-8-8zm0 0"/><path d="m0 440c0 13.230469 10.769531 24 24 24h416c13.230469 0 24-10.769531 24-24v-24h-464zm96-8h16v16h-16zm-32 0h16v16h-16zm-32 0h16v16h-16zm0 0"/><path d="m124.0625 157.335938 13.335938-29.335938h-89.398438v112h368v-112h-89.398438l13.335938 29.335938c2.695312 5.929687 4.0625 12.230468 4.0625 18.734374v2.65625c0 24.960938-20.3125 45.273438-45.273438 45.273438h-133.453124c-24.960938 0-45.273438-20.3125-45.273438-45.273438v-2.65625c0-6.503906 1.367188-12.804687 4.0625-18.734374zm0 0"/><path d="m440 96h-127.945312l7.273437 16h112.671875v144h-400v-144h112.671875l7.273437-16h-127.945312c-13.230469 0-24 10.769531-24 24v152h464v-152c0-13.230469-10.769531-24-24-24zm0 0"/><path d="m0 400h64v-8c0-13.230469 10.769531-24 24-24h288c13.230469 0 24 10.769531 24 24v8h64v-112h-464zm416-96h16v16h-16zm0 32h16v16h-16zm0 32h16v16h-16zm-32-64h16v16h-16zm0 32h16v16h-16zm-32-32h16v16h-16zm0 32h16v16h-16zm-32-32h16v16h-16zm0 32h16v16h-16zm-32-32h16v16h-16zm0 32h16v16h-16zm-32-32h16v16h-16zm0 32h16v16h-16zm-32-32h16v16h-16zm0 32h16v16h-16zm-32-32h16v16h-16zm0 32h16v16h-16zm-32-32h16v16h-16zm0 32h16v16h-16zm-32-32h16v16h-16zm0 32h16v16h-16zm-32-32h16v16h-16zm0 32h16v16h-16zm-32-32h16v16h-16zm0 32h16v16h-16zm-32-32h16v16h-16zm0 32h16v16h-16zm0 32h16v16h-16zm0 0"/><path d="m232.832031 111.246094 7.128907-71.277344c.039062-4.710938-3.207032-7.960938-7.199219-7.960938h-1.515625c-4-.007812-7.246094 3.25-7.246094 7.238282l7.167969 72c.070312.859375 1.59375.859375 1.664062 0zm0 0"/></svg>