<svg id="Layer_3" enable-background="new 0 0 64 64" height="512" viewBox="0 0 64 64" width="512" xmlns="http://www.w3.org/2000/svg"><path d="m60 47c.552 0 1-.448 1-1v-5h-58v5c0 .552.448 1 1 1zm-3-4h2v2h-2zm-4 0h2v2h-2zm-48 0h4v2h-4z"/><path d="m27 49h10v6h-10z"/><path d="m22 57c-.552 0-1 .448-1 1v3h22v-3c0-.552-.448-1-1-1z"/><path d="m25.229 13.749c.157.607.389 1.182.688 1.707.223.392.156.884-.162 1.202l-1.341 1.342 1.586 1.586 1.342-1.342c.318-.319.81-.385 1.202-.162.525.3 1.1.531 1.707.688.44.115.749.512.749.968v1.262h2v-1.262c0-.456.309-.854.749-.968.607-.157 1.182-.389 1.707-.688.392-.223.883-.157 1.202.162l1.342 1.342 1.586-1.586-1.342-1.342c-.318-.318-.385-.811-.162-1.202.3-.525.531-1.1.688-1.707.115-.44.512-.749.968-.749h1.262v-2h-1.262c-.456 0-.854-.309-.968-.749-.157-.607-.389-1.182-.688-1.707-.223-.392-.156-.884.162-1.202l1.342-1.342-1.586-1.586-1.342 1.342c-.319.318-.811.383-1.202.162-.525-.3-1.1-.531-1.707-.688-.44-.115-.749-.512-.749-.968v-1.262h-2v1.262c0 .456-.309.854-.749.968-.607.157-1.182.389-1.707.688-.393.221-.884.156-1.202-.162l-1.342-1.342-1.586 1.586 1.342 1.342c.318.318.385.811.162 1.202-.3.525-.531 1.1-.688 1.707-.115.44-.512.749-.968.749h-1.262v2h1.262c.456 0 .853.309.967.749zm6.771-6.749c2.757 0 5 2.243 5 5s-2.243 5-5 5-5-2.243-5-5 2.243-5 5-5z"/><circle cx="32" cy="12" r="3"/><path d="m7 33h24v2h-24z"/><path d="m60 13h-17v1c0 .553-.447 1-1 1h-1.521c-.091.259-.193.512-.307.758l1.535 1.535c.391.391.391 1.023 0 1.414l-3 3c-.391.391-1.023.391-1.414 0l-1.535-1.535c-.246.113-.499.216-.758.307v1.521c0 .553-.447 1-1 1h-4c-.553 0-1-.447-1-1v-1.521c-.259-.091-.512-.193-.758-.307l-1.535 1.535c-.391.391-1.023.391-1.414 0l-3-3c-.391-.391-.391-1.023 0-1.414l1.535-1.535c-.113-.246-.216-.499-.307-.758h-1.521c-.553 0-1-.447-1-1v-1h-17c-.552 0-1 .448-1 1v25h58v-25c0-.552-.448-1-1-1zm-27 23c0 .553-.447 1-1 1h-26c-.553 0-1-.447-1-1v-4c0-.553.447-1 1-1h26c.553 0 1 .447 1 1zm26 1h-24v-2h24zm0-4h-24v-2h24zm0-5c0 .553-.447 1-1 1h-52c-.553 0-1-.447-1-1v-12c0-.553.447-1 1-1h14v2h-13v10h50v-10h-13v-2h14c.553 0 1 .447 1 1z"/></svg>