<svg height="512pt" viewBox="-30 0 512 512" width="512pt" xmlns="http://www.w3.org/2000/svg"><path d="m363.488281 101.648438h-86.597656c-8.316406 0-15.058594-6.742188-15.058594-15.058594v-86.589844h-158.117187c-8.316406 0-15.058594 6.742188-15.058594 15.058594v319.628906h274.832031zm-188.132812 144.601562c5.238281 6.457031 4.265625 15.933594-2.1875 21.183594-6.441407 5.238281-15.917969 4.277344-21.183594-2.175782l-39.242187-48.261718c-4.5-5.53125-4.5-13.472656 0-19.003906l39.242187-48.257813c5.25-6.453125 14.738281-7.429687 21.183594-2.179687 6.453125 5.242187 7.425781 14.730468 2.1875 21.183593-14.84375 18.25-7.921875 9.742188-31.523438 38.753907 24.804688 30.503906 16.972657 20.867187 31.523438 38.757812zm77.191406-83.425781-23.703125 96.519531c-1.933594 7.882812-9.898438 13.042969-18.210938 11.03125-8.082031-1.988281-13.019531-10.136719-11.03125-18.210938l23.699219-96.515624c1.980469-8.082032 10.140625-13.019532 18.210938-11.035157 8.082031 1.980469 13.023437 10.140625 11.035156 18.210938zm86.859375 54.171875-39.242188 48.261718c-5.269531 6.453126-14.746093 7.410157-21.183593 2.175782-6.457031-5.25-7.429688-14.726563-2.1875-21.183594 14.550781-17.890625 6.714843-8.253906 31.519531-38.757812-23.589844-29-16.695312-20.527344-31.519531-38.753907-5.242188-6.453125-4.269531-15.941406 2.1875-21.183593 6.445312-5.25 15.929687-4.273438 21.183593 2.179687l39.242188 48.257813c4.496094 5.53125 4.496094 13.472656 0 19.003906zm0 0"/><path d="m291.949219 21.292969v50.238281h50.238281zm0 0"/><path d="m0 379.863281v117.078125c0 8.316406 6.742188 15.058594 15.058594 15.058594h422.027344c8.316406 0 15.058593-6.742188 15.058593-15.058594v-117.078125c0-8.316406-6.742187-15.058593-15.058593-15.058593h-422.027344c-8.316406 0-15.058594 6.742187-15.058594 15.058593zm104.820312 102.582031c0 8.320313-6.738281 15.058594-15.058593 15.058594-8.3125 0-15.058594-6.738281-15.058594-15.058594v-28.984374h-23.695313v28.984374c0 8.320313-6.734374 15.058594-15.058593 15.058594-8.3125 0-15.058594-6.738281-15.058594-15.058594v-88.09375c0-8.3125 6.746094-15.058593 15.058594-15.058593 8.324219 0 15.058593 6.746093 15.058593 15.058593v28.992188h23.695313v-28.992188c0-8.3125 6.746094-15.058593 15.058594-15.058593 8.320312 0 15.058593 6.746093 15.058593 15.058593zm87.78125-71.621093h-13.875v70.214843c0 8.3125-6.746093 15.058594-15.058593 15.058594s-15.058594-6.746094-15.058594-15.058594v-70.214843h-9.816406c-8.3125 0-15.058594-6.746094-15.058594-15.058594 0-8.320313 6.746094-15.058594 15.058594-15.058594h53.808593c8.3125 0 15.058594 6.738281 15.058594 15.058594 0 8.3125-6.746094 15.058594-15.058594 15.058594zm135.972657 70.214843c0 8.3125-6.738281 15.058594-15.058594 15.058594-8.3125 0-15.058594-6.746094-15.058594-15.058594v-46.050781l-10.171875 11.304688c-5.984375 6.636719-16.402344 6.636719-22.386718 0l-10.179688-11.304688v46.050781c0 8.3125-6.734375 15.058594-15.058594 15.058594-8.3125 0-15.058594-6.746094-15.058594-15.058594v-85.273437c0-13.761719 17.046876-20.304687 26.253907-10.078125l25.238281 28.019531 25.238281-28.019531c9.1875-10.210938 26.242188-3.707031 26.242188 10.078125zm87.621093 16.464844h-51.78125c-8.324218 0-15.058593-6.738281-15.058593-15.058594v-88.09375c0-8.3125 6.734375-15.058593 15.058593-15.058593 8.3125 0 15.058594 6.746093 15.058594 15.058593v73.035157h36.722656c8.3125 0 15.058594 6.746093 15.058594 15.058593 0 8.320313-6.746094 15.058594-15.058594 15.058594zm0 0"/></svg>