<svg id="Capa_1" enable-background="new 0 0 511.81 511.81" height="512" viewBox="0 0 511.81 511.81" width="512" xmlns="http://www.w3.org/2000/svg"><path d="m284.353 8.8v112h112z"/><path d="m254.35 150.8v-150.79h-254.35v495.79h283.73c-12.81-13.3-22.94-28.62-30.12-45.6-7.83-18.52-11.8-38.16-11.8-58.4s3.97-39.88 11.8-58.4c7.56-17.86 18.37-33.9 32.13-47.67 13.77-13.76 29.81-24.57 47.67-32.13 18.52-7.83 38.16-11.8 58.4-11.8 4.81 0 9.59.23 14.33.68v-91.68zm-179.54-.33h120v30h-120zm120 210h-120v-30h120zm30-60h-150v-30h150zm76.33-60h-226.33v-30h226.33z"/><path d="m391.81 271.8c-66.27 0-120 53.73-120 120s53.73 120 120 120 120-53.73 120-120-53.73-120-120-120zm-12.69 164.76-42.63-43.87 21.52-20.91 22.6 23.26 47.22-42.1 19.96 22.39z"/></svg>