<svg height="448pt" viewBox="-26 0 448 448" width="448pt" xmlns="http://www.w3.org/2000/svg"><path d="m88 72v-61.726562l-75.535156 69.726562h67.535156c4.417969 0 8-3.582031 8-8zm0 0"/><path d="m392.679688 418.488281c1.820312-1.042969 3.140624-2.773437 3.671874-4.800781.558594-2.050781.269532-4.242188-.800781-6.078125l-52.109375-90.402344c-2.257812 1.519531-4.511718 2.929688-6.808594 4.257813-2.296874 1.328125-4.664062 2.574218-7.082031 3.75l37.378907 64.671875c.039062.074219.054687.152343.09375.226562l14.703124 25.460938c1.066407 1.84375 2.816407 3.183593 4.871094 3.730469 2.058594.546874 4.246094.253906 6.082032-.816407zm0 0"/><path d="m350.59375 207.679688c-.589844-2.4375-1.304688-4.839844-2.144531-7.199219-.144531-.425781-.289063-.839844-.449219-1.257813-.875-2.359375-1.875-4.671875-3-6.925781l-.136719-.296875-.054687-.128906c-.640625-1.328125-1.257813-2.398438-1.863282-3.511719-9.511718-16.527344-25.238281-28.570313-43.671874-33.449219-6.121094-1.640625-12.433594-2.476562-18.769532-2.476562-35.425781.046875-65.554687 25.859375-71.035156 60.863281-5.480469 35 15.316406 68.785156 49.035156 79.660156s70.335938-4.398437 86.335938-36.003906v-.050781c1.167968-2.339844 2.203125-4.742188 3.105468-7.199219.175782-.445313.328126-.902344.488282-1.359375.839844-2.359375 1.558594-4.765625 2.152344-7.199219v-.121093c.589843-2.5625 1.046874-5.15625 1.359374-7.765626v-17.65625c-.3125-2.585937-.761718-5.152343-1.34375-7.691406zm-23.609375 2.398437c-3.964844 1.945313-8.757813.308594-10.703125-3.652344l-.875-1.691406c-7.167969-12.488281-20.460938-20.199219-34.863281-20.222656-6.972657.011719-13.824219 1.851562-19.863281 5.34375-3.828126 2.210937-8.722657.898437-10.933594-2.929688-2.207032-3.832031-.894532-8.726562 2.933594-10.933593 26.78125-15.4375 61.007812-6.253907 76.464843 20.519531.398438.703125.800781 1.410156 1.152344 2.152343l.34375.710938c1.921875 3.957031.289063 8.726562-3.65625 10.671875zm0 0"/><path d="m0 440c0 4.417969 3.582031 8 8 8h336c4.417969 0 8-3.582031 8-8v-43.878906l-37.449219-64.839844c-.582031.191406-1.183593.304688-1.765625.480469-1.417968.421875-2.839844.796875-4.265625 1.160156-1.816406.460937-3.625.902344-5.457031 1.269531-1.414062.289063-2.832031.535156-4.253906.761719-1.839844.304687-3.679688.570313-5.519532.800781-1.425781.148438-2.847656.277344-4.273437.382813-1.839844.128906-3.6875.207031-5.527344.246093-.800781 0-1.601562.113282-2.34375.113282-.746093 0-1.695312-.0625-2.535156-.089844-.992187 0-1.976563-.046875-2.960937-.09375-2.121094-.105469-4.234376-.28125-6.34375-.503906-.730469-.082032-1.457032-.121094-2.183594-.214844-2.785156-.355469-5.550782-.808594-8.296875-1.363281-.6875-.132813-1.359375-.320313-2.039063-.46875-2.113281-.464844-4.199218-.984375-6.28125-1.601563-.902344-.257812-1.800781-.527344-2.695312-.800781-1.9375-.597656-3.851563-1.246094-5.746094-1.953125-.796875-.292969-1.597656-.574219-2.398438-.894531-5.285156-2.082031-10.40625-4.558594-15.320312-7.40625-.726562-.425781-1.433594-.875-2.144531-1.304688-1.765625-1.082031-3.503907-2.191406-5.207031-3.367187-.753907-.523438-1.503907-1.042969-2.25-1.601563-1.804688-1.3125-3.574219-2.6875-5.316407-4.113281-.488281-.398438-1-.796875-1.488281-1.199219-2.195312-1.855469-4.3125-3.796875-6.351562-5.824219-.472657-.464843-.90625-.960937-1.363282-1.421874-1.597656-1.601563-3.09375-3.273438-4.574218-4.984376-.617188-.722656-1.214844-1.457031-1.824219-2.191406-1.320313-1.601562-2.585938-3.273437-3.824219-4.96875-.527344-.730468-1.0625-1.441406-1.601562-2.175781-1.671876-2.402344-3.277344-4.90625-4.796876-7.488281-30.902343-53.558594-12.527343-122.03125 41.039063-152.921875 2.667969-1.519531 5.347656-2.921875 8.039063-4.207031.800781-.390626 1.65625-.703126 2.472656-1.070313 1.910156-.859375 3.824218-1.714844 5.757812-2.449219 1.019532-.390625 2.042969-.695312 3.058594-1.054687 1.765625-.617188 3.535156-1.25 5.320312-1.777344 1.109376-.328125 2.238282-.585937 3.359376-.878906 1.703124-.449219 3.414062-.898438 5.136718-1.265625 1.167969-.246094 2.34375-.433594 3.519532-.640625 1.679687-.296875 3.359374-.597657 5.039062-.800781 1.214844-.152344 2.398438-.253907 3.640625-.375 1.65625-.160157 3.3125-.320313 4.96875-.40625 1.230469-.066407 2.472656-.082032 3.710937-.105469 1.601563 0 3.257813-.046875 4.886719 0 1.257813 0 2.511719.105469 3.769531.175781 1.601563.097656 3.199219.207031 4.800782.375 1.269531.128906 2.542968.296875 3.808594.464844 1.597656.214844 3.125.457031 4.679687.746094 1.277344.230468 2.542969.488281 3.816406.796874 1.519531.335938 3.039063.699219 4.542969 1.097657 1.277344.335937 2.550781.6875 3.816406 1.070312 1.480469.449219 2.941406.9375 4.40625 1.441407 1.273438.441406 2.527344.894531 3.785156 1.382812 1.429688.5625 2.839844 1.160156 4.253907 1.777344 1.25.550781 2.488281 1.097656 3.722656 1.695312 1.382813.664063 2.734375 1.386719 4.09375 2.105469 1.226563.65625 2.402344 1.304687 3.640625 2.007813 1.328125.800781 2.625 1.597656 3.921875 2.398437 1.292969.800781 2.398437 1.511719 3.542969 2.320313 1.144531.808593 2.503906 1.824218 3.734375 2.769531 1.234375.941406 2.289062 1.695312 3.402343 2.605469.238282.195312.488282.363281.726563.5625v-130.304688c0-4.417969-3.582031-8-8-8h-240.015625v72c0 13.253906-10.746094 24-24 24h-80zm112-296h56c4.417969 0 8 3.582031 8 8s-3.582031 8-8 8h-56c-4.417969 0-8-3.582031-8-8s3.582031-8 8-8zm-64 0h32c4.417969 0 8 3.582031 8 8s-3.582031 8-8 8h-32c-4.417969 0-8-3.582031-8-8s3.582031-8 8-8zm0 48h104c4.417969 0 8 3.582031 8 8s-3.582031 8-8 8h-104c-4.417969 0-8-3.582031-8-8s3.582031-8 8-8zm0 48h104c4.417969 0 8 3.582031 8 8s-3.582031 8-8 8h-104c-4.417969 0-8-3.582031-8-8s3.582031-8 8-8zm0 48h120c4.417969 0 8 3.582031 8 8s-3.582031 8-8 8h-120c-4.417969 0-8-3.582031-8-8s3.582031-8 8-8zm0 48h168c4.417969 0 8 3.582031 8 8s-3.582031 8-8 8h-168c-4.417969 0-8-3.582031-8-8s3.582031-8 8-8zm0 0"/><path d="m363.785156 176.457031c-2.804687-4.894531-6.085937-9.5-9.800781-13.746093-2.246094-2.816407-4.71875-5.441407-7.390625-7.855469-2.144531-2.023438-4.378906-3.917969-6.65625-5.71875-.722656-.578125-1.472656-1.089844-2.210938-1.601563-1.597656-1.183594-3.199218-2.335937-4.796874-3.40625-.890626-.585937-1.792969-1.128906-2.699219-1.679687-1.554688-.949219-3.140625-1.855469-4.75-2.714844-.9375-.503906-1.871094-.992187-2.816407-1.453125-1.671874-.800781-3.367187-1.601562-5.078124-2.296875-.890626-.375-1.777344-.800781-2.683594-1.121094-2.039063-.800781-4.109375-1.480469-6.199219-2.128906-.574219-.175781-1.144531-.398437-1.726563-.558594-2.667968-.769531-5.359374-1.414062-8.082031-1.945312-.734375-.140625-1.480469-.222657-2.214843-.351563-1.992188-.335937-4-.640625-5.992188-.847656-1.03125-.109375-2.0625-.167969-3.085938-.238281-1.746093-.128907-3.488281-.21875-5.234374-.25-.941407 0-1.886719 0-2.832032 0-3.589844.027343-7.171875.261719-10.734375.695312-.441406.058594-.871093.152344-1.3125.21875-3.332031.480469-6.632812 1.132813-9.894531 1.957031-.699219.179688-1.386719.320313-2.074219.515626-3.503906.964843-6.949219 2.128906-10.320312 3.484374-.726563.289063-1.445313.617188-2.175781.929688-3.5625 1.492188-7.035157 3.195312-10.398438 5.097656-45.894531 26.476563-61.625 85.152344-35.128906 131.039063 23.769531 40.800781 73.574218 58.40625 117.703125 41.597656 9.265625-3.621094 17.933593-8.613281 25.710937-14.8125 1.898438-1.53125 3.785156-3.203125 5.53125-4.882813 2.640625-2.460937 5.132813-5.078124 7.460938-7.839843 26.128906-30.953125 30.078125-74.949219 9.890625-110.0625zm2.550782 28.3125c.699218 2.976563 1.230468 5.992188 1.601562 9.03125v.296875c.785156 6.675782.804688 13.421875.0625 20.101563v.121093c0 .324219-.023438.652344-.0625.976563-.398438 3.074219-.957031 6.121094-1.679688 9.136719-.066406.300781-.152343.597656-.234374.894531-.671876 2.75-1.472657 5.46875-2.398438 8.152344-.226562.640625-.433594 1.273437-.671875 1.910156-1.082031 2.917969-2.316406 5.773437-3.695313 8.5625l-.082031.207031c-14.960937 29.585938-45.246093 48.285156-78.398437 48.398438-7.71875-.003906-15.402344-1.019532-22.855469-3.023438-38.476563-10.292968-65.238281-45.144531-65.257813-84.96875-.019531-39.828125 26.714844-74.703125 65.179688-85.03125s79.070312 6.464844 99.003906 40.945313c.800782 1.488281 1.601563 2.902343 2.328125 4.390625v.113281c0 .078125.0625.160156.105469.238281 1.351562 2.714844 2.558594 5.496094 3.613281 8.335938.265625.714844.503907 1.425781.753907 2.144531.851562 2.453125 1.59375 4.941406 2.222656 7.464844.191406.535156.34375 1.0625.464844 1.632812zm0 0"/></svg>