<svg id="Capa_1" enable-background="new 0 0 511.651 511.651" height="512" viewBox="0 0 511.651 511.651" width="512" xmlns="http://www.w3.org/2000/svg"><path d="m439.712 450.14h65.962v44.234h-65.962z" transform="matrix(.707 -.707 .707 .707 -195.488 472.644)"/><path d="m459.161 412.085-103.791-103.783-46.633 46.632 103.784 103.791z"/><path d="m284.354 9.22v112h112z"/><path d="m258.562 346.781-48.122-134.565 136.08 46.268 59.62 58.16v-165.424h-151.786v-150.79h-254.354v495.79h406.14v-1.449zm-183.657-224.894h120v30h-120zm0 60h256.333v30h-256.333zm120 90h-120v-30h120z"/><path d="m278.748 279.158 14.236 49.087 36.079-35.984z"/></svg>