<svg id="Capa_1" enable-background="new 0 0 512 512" height="512" viewBox="0 0 512 512" width="512" xmlns="http://www.w3.org/2000/svg"><path d="m96.75 181.88c0 8.76-4.59 14.37-11.73 14.37h-7.39v-28.99h6.46c7.65 0 12.66 5.78 12.66 14.62z"/><path d="m153.28 167.77c-6.89 0-12.76 5.86-12.76 14.03 0 8.16 5.96 14.19 12.76 14.19s12.24-6.03 12.24-14.19c0-8.17-5.44-14.03-12.24-14.03zm0 0c-6.89 0-12.76 5.86-12.76 14.03 0 8.16 5.96 14.19 12.76 14.19s12.24-6.03 12.24-14.19c0-8.17-5.44-14.03-12.24-14.03zm0 0c-6.89 0-12.76 5.86-12.76 14.03 0 8.16 5.96 14.19 12.76 14.19s12.24-6.03 12.24-14.19c0-8.17-5.44-14.03-12.24-14.03zm0 0c-6.89 0-12.76 5.86-12.76 14.03 0 8.16 5.96 14.19 12.76 14.19s12.24-6.03 12.24-14.19c0-8.17-5.44-14.03-12.24-14.03zm-153.28-70.17v165.84h299v-165.84zm83.75 113.95h-25.85v-59.59h26.61c19.64 0 32.39 11.64 32.39 29.75s-13.01 29.84-33.15 29.84zm69.27.85c-18.96 0-32.73-12.92-32.73-30.69 0-17.68 13.77-30.35 32.73-30.35s32.73 12.75 32.73 30.35c0 17.68-13.77 30.69-32.73 30.69zm68.68-17.26c4.25 0 9.61-2.63 13.52-6.8l11.39 12.16c-6.63 7.22-16.75 11.9-25.93 11.9-18.28 0-31.54-13.01-31.54-30.78 0-17.51 13.6-30.26 32.31-30.26 9.09 0 19.04 4.25 25.16 10.88l-11.39 13.52c-3.57-4.84-8.93-7.99-13.52-7.99-7.14 0-12.33 5.69-12.33 13.6 0 7.99 5.19 13.77 12.33 13.77zm-68.42-27.37c-6.89 0-12.76 5.86-12.76 14.03 0 8.16 5.96 14.19 12.76 14.19s12.24-6.03 12.24-14.19c0-8.17-5.44-14.03-12.24-14.03zm0 0c-6.89 0-12.76 5.86-12.76 14.03 0 8.16 5.96 14.19 12.76 14.19s12.24-6.03 12.24-14.19c0-8.17-5.44-14.03-12.24-14.03zm0 0c-6.89 0-12.76 5.86-12.76 14.03 0 8.16 5.96 14.19 12.76 14.19s12.24-6.03 12.24-14.19c0-8.17-5.44-14.03-12.24-14.03zm0 0c-6.89 0-12.76 5.86-12.76 14.03 0 8.16 5.96 14.19 12.76 14.19s12.24-6.03 12.24-14.19c0-8.17-5.44-14.03-12.24-14.03zm0 0c-6.89 0-12.76 5.86-12.76 14.03 0 8.16 5.96 14.19 12.76 14.19s12.24-6.03 12.24-14.19c0-8.17-5.44-14.03-12.24-14.03z"/><path d="m412 8.9v91.21h91.22z"/><path d="m382 130.11v-130h-262v67.49h209v225.84h-209v218.45h392v-381.78zm53 343.89h-239v-30h239zm0-60h-239v-30h239zm0-60h-239v-30h239z"/></svg>