<svg height="448pt" viewBox="-24 0 448 448.04306" width="448pt" xmlns="http://www.w3.org/2000/svg"><path d="m240.023438 375.441406c.03125-3.707031.296874-7.410156.796874-11.082031.128907-1 .289063-1.992187.457032-2.984375.449218-2.695312 1.03125-5.34375 1.71875-7.941406.242187-.929688.34375-1.875.609375-2.792969 8.390625-28.371094 30.566406-50.566406 58.929687-58.976563.941406-.273437 1.902344-.375 2.847656-.617187 2.578126-.6875 5.207032-1.261719 7.878907-1.71875 1.015625-.167969 2.03125-.335937 3.054687-.464844 3.59375-.488281 7.210938-.757812 10.832032-.800781h.328124l.546876-.0625c3.683593.023438 7.363281.277344 11.015624.761719.796876.09375 1.597657.246093 2.351563.367187 3.03125.460938 6.035156 1.085938 9 1.878906.542969.136719 1.09375.183594 1.597656.335938v-283.34375c0-4.417969-3.582031-8-8-8h-239.964843v72c0 13.253906-10.746094 24-24 24h-80.0000005v296c0 4.417969 3.5781245 8 8.0000005 8h235.34375c-.144532-.511719-.195313-1.054688-.328126-1.601562-.800781-3.007813-1.4375-6.058594-1.90625-9.132813-.109374-.738281-.246093-1.472656-.34375-2.21875-.484374-3.660156-.742187-7.351563-.765624-11.046875 0-.167969 0-.328125 0-.496094zm-120-231.441406h176c4.417968 0 8 3.582031 8 8s-3.582032 8-8 8h-176c-4.421876 0-8-3.582031-8-8s3.578124-8 8-8zm-64 0h32c4.417968 0 8 3.582031 8 8s-3.582032 8-8 8h-32c-4.421876 0-8-3.582031-8-8s3.578124-8 8-8zm0 48h240c4.417968 0 8 3.582031 8 8s-3.582032 8-8 8h-240c-4.421876 0-8-3.582031-8-8s3.578124-8 8-8zm0 48h240c4.417968 0 8 3.582031 8 8s-3.582032 8-8 8h-240c-4.421876 0-8-3.582031-8-8s3.578124-8 8-8zm168 112h-168c-4.421876 0-8-3.582031-8-8s3.578124-8 8-8h168c4.417968 0 8 3.582031 8 8s-3.582032 8-8 8zm-168-48c-4.421876 0-8-3.582031-8-8s3.578124-8 8-8h200c4.417968 0 8 3.582031 8 8s-3.582032 8-8 8zm0 0"/><path d="m356.820312 310.054688c-2.109374-.933594-4.253906-1.734376-6.398437-2.445313-.863281-.289063-1.753906-.511719-2.632813-.761719-1.253906-.367187-2.519531-.71875-3.792968-1.007812-1.140625-.265625-2.300782-.472656-3.460938-.671875s-2.097656-.359375-3.152344-.496094c-1.234374-.160156-2.472656-.289063-3.714843-.382813-1.046875-.082031-2.101563-.128906-3.199219-.160156-1.230469 0-2.472656-.089844-3.710938-.066406-1.097656 0-2.175781.097656-3.265624.167969-1.085938.074219-2.320313.113281-3.46875.242187-33.445313 3.769532-59.828126 30.179688-63.570313 63.625-.113281 1.054688-.152344 2.109375-.214844 3.199219-.082031 1.191406-.160156 2.398437-.183593 3.574219-.023438 1.175781 0 2.402344.0625 3.542968.0625 1.144532.089843 2.21875.167968 3.3125.082032 1.097657.222656 2.402344.382813 3.625.136719 1.074219.304687 2.136719.496093 3.199219.195313 1.066407.410157 2.3125.671876 3.457031.265624 1.144532.625 2.398438.96875 3.65625.265624.929688.503906 1.863282.800781 2.785157.710937 2.144531 1.503906 4.261719 2.398437 6.34375 12.882813 29.574219 43.863282 46.972656 75.820313 42.578125 31.957031-4.394532 57.09375-29.507813 61.511719-61.460938 4.421874-31.953125-12.949219-62.949218-42.515626-75.855468zm20.730469 43.722656-59.882812 59.878906c-3.121094 3.121094-8.1875 3.121094-11.308594 0l-25.9375-25.9375c-3.03125-3.136719-2.988281-8.128906.097656-11.214844 3.085938-3.085937 8.074219-3.128906 11.214844-.097656l20.289063 20.28125 54.222656-54.222656c3.136718-3.03125 8.128906-2.988282 11.214844.097656 3.085937 3.085938 3.128906 8.074219.097656 11.214844zm0 0"/><path d="m88.023438 72v-61.726562l-75.539063 69.726562h67.539063c4.417968 0 8-3.582031 8-8zm0 0"/></svg>