<svg id="Capa_1" enable-background="new 0 0 512 512" height="512" viewBox="0 0 512 512" width="512" xmlns="http://www.w3.org/2000/svg"><path d="m0 97.6v165.84h299v-165.84zm97.3 97.54c4.25 0 9.61-2.63 13.52-6.8l11.39 12.16c-6.63 7.22-16.75 11.9-25.93 11.9-18.27 0-31.53-13.01-31.53-30.78 0-17.51 13.6-30.26 32.3-30.26 9.1 0 19.04 4.25 25.16 10.88l-11.39 13.52c-3.57-4.84-8.93-7.99-13.52-7.99-7.14 0-12.32 5.69-12.32 13.6 0 7.99 5.18 13.77 12.32 13.77zm81.1-2.12c0 13.26-11.65 19.12-25.08 19.12-10.37 0-21.93-3.48-29.84-9.52l7.31-14.79c6.12 5.1 16.66 9.27 22.7 9.27 2.89 0 4.76-.94 4.76-3.06 0-7.74-30.86-2.64-30.86-23.55 0-11.9 10.03-19.38 25.5-19.38 9.44 0 19.21 2.8 25.93 7.05l-7.14 14.96c-6.04-3.31-15.3-6.97-20.49-6.97-2.21 0-3.65.68-3.65 2.47 0 7.48 30.86 2.8 30.86 24.4zm57.28 0c0 13.26-11.64 19.12-25.07 19.12-10.37 0-21.93-3.48-29.84-9.52l7.31-14.79c6.12 5.1 16.66 9.27 22.7 9.27 2.89 0 4.76-.94 4.76-3.06 0-7.74-30.86-2.64-30.86-23.55 0-11.9 10.03-19.38 25.5-19.38 9.44 0 19.21 2.8 25.93 7.05l-7.14 14.96c-6.04-3.31-15.3-6.97-20.49-6.97-2.21 0-3.65.68-3.65 2.47 0 7.48 30.85 2.8 30.85 24.4z"/><path d="m412 8.9v91.21h91.22z"/><path d="m382 130.11v-130h-262v67.49h209v225.84h-209v218.45h392v-381.78zm53 343.89h-239v-30h239zm0-60h-239v-30h239zm0-60h-239v-30h239z"/></svg>