<svg id="Capa_1" enable-background="new 0 0 512.81 512.81" height="512" viewBox="0 0 512.81 512.81" width="512" xmlns="http://www.w3.org/2000/svg"><path d="m284.353 9.465v112h112z"/><path d="m225.55 453.255 13.84-13.84h-19.58v-117.56h19.58l-13.84-13.84 21.21-21.22 40.71-40.71 21.22-21.21 13.84 13.84v-19.58h83.61v-67.67h-151.79v-150.79h-254.35v495.79h268.75l-21.99-21.99zm-150.74-302.12h120v30h-120zm0 60h179.33v30h-179.33zm90 150h-90v-30h90zm30-60h-120v-30h120z"/><path d="m512.81 409.415v-57.56h-27.8c-2.36-8.54-5.75-16.65-10.02-24.18l19.66-19.66-40.72-40.72-19.66 19.66c-1.75-.99-3.53-1.94-5.35-2.83-5.97-2.96-12.28-5.38-18.82-7.19v-27.8h-57.57v27.8c-6.54 1.81-12.84 4.23-18.83 7.19-1.81.89-3.6 1.84-5.35 2.83l-19.66-19.66-40.72 40.72 19.68 19.67c-2.54 4.48-4.78 9.17-6.65 14.01-1.29 3.31-2.42 6.69-3.37 10.16h-27.82v57.56h27.82c2.34 8.53 5.74 16.63 10.02 24.17l-19.68 19.67 40.72 40.72 19.66-19.66c7.55 4.26 15.65 7.66 24.18 10.02v27.8h57.57v-27.8c8.53-2.36 16.64-5.76 24.17-10.02l19.66 19.66 40.72-40.72-19.66-19.66c4.27-7.53 7.66-15.64 10.02-24.18zm-131.5 11.66c-21.8 0-39.47-17.67-39.47-39.47s17.67-39.47 39.47-39.47 39.47 17.67 39.47 39.47-17.67 39.47-39.47 39.47z"/></svg>