<svg id="Capa_1" enable-background="new 0 0 512 512" height="512" viewBox="0 0 512 512" width="512" xmlns="http://www.w3.org/2000/svg"><path d="m467 121c-24.814 0-45 20.186-45 45v60c0 19.53 12.578 36.024 30 42.237v95.526c-17.422 6.213-30 22.707-30 42.237v61c0 24.814 20.186 45 45 45s45-20.186 45-45v-61c0-19.53-12.578-36.024-30-42.237v-95.526c17.422-6.213 30-22.707 30-42.237v-60c0-24.814-20.186-45-45-45z"/><path d="m457.376 41.47-11.426-8.496c-1.802-1.348-45.897-32.974-99.95-32.974s-97.148 31.626-98.95 32.974l-11.426 8.496 52.35 79.53h117.052z"/><path d="m301 151h90v30h-90z"/><path d="m301 211h90v301h-90z"/><path d="m151 271h90v30h-90z"/><path d="m239.418 129.291-4.146-8.291h-78.545l-4.146 8.291c-17.386 34.772-20.061 75.071-8.47 111.709h103.777c11.591-36.638 8.916-76.937-8.47-111.709z"/><path d="m151 331h90v181h-90z"/><path d="m91 156.728-91-45v129.272h91z"/><path d="m0 271h91v30h-91z"/><path d="m0 331h91v181h-91z"/></svg>