<svg height="512pt" viewBox="0 0 512 512" width="512pt" xmlns="http://www.w3.org/2000/svg"><path d="m300 391c66.167969 0 122-53.832031 122-120s-55.832031-120-122-120-120 53.832031-120 120 53.832031 120 120 120zm0 0"/><path d="m180 361v30h30.929688c-11.777344-8.765625-22.164063-19.152344-30.929688-30.929688zm0 0"/><path d="m300 61c-58.796875 0-111.878906 24.230469-150 63.167969v116.832031h3.03125c13.941406-68.378906 74.535156-120 146.96875-120 82.703125 0 152 67.296875 152 150 0 49.238281-24.171875 92.632812-60.929688 120h83.128907c23.761719-34.03125 37.800781-75.347656 37.800781-120 0-115.980469-96.019531-210-212-210zm0 0"/><path d="m0 271h150v60h-150zm0 0"/><path d="m0 361h150v151h-150zm0 0"/><path d="m120 75c0-41.421875-33.578125-75-75-75h-15v151h90zm0 0"/><path d="m30 181h90v60h-90zm0 0"/><path d="m180 512h257c41.421875 0 75-34.578125 75-76v-15h-332zm0 0"/></svg>